<?xml version="1.0" standalone="no"?>
<!DOCTYPE svg PUBLIC "-//W3C//DTD SVG 20010904//EN"
 "http://www.w3.org/TR/2001/REC-SVG-20010904/DTD/svg10.dtd">
<svg version="1.0" xmlns="http://www.w3.org/2000/svg"
 width="1600.000000pt" height="1066.000000pt" viewBox="0 0 1600.000000 1066.000000"
 preserveAspectRatio="xMidYMid meet">

<g transform="translate(0.000000,1066.000000) scale(0.100000,-0.100000)"
fill="#000000" stroke="none">
<path d="M2 8943 l3 -1718 32 2 c27 3 31 0 26 -14 -5 -12 -2 -15 9 -10 12 4
14 1 10 -15 -4 -18 -6 -18 -14 -4 -12 22 -42 21 -34 0 4 -9 1 -23 -5 -31 -10
-12 -6 -13 24 -10 20 2 34 0 31 -4 -3 -5 -12 -9 -19 -9 -9 0 -12 -6 -8 -16 4
-10 1 -15 -8 -13 -19 3 -49 -11 -49 -23 0 -5 9 -6 21 -3 20 7 20 6 3 -20 -10
-15 -18 -38 -19 -52 -1 -20 3 -24 22 -20 12 2 20 0 17 -4 -3 -5 -14 -9 -25 -9
-14 0 -19 -7 -19 -25 0 -14 4 -25 9 -25 6 0 22 -11 36 -24 20 -19 24 -28 17
-46 -6 -16 -11 -19 -16 -12 -4 7 -15 12 -24 12 -13 0 -17 -10 -18 -48 -1 -26
0 -41 3 -34 3 6 9 9 15 6 5 -3 2 -14 -8 -25 -16 -18 -16 -19 7 -19 26 -1 59
-21 59 -37 0 -6 7 -16 15 -23 17 -14 20 -40 5 -40 -5 0 -10 5 -10 12 0 15 -60
68 -77 68 -18 0 -16 -10 5 -26 16 -13 16 -13 -2 -14 -15 0 -16 -2 -6 -15 9
-11 16 -13 24 -5 17 17 39 12 31 -7 -4 -10 -9 -24 -12 -30 -3 -7 2 -13 11 -13
9 0 16 -6 16 -14 0 -9 -11 -12 -34 -11 -33 3 -33 2 -18 -15 8 -11 19 -17 23
-14 4 2 5 -5 2 -16 -3 -11 -9 -20 -14 -20 -5 0 -9 -8 -9 -17 0 -15 -2 -16 -10
-3 -5 8 -12 11 -16 8 -3 -4 1 -14 9 -22 12 -12 17 -13 21 -3 4 6 4 -3 1 -21
-3 -22 -1 -31 6 -26 6 3 10 -1 9 -12 -1 -11 -2 -32 -1 -47 1 -23 5 -27 20 -22
15 5 18 1 15 -22 -2 -16 -1 -20 2 -10 8 26 24 20 24 -9 0 -19 -4 -25 -15 -20
-18 6 -19 -11 -5 -50 9 -22 7 -29 -10 -44 -18 -15 -18 -19 -5 -24 12 -4 14
-12 9 -28 -9 -30 -8 -30 -28 -22 -9 3 -16 14 -16 24 0 10 -6 20 -14 23 -8 3
-16 18 -19 34 -3 23 -4 21 -6 -10 -1 -32 5 -45 31 -70 l33 -30 -27 7 c-37 8
-35 3 4 -22 21 -14 35 -17 39 -10 4 7 13 7 28 -1 24 -14 28 -36 6 -45 -8 -3
-15 -1 -15 5 0 6 -4 8 -10 4 -5 -3 -6 -13 -3 -23 4 -9 -7 -1 -25 18 -17 19
-32 30 -32 24 0 -14 46 -64 59 -64 5 0 16 6 23 13 7 7 21 16 30 20 13 4 15 2
11 -10 -5 -12 -3 -14 7 -8 9 6 11 4 6 -4 -5 -7 -14 -10 -22 -7 -16 6 -74 -40
-74 -58 0 -6 5 -4 10 4 9 13 10 13 10 0 0 -8 7 -27 14 -42 17 -32 2 -39 -21
-10 -13 16 -14 15 -10 -5 7 -30 -23 -32 -30 -2 -4 13 -11 18 -21 14 -11 -4
-13 1 -10 20 3 14 1 28 -4 31 -12 8 -6 -89 7 -98 6 -5 5 -8 -2 -8 -7 0 -13
-12 -13 -27 0 -24 4 -28 30 -29 16 -1 27 3 24 7 -3 5 2 9 10 9 9 0 16 -7 16
-15 0 -9 -14 -17 -39 -21 l-38 -6 -2 -171 c-1 -129 1 -172 11 -179 10 -6 10
-8 1 -8 -9 0 -13 -24 -13 -84 0 -58 4 -86 13 -89 9 -4 9 -6 0 -6 -10 -1 -13
-537 -13 -2606 l0 -2605 7620 0 c5073 0 7620 3 7620 10 0 6 6 10 14 10 8 0 16
5 18 12 3 9 6 9 12 0 4 -7 2 -12 -3 -12 -6 0 -11 -4 -11 -10 0 -5 20 -10 45
-10 51 0 59 13 18 29 -16 6 -19 9 -8 7 11 -2 27 -7 36 -10 12 -5 15 -1 13 16
-4 34 -4 34 -13 19 -8 -12 -12 -12 -26 2 -15 16 -15 17 5 17 15 0 22 8 27 31
4 19 10 28 19 25 19 -7 28 12 14 29 -10 12 -9 15 7 15 13 0 24 12 33 35 8 19
21 35 29 35 14 0 14 1 1 10 -12 8 -11 10 8 10 12 0 25 -7 29 -15 5 -14 8 -14
24 1 23 21 24 32 3 36 -12 2 -8 9 16 26 25 19 34 21 46 11 8 -6 17 -9 21 -5 3
3 1 6 -5 6 -7 0 -12 11 -12 25 0 17 -6 25 -17 26 -13 0 -11 3 7 10 14 6 38 9
55 9 49 -3 62 2 30 10 -25 6 -26 8 -7 9 13 0 20 5 17 11 -4 7 3 7 20 0 33 -13
44 -13 25 0 -11 8 -12 12 -3 18 9 6 8 12 -7 22 -18 13 -18 15 10 42 30 29 38
48 20 48 -5 0 -10 4 -10 8 0 5 15 9 32 10 18 0 34 5 36 11 2 5 10 7 18 4 8 -3
14 1 14 11 0 10 -6 13 -15 10 -10 -4 -15 0 -15 16 0 17 -4 20 -20 15 -14 -4
-20 -2 -20 8 0 10 8 13 25 9 29 -5 36 21 9 36 -20 11 -10 34 11 25 23 -8 20
70 -2 93 -19 19 -21 19 31 -2 10 -4 13 4 13 28 -1 31 1 33 32 30 30 -2 32 0
31 25 -3 43 -1 53 11 53 7 0 9 -9 6 -21 -4 -16 -2 -19 11 -14 9 4 25 9 34 12
14 4 13 9 -10 30 l-27 24 28 -4 c22 -3 25 -2 16 9 -6 8 -18 14 -25 14 -20 0
-17 30 4 46 16 12 15 13 -6 14 -18 0 -23 5 -20 22 4 27 25 35 31 11 4 -15 5
-14 6 4 0 12 6 25 11 28 13 8 13 45 0 45 -5 0 -10 -7 -10 -15 0 -8 -7 -15 -15
-15 -22 0 -18 16 10 38 l25 20 0 4731 0 4731 -8000 0 -8000 0 2 -1717z m3223
995 c95 -24 84 -24 211 -7 95 12 106 11 170 -9 38 -11 93 -23 122 -27 28 -3
67 -14 85 -24 17 -11 58 -22 90 -26 33 -4 65 -14 75 -24 9 -9 38 -27 65 -40
26 -13 47 -30 47 -37 0 -7 9 -16 20 -19 11 -3 20 -12 20 -18 1 -17 117 -83
171 -97 24 -6 61 -22 81 -36 21 -13 42 -24 48 -24 20 0 85 -38 109 -64 14 -14
32 -26 42 -26 21 0 99 -41 99 -51 0 -14 50 -59 65 -59 8 0 15 -6 15 -14 0 -7
6 -19 14 -25 17 -14 156 -25 156 -12 0 5 14 7 30 5 17 -2 30 1 30 6 0 5 14 7
30 5 17 -2 30 0 30 3 0 8 98 7 106 -1 4 -3 17 -2 30 3 15 6 26 6 30 -1 3 -6
12 -8 20 -5 7 3 16 1 20 -5 8 -14 31 6 38 34 5 23 17 28 186 77 41 12 79 26
84 31 12 11 36 12 36 1 0 -5 -11 -15 -25 -22 -18 -10 -22 -16 -13 -22 10 -6
10 -8 0 -8 -7 0 -10 -4 -7 -10 3 -5 -1 -10 -9 -10 -9 0 -16 7 -16 15 0 19 -5
19 -65 -4 -30 -11 -51 -26 -54 -36 -2 -12 -5 -14 -10 -7 -9 15 -73 -8 -67 -24
2 -6 0 -17 -5 -25 -6 -10 -9 -10 -9 -1 0 6 -4 12 -10 12 -5 0 -10 -10 -10 -22
1 -25 21 -58 36 -58 5 0 14 -8 19 -19 6 -10 18 -32 28 -49 14 -26 15 -31 2
-26 -11 5 -13 2 -8 -12 5 -14 3 -16 -11 -11 -15 6 -17 3 -12 -18 5 -18 2 -25
-9 -25 -8 0 -15 -7 -15 -15 0 -8 -9 -15 -20 -15 -11 0 -20 5 -20 12 0 6 -3 8
-6 5 -4 -4 -1 -13 6 -22 10 -12 10 -15 -4 -15 -20 0 -21 -29 0 -58 8 -12 13
-22 10 -22 -13 0 -48 37 -57 58 -9 22 -29 31 -29 12 0 -6 6 -23 13 -38 11 -21
11 -35 3 -65 l-12 -38 -44 38 c-40 34 -43 35 -27 11 18 -29 11 -38 -12 -15
-10 10 -11 8 -5 -7 5 -13 4 -17 -3 -13 -6 4 -13 -3 -17 -16 -3 -13 -9 -18 -13
-12 -5 6 -21 11 -38 13 -16 2 -33 9 -37 15 -4 6 -10 8 -14 4 -4 -4 -18 0 -31
8 -20 13 -23 13 -23 1 0 -10 -8 -13 -24 -10 -20 3 -25 -1 -28 -18 -3 -19 -9
-13 -38 35 -28 47 -40 57 -62 57 -14 0 -33 6 -41 14 -9 9 -19 11 -28 6 -19
-13 -61 0 -77 22 -7 10 -21 18 -31 18 -10 0 -29 8 -42 19 -13 10 -30 16 -36
14 -7 -3 -18 7 -24 21 -9 19 -15 23 -25 15 -9 -7 -16 -4 -28 13 -9 12 -16 18
-16 13 0 -6 -10 1 -21 15 -11 14 -18 19 -14 11 5 -8 -2 -7 -20 5 -15 10 -37
20 -49 21 -12 2 -32 15 -46 29 l-25 25 28 -6 c17 -5 27 -3 27 4 0 6 7 8 15 5
8 -4 15 -1 15 5 0 6 -4 11 -9 11 -5 0 -12 7 -15 16 -5 14 -4 15 8 5 24 -20 70
-29 82 -17 8 8 7 18 -5 36 -15 23 -15 24 2 11 9 -7 17 -10 17 -6 0 12 -31 45
-42 45 -19 0 -84 51 -101 78 -13 23 -22 28 -42 25 -17 -4 -27 0 -31 11 -5 13
-9 14 -20 5 -16 -13 -48 -4 -39 11 3 5 -2 10 -13 10 -20 0 -55 59 -68 113 -7
31 -13 32 -69 12 -22 -8 -48 -15 -57 -15 -20 0 -62 65 -54 85 4 12 -5 15 -51
14 -35 -1 -59 3 -61 10 -2 6 -10 11 -18 11 -8 0 -14 3 -14 8 0 4 -8 17 -18 30
-16 20 -21 21 -50 11 -27 -9 -40 -8 -70 5 -20 9 -54 15 -74 13 -21 -2 -38 0
-38 4 0 20 -116 45 -135 29 -12 -10 -15 -9 -15 4 0 9 -4 16 -10 16 -14 0 -12
-24 3 -39 10 -10 9 -11 -5 -6 -10 4 -18 11 -18 16 0 14 -20 11 -36 -6 -9 -8
-11 -15 -5 -15 6 0 11 -8 11 -19 0 -10 8 -25 17 -32 9 -8 14 -9 11 -4 -11 18
7 36 40 41 24 4 36 0 49 -17 10 -12 34 -38 54 -58 25 -26 39 -50 44 -79 4 -23
11 -42 17 -42 19 0 1 -23 -20 -25 -11 -1 -19 2 -16 7 3 4 0 8 -6 8 -6 0 -20 9
-32 20 -28 26 -60 27 -51 3 4 -10 20 -31 35 -47 19 -18 27 -34 23 -46 -5 -15
-1 -19 22 -18 15 1 37 -2 48 -5 11 -3 27 -1 36 6 16 12 34 77 21 77 -13 0 -34
42 -25 51 15 15 54 -3 64 -29 8 -20 6 -27 -11 -39 -26 -19 -25 -25 7 -45 25
-15 28 -15 54 4 l28 21 30 -24 c26 -21 30 -29 25 -58 -3 -18 -10 -45 -16 -60
-6 -14 -10 -46 -9 -71 1 -27 -4 -53 -13 -65 -9 -11 -16 -15 -16 -8 0 11 -45
11 -56 0 -12 -11 43 -90 57 -81 4 2 10 -6 14 -18 19 -73 29 -104 37 -112 4 -6
8 -16 8 -24 0 -9 -14 -3 -42 17 -41 31 -58 32 -58 5 0 -10 -7 -13 -25 -8 -71
18 -140 11 -130 -13 3 -10 1 -13 -7 -10 -7 3 -20 8 -29 12 -10 3 -23 -1 -33
-10 -15 -16 -18 -16 -41 -1 -13 9 -26 16 -29 16 -8 0 18 -46 37 -64 9 -10 14
-23 10 -29 -4 -7 -12 -3 -21 11 -8 12 -23 22 -33 22 -11 0 -19 7 -19 17 0 12
-3 14 -11 6 -6 -6 -10 -30 -7 -52 2 -23 1 -41 -2 -41 -11 0 -50 -81 -45 -91 3
-4 -7 -11 -22 -14 -63 -14 -70 -22 -67 -78 2 -35 0 -47 -6 -37 -5 8 -12 11
-15 8 -4 -4 0 -17 9 -30 21 -29 20 -41 -1 -30 -10 5 -27 6 -38 1 -11 -4 -14
-8 -7 -8 17 -1 15 -41 -2 -41 -9 0 -13 -14 -13 -49 1 -33 4 -48 13 -44 6 2 14
-4 16 -14 7 -27 -9 -63 -27 -63 -30 0 -10 -34 38 -63 33 -21 35 -37 5 -37 -28
0 -12 -17 22 -24 14 -3 39 -9 57 -15 34 -10 62 7 48 29 -9 15 -28 13 -19 -2 5
-10 4 -10 -6 -1 -19 18 -2 33 30 26 19 -3 30 -1 30 6 0 7 10 9 28 5 41 -10 48
-17 26 -25 -14 -6 -9 -8 19 -8 20 -1 37 4 37 9 0 6 -7 10 -15 10 -9 0 -12 6
-9 15 4 11 -5 20 -30 30 -20 8 -36 19 -36 23 0 4 30 5 67 4 l68 -4 -24 21
c-13 12 -28 21 -33 21 -4 0 -8 5 -8 11 0 6 6 9 14 6 10 -4 14 0 11 14 -3 15 0
18 19 13 20 -5 22 -2 18 29 -2 20 2 39 10 48 8 8 17 21 20 30 4 11 15 15 36
11 27 -4 30 -2 25 17 -5 18 -1 21 30 21 31 0 35 2 30 23 -3 12 -10 27 -15 33
-10 14 39 14 61 0 10 -7 12 -6 6 4 -6 10 -3 12 11 7 12 -5 9 2 -11 19 -28 24
-28 25 -6 19 21 -7 23 -5 18 17 -6 22 -4 25 23 23 32 -2 37 4 18 23 -20 20 0
26 26 8 33 -21 39 -20 26 4 -6 11 -7 20 -2 20 19 0 35 -31 33 -63 -1 -18 -2
-36 -2 -42 1 -5 1 -35 2 -65 1 -30 6 -60 11 -66 5 -7 4 -33 -3 -63 -10 -49 -9
-82 10 -207 7 -54 21 -109 38 -154 3 -8 8 -35 10 -60 3 -25 9 -50 15 -57 5 -7
7 -17 3 -23 -4 -7 6 -16 24 -23 21 -8 31 -18 31 -32 0 -12 9 -31 20 -43 l21
-22 -26 0 c-33 0 -29 -22 6 -31 13 -3 23 -11 21 -17 -1 -7 5 -12 13 -12 8 0
15 -6 15 -14 0 -8 14 -17 30 -21 28 -6 43 -25 20 -25 -5 0 -10 -4 -10 -9 0
-10 34 -23 64 -25 27 -1 32 -26 7 -33 -23 -6 -26 -20 -11 -43 8 -12 12 -13 19
-2 7 11 9 11 14 -2 7 -18 -8 -30 -25 -21 -24 12 21 -20 54 -39 30 -17 31 -19
13 -26 -19 -7 -19 -7 2 -14 14 -4 20 -12 16 -22 -3 -7 0 -14 6 -14 19 0 73
-63 60 -71 -14 -9 -3 -29 17 -29 8 0 14 -5 14 -10 0 -11 79 -9 282 6 101 8
288 -4 267 -16 -9 -6 -2 -8 19 -8 18 1 38 -4 44 -10 6 -6 31 -9 57 -7 l46 4
-47 -12 c-49 -13 -73 -27 -45 -27 9 0 17 -4 17 -10 0 -5 -18 -10 -40 -10 -23
0 -40 -5 -40 -11 0 -7 12 -9 35 -5 31 6 36 4 47 -19 8 -18 16 -24 27 -19 34
14 61 16 61 4 0 -7 7 -10 15 -7 8 4 42 1 76 -5 76 -13 130 1 171 44 31 34 39
31 87 -24 36 -42 38 -76 6 -93 -46 -23 -50 -28 -29 -36 12 -4 26 -1 37 9 9 8
17 12 17 8 0 -3 11 1 25 10 14 9 22 20 20 25 -8 12 20 59 55 93 16 16 30 33
30 38 0 22 51 87 64 82 15 -6 30 17 62 89 14 30 22 37 44 35 19 -1 26 -7 26
-22 -1 -15 7 -22 29 -26 25 -4 30 -10 30 -35 1 -23 5 -30 20 -30 15 0 20 7 20
27 0 14 3 30 8 34 4 4 7 18 7 31 0 22 -3 24 -31 18 -22 -5 -29 -4 -25 4 4 6
14 11 23 11 10 0 14 6 10 20 -4 14 5 30 31 55 21 19 54 50 75 69 52 50 82 109
96 196 20 120 31 148 60 158 45 17 114 3 82 -17 -10 -7 -9 -15 3 -46 9 -20 16
-51 16 -67 0 -21 6 -31 20 -35 18 -5 30 -25 13 -22 -5 1 -27 1 -51 0 -45 -1
-51 -21 -6 -21 33 0 34 -46 2 -61 -37 -16 7 -3 91 26 191 68 370 37 498 -85
48 -46 75 -80 63 -80 -5 0 -15 8 -22 18 -7 9 -31 30 -53 46 -22 17 -42 33 -45
37 -3 3 -32 19 -65 35 -51 25 -75 29 -159 32 -89 4 -108 1 -195 -27 -119 -39
-129 -44 -112 -64 8 -10 9 -17 1 -22 -28 -17 0 -23 108 -22 123 0 201 -13 265
-45 49 -24 40 -37 -10 -15 -50 21 -134 37 -186 36 l-42 -1 42 -8 c80 -16 190
-85 320 -202 45 -40 82 -77 82 -81 1 -4 19 -31 40 -60 22 -29 43 -65 46 -82 7
-29 7 -29 -8 -10 -9 11 -17 24 -17 28 0 18 -82 117 -151 183 -88 84 -198 158
-274 185 -37 13 -81 19 -139 19 -75 0 -84 -2 -89 -20 -6 -25 26 -35 78 -26 28
6 35 4 35 -9 0 -8 6 -15 13 -15 8 0 7 -4 -3 -10 -13 -8 -11 -11 7 -16 12 -3
25 -14 28 -23 3 -9 43 -35 89 -59 101 -52 198 -137 279 -247 54 -73 144 -241
134 -251 -2 -2 -14 19 -27 46 -13 28 -26 50 -29 50 -3 0 -17 23 -31 52 -24 48
-135 186 -190 235 -41 37 -122 88 -165 104 -39 15 -41 15 -43 -5 -4 -48 -2
-59 14 -71 11 -7 15 -19 11 -29 -8 -20 33 -66 58 -66 17 0 18 -2 9 -24 -3 -8
-12 -12 -21 -9 -12 5 -13 -1 -8 -33 4 -22 9 -48 13 -59 3 -11 4 -39 3 -61 -2
-34 2 -45 23 -62 34 -26 33 -32 -4 -32 -36 0 -36 -4 -9 -38 l21 -27 -31 -5
c-33 -5 -61 -43 -61 -82 0 -21 42 -68 61 -68 5 0 9 -4 9 -10 0 -5 -7 -10 -15
-10 -22 0 -19 -7 25 -60 22 -26 40 -54 40 -61 0 -19 26 -34 87 -48 43 -11 70
-10 155 3 57 9 159 23 228 31 69 9 142 19 162 24 20 5 39 7 42 4 2 -2 7 4 10
14 5 16 35 25 159 52 83 18 181 39 217 47 36 8 75 14 87 14 12 0 25 5 28 10 3
6 26 10 50 10 39 0 45 3 51 25 7 28 19 32 28 10 8 -22 47 -18 79 9 24 21 25
25 12 36 -9 7 -13 15 -11 17 2 3 -4 13 -15 24 -21 21 -25 39 -9 39 14 0 13 77
-1 86 -6 3 -8 17 -4 33 14 51 13 126 -1 141 -14 16 -14 165 0 188 4 7 2 10 -6
7 -16 -6 -17 0 -24 108 -5 75 -5 77 17 77 l23 0 -22 16 c-20 14 -22 23 -20 75
2 39 7 59 16 59 6 0 12 5 12 10 0 6 -6 10 -14 10 -15 0 -28 58 -14 66 4 3 8
10 8 16 0 7 -6 6 -15 -2 -18 -15 -17 -17 -19 45 -1 28 -5 56 -9 63 -5 7 -3 12
3 12 13 0 7 131 -7 152 -4 7 -9 29 -10 48 0 19 -5 46 -9 59 -5 18 -4 22 5 16
10 -6 11 0 5 26 -4 19 -8 41 -9 49 0 9 -4 20 -8 26 -10 17 27 46 48 38 15 -6
17 -3 13 13 -5 17 2 21 56 32 65 14 72 13 68 -6 -4 -19 15 -16 22 3 4 10 13
13 26 9 13 -4 20 -2 20 7 0 8 16 20 35 28 19 7 31 18 28 23 -4 6 1 8 12 3 10
-4 28 0 42 10 14 8 27 13 30 10 3 -3 15 -1 25 5 15 8 17 14 9 22 -18 18 -13
27 14 27 14 0 28 6 31 14 3 8 13 12 26 8 17 -4 20 -2 15 12 -6 14 -3 16 13 11
11 -4 20 -2 20 4 0 6 10 11 22 11 12 0 44 7 72 15 68 19 182 44 228 49 21 2
41 7 45 9 7 4 223 35 373 53 76 9 102 12 175 24 39 7 138 16 220 20 83 5 177
13 210 18 33 6 116 13 185 17 69 3 145 8 170 10 82 7 223 15 365 20 77 3 219
12 315 20 96 8 263 19 370 25 107 6 217 12 243 15 27 2 71 -1 99 -7 42 -10 54
-9 81 4 34 18 92 25 257 33 126 6 474 16 695 21 88 1 230 6 315 9 85 4 162 7
170 6 8 0 88 -2 177 -3 89 -1 159 -6 157 -10 -3 -4 0 -8 7 -8 20 0 109 -43
109 -52 0 -4 7 -8 15 -8 8 0 14 3 13 8 -1 4 1 17 6 30 7 22 46 32 46 11 0 -6
9 -8 20 -4 14 5 20 2 20 -9 0 -9 6 -16 14 -16 8 0 17 -8 20 -17 6 -15 8 -15
17 -3 8 13 11 13 23 -2 11 -15 24 -17 76 -12 41 4 60 2 56 -5 -4 -5 2 -10 11
-10 52 -2 75 -10 93 -31 16 -19 22 -21 35 -10 9 7 15 8 15 2 0 -6 14 -13 30
-17 23 -5 29 -11 26 -23 -3 -10 1 -30 9 -46 8 -15 15 -35 15 -42 0 -8 6 -14
13 -14 18 0 49 -73 41 -95 -5 -13 -3 -16 7 -13 17 6 39 -15 39 -36 0 -8 8 -21
18 -28 25 -17 47 -59 43 -80 -1 -11 3 -16 11 -13 14 5 41 -42 32 -56 -3 -5 0
-9 6 -9 6 0 9 -21 6 -57 -2 -34 2 -72 10 -90 12 -31 12 -33 -7 -33 -19 0 -25
-11 -12 -23 3 -4 12 -2 20 4 10 9 13 8 13 -4 0 -8 -7 -18 -16 -21 -10 -4 -13
-13 -9 -25 3 -11 1 -22 -4 -25 -5 -4 -8 -18 -5 -31 3 -17 0 -24 -8 -23 -15 3
-20 -68 -7 -94 5 -10 5 -19 0 -22 -5 -3 -7 -24 -5 -46 3 -32 0 -40 -12 -40
-13 0 -15 -7 -10 -35 5 -24 3 -35 -5 -35 -18 0 -3 -70 25 -120 14 -25 26 -37
28 -28 3 7 9 10 13 6 4 -4 2 -14 -5 -23 -11 -13 -8 -18 10 -17 3 0 6 -16 6
-36 1 -21 17 -71 36 -112 19 -41 43 -95 53 -120 11 -25 22 -47 25 -50 3 -3 11
-22 19 -43 9 -29 10 -42 2 -50 -8 -8 -11 -8 -11 0 0 6 -16 35 -35 64 -19 29
-37 65 -40 81 -4 15 -10 28 -15 28 -5 0 -12 10 -16 23 -3 12 -14 33 -24 47
-10 14 -21 36 -25 49 -4 14 -18 36 -31 49 -12 14 -26 37 -29 51 -7 28 -86 153
-93 146 -8 -8 9 -75 18 -75 6 0 10 -7 10 -15 0 -8 9 -30 20 -50 11 -20 20 -41
20 -48 0 -7 10 -32 21 -57 11 -25 20 -47 21 -50 0 -3 8 -16 18 -30 23 -33 34
-70 21 -70 -6 0 -11 -7 -11 -15 0 -18 16 -20 23 -2 3 6 6 -2 6 -20 1 -23 -5
-36 -19 -43 -19 -10 -19 -12 -4 -35 12 -18 13 -25 4 -25 -10 0 -9 -4 1 -16 10
-13 10 -17 -2 -24 -8 -5 -14 -17 -14 -27 -1 -10 -6 -17 -13 -15 -9 1 -10 -6
-6 -23 5 -19 2 -25 -10 -25 -21 0 -41 -49 -27 -63 7 -7 15 0 24 21 7 18 16 29
20 25 4 -3 14 2 22 13 14 18 14 17 13 -11 0 -16 -3 -43 -7 -60 -7 -29 -7 -29
-13 -6 -6 21 -9 23 -23 11 -9 -8 -14 -22 -12 -32 3 -10 2 -18 -3 -18 -4 0 -10
-12 -13 -27 -3 -16 -9 -36 -12 -45 -4 -11 -3 -18 4 -18 6 0 14 15 19 33 l9 32
8 -28 c6 -21 2 -35 -19 -62 -15 -19 -22 -35 -17 -35 6 0 11 5 11 11 0 5 5 7
10 4 16 -10 11 -22 -11 -28 -15 -4 -20 -11 -15 -21 3 -9 9 -23 13 -32 5 -13 1
-15 -23 -12 -16 3 -23 3 -16 1 10 -3 13 -18 10 -48 -2 -35 0 -45 14 -49 10 -2
18 -9 18 -16 0 -6 -4 -9 -9 -5 -19 11 -23 -17 -5 -36 9 -10 12 -19 6 -19 -6 0
-15 8 -21 17 -9 16 -11 16 -29 -5 -11 -12 -29 -22 -40 -22 -15 0 -19 -5 -15
-20 6 -23 -6 -26 -27 -7 -12 10 -12 9 -1 -5 7 -9 9 -23 5 -29 -4 -7 -3 -9 3
-6 11 7 29 -61 19 -71 -3 -3 -6 4 -6 16 0 12 -4 22 -10 22 -5 0 -10 -16 -10
-36 0 -21 4 -33 10 -29 18 11 11 -14 -10 -35 -21 -21 -26 -40 -11 -40 5 0 13
9 16 20 4 11 10 18 15 15 10 -6 1 -45 -11 -45 -5 0 -9 -4 -9 -10 0 -5 7 -10
15 -10 8 0 15 -4 15 -10 0 -5 8 -10 18 -11 10 0 12 -3 5 -6 -7 -2 -13 -14 -13
-26 0 -12 -7 -31 -15 -41 -19 -25 -19 -42 -1 -27 17 14 39 -9 31 -31 -3 -8 1
-21 10 -28 12 -10 18 -10 33 1 15 13 16 12 3 -4 -8 -10 -19 -16 -25 -14 -6 2
-19 1 -29 -2 -16 -6 -14 -10 14 -39 29 -30 30 -32 10 -32 -13 0 -25 9 -31 23
-12 31 -12 0 1 -46 8 -29 7 -42 -2 -53 -12 -15 -10 -24 22 -86 13 -26 11 -30
-10 -23 -20 6 -43 -15 -40 -37 3 -27 -1 -39 -13 -33 -7 4 -3 -2 9 -13 17 -15
19 -21 9 -25 -7 -3 -17 -2 -22 3 -5 4 -25 11 -44 14 -19 3 -28 3 -20 -1 8 -3
18 -10 21 -16 4 -5 17 -11 30 -12 38 -4 39 -4 39 -16 0 -6 -8 -8 -17 -5 -10 3
-25 1 -33 -5 -12 -8 -9 -9 10 -4 l25 6 -25 -22 c-23 -20 -23 -22 -4 -17 11 3
29 -1 40 -10 18 -14 18 -14 -6 -9 -14 4 -32 2 -40 -3 -13 -9 -13 -10 0 -10 12
0 12 -2 1 -9 -10 -7 -9 -11 7 -22 22 -16 39 -59 23 -59 -22 0 -10 -52 18 -82
l29 -32 -25 -13 c-32 -16 -33 -16 -33 3 0 8 5 12 10 9 15 -9 12 11 -4 24 -11
9 -15 2 -20 -40 -5 -36 -3 -54 5 -59 6 -4 9 -12 5 -18 -3 -6 -2 -13 4 -17 5
-3 10 -15 10 -26 0 -15 -6 -19 -21 -17 -25 3 -53 -31 -31 -39 6 -3 12 -11 12
-19 0 -9 -5 -12 -11 -8 -7 4 -10 1 -7 -7 3 -8 11 -14 19 -15 25 -1 59 -15 59
-25 0 -12 -37 -12 -45 1 -4 6 -10 8 -15 5 -5 -3 2 -17 16 -32 24 -25 32 -53
16 -53 -12 0 -58 52 -65 73 -4 11 -12 15 -19 11 -9 -6 -9 -9 0 -12 7 -2 12
-10 12 -18 0 -8 5 -14 10 -14 6 0 10 -7 10 -15 0 -8 7 -15 15 -15 9 0 15 -10
15 -26 0 -22 -3 -25 -23 -20 -21 5 -23 3 -19 -24 2 -17 0 -30 -6 -30 -6 0 -9
8 -7 18 1 9 0 11 -2 5 -3 -7 -8 -13 -13 -13 -5 0 -16 -3 -24 -6 -12 -5 -15 -2
-10 10 8 22 2 20 -27 -6 -17 -15 -19 -19 -6 -15 11 4 20 1 23 -8 8 -19 24 -19
24 0 0 8 7 15 15 15 10 0 15 -7 13 -17 -2 -10 4 -18 12 -19 8 0 25 -2 38 -2
15 -1 22 -8 22 -21 0 -25 -20 -38 -31 -20 -8 12 -12 11 -23 -3 -14 -19 -42
-25 -31 -8 3 6 -3 10 -15 10 -20 0 -20 -1 -4 -25 20 -30 9 -49 -12 -21 -15 21
-30 16 -21 -7 7 -18 52 -28 66 -14 6 6 7 -6 4 -33 -4 -25 -2 -41 3 -37 5 3 18
-1 29 -9 10 -8 15 -15 9 -16 -5 0 -13 -2 -19 -3 -5 -2 -15 -3 -21 -4 -7 0 -14
-13 -17 -27 -3 -19 1 -28 17 -34 17 -7 12 -9 -21 -9 -31 -1 -43 -5 -43 -16 0
-8 7 -15 15 -15 8 0 15 -4 15 -10 0 -12 -13 -13 -26 -1 -5 5 -24 2 -44 -7
l-35 -16 35 -6 c28 -4 31 -7 17 -13 -34 -13 -67 -8 -67 11 -1 15 -2 15 -12 -2
-9 -16 -6 -24 23 -47 33 -28 56 -32 51 -10 -1 6 2 11 8 11 5 0 10 -5 10 -11 0
-7 8 -18 18 -25 16 -13 16 -13 -2 -14 -15 0 -17 -5 -12 -26 5 -17 3 -23 -4
-19 -5 3 -10 -1 -10 -9 0 -8 8 -17 18 -20 9 -3 -2 -3 -25 -1 -28 4 -43 1 -43
-6 0 -6 -7 -9 -15 -5 -19 7 -19 -5 0 -30 17 -22 20 -60 5 -69 -6 -3 -10 4 -10
16 0 22 0 22 -16 3 -15 -18 -15 -18 -10 6 3 14 1 32 -4 40 -7 12 -12 11 -29
-4 -24 -22 -27 -36 -7 -36 8 0 16 -10 18 -23 2 -12 9 -21 16 -19 18 3 15 -15
-4 -22 -9 -4 -23 -1 -32 6 -13 11 -15 8 -9 -25 3 -20 2 -35 -3 -32 -13 8 -21
-25 -10 -43 8 -14 10 -14 10 -2 1 9 5 5 11 -8 5 -13 14 -20 20 -16 6 3 15 0
20 -7 13 -21 11 -32 -7 -25 -10 4 -14 1 -11 -6 2 -7 16 -12 30 -11 19 1 24 -2
20 -13 -3 -8 -13 -14 -22 -14 -13 0 -14 -2 -2 -9 9 -6 22 -6 32 0 25 13 28 12
22 -11 -3 -11 -13 -20 -22 -20 -9 0 -26 -7 -38 -15 -12 -9 -24 -11 -27 -6 -4
5 0 12 6 14 8 4 7 6 -4 6 -9 1 -23 -6 -32 -14 -18 -18 -33 -19 -39 -2 -4 10
-7 10 -18 0 -11 -11 -10 -13 4 -13 9 0 17 -7 17 -15 0 -16 -17 -19 -44 -9 -8
3 -12 12 -9 20 3 9 -2 14 -16 14 -12 0 -21 -6 -21 -14 0 -9 -18 -15 -52 -19
-29 -4 -62 -8 -73 -9 -16 -3 -29 21 -83 152 -34 85 -75 187 -89 225 -15 39
-33 76 -40 83 -7 7 -14 24 -14 38 -2 32 -2 33 -40 123 -11 24 -19 47 -19 52 0
5 -11 32 -24 61 -13 29 -27 64 -31 78 -4 14 -13 39 -21 55 -8 17 -49 125 -92
240 -142 378 -154 409 -177 470 -13 33 -65 170 -116 305 -195 522 -196 527
-166 630 15 52 50 194 67 270 5 19 24 96 44 170 20 74 43 160 50 190 8 30 22
82 31 115 88 314 94 399 32 440 -20 13 -29 14 -51 4 -14 -7 -28 -20 -31 -31
-4 -10 -11 -18 -17 -18 -5 0 -24 -10 -41 -22 -18 -13 -34 -23 -37 -23 -3 0
-18 -9 -35 -21 -32 -22 -176 -94 -189 -94 -4 0 -14 -7 -23 -16 -9 -8 -22 -13
-30 -10 -8 3 -21 0 -29 -8 -7 -8 -32 -17 -54 -21 -22 -4 -40 -11 -40 -17 0 -6
-12 -8 -27 -5 -17 3 -36 0 -47 -9 -11 -8 -30 -14 -42 -14 -13 0 -25 -4 -28 -9
-4 -5 -25 -12 -49 -16 -23 -4 -55 -13 -72 -21 -16 -8 -41 -12 -54 -9 -13 2
-38 -2 -56 -9 -23 -10 -36 -11 -43 -4 -8 8 -9 5 -6 -9 5 -17 2 -20 -19 -16
-14 3 -28 0 -31 -6 -4 -5 -13 -8 -21 -4 -9 3 -21 0 -28 -5 -7 -6 -31 -9 -52
-7 -22 2 -45 -1 -51 -6 -6 -5 -33 -12 -60 -15 -27 -4 -64 -15 -82 -25 -19 -11
-38 -16 -43 -13 -6 3 -18 -1 -27 -9 -9 -8 -24 -15 -32 -15 -65 -4 -164 -22
-169 -30 -4 -7 -12 -8 -21 -2 -23 15 -34 12 -75 -16 -26 -17 -57 -27 -94 -31
-31 -3 -72 -12 -91 -20 -19 -9 -46 -17 -60 -18 -67 -5 -66 -5 -50 -15 12 -7 8
-10 -15 -10 -16 0 -39 -7 -49 -15 -12 -9 -22 -11 -26 -5 -3 5 -23 3 -50 -6
-25 -9 -60 -16 -77 -17 -18 -1 -33 -5 -33 -9 0 -5 -12 -8 -27 -8 -22 0 -25 -2
-13 -10 12 -8 11 -10 -7 -10 -13 0 -23 5 -23 10 0 6 -9 10 -20 10 -11 0 -20
-4 -20 -10 0 -5 5 -10 12 -10 9 0 9 -3 0 -12 -9 -9 -15 -10 -20 -2 -9 13 -42
26 -42 16 0 -5 5 -13 10 -18 8 -8 -4 -10 -38 -8 -40 2 -55 -3 -77 -22 -15 -13
-32 -21 -38 -17 -6 4 -3 10 9 14 17 7 17 8 -3 8 -17 1 -23 -5 -23 -21 0 -17
-3 -19 -12 -10 -14 14 -68 16 -68 3 0 -4 -11 -6 -24 -4 -18 4 -27 -1 -36 -18
l-13 -23 -18 23 c-16 19 -20 20 -25 7 -8 -21 -58 -37 -116 -36 -16 0 -28 -4
-28 -10 0 -7 -6 -8 -19 0 -26 14 -31 13 -31 -6 0 -8 -5 -12 -10 -9 -6 4 -18 1
-26 -6 -11 -9 -21 -9 -37 -2 -22 10 -93 -1 -122 -18 -5 -4 -28 -10 -49 -13
-26 -5 -35 -10 -27 -16 9 -5 0 -9 -23 -12 -21 -2 -36 0 -36 7 0 5 -7 1 -15 -9
-10 -13 -28 -19 -58 -20 -34 -1 -43 -4 -39 -15 4 -11 -2 -13 -30 -8 -24 3 -43
1 -55 -8 -10 -8 -37 -15 -59 -15 -28 0 -44 -5 -48 -15 -8 -21 -26 -19 -26 3
-1 16 -1 16 -11 -1 -7 -12 -17 -16 -31 -11 -17 5 -19 3 -13 -18 6 -19 5 -21
-6 -10 -18 17 -71 15 -117 -3 -22 -9 -43 -15 -48 -14 -15 4 -124 -24 -130 -33
-8 -13 -44 -9 -44 5 -1 7 -6 5 -14 -5 -7 -10 -18 -18 -23 -18 -5 0 -24 -7 -41
-16 -25 -12 -36 -13 -53 -3 -20 10 -21 9 -16 -10 6 -25 -8 -29 -17 -5 -6 16
-8 16 -24 0 -20 -17 -37 -22 -28 -7 4 5 -18 -4 -46 -20 -42 -23 -66 -29 -113
-29 -39 0 -69 -6 -83 -16 -13 -9 -26 -13 -29 -10 -4 3 -1 6 5 6 7 0 12 5 12
10 0 6 -7 10 -15 10 -8 0 -15 -4 -15 -9 0 -5 -12 -12 -27 -16 -15 -3 -38 -15
-52 -24 -20 -15 -38 -17 -78 -14 -34 4 -53 2 -53 -5 0 -6 10 -13 23 -16 12 -3
-3 -3 -33 -1 -53 4 -111 -6 -158 -28 -18 -8 -25 -8 -31 1 -11 18 -41 3 -41
-21 0 -19 -1 -19 -19 -3 -16 14 -20 15 -30 2 -7 -8 -33 -18 -57 -22 -31 -4
-44 -11 -44 -23 -1 -14 -2 -14 -11 2 -12 21 -33 22 -53 1 -9 -8 -20 -12 -26
-9 -6 3 -17 -1 -26 -9 -11 -12 -31 -15 -75 -13 -37 2 -67 -2 -78 -10 -14 -9
-26 -10 -49 -2 -22 8 -37 7 -52 -1 -27 -15 -55 -21 -109 -26 -24 -1 -48 -8
-52 -15 -4 -7 -15 -9 -24 -5 -25 9 -55 -2 -55 -21 0 -14 -3 -14 -20 2 -18 17
-20 17 -20 1 0 -14 -8 -16 -52 -12 -33 4 -44 3 -28 -2 23 -8 21 -9 -25 -25
-31 -11 -51 -14 -53 -7 -2 6 -10 6 -24 -1 -11 -6 -29 -8 -41 -5 -11 3 -28 1
-38 -4 -9 -5 -61 -15 -115 -22 -55 -6 -102 -16 -106 -22 -4 -6 -12 -5 -22 3
-13 11 -19 11 -32 0 -11 -9 -17 -10 -23 -1 -5 8 -21 8 -61 -3 -30 -8 -67 -12
-82 -9 -16 3 -28 1 -28 -5 0 -13 -34 -23 -93 -26 -27 -2 -53 -8 -57 -15 -6 -9
-9 -9 -15 -1 -4 7 -16 9 -27 5 -11 -3 -18 -2 -15 2 3 5 -15 10 -39 11 -48 2
-61 -13 -16 -19 15 -2 -34 -3 -108 -3 -75 1 -140 4 -147 8 -6 4 -25 5 -42 3
-18 -2 -36 2 -42 10 -18 22 -31 16 -23 -8 6 -21 4 -21 -24 5 -33 31 -94 43
-136 27 -13 -5 -39 -30 -57 -57 -18 -26 -37 -51 -43 -55 -28 -19 -77 76 -74
146 1 39 7 51 37 79 35 32 112 77 131 77 6 0 32 11 59 24 48 23 106 39 256 70
112 24 147 34 158 45 6 6 19 11 28 11 34 0 48 27 43 83 -2 28 -9 64 -15 80 -6
15 -9 43 -6 62 4 25 1 37 -9 43 -12 7 -13 14 -5 35 6 15 8 33 5 40 -3 8 11 28
30 45 20 17 36 36 36 43 0 16 76 100 110 121 33 19 39 45 14 55 -19 7 -78 -21
-113 -54 -13 -13 -32 -23 -42 -23 -14 0 -19 -7 -19 -25 0 -18 -4 -23 -16 -18
-13 5 -15 2 -9 -15 5 -18 2 -22 -14 -22 -14 0 -19 -5 -15 -14 3 -8 -3 -19 -15
-26 -12 -6 -21 -7 -21 -3 0 14 -49 -92 -50 -107 0 -8 -7 -28 -15 -44 -8 -15
-15 -34 -15 -41 0 -7 -7 -15 -15 -19 -8 -3 -15 -12 -15 -20 0 -8 -17 -32 -38
-53 -21 -21 -42 -46 -45 -56 -4 -9 -14 -20 -24 -24 -26 -10 -63 -45 -63 -59 0
-7 -9 -16 -20 -19 -11 -3 -20 -10 -20 -15 0 -4 -13 -13 -29 -18 -23 -8 -35 -6
-57 7 -50 30 -83 32 -101 5 -9 -14 -25 -24 -39 -24 -13 0 -24 -4 -24 -10 0
-15 -42 -60 -56 -60 -6 0 -15 -7 -18 -16 -4 -9 -9 -14 -13 -11 -3 4 -19 -3
-35 -14 -18 -13 -37 -19 -51 -16 -12 3 -30 0 -39 -7 -22 -16 -75 -9 -91 13 -6
10 -19 21 -27 26 -12 7 -11 3 2 -17 10 -15 15 -34 12 -42 -11 -29 -33 -17 -44
24 -14 53 -42 68 -70 38 -16 -17 -19 -30 -14 -53 8 -36 12 -45 24 -45 5 0 26
-16 47 -36 21 -20 32 -33 26 -30 -18 10 -16 3 9 -41 24 -39 28 -53 30 -91 0
-12 4 -24 8 -27 13 -8 -1 -159 -18 -177 -8 -10 -11 -18 -6 -18 5 0 -10 -10
-33 -22 -24 -12 -43 -27 -43 -34 0 -6 -7 -15 -16 -18 -8 -3 -13 -9 -10 -14 2
-4 -22 -9 -54 -10 -49 -2 -62 1 -71 16 -11 18 -13 18 -30 1 -9 -9 -42 -22 -73
-29 -31 -6 -56 -16 -56 -21 0 -6 -7 -6 -17 0 -31 16 -57 23 -108 27 -27 3 -52
8 -55 13 -3 4 -23 7 -45 6 -22 -1 -52 2 -66 6 -16 4 -32 2 -39 -4 -10 -9 -11
-9 -7 -1 7 12 -19 41 -28 32 -10 -10 7 -36 31 -47 13 -6 27 -18 30 -26 4 -8
10 -13 15 -10 4 3 13 -13 20 -35 7 -22 17 -40 23 -40 9 0 38 -55 36 -68 -1 -2
11 -12 25 -24 27 -21 37 -18 75 24 12 12 21 14 35 6 11 -5 7 2 -10 16 -41 35
-19 33 39 -4 26 -17 51 -28 56 -25 5 3 24 -3 42 -13 23 -13 33 -26 34 -44 1
-35 11 -47 34 -43 20 4 75 54 82 75 2 7 20 13 40 14 l36 1 6 -50 c4 -32 2 -51
-5 -54 -8 -2 -8 -6 0 -11 8 -5 -3 -23 -33 -54 -25 -26 -46 -41 -46 -34 0 8 -5
6 -11 -4 -11 -20 -39 -24 -39 -7 0 8 -19 10 -61 6 -53 -5 -66 -10 -90 -37 -16
-17 -29 -38 -29 -47 0 -11 -6 -14 -25 -9 -16 4 -25 2 -25 -5 0 -6 -16 5 -35
24 -19 19 -35 41 -35 47 0 15 -76 6 -97 -11 -6 -6 -18 -7 -24 -3 -8 5 -10 2
-6 -8 4 -11 -2 -19 -16 -23 -21 -7 -20 -8 6 -12 21 -3 27 -10 27 -28 0 -27 16
-42 23 -23 3 9 12 5 27 -12 13 -14 21 -18 17 -9 -8 24 8 42 37 44 19 0 26 -4
26 -17 0 -15 -5 -17 -27 -12 -26 7 -27 6 -13 -11 11 -14 12 -19 3 -22 -21 -7
-15 -23 8 -23 11 0 17 -4 14 -10 -3 -5 -1 -10 4 -10 6 0 11 4 11 10 0 5 7 7
15 4 8 -4 15 -10 15 -16 0 -5 7 -16 15 -24 8 -9 15 -21 15 -27 0 -7 -10 1 -23
17 l-23 28 0 -35 c0 -20 4 -34 8 -31 4 3 16 0 25 -6 14 -8 10 -9 -19 -5 -43 6
-58 -9 -34 -33 10 -11 16 -12 16 -4 0 7 5 12 11 12 5 0 7 -4 4 -10 -3 -5 3
-10 14 -10 28 0 35 -17 12 -29 -24 -13 -34 -14 -27 -2 3 5 -1 11 -9 15 -17 6
-30 -10 -15 -19 16 -10 -8 -35 -32 -35 -30 0 -16 -24 20 -35 30 -9 32 -12 32
-60 0 -28 7 -58 15 -69 19 -25 19 -52 0 -60 -11 -4 -15 -21 -16 -58 -1 -48
-16 -121 -18 -90 -1 6 -8 12 -16 12 -9 0 -12 -6 -9 -15 4 -10 0 -15 -14 -15
-12 0 -24 -5 -28 -11 -4 -7 0 -9 12 -6 11 3 44 9 74 12 68 9 315 57 433 84
103 25 195 28 203 7 3 -7 -9 -98 -26 -202 -16 -104 -41 -260 -54 -347 -26
-176 -27 -178 -108 -197 -27 -7 -48 -16 -48 -22 0 -5 25 -20 55 -33 60 -27 66
-41 35 -84 -14 -21 -18 -37 -14 -63 7 -43 -1 -49 -50 -38 -53 12 -63 24 -46
55 19 36 3 63 -64 109 l-56 38 -82 -20 c-46 -11 -110 -26 -143 -32 -65 -13
-95 -26 -95 -40 0 -5 18 -19 40 -31 45 -25 52 -38 44 -78 -6 -27 -13 -30 -112
-59 -59 -17 -134 -33 -167 -36 -33 -4 -64 -11 -70 -17 -12 -12 19 -39 81 -69
23 -11 66 -42 96 -68 31 -26 106 -83 167 -127 62 -44 146 -106 187 -137 40
-32 77 -58 82 -58 4 0 24 -14 44 -30 51 -42 55 -75 29 -221 -12 -66 -19 -125
-16 -130 10 -16 -16 -50 -49 -64 -28 -12 -42 -12 -105 4 -60 15 -80 26 -119
63 -26 25 -63 54 -82 66 -19 11 -46 36 -59 54 -14 18 -30 37 -38 41 -7 4 -13
14 -13 22 0 8 -17 19 -41 25 -29 8 -92 54 -222 162 -100 84 -184 155 -187 158
-7 8 -525 441 -605 505 -34 28 -96 77 -136 110 -41 32 -105 84 -142 114 -38
30 -75 67 -83 82 -33 65 -3 130 78 163 24 10 52 22 63 27 11 4 72 19 135 33
511 111 600 133 600 147 0 5 -4 9 -9 9 -5 0 -11 14 -15 30 -3 19 -14 34 -28
40 -13 5 -18 9 -11 9 22 2 -10 51 -33 51 -17 0 -20 5 -16 25 3 20 0 25 -17 25
-11 0 -21 5 -21 10 0 6 -7 10 -15 10 -8 0 -15 9 -15 20 0 11 -7 20 -15 20 -8
0 -15 5 -15 12 0 18 -31 48 -50 48 -21 0 -34 27 -17 34 7 2 4 5 -5 5 -14 1
-18 10 -19 39 0 30 -2 33 -9 17 -9 -19 -9 -19 -16 3 -6 22 -24 31 -24 12 0 -5
-4 -10 -9 -10 -5 0 -15 24 -24 53 -8 28 -16 44 -16 35 -1 -10 -6 -18 -12 -18
-7 0 -9 10 -5 25 5 19 3 23 -9 19 -11 -4 -13 -2 -9 9 3 10 -2 18 -15 22 -12 3
-19 10 -16 14 2 5 -4 19 -15 31 -19 22 -24 35 -21 54 1 4 -3 14 -9 21 -12 15
-15 53 -6 80 4 12 2 10 -7 -5 -8 -14 -18 -43 -22 -65 -4 -22 -10 -34 -12 -27
-3 7 6 65 20 130 14 64 35 169 47 232 12 63 28 140 35 170 7 30 18 89 25 130
7 41 22 116 35 165 13 50 26 109 30 133 8 47 29 56 59 23 10 -11 31 -25 47
-31 16 -7 29 -16 29 -21 0 -5 4 -9 10 -9 9 0 246 -235 302 -299 25 -29 31 -55
43 -161 2 -25 51 -123 73 -148 12 -13 25 -21 31 -18 5 4 12 2 16 -4 4 -6 11
-8 16 -5 5 4 21 -3 37 -13 22 -16 29 -17 39 -6 8 8 30 12 60 9 27 -1 40 -1 31
2 -36 9 -18 26 21 19 40 -6 40 -6 32 33 -1 2 -8 -2 -16 -9 -18 -15 -18 -15
-39 30 -9 19 -35 67 -56 105 -82 144 -92 173 -95 265 -2 93 -18 140 -47 140
-10 0 -18 5 -18 11 0 7 -11 9 -26 6 -24 -4 -26 -3 -21 27 3 17 9 44 13 60 5
22 4 27 -6 21 -8 -5 -11 -3 -8 6 3 8 11 13 18 11 8 -2 10 3 6 13 -7 19 17 81
43 110 37 40 31 87 -5 50 -9 -8 -21 -15 -27 -15 -7 0 -6 4 3 10 12 8 11 10 -7
10 -14 0 -23 -6 -23 -15 0 -8 5 -15 11 -15 5 0 2 -13 -8 -30 -29 -51 -42 -36
-24 28 9 29 8 32 -12 32 -15 0 -18 3 -10 11 6 6 8 19 6 30 -5 19 -6 19 -20 -1
-8 -12 -12 -27 -9 -35 3 -8 1 -15 -4 -15 -6 0 -10 9 -10 20 0 11 -7 20 -15 20
-9 0 -15 -9 -15 -24 0 -14 -4 -28 -10 -31 -5 -3 -10 -15 -10 -26 0 -10 -4 -19
-10 -19 -5 0 -10 5 -10 10 0 19 -74 -2 -96 -27 -20 -24 -21 -24 -57 -7 -35 17
-37 17 -57 -1 -17 -15 -24 -16 -46 -7 -13 7 -42 12 -62 12 -21 0 -43 5 -49 11
-8 8 -17 8 -31 0 -27 -15 -53 -14 -49 1 2 14 -66 29 -126 28 -23 -1 -36 3 -33
9 11 18 -12 21 -58 9 -35 -9 -43 -15 -34 -25 6 -7 23 -13 39 -13 21 0 27 -4
23 -15 -4 -9 0 -15 8 -15 7 0 31 -9 51 -19 37 -19 55 -18 109 4 17 7 18 -3 3
-38 -4 -10 -5 -21 -1 -24 3 -4 6 2 6 12 0 15 2 16 16 4 27 -23 14 -126 -70
-554 l-51 -260 -80 0 c-44 -1 -91 2 -105 6 l-25 7 25 2 25 2 -27 11 c-16 6
-28 17 -28 24 0 7 -11 13 -25 13 -15 0 -28 7 -32 18 -4 9 -17 27 -30 40 -13
12 -19 22 -13 22 7 0 5 6 -4 15 -8 8 -22 15 -30 15 -9 0 -16 8 -16 19 0 10 -7
21 -15 25 -8 3 -15 15 -15 26 0 12 -4 18 -10 15 -5 -3 -12 6 -16 20 -3 14 -10
25 -15 25 -5 0 -9 9 -9 20 0 11 -4 20 -9 20 -9 0 -58 96 -84 165 -15 38 -23
81 -32 170 -2 22 -8 54 -13 70 -12 41 9 203 27 214 9 6 12 19 8 40 -4 18 -2
31 4 31 20 0 69 -44 69 -63 0 -23 85 -106 123 -119 15 -6 27 -17 28 -26 0 -11
2 -12 6 -4 2 6 19 12 36 12 24 0 28 -3 17 -10 -13 -8 -12 -10 3 -10 10 0 17 8
17 20 0 12 -7 20 -17 21 -13 0 -12 3 6 10 18 7 22 14 17 34 -5 18 -2 27 9 31
8 4 15 10 15 16 0 5 -4 7 -9 4 -9 -6 -67 20 -76 34 -3 5 -24 14 -46 20 -34 9
-38 14 -29 26 11 12 5 14 -34 14 -40 0 -48 3 -56 25 -10 26 -52 36 -65 15 -3
-5 -19 -10 -35 -10 -21 0 -29 6 -34 25 -4 14 -13 25 -21 25 -9 0 -20 12 -25
26 -8 21 -15 25 -42 22 -24 -2 -33 -8 -32 -20 1 -10 -2 -18 -6 -18 -9 0 -1
-40 12 -56 5 -7 2 -16 -7 -24 -8 -7 -15 -19 -15 -26 0 -20 -41 -17 -70 6 -14
11 -31 20 -37 20 -7 0 -13 9 -13 20 0 11 -12 27 -26 36 -19 13 -24 23 -20 39
4 14 0 28 -9 35 -8 7 -15 18 -15 25 0 7 -7 15 -15 19 -8 3 -15 12 -15 19 0 8
-13 26 -30 40 -16 15 -30 34 -30 42 0 8 -13 24 -29 36 -24 18 -29 27 -25 49 5
23 2 28 -28 36 -25 8 -32 15 -30 30 2 10 8 21 13 22 15 6 10 24 -12 49 -18 19
-20 25 -9 38 11 13 9 18 -9 34 -11 10 -21 26 -21 36 0 23 -54 75 -78 75 -10 0
-38 12 -63 28 -24 15 -53 33 -64 40 -42 26 -155 77 -200 90 -26 7 -31 15 -36
52 -6 46 -28 70 -65 70 -30 0 -48 24 -40 55 5 18 1 30 -14 42 -12 10 -20 30
-20 48 0 17 -9 47 -20 68 -11 20 -20 48 -20 62 0 13 -13 39 -28 57 -28 32
-106 141 -127 178 -19 32 -39 52 -60 60 -14 6 -25 26 -38 76 -10 38 -23 83
-29 99 -6 17 -13 45 -15 63 -3 18 -9 35 -14 38 -5 3 -9 13 -9 22 -1 9 -14 33
-30 52 -27 31 -30 41 -30 106 0 39 -7 93 -15 119 -27 90 0 300 51 396 13 26
24 56 24 66 0 10 5 24 11 30 7 7 13 23 14 37 2 14 22 49 45 78 94 121 151 206
169 255 11 28 34 73 50 101 17 27 31 53 31 58 0 14 42 57 85 87 22 15 60 46
85 69 25 22 66 54 93 70 26 17 47 33 47 37 0 4 26 24 59 44 32 21 77 58 100
82 l42 45 90 0 c104 0 182 22 269 76 30 18 100 49 155 67 55 19 115 42 132 51
18 9 41 16 53 16 11 0 39 8 63 19 23 10 89 34 147 53 97 32 112 34 205 31 55
-3 136 -14 180 -25z m2825 -127 c0 -15 -9 -36 -20 -46 -11 -10 -20 -26 -20
-35 0 -23 -34 -52 -46 -40 -15 15 -54 0 -54 -21 0 -11 5 -19 10 -19 6 0 10 7
10 15 0 8 6 12 13 9 21 -8 17 -72 -5 -77 -10 -3 -18 -13 -18 -22 0 -21 -22
-43 -38 -37 -7 2 -12 -5 -12 -16 0 -12 -6 -27 -13 -34 -7 -7 -23 -28 -36 -45
-26 -38 -41 -42 -41 -13 0 11 3 20 8 20 4 0 16 19 26 43 10 23 21 44 26 47 8
6 60 87 60 95 0 10 -29 5 -36 -7 -4 -7 -3 -8 4 -4 7 4 12 2 12 -3 0 -15 -15
-14 -29 3 -12 15 0 63 15 58 5 -1 9 6 10 17 2 26 14 43 29 38 6 -3 19 2 28 11
34 37 50 47 55 34 5 -16 23 -16 21 1 -4 18 23 67 32 61 5 -3 9 -18 9 -33z
m-2610 -25 c0 -2 -13 -6 -29 -8 -17 -2 -28 -1 -25 4 5 8 54 12 54 4z m2387
-218 c-3 -7 -5 -2 -5 12 0 14 2 19 5 13 2 -7 2 -19 0 -25z m173 12 c0 -5 -2
-10 -4 -10 -3 0 -8 5 -11 10 -3 6 -1 10 4 10 6 0 11 -4 11 -10z m-252 -69 c2
-29 -10 -15 -23 28 -6 20 -5 22 7 11 8 -8 15 -25 16 -39z m42 40 c0 -5 -6 -14
-14 -20 -11 -9 -15 -7 -18 7 -4 12 1 18 13 19 11 1 19 -2 19 -6z m186 -21 c6
-6 21 -13 34 -15 26 -5 47 -22 38 -30 -8 -8 -138 35 -138 45 0 13 53 13 66 0z
m-258 -44 c-14 -13 -17 -12 -27 10 -7 15 -7 23 -1 19 5 -3 10 0 10 7 0 8 5 7
16 -4 15 -15 15 -18 2 -32z m-28 -30 c0 -5 -9 3 -20 17 -11 14 -20 31 -20 39
0 7 9 0 20 -17 11 -16 20 -34 20 -39z m265 24 c4 -6 21 -17 38 -25 18 -9 24
-13 15 -10 -27 7 -21 -14 7 -27 14 -6 25 -17 25 -25 0 -15 -9 -16 -30 -3 -9 5
-19 5 -27 -2 -9 -7 -20 -6 -38 6 -20 13 -33 15 -60 7 -19 -5 -35 -6 -35 -1 0
23 14 40 34 41 16 1 17 2 4 6 -20 5 -24 23 -5 23 6 0 18 -4 26 -9 22 -14 44
-2 30 15 -8 9 -8 14 -1 14 6 0 14 -5 17 -10z m-295 -20 c0 -5 -2 -10 -4 -10
-3 0 -8 5 -11 10 -3 6 -1 10 4 10 6 0 11 -4 11 -10z m-55 -70 c3 -5 1 -10 -4
-10 -6 0 -11 5 -11 10 0 6 2 10 4 10 3 0 8 -4 11 -10z m164 -23 c-6 -12 -21
-32 -33 -45 -11 -13 -19 -25 -16 -26 9 -5 -45 -76 -55 -73 -21 7 -9 44 27 80
21 21 38 45 38 52 0 18 29 47 41 39 5 -3 4 -14 -2 -27z m241 -13 c13 -15 13
-16 -5 -11 -11 3 -44 9 -74 12 -36 5 -49 10 -40 16 20 13 101 1 119 -17z
m-130 -15 c0 -5 -7 -9 -15 -9 -8 0 -15 7 -15 15 0 9 6 12 15 9 8 -4 15 -10 15
-15z m53 -37 c16 -1 27 -8 27 -16 0 -8 9 -18 21 -21 34 -11 12 -19 -49 -16
-36 1 -68 9 -87 21 -21 14 -25 20 -12 20 9 0 17 4 17 8 0 7 11 8 83 4z m-123
-82 c3 -1 17 -1 33 0 17 1 29 -4 33 -14 3 -9 16 -16 29 -16 12 0 29 -7 36 -16
11 -14 10 -16 -6 -13 -32 4 -57 -11 -45 -26 8 -9 8 -15 0 -20 -6 -3 -8 -11 -5
-16 4 -5 -9 -9 -28 -9 -21 0 -41 -7 -52 -20 -10 -11 -23 -20 -29 -20 -5 0 7
17 27 38 41 42 40 52 -7 53 -17 0 -25 3 -18 6 6 2 12 11 12 20 0 10 6 12 20 8
11 -4 20 -2 20 4 0 6 -9 11 -20 11 -12 0 -29 8 -40 18 -19 17 -18 18 8 16 15
-1 29 -3 32 -4z m-170 -23 c0 -7 -7 -22 -15 -33 -13 -17 -14 -16 -4 14 11 33
19 41 19 19z m117 -27 c-1 -16 -3 -30 -5 -30 -6 0 -19 45 -15 53 10 17 22 5
20 -23z m-1757 -30 c-6 -11 -15 -18 -19 -15 -5 2 -22 -5 -37 -16 -17 -13 -13
-7 10 15 42 40 62 47 46 16z m30 -60 c0 -5 -8 -10 -17 -10 -15 0 -16 2 -3 10
19 12 20 12 20 0z m56 -15 c-11 -8 -27 -15 -35 -15 -11 0 -10 4 5 15 10 8 26
14 34 14 11 0 10 -3 -4 -14z m1684 -29 c0 -2 -8 -10 -17 -17 -16 -13 -17 -12
-4 4 13 16 21 21 21 13z m-1439 -41 l34 -15 -34 2 c-19 2 -36 9 -39 16 -5 15
-1 15 39 -3z m969 -10 c0 -8 -2 -15 -4 -15 -2 0 -6 7 -10 15 -3 8 -1 15 4 15
6 0 10 -7 10 -15z m-1293 -1 c-3 -3 -12 -4 -19 -1 -8 3 -5 6 6 6 11 1 17 -2
13 -5z m176 -16 c-20 -10 -32 -28 -19 -28 19 0 56 22 51 30 -7 12 -3 12 19 4
13 -5 13 -8 1 -20 -7 -8 -19 -14 -26 -14 -9 0 -8 -4 1 -15 14 -17 0 -21 -17
-4 -6 6 -39 12 -72 12 -35 0 -56 4 -49 9 7 4 23 8 36 8 13 0 30 7 38 15 9 8
25 15 37 14 l22 0 -22 -11z m147 -18 c-12 -8 -12 -10 3 -16 24 -9 21 -24 -5
-23 -13 1 -30 0 -38 -3 -8 -3 -12 -3 -7 -1 14 9 7 23 -13 23 -36 0 -21 19 23
28 45 9 60 6 37 -8z m-260 -72 c-44 -40 -52 -26 -9 18 20 21 35 30 38 23 2 -7
-11 -26 -29 -41z m1880 48 c0 -2 -7 -7 -16 -10 -8 -3 -12 -2 -9 4 6 10 25 14
25 6z m-2140 -47 c0 -6 -4 -7 -10 -4 -5 3 -10 11 -10 16 0 6 5 7 10 4 6 -3 10
-11 10 -16z m1824 -52 c-19 -40 -44 -113 -55 -162 -30 -125 -50 -198 -54 -194
-4 6 51 258 65 294 13 34 69 135 75 135 2 0 -12 -33 -31 -73z m156 -24 c-30
-32 -58 -59 -62 -61 -17 -8 -78 -123 -108 -202 -17 -47 -35 -94 -40 -105 -8
-19 -9 -19 -9 2 -1 28 60 180 104 258 40 71 131 163 165 165 2 0 -20 -26 -50
-57z m137 11 c3 -8 -4 -28 -15 -44 -18 -24 -19 -29 -6 -34 8 -3 12 -2 9 4 -3
6 2 10 12 10 16 0 16 -1 0 -17 -12 -12 -34 -18 -72 -18 -46 0 -55 3 -57 19 -2
11 -9 21 -17 24 -9 3 -11 0 -6 -8 5 -8 4 -11 -3 -6 -18 11 -3 33 31 49 18 7
43 19 57 25 36 16 60 14 67 -4z m-1622 -4 c-3 -5 -12 -10 -18 -10 -7 0 -6 4 3
10 19 12 23 12 15 0z m-373 -28 c-6 -2 -8 -10 -6 -17 3 -8 -3 -27 -15 -43 -16
-23 -19 -41 -17 -86 3 -51 2 -56 -11 -43 -26 25 -28 98 -5 136 11 19 18 40 15
48 -8 20 18 35 35 20 9 -7 10 -13 4 -15z m907 -154 c49 -73 127 -226 119 -233
-2 -2 -29 47 -60 108 -31 62 -80 141 -108 176 -29 35 -41 55 -28 45 14 -10 48
-53 77 -96z m-79 31 c0 -6 -4 -7 -10 -4 -5 3 -10 11 -10 16 0 6 5 7 10 4 6 -3
10 -11 10 -16z m70 -79 c62 -79 130 -221 136 -282 3 -28 8 -56 11 -62 4 -6 0
-5 -9 1 -8 7 -18 11 -21 8 -4 -3 -5 -2 -2 2 3 4 -9 22 -27 41 -23 24 -27 31
-12 24 12 -6 24 -8 28 -5 3 3 6 1 6 -5 0 -7 4 -12 10 -12 11 0 -40 80 -84 131
-17 19 -5 8 27 -25 l58 -60 -28 60 c-44 92 -90 169 -123 207 -16 19 -30 38
-30 43 0 10 6 3 60 -66z m-280 4 c47 -7 90 -23 60 -23 -8 0 -32 3 -53 8 -37 9
-38 9 -21 -10 9 -10 23 -19 30 -19 11 0 11 -6 3 -27 -6 -16 -8 -45 -5 -66 4
-21 2 -46 -4 -57 -7 -13 -6 -22 3 -32 12 -13 22 -48 13 -48 -3 0 -15 18 -27
40 -12 22 -25 37 -28 35 -3 -3 -11 5 -18 17 -7 13 -12 17 -13 10 0 -21 20 -53
30 -47 5 3 14 -12 21 -34 7 -22 16 -38 22 -34 5 3 1 -6 -8 -21 -10 -14 -24
-26 -32 -26 -12 0 -12 -2 1 -16 9 -8 16 -16 16 -18 0 -5 -51 1 -57 7 -3 4 -15
7 -26 7 -19 0 -19 -1 -2 -20 10 -11 21 -18 24 -15 4 2 13 -1 21 -7 12 -8 12
-9 -2 -4 -10 3 -20 1 -23 -5 -4 -5 -12 -9 -18 -8 -30 4 -71 -2 -62 -9 25 -18
13 -28 -20 -18 -18 6 -32 14 -29 17 2 4 -12 3 -31 -2 -20 -6 -45 -7 -56 -4
-22 7 -17 19 9 21 45 3 52 5 52 15 0 6 -9 8 -20 4 -23 -7 -27 10 -4 19 24 9 6
26 -29 26 -18 0 -27 4 -22 8 6 4 10 18 10 31 0 22 -40 51 -105 76 -8 3 -26 12
-40 20 -19 11 -21 15 -7 15 9 0 17 4 17 10 0 6 9 5 24 -1 16 -7 30 -8 41 -2
15 9 10 14 -29 32 -55 27 -61 46 -11 38 35 -6 49 6 20 17 -8 3 -15 14 -15 25
0 14 5 18 20 14 14 -4 20 0 20 11 0 10 -4 15 -9 12 -5 -4 -7 3 -4 15 l6 20 21
-20 c28 -27 36 -26 29 0 -5 19 -4 20 16 10 15 -8 21 -9 21 -1 0 6 5 8 10 5 6
-4 32 -8 58 -10 40 -3 44 -1 29 10 -14 10 -15 14 -5 18 14 6 115 1 188 -9z
m947 -71 c-2 -16 -4 -3 -4 27 0 30 2 43 4 28 2 -16 2 -40 0 -55z m-877 -15 c0
-5 -4 -6 -10 -3 -6 4 -10 -5 -10 -19 0 -27 -14 -34 -26 -14 -5 7 -3 8 6 3 10
-6 11 -2 6 19 -8 34 1 51 20 35 8 -6 14 -16 14 -21z m-1413 -1 c7 -5 10 -13 7
-18 -7 -12 -44 13 -44 29 0 13 11 10 37 -11z m2893 13 c11 -7 3 -10 -28 -10
-26 0 -41 4 -37 10 8 13 45 13 65 0z m-185 -20 c-11 -5 -27 -9 -35 -9 -13 -1
-13 0 0 9 8 5 24 9 35 9 l20 0 -20 -9z m-285 -85 c-7 -9 -15 -13 -18 -10 -3 2
1 11 8 20 7 9 15 13 18 10 3 -2 -1 -11 -8 -20z m485 15 c-3 -5 -10 -10 -16
-10 -5 0 -9 5 -9 10 0 6 7 10 16 10 8 0 12 -4 9 -10z m-2750 -30 c-3 -5 -12
-10 -18 -10 -7 0 -6 4 3 10 19 12 23 12 15 0z m2750 -70 c3 -5 -3 -10 -14 -10
-12 0 -21 5 -21 10 0 6 6 10 14 10 8 0 18 -4 21 -10z m25 -40 c0 -5 -5 -10
-11 -10 -5 0 -7 5 -4 10 3 6 8 10 11 10 2 0 4 -4 4 -10z m-1550 -4 c0 -2 -7
-7 -16 -10 -8 -3 -12 -2 -9 4 6 10 25 14 25 6z m1554 -61 c-17 -12 -44 -10
-44 4 0 3 12 14 28 23 24 15 27 15 30 2 2 -9 -4 -21 -14 -29z m-342 3 c54 -62
43 -156 -26 -224 -33 -33 -52 -44 -89 -49 -47 -7 -107 7 -107 26 0 5 -5 8 -11
7 -20 -5 -32 28 -24 68 4 22 10 33 13 24 3 -8 11 -21 19 -28 7 -8 11 -17 8
-22 -3 -4 2 -10 10 -14 8 -3 15 0 15 7 0 8 3 7 9 -2 13 -20 76 -16 106 6 20
15 30 36 40 83 1 3 4 15 9 28 5 16 1 35 -18 66 -14 24 -22 46 -19 50 10 10 47
-4 65 -26z m-82 -81 c0 -20 -2 -19 -31 10 -23 22 -30 36 -25 50 7 16 10 15 32
-10 13 -15 24 -38 24 -50z m545 53 c3 -5 1 -10 -4 -10 -6 0 -11 5 -11 10 0 6
2 10 4 10 3 0 8 -4 11 -10z m1408 -12 c-6 -11 -41 -10 -47 1 -3 4 8 8 23 7 16
-1 27 -4 24 -8z m-2056 -54 c-9 -9 -28 6 -21 18 4 6 10 6 17 -1 6 -6 8 -13 4
-17z m513 16 c0 -5 -4 -10 -10 -10 -5 0 -10 5 -10 10 0 6 5 10 10 10 6 0 10
-4 10 -10z m40 0 c0 -5 -5 -10 -11 -10 -5 0 -7 5 -4 10 3 6 8 10 11 10 2 0 4
-4 4 -10z m217 4 c-3 -3 -12 -4 -19 -1 -8 3 -5 6 6 6 11 1 17 -2 13 -5z m1250
0 c-3 -3 -12 -4 -19 -1 -8 3 -5 6 6 6 11 1 17 -2 13 -5z m-3372 -14 c3 -5 1
-10 -4 -10 -6 0 -11 5 -11 10 0 6 2 10 4 10 3 0 8 -4 11 -10z m3395 -25 c0 -8
-4 -15 -10 -15 -5 0 -10 7 -10 15 0 8 5 15 10 15 6 0 10 -7 10 -15z m-1253
-27 c-3 -8 -6 -5 -6 6 -1 11 2 17 5 13 3 -3 4 -12 1 -19z m-1422 -12 c50 -50
41 -157 -19 -214 -62 -60 -136 -69 -207 -23 -75 47 -109 123 -86 191 10 29 18
36 52 42 26 6 41 5 43 -2 2 -5 8 -8 13 -4 5 3 5 -5 0 -19 -6 -14 -8 -27 -6
-29 3 -2 7 -22 10 -43 2 -21 10 -42 16 -45 6 -4 10 -10 10 -14 -3 -22 3 -26
37 -26 42 0 86 32 60 44 -9 4 -10 8 -2 11 16 8 6 44 -24 83 -17 23 -21 37 -14
44 14 14 66 -37 58 -58 -10 -25 3 -34 30 -22 19 9 23 16 17 32 -3 12 -7 29 -8
39 -1 10 -8 23 -16 28 -10 6 -11 9 -1 9 7 0 24 -11 37 -24z m625 -1 c0 -8 -4
-15 -10 -15 -5 0 -10 7 -10 15 0 8 5 15 10 15 6 0 10 -7 10 -15z m617 -42 c-3
-10 -5 -4 -5 12 0 17 2 24 5 18 2 -7 2 -21 0 -30z m-1267 -7 c0 -2 -7 -9 -15
-16 -13 -11 -14 -10 -9 4 5 14 24 23 24 12z m2720 -11 c0 -8 -4 -15 -10 -15
-5 0 -7 7 -4 15 4 8 8 15 10 15 2 0 4 -7 4 -15z m-2860 -5 c0 -5 -4 -10 -10
-10 -5 0 -10 5 -10 10 0 6 5 10 10 10 6 0 10 -4 10 -10z m-190 -32 c0 -5 -7
-3 -15 6 -8 8 -15 18 -15 22 0 3 7 1 15 -6 8 -7 15 -17 15 -22z m426 -75 c-3
-10 -14 -23 -24 -30 -17 -10 -18 -8 -14 15 3 15 9 33 15 40 14 17 31 -1 23
-25z m2674 -503 c0 -5 -7 -10 -16 -10 -8 0 -12 5 -9 10 3 6 10 10 16 10 5 0 9
-4 9 -10z m8 -56 c-10 -10 -28 6 -28 24 0 15 1 15 17 -1 9 -9 14 -19 11 -23z
m2 -59 c0 -8 -4 -15 -9 -15 -13 0 -22 16 -14 24 11 11 23 6 23 -9z m-7705 -15
c3 -5 1 -10 -4 -10 -6 0 -11 5 -11 10 0 6 2 10 4 10 3 0 8 -4 11 -10z m82 -96
c-3 -3 -12 -4 -19 -1 -8 3 -5 6 6 6 11 1 17 -2 13 -5z m11380 -20 c-3 -3 -12
-4 -19 -1 -8 3 -5 6 6 6 11 1 17 -2 13 -5z m2820 -36 c-3 -8 -6 -5 -6 6 -1 11
2 17 5 13 3 -3 4 -12 1 -19z m33 -56 c0 -15 -2 -15 -10 -2 -13 20 -13 33 0 25
6 -3 10 -14 10 -23z m-3247 1 c-7 -2 -19 -2 -25 0 -7 3 -2 5 12 5 14 0 19 -2
13 -5z m3278 -110 c-9 -16 -10 -14 -11 12 0 21 3 26 11 18 8 -8 8 -16 0 -30z
m-6598 -70 c5 -48 3 -62 -9 -50 -11 11 -17 97 -7 97 6 0 13 -21 16 -47z m97
-43 c0 -5 -4 -10 -10 -10 -5 0 -10 5 -10 10 0 6 5 10 10 10 6 0 10 -4 10 -10z
m6597 -72 c-3 -8 -6 -5 -6 6 -1 11 2 17 5 13 3 -3 4 -12 1 -19z m-14387 -12
c0 -3 -4 -8 -10 -11 -5 -3 -10 -1 -10 4 0 6 5 11 10 11 6 0 10 -2 10 -4z
m13983 -151 c-3 -8 -9 -15 -14 -15 -10 0 -12 24 -3 33 11 11 24 -3 17 -18z
m492 -15 c3 -5 1 -10 -4 -10 -6 0 -11 5 -11 10 0 6 2 10 4 10 3 0 8 -4 11 -10z
m-14451 -145 c7 -5 18 -21 25 -33 12 -22 11 -23 -11 -17 -20 7 -21 6 -9 -9 8
-9 11 -20 7 -23 -12 -12 -41 13 -38 32 2 11 -1 14 -9 10 -7 -5 -10 -3 -7 6 3
8 12 13 21 11 11 -2 15 2 11 13 -3 8 -12 15 -20 15 -8 0 -11 6 -7 17 5 12 2
15 -9 10 -10 -3 -19 0 -22 9 -9 23 -8 24 17 33 20 8 23 5 30 -28 4 -20 13 -40
21 -46z m13877 2 c-7 -7 -12 -5 -17 7 -4 11 -1 21 7 27 17 11 26 -18 10 -34z
m653 -13 c3 -8 2 -12 -4 -9 -6 3 -10 10 -10 16 0 14 7 11 14 -7z m-682 -16
c-7 -7 -12 -8 -12 -2 0 14 12 26 19 19 2 -3 -1 -11 -7 -17z m15 -60 c-3 -8 -6
-5 -6 6 -1 11 2 17 5 13 3 -3 4 -12 1 -19z m-13819 -36 c4 -26 -6 -28 -24 -4
-18 24 -17 34 4 30 9 -2 18 -13 20 -26z m13831 -34 c1 -5 -3 -8 -9 -8 -5 0
-10 12 -9 28 0 24 1 25 9 7 5 -11 9 -23 9 -27z m-6134 -8 c3 -5 1 -10 -4 -10
-6 0 -11 5 -11 10 0 6 2 10 4 10 3 0 8 -4 11 -10z m-7700 -10 c3 -6 -1 -7 -9
-4 -18 7 -21 14 -7 14 6 0 13 -4 16 -10z m13836 -9 c-7 -5 -17 -15 -22 -22 -6
-10 -9 -8 -9 9 0 16 6 22 23 22 16 0 18 -3 8 -9z m-13861 -11 c0 -5 -2 -10 -4
-10 -3 0 -8 5 -11 10 -3 6 -1 10 4 10 6 0 11 -4 11 -10z m14652 -77 c54 -110
53 -107 40 -99 -13 8 -92 160 -92 176 0 22 11 6 52 -77z m-785 30 c-3 -10 -5
-4 -5 12 0 17 2 24 5 18 2 -7 2 -21 0 -30z m-1562 -63 c9 -30 23 -68 31 -85 7
-16 38 -100 69 -185 31 -85 62 -171 70 -190 8 -19 28 -75 45 -125 17 -49 33
-97 37 -105 3 -8 7 -17 8 -20 1 -3 5 -14 10 -25 30 -75 34 -88 30 -95 -3 -5
-2 -10 3 -12 8 -3 122 -318 122 -338 0 -6 10 -30 22 -53 11 -23 33 -78 48
-122 15 -44 32 -93 38 -110 44 -124 76 -234 74 -258 -1 -15 2 -25 7 -23 5 3
19 -28 32 -69 13 -41 27 -75 32 -75 4 0 7 -13 7 -28 0 -16 12 -57 26 -92 14
-35 23 -72 21 -82 -3 -11 3 -24 16 -33 18 -13 19 -17 8 -24 -11 -7 -11 -10 4
-12 15 -4 15 -6 -4 -30 -22 -29 -19 -39 13 -39 16 0 18 -2 7 -9 -8 -5 -10 -14
-6 -21 5 -9 4 -11 -3 -6 -7 4 -12 1 -12 -8 0 -8 5 -18 10 -21 6 -3 10 -13 10
-22 0 -14 -2 -14 -20 2 -23 21 -50 13 -50 -15 0 -11 -4 -20 -10 -20 -5 0 -10
9 -10 20 0 11 -7 20 -15 20 -7 0 -18 6 -22 14 -11 19 -55 24 -61 7 -3 -10 0
-12 12 -8 18 7 22 -8 5 -19 -6 -3 -18 1 -27 9 -13 14 -18 14 -44 1 -15 -8 -28
-19 -28 -24 0 -5 -7 -7 -16 -3 -8 3 -13 12 -9 20 4 11 1 13 -12 8 -10 -4 -27
-9 -38 -12 -20 -4 -20 -4 -1 11 17 14 18 16 2 22 -9 3 -23 1 -30 -5 -17 -15
-29 0 -19 25 4 12 3 15 -5 10 -7 -4 -12 -15 -12 -24 0 -12 -3 -13 -12 -4 -9 9
-16 8 -29 -4 -11 -10 -19 -12 -23 -5 -4 6 -13 8 -21 4 -8 -3 -15 0 -15 5 0 6
-18 10 -42 9 -25 -1 -43 3 -46 11 -6 20 -40 14 -57 -10 -12 -16 -19 -19 -22
-10 -3 9 -9 10 -17 3 -6 -5 -21 -8 -31 -6 -11 2 -22 4 -25 4 -3 1 2 6 10 12
11 8 6 9 -23 5 -20 -2 -35 -1 -32 4 7 11 -20 20 -61 20 -25 0 -34 -4 -34 -17
0 -13 -3 -14 -12 -5 -7 7 -20 12 -30 12 -10 0 -18 5 -18 10 0 6 12 10 26 10
15 0 23 4 18 11 -3 6 -15 9 -25 6 -14 -4 -19 0 -19 14 0 14 7 19 29 19 52 0
46 20 -6 21 -42 1 -44 2 -18 9 31 7 30 9 -33 29 -27 8 -34 7 -39 -4 -8 -22
-23 -18 -23 6 0 19 -4 21 -31 15 -27 -5 -30 -4 -24 15 6 19 4 20 -32 14 -30
-4 -33 -3 -15 4 21 10 31 31 15 31 -5 0 -19 3 -32 7 -20 5 -23 3 -18 -10 7
-19 -1 -21 -23 -7 -13 9 -13 11 0 21 13 9 12 10 -3 5 -10 -3 -23 -6 -28 -6 -5
0 -10 -10 -10 -22 -1 -14 -4 -10 -8 12 -6 33 -9 35 -41 33 -19 0 -27 1 -17 4
26 7 20 20 -13 27 -27 5 -30 9 -30 43 1 40 14 100 49 218 11 39 37 135 57 215
19 80 44 170 54 200 10 30 37 132 60 225 23 94 58 226 77 295 19 69 37 134 40
145 3 11 7 27 10 35 3 8 7 22 9 30 15 74 25 113 29 121 4 5 8 17 10 27 10 56
38 162 52 197 8 22 14 42 14 45 -2 12 13 78 25 110 7 19 20 61 29 93 19 68 32
63 60 -23z m-12325 50 c0 -5 -4 -10 -10 -10 -5 0 -10 5 -10 10 0 6 5 10 10 10
6 0 10 -4 10 -10z m10 -65 c14 -16 10 -18 -14 -9 -9 3 -16 10 -16 15 0 14 16
11 30 -6z m13868 4 c-2 -6 -8 -10 -13 -10 -5 0 -11 4 -13 10 -2 6 4 11 13 11
9 0 15 -5 13 -11z m-13828 -49 c0 -5 -4 -10 -10 -10 -5 0 -10 5 -10 10 0 6 5
10 10 10 6 0 10 -4 10 -10z m14720 -103 c0 -5 -5 -5 -10 -2 -10 6 -40 71 -40
84 1 9 50 -72 50 -82z m125 -242 c53 -103 94 -189 92 -191 -3 -3 -16 14 -29
38 -36 62 -188 366 -188 375 0 17 34 -43 125 -222z m-14875 205 c0 -5 -2 -10
-4 -10 -3 0 -8 5 -11 10 -3 6 -1 10 4 10 6 0 11 -4 11 -10z m5950 0 c0 -5 -2
-10 -4 -10 -3 0 -8 5 -11 10 -3 6 -1 10 4 10 6 0 11 -4 11 -10z m7920 -64
c-15 -15 -12 -26 5 -20 18 7 20 -7 3 -24 -8 -8 -8 -15 2 -27 9 -11 10 -19 2
-27 -13 -13 -37 66 -26 91 4 9 6 30 6 46 l-1 30 9 -30 c6 -19 6 -33 0 -39z
m-10130 -16 c-12 -23 -30 -27 -30 -7 0 17 10 27 27 27 11 0 11 -5 3 -20z
m-3396 -5 c3 -8 2 -15 -3 -15 -5 0 -14 7 -21 15 -10 12 -10 15 3 15 8 0 17 -7
21 -15z m-404 -25 c0 -5 -9 -10 -21 -10 -11 0 -17 5 -14 10 3 6 13 10 21 10 8
0 14 -4 14 -10z m140 -36 c0 -2 -7 -4 -15 -4 -8 0 -15 4 -15 10 0 5 7 7 15 4
8 -4 15 -8 15 -10z m-65 -4 c8 -13 -20 -24 -42 -16 -15 6 -15 8 -3 16 20 13
37 12 45 0z m-90 -50 c8 -13 -13 -40 -29 -39 -8 0 -8 2 0 5 7 3 10 14 7 24 -6
21 11 28 22 10z m13915 -15 c0 -18 27 -20 32 -3 3 9 6 9 12 0 8 -13 -36 -28
-53 -17 -14 8 -14 35 -1 35 6 0 10 -7 10 -15z m7 -52 c-4 -3 1 -12 11 -19 15
-12 15 -13 1 -14 -9 0 -19 6 -22 14 -5 13 0 26 11 26 3 0 2 -3 -1 -7z m-13820
-19 c-3 -3 -12 -4 -19 -1 -8 3 -5 6 6 6 11 1 17 -2 13 -5z m13846 -78 c4 -10
1 -13 -9 -9 -15 6 -19 23 -5 23 5 0 11 -7 14 -14z m-12990 -13 c-7 -2 -19 -2
-25 0 -7 3 -2 5 12 5 14 0 19 -2 13 -5z m8130 -24 c31 -16 57 -50 57 -77 0
-13 -9 -42 -20 -64 -23 -49 -25 -58 -7 -58 36 0 94 -26 119 -52 47 -50 40 -88
-32 -162 -61 -64 -94 -123 -84 -150 3 -9 21 -25 39 -36 45 -28 62 -70 44 -112
-17 -41 -113 -161 -171 -215 -75 -68 -119 -86 -233 -93 -88 -5 -110 -11 -185
-45 -106 -50 -163 -52 -232 -12 -163 95 -208 340 -98 532 84 146 257 255 406
255 l53 0 11 39 c19 71 116 176 210 230 59 33 88 38 123 20z m4807 -7 c0 -10
5 -23 12 -30 21 -21 -7 -13 -30 9 -23 21 -21 39 4 39 8 0 14 -8 14 -18z
m-13420 -82 c0 -5 -4 -10 -10 -10 -5 0 -10 5 -10 10 0 6 5 10 10 10 6 0 10 -4
10 -10z m-330 -10 c0 -5 -12 -10 -27 -9 l-28 1 25 8 c14 4 26 8 28 9 1 1 2 -3
2 -9z m13770 -30 c0 -5 -4 -10 -10 -10 -5 0 -10 5 -10 10 0 6 5 10 10 10 6 0
10 -4 10 -10z m15 -30 c3 -5 1 -10 -4 -10 -6 0 -11 5 -11 10 0 6 2 10 4 10 3
0 8 -4 11 -10z m-37 -83 c6 -7 15 -38 20 -69 7 -45 6 -55 -5 -51 -7 3 -13 20
-13 38 0 18 -9 44 -20 57 -25 32 -7 56 18 25z m82 -88 c0 -6 -4 -7 -10 -4 -5
3 -10 11 -10 16 0 6 5 7 10 4 6 -3 10 -11 10 -16z m-13060 -59 c0 -5 -5 -10
-11 -10 -5 0 -7 5 -4 10 3 6 8 10 11 10 2 0 4 -4 4 -10z m12960 -14 c0 -3 -4
-8 -10 -11 -5 -3 -10 -1 -10 4 0 6 5 11 10 11 6 0 10 -2 10 -4z m-9380 -60 c0
-2 -7 -7 -16 -10 -8 -3 -12 -2 -9 4 6 10 25 14 25 6z m-152 -34 c2 -7 -3 -12
-12 -12 -9 0 -16 7 -16 16 0 17 22 14 28 -4z m-1202 -39 c-3 -10 -10 -45 -15
-78 -11 -56 -24 -85 -36 -73 -3 2 0 19 6 37 9 25 8 36 -4 55 -12 17 -13 26 -4
35 6 6 8 12 4 12 -4 1 -11 3 -17 4 -5 1 -31 4 -57 5 l-48 3 50 7 c28 4 67 8
88 8 32 2 38 -1 33 -15z m-3113 -83 c-3 -12 -8 -19 -11 -16 -5 6 5 36 12 36 2
0 2 -9 -1 -20z m13802 10 c3 -5 -1 -10 -10 -10 -9 0 -13 5 -10 10 3 6 8 10 10
10 2 0 7 -4 10 -10z m-13004 -27 c-12 -20 -14 -14 -5 12 4 9 9 14 11 11 3 -2
0 -13 -6 -23z m-515 10 c-10 -11 -36 -12 -36 -2 0 5 10 9 22 9 12 0 18 -3 14
-7z m2821 -125 c-3 -8 -6 -5 -6 6 -1 11 2 17 5 13 3 -3 4 -12 1 -19z m-2530
-20 c-3 -8 -6 -5 -6 6 -1 11 2 17 5 13 3 -3 4 -12 1 -19z m3838 2 c-3 -5 -11
-10 -16 -10 -6 0 -7 5 -4 10 3 6 11 10 16 10 6 0 7 -4 4 -10z m9365 -40 c0 -5
-4 -10 -10 -10 -5 0 -10 5 -10 10 0 6 5 10 10 10 6 0 10 -4 10 -10z m60 1 c0
-12 -39 -25 -47 -17 -4 3 1 6 10 6 10 0 17 5 17 10 0 6 5 10 10 10 6 0 10 -4
10 -9z m-10763 -83 c-3 -7 -5 -2 -5 12 0 14 2 19 5 13 2 -7 2 -19 0 -25z
m1313 18 c0 -11 -19 -15 -25 -6 -3 5 1 10 9 10 9 0 16 -2 16 -4z m-1323 -68
c-3 -7 -5 -2 -5 12 0 14 2 19 5 13 2 -7 2 -19 0 -25z m1305 -22 c-8 -15 -24
24 -16 42 6 14 8 13 14 -8 4 -14 5 -29 2 -34z m-1315 -28 c-3 -8 -6 -5 -6 6
-1 11 2 17 5 13 3 -3 4 -12 1 -19z m-2884 -13 c-3 -9 -8 -14 -10 -11 -3 3 -2
9 2 15 9 16 15 13 8 -4z m497 -40 c-6 -15 -13 -26 -15 -23 -3 2 1 19 8 37 6
17 13 28 15 23 1 -5 -2 -22 -8 -37z m3767 19 c-3 -3 -12 -4 -19 -1 -8 3 -5 6
6 6 11 1 17 -2 13 -5z m-46 -37 c-16 -16 -26 0 -10 19 9 11 15 12 17 4 2 -6
-1 -17 -7 -23z m9369 18 c0 -8 -4 -15 -10 -15 -5 0 -7 7 -4 15 4 8 8 15 10 15
2 0 4 -7 4 -15z m-10733 -97 c-3 -7 -5 -2 -5 12 0 14 2 19 5 13 2 -7 2 -19 0
-25z m-2396 -9 c-5 -13 -10 -19 -10 -12 -1 15 10 45 15 40 3 -2 0 -15 -5 -28z
m-24 -81 c-3 -8 -6 -5 -6 6 -1 11 2 17 5 13 3 -3 4 -12 1 -19z m-14 -43 c-3
-9 -8 -14 -10 -11 -3 3 -2 9 2 15 9 16 15 13 8 -4z m-24 -64 c-6 -18 -13 -30
-15 -28 -2 2 1 18 7 36 6 18 13 30 15 28 2 -2 -1 -18 -7 -36z m12911 -341 c0
-5 -5 -10 -11 -10 -5 0 -7 5 -4 10 3 6 8 10 11 10 2 0 4 -4 4 -10z m-860 -47
c-1 -24 -2 -26 -11 -10 -5 9 -7 22 -4 27 10 17 15 11 15 -17z m407 -9 c-3 -3
-12 -4 -19 -1 -8 3 -5 6 6 6 11 1 17 -2 13 -5z m308 -84 c3 -5 1 -10 -4 -10
-6 0 -11 5 -11 10 0 6 2 10 4 10 3 0 8 -4 11 -10z m-10400 -316 c16 -14 45
-35 65 -46 28 -18 99 -74 166 -133 7 -5 24 -19 40 -30 16 -11 87 -69 159 -130
72 -60 153 -128 180 -150 28 -21 52 -42 55 -45 3 -3 21 -19 41 -35 87 -74 149
-127 214 -184 39 -33 99 -85 135 -115 36 -29 95 -82 133 -118 58 -56 67 -69
67 -100 0 -89 -23 -88 -121 5 -41 39 -111 103 -155 140 -84 73 -217 192 -269
242 -17 17 -67 61 -111 100 -43 38 -97 88 -120 110 -23 22 -65 60 -93 85 -29
25 -64 58 -79 74 -15 16 -37 38 -50 50 -73 66 -302 293 -302 299 0 13 15 7 45
-19z m1796 -67 c19 -15 49 -70 49 -92 0 -24 -82 -21 -105 5 -16 18 -17 25 -6
60 12 42 32 50 62 27z m8356 -368 c22 -47 20 -64 -8 -67 -25 -3 -27 0 -31 37
-2 22 -2 45 0 51 6 17 26 6 39 -21z m-112 -11 c3 -7 6 -24 7 -37 3 -22 -1 -25
-38 -29 -35 -3 -42 0 -47 17 -2 11 -2 23 2 26 3 4 7 11 7 16 1 5 2 11 3 14 2
11 62 4 66 -7z m-8382 -894 c32 -25 61 -52 64 -60 3 -9 1 -32 -5 -53 -9 -28
-19 -40 -44 -48 -38 -14 -81 -11 -102 6 -31 26 -54 86 -49 131 8 83 52 91 136
24z m4397 -1173 c0 -10 7 -21 15 -25 12 -4 14 0 9 19 -4 15 -2 25 5 25 6 0 13
-10 16 -23 4 -16 13 -23 28 -23 13 1 21 -4 20 -11 -2 -7 5 -13 15 -13 9 -1 31
-12 47 -26 l30 -25 -27 7 c-22 5 -28 3 -28 -11 0 -9 8 -19 18 -21 14 -4 16
-14 14 -50 -2 -24 -7 -44 -11 -44 -9 0 -8 -31 2 -47 13 -21 -4 -43 -35 -43
-18 0 -27 -4 -23 -11 4 -6 12 -9 19 -6 6 2 19 -5 29 -15 17 -18 16 -19 -8 -28
-15 -6 -33 -10 -41 -10 -10 0 -13 -6 -10 -18 6 -17 1 -18 -54 -14 -48 4 -60 1
-60 -10 0 -10 9 -14 33 -12 29 3 30 3 7 -5 -42 -15 -70 -13 -64 4 5 12 -2 15
-27 15 -25 0 -30 -3 -20 -9 22 -14 24 -56 5 -72 -16 -13 -17 -11 -11 11 3 14
1 32 -4 40 -9 13 -10 13 -6 -1 4 -13 1 -15 -16 -11 -12 3 -16 7 -9 10 14 4 17
32 3 32 -5 0 -11 -6 -14 -12 -3 -10 -7 -10 -20 1 -10 7 -17 18 -17 24 0 5 -8
16 -17 23 -17 13 -17 13 0 14 28 0 19 17 -13 24 -21 4 -30 11 -30 26 0 11 -4
20 -10 20 -5 0 -10 7 -10 15 0 9 -9 15 -21 15 -16 0 -19 4 -14 18 14 35 17 80
6 86 -17 11 -13 24 8 31 20 6 37 39 33 62 -2 7 13 15 33 19 22 4 35 12 35 21
0 12 3 13 14 4 19 -16 79 -3 71 17 -4 10 0 13 12 9 32 -8 38 -9 56 -8 9 0 17
8 17 16 0 8 5 15 10 15 6 0 10 -9 10 -19z m6687 -133 c-3 -8 -6 -5 -6 6 -1 11
2 17 5 13 3 -3 4 -12 1 -19z m53 7 c0 -8 -4 -15 -10 -15 -5 0 -10 7 -10 15 0
8 5 15 10 15 6 0 10 -7 10 -15z m-7050 -85 c0 -5 -4 -10 -10 -10 -5 0 -10 5
-10 10 0 6 5 10 10 10 6 0 10 -4 10 -10z m7035 -71 c-4 -5 -22 -9 -41 -9 -22
0 -33 4 -29 11 4 6 13 8 19 6 7 -3 19 -1 26 3 16 10 33 3 25 -11z m-165 1 c0
-5 -4 -10 -10 -10 -5 0 -10 5 -10 10 0 6 5 10 10 10 6 0 10 -4 10 -10z m40 0
c0 -5 -4 -10 -10 -10 -5 0 -10 5 -10 10 0 6 5 10 10 10 6 0 10 -4 10 -10z m10
-92 c0 -16 -3 -19 -11 -11 -6 6 -8 16 -5 22 11 17 16 13 16 -11z m31 -56 c-7
-2 -18 1 -23 6 -8 8 -4 9 13 5 13 -4 18 -8 10 -11z m-161 -32 c0 -5 -5 -10
-11 -10 -5 0 -7 5 -4 10 3 6 8 10 11 10 2 0 4 -4 4 -10z m-6440 -4 c0 -11 -19
-15 -25 -6 -3 5 1 10 9 10 9 0 16 -2 16 -4z m6480 -56 c0 -5 -4 -10 -10 -10
-5 0 -10 5 -10 10 0 6 5 10 10 10 6 0 10 -4 10 -10z m-43 -6 c-3 -3 -12 -4
-19 -1 -8 3 -5 6 6 6 11 1 17 -2 13 -5z m-43 -19 c-4 -8 -8 -15 -10 -15 -2 0
-4 7 -4 15 0 8 4 15 10 15 5 0 7 -7 4 -15z m-74 -91 c0 -8 -4 -12 -10 -9 -5 3
-10 13 -10 21 0 8 5 12 10 9 6 -3 10 -13 10 -21z m-90 -74 c0 -5 7 -10 15 -10
12 0 14 -7 9 -27 -9 -38 -14 -41 -14 -10 0 15 -9 32 -22 41 -18 13 -19 16 -5
16 9 0 17 -4 17 -10z m-15 -39 c3 -5 1 -12 -5 -16 -5 -3 -10 1 -10 9 0 18 6
21 15 7z"/>
<path d="M2960 9660 c0 -22 4 -40 8 -40 5 0 7 -13 4 -29 -3 -23 2 -33 22 -46
15 -10 29 -15 33 -11 3 3 1 6 -5 6 -7 0 -12 5 -12 12 0 6 -7 20 -16 30 -18 19
-20 17 30 32 8 3 17 2 21 -2 3 -4 21 -7 38 -8 18 -1 41 -3 52 -5 15 -3 20 1
20 16 0 17 -6 20 -34 17 -19 -1 -41 4 -50 12 -9 8 -37 24 -63 35 l-48 20 0
-39z"/>
<path d="M3296 9684 c-6 -16 -29 -16 -67 0 -11 5 -18 1 -22 -13 -4 -16 0 -21
14 -21 10 0 34 -7 53 -16 19 -9 41 -14 50 -11 19 7 21 48 4 65 -16 16 -25 15
-32 -4z"/>
<path d="M3362 9509 c-1 -16 4 -36 12 -44 12 -13 16 -11 24 14 8 24 7 32 -7
45 -24 22 -26 21 -29 -15z"/>
<path d="M3055 9520 c3 -5 13 -10 21 -10 8 0 12 5 9 10 -3 6 -13 10 -21 10 -8
0 -12 -4 -9 -10z"/>
<path d="M2933 9450 c-7 -10 -2 -31 16 -70 15 -34 26 -76 27 -110 1 -30 5 -63
9 -73 4 -10 1 -31 -8 -48 -13 -27 -13 -35 -1 -58 8 -14 14 -34 14 -43 0 -10 2
-18 5 -18 8 0 55 51 55 59 0 16 -37 57 -47 54 -7 -3 -13 0 -13 6 0 6 5 11 10
11 6 0 10 10 10 23 1 21 1 22 15 3 8 -11 15 -16 15 -11 0 5 5 4 12 -3 32 -32
73 5 42 39 -15 17 -15 41 2 102 5 15 7 15 20 2 19 -18 36 -11 27 12 -4 11 -3
14 6 9 7 -5 25 -3 40 4 25 10 32 9 55 -13 31 -29 60 -26 83 10 13 20 14 28 3
48 -7 14 -21 25 -31 25 -10 0 -20 4 -24 9 -21 34 -115 48 -115 16 0 -15 -32
-45 -48 -45 -7 0 -29 17 -51 39 -33 33 -45 38 -79 37 -24 0 -44 -7 -49 -16z"/>
<path d="M3432 9302 c8 -30 -28 -70 -70 -78 -27 -6 -33 -3 -43 20 -22 47 -45
29 -24 -20 7 -18 17 -54 20 -79 6 -38 5 -45 -9 -45 -24 0 -19 -34 9 -58 17
-15 26 -18 31 -10 5 7 11 3 16 -12 9 -23 9 -23 27 11 17 30 18 37 5 57 -15 23
-6 30 13 11 13 -13 63 -1 63 16 0 7 -6 26 -14 42 -22 44 -35 92 -27 98 4 2 18
-3 31 -12 27 -19 67 -26 75 -13 3 5 -12 20 -33 34 -21 13 -47 33 -57 43 -18
17 -18 17 -13 -5z"/>
<path d="M4450 9296 c0 -16 26 -46 41 -46 13 0 11 22 -5 43 -16 21 -36 22 -36
3z"/>
<path d="M3230 9170 c0 -5 5 -10 10 -10 6 0 10 5 10 10 0 6 -4 10 -10 10 -5 0
-10 -4 -10 -10z"/>
<path d="M1752 9142 c-7 -2 -12 -19 -12 -37 0 -19 -4 -36 -10 -40 -9 -5 -6
-99 5 -160 12 -68 17 -86 22 -82 2 3 17 2 33 -3 23 -7 32 -4 51 16 l23 25 13
-23 c13 -21 13 -17 8 32 -3 30 -6 65 -7 78 0 12 -6 22 -14 22 -22 0 -32 32
-29 91 2 30 0 60 -3 66 -8 11 -62 21 -80 15z"/>
<path d="M3085 9050 c3 -5 8 -10 11 -10 2 0 4 5 4 10 0 6 -5 10 -11 10 -5 0
-7 -4 -4 -10z"/>
<path d="M3224 9010 c8 -19 19 -36 26 -38 13 -5 3 18 -24 53 -15 18 -15 17 -2
-15z"/>
<path d="M3251 8914 c0 -11 3 -14 6 -6 3 7 2 16 -1 19 -3 4 -6 -2 -5 -13z"/>
<path d="M3080 8851 c0 -6 11 -22 24 -38 l24 -27 -3 28 c-3 27 -19 45 -37 46
-5 0 -8 -4 -8 -9z"/>
<path d="M2980 8840 c0 -5 7 -10 16 -10 8 0 12 5 9 10 -3 6 -10 10 -16 10 -5
0 -9 -4 -9 -10z"/>
<path d="M2980 8802 c1 -26 27 -55 44 -49 13 5 14 11 5 31 -14 29 -49 42 -49
18z"/>
<path d="M2517 8762 c-3 -4 5 -30 19 -57 13 -28 24 -45 24 -38 0 7 7 10 15 7
24 -10 18 39 -7 63 -31 27 -46 35 -51 25z"/>
<path d="M2930 8731 c0 -21 5 -31 15 -31 8 0 15 5 15 10 0 6 -4 10 -10 10 -5
0 -7 6 -4 14 3 8 1 17 -5 21 -7 4 -11 -5 -11 -24z"/>
<path d="M2837 8706 c15 -19 31 -35 36 -35 15 -2 6 26 -16 47 -37 35 -52 26
-20 -12z"/>
<path d="M13875 8730 c3 -5 8 -10 11 -10 2 0 4 5 4 10 0 6 -5 10 -11 10 -5 0
-7 -4 -4 -10z"/>
<path d="M2740 8700 c0 -18 20 -50 30 -50 6 0 9 6 8 13 -2 6 5 11 15 11 12 -1
17 4 15 15 -4 19 -68 29 -68 11z"/>
<path d="M3072 8688 c2 -6 10 -14 16 -16 7 -2 10 2 6 12 -7 18 -28 22 -22 4z"/>
<path d="M2702 8661 c-16 -10 -4 -68 14 -75 8 -3 14 -12 14 -21 0 -8 5 -15 10
-15 6 0 10 -7 10 -15 0 -8 -7 -15 -15 -15 -8 0 -15 9 -15 21 0 13 -4 18 -12
13 -9 -5 -9 -2 1 9 12 15 11 17 -3 17 -9 0 -16 4 -16 8 0 5 -11 14 -25 20 -24
11 -25 10 -25 -18 0 -17 5 -30 10 -30 6 0 10 -7 10 -16 0 -12 -6 -15 -26 -10
-22 6 -25 4 -20 -9 3 -9 6 -19 6 -21 0 -3 4 -3 10 1 5 3 32 -11 60 -31 31 -22
56 -34 66 -30 15 6 15 8 1 24 -15 17 -15 19 3 35 25 21 25 34 0 92 -23 55 -42
76 -58 66z"/>
<path d="M3090 8607 c0 -14 6 -27 13 -30 9 -3 13 4 12 21 0 33 -25 42 -25 9z"/>
<path d="M2520 8610 c0 -13 42 -51 49 -44 3 3 -1 9 -8 14 -8 4 -11 15 -8 24 5
11 1 16 -13 16 -11 0 -20 -4 -20 -10z"/>
<path d="M2810 8538 c0 -7 4 -19 9 -27 11 -17 25 3 17 24 -7 18 -26 20 -26 3z"/>
<path d="M2446 8532 c-6 -11 21 -52 35 -52 5 0 9 9 9 20 0 20 -35 46 -44 32z"/>
<path d="M3095 8530 c3 -5 8 -10 11 -10 2 0 4 5 4 10 0 6 -5 10 -11 10 -5 0
-7 -4 -4 -10z"/>
<path d="M2350 8515 c0 -10 -5 -15 -13 -12 -28 11 -38 -8 -17 -31 24 -25 60
-29 60 -7 0 8 9 15 20 15 37 0 18 30 -27 44 -18 6 -23 3 -23 -9z"/>
<path d="M2003 8493 c0 -15 -6 -29 -12 -31 -9 -3 -9 -8 -1 -17 7 -9 6 -16 -5
-25 -12 -10 -15 -10 -15 4 0 8 -13 22 -30 31 -43 22 -57 19 -32 -8 12 -13 22
-28 22 -34 0 -5 17 -15 39 -21 31 -10 40 -18 44 -41 5 -22 13 -31 36 -36 17
-3 35 -4 41 0 20 12 10 34 -17 37 -25 3 -28 7 -28 39 0 21 -8 45 -17 56 -27
30 -22 43 17 43 26 0 33 3 29 15 -4 9 -19 15 -38 15 -27 0 -31 -4 -33 -27z"/>
<path d="M3077 8494 c6 -16 34 -16 40 1 2 6 -8 12 -22 13 -18 1 -23 -2 -18
-14z"/>
<path d="M3550 8495 c7 -9 15 -13 17 -11 7 7 -7 26 -19 26 -6 0 -6 -6 2 -15z"/>
<path d="M2583 8455 c4 -9 7 -19 7 -21 0 -2 7 -4 15 -4 22 0 18 18 -7 31 -18
10 -20 9 -15 -6z"/>
<path d="M3075 8460 c3 -5 8 -10 11 -10 2 0 4 5 4 10 0 6 -5 10 -11 10 -5 0
-7 -4 -4 -10z"/>
<path d="M2403 8426 c4 -10 3 -24 -3 -31 -15 -19 -2 -42 28 -50 27 -7 64 -41
75 -69 4 -9 14 -16 24 -16 13 0 14 3 5 12 -18 18 -15 28 8 28 27 0 15 28 -15
36 -12 3 -27 16 -34 30 -6 13 -16 23 -23 22 -7 -2 -12 5 -12 14 1 9 -4 14 -11
12 -7 -3 -21 3 -31 13 -17 17 -18 17 -11 -1z"/>
<path d="M2536 8422 c-7 -12 49 -52 71 -52 14 1 10 8 -17 30 -36 32 -46 35
-54 22z"/>
<path d="M2233 8396 c4 -9 -3 -16 -16 -20 -20 -5 -20 -6 -3 -24 11 -13 25 -18
38 -14 20 5 20 6 3 18 -14 10 -15 17 -7 27 12 14 7 27 -11 27 -5 0 -7 -6 -4
-14z"/>
<path d="M2635 8379 c-7 -10 10 -28 28 -29 12 0 8 17 -7 29 -11 9 -16 9 -21 0z"/>
<path d="M1930 8370 c0 -5 5 -10 10 -10 6 0 10 5 10 10 0 6 -4 10 -10 10 -5 0
-10 -4 -10 -10z"/>
<path d="M2360 8370 c0 -5 5 -10 11 -10 5 0 7 5 4 10 -3 6 -8 10 -11 10 -2 0
-4 -4 -4 -10z"/>
<path d="M2298 8343 c7 -3 16 -2 19 1 4 3 -2 6 -13 5 -11 0 -14 -3 -6 -6z"/>
<path d="M1898 8313 c-16 -10 -28 -25 -28 -35 0 -18 25 -48 41 -48 5 0 9 -8 8
-17 0 -11 -3 -13 -6 -5 -8 21 -26 13 -20 -9 5 -17 2 -20 -14 -16 -10 3 -17 1
-14 -3 3 -5 -1 -13 -10 -17 -8 -5 -16 -22 -19 -38 -2 -17 -7 -38 -11 -47 -9
-23 0 -155 14 -191 6 -16 11 -41 11 -57 0 -16 8 -36 17 -46 16 -16 18 -15 26
10 10 29 15 31 52 14 35 -16 48 -1 51 61 2 38 -1 49 -11 45 -18 -7 -42 31 -51
80 -6 37 -6 38 17 31 13 -4 36 -17 51 -28 16 -12 44 -21 70 -21 44 -1 42 1 79
-78 13 -29 33 -36 44 -17 4 6 -2 13 -14 16 -12 3 -21 12 -21 19 0 18 15 18 34
-1 16 -16 56 -21 56 -6 0 5 -7 12 -16 15 -10 4 -13 13 -10 24 4 13 -1 22 -18
32 -25 13 -31 44 -13 68 7 9 3 20 -13 37 -25 26 -42 33 -37 14 5 -23 -19 -18
-53 11 -19 16 -48 41 -65 56 -16 14 -40 33 -53 42 -12 9 -24 27 -27 40 -3 20
-1 22 18 16 12 -4 30 -7 39 -6 10 0 17 -2 17 -6 -8 -52 23 -94 42 -60 5 9 20
19 34 22 21 5 24 10 16 25 -6 10 -8 21 -5 24 3 3 -22 4 -56 3 -53 -2 -59 0
-44 11 23 17 9 31 -17 15 -17 -11 -23 -9 -42 13 -21 24 -23 24 -49 8z m207
-301 c-6 -7 -35 18 -35 31 0 5 9 2 20 -8 11 -10 18 -20 15 -23z"/>
<path d="M2390 8299 c7 -11 14 -18 17 -15 8 8 -5 36 -17 36 -7 0 -7 -6 0 -21z"/>
<path d="M2430 8301 c0 -5 5 -13 10 -16 6 -3 10 -2 10 4 0 5 -4 13 -10 16 -5
3 -10 2 -10 -4z"/>
<path d="M2291 8276 c-11 -13 -11 -20 -3 -28 8 -8 13 -7 18 5 10 27 0 41 -15
23z"/>
<path d="M2400 8260 c-9 -6 -10 -10 -3 -10 6 0 15 5 18 10 8 12 4 12 -15 0z"/>
<path d="M3220 8200 c0 -11 33 -30 52 -30 7 1 3 9 -11 20 -25 22 -41 26 -41
10z"/>
<path d="M3280 8198 c0 -8 25 -12 44 -9 4 1 14 -3 21 -9 16 -13 45 -3 45 16 0
11 -13 14 -55 12 -30 -2 -55 -6 -55 -10z"/>
<path d="M2275 8190 c-3 -6 -3 -10 1 -10 4 0 -1 -6 -12 -14 -14 -11 -16 -18
-7 -26 8 -9 16 -7 32 9 12 12 26 19 32 15 16 -9 39 4 33 19 -6 16 -70 21 -79
7z"/>
<path d="M2445 8171 c4 -7 1 -18 -5 -26 -12 -15 -6 -35 11 -35 5 0 9 9 9 19 0
11 6 21 12 23 8 3 4 10 -11 17 -16 9 -21 9 -16 2z"/>
<path d="M2200 8156 c0 -21 21 -31 31 -15 14 22 11 29 -11 29 -11 0 -20 -6
-20 -14z"/>
<path d="M3228 8108 c9 -9 15 -9 24 0 9 9 7 12 -12 12 -19 0 -21 -3 -12 -12z"/>
<path d="M2397 8084 c-4 -4 -7 -14 -7 -23 0 -11 3 -12 11 -4 6 6 10 16 7 23
-2 6 -7 8 -11 4z"/>
<path d="M3180 8040 c34 -28 57 -39 46 -21 -4 5 0 12 6 14 7 3 4 6 -8 6 -11 1
-29 8 -40 16 -35 27 -39 15 -4 -15z"/>
<path d="M6135 7990 c3 -5 8 -10 11 -10 2 0 4 5 4 10 0 6 -5 10 -11 10 -5 0
-7 -4 -4 -10z"/>
<path d="M1980 7975 c0 -3 7 -14 16 -23 15 -14 16 -14 13 3 -4 17 -29 35 -29
20z"/>
<path d="M6143 7958 c-25 -12 -29 -23 -13 -33 6 -3 13 1 16 9 3 9 10 13 15 10
5 -3 9 2 9 10 0 9 -1 16 -2 15 -2 0 -13 -5 -25 -11z"/>
<path d="M2323 7947 c23 -19 22 -27 -4 -27 -28 0 -19 -23 14 -34 30 -11 47 -2
29 16 -20 20 -14 31 14 24 15 -4 23 -3 20 2 -3 5 -16 12 -28 15 -13 2 -32 8
-43 12 -19 6 -19 6 -2 -8z"/>
<path d="M2082 7862 c-23 -7 -23 -7 -2 -22 23 -17 28 -45 5 -37 -23 9 -27 -10
-9 -38 9 -14 15 -27 13 -29 -2 -2 -23 -6 -46 -9 -33 -4 -40 -2 -36 9 7 18 -39
37 -49 19 -10 -16 -91 -13 -112 4 -14 12 -16 12 -10 -3 4 -11 2 -16 -7 -14
-10 2 -12 -7 -10 -32 2 -19 6 -37 10 -40 3 -3 26 -29 50 -58 30 -36 41 -56 34
-63 -8 -8 -13 -7 -17 0 -4 6 -16 11 -26 11 -10 0 -21 6 -24 13 -4 6 -4 1 -2
-11 6 -33 -3 -52 -25 -52 -10 0 -19 -5 -19 -10 0 -14 31 -62 50 -77 12 -9 13
-14 3 -24 -21 -21 -15 -47 15 -66 38 -25 52 -45 41 -59 -14 -17 13 -24 73 -18
107 10 162 40 118 64 -24 13 -53 13 -45 0 10 -15 -25 -12 -41 4 -21 21 -18 25
31 37 25 6 48 16 51 21 9 14 -14 35 -46 41 -16 4 -34 16 -41 28 -10 20 -9 21
15 17 28 -6 32 2 17 30 -5 9 -15 32 -21 50 -9 22 -19 32 -34 32 -21 0 -56 31
-56 50 0 6 6 10 13 10 8 0 26 14 41 31 19 21 33 28 44 23 9 -3 27 -9 39 -11
18 -4 22 -10 17 -28 -4 -15 0 -24 9 -28 18 -7 28 13 20 42 -4 18 -1 21 23 22
16 1 37 1 47 0 22 -3 22 5 -3 36 -26 33 -25 49 3 58 22 7 22 7 -5 18 -16 6
-28 17 -28 25 0 8 -8 21 -17 28 -20 15 -19 15 -51 6z"/>
<path d="M4037 7739 c7 -7 15 -10 18 -7 3 3 -2 9 -12 12 -14 6 -15 5 -6 -5z"/>
<path d="M4773 7373 c9 -2 23 -2 30 0 6 3 -1 5 -18 5 -16 0 -22 -2 -12 -5z"/>
<path d="M4374 7335 c15 -8 32 -12 38 -9 5 3 30 9 56 14 42 7 39 8 -38 9 -81
1 -84 0 -56 -14z"/>
<path d="M4745 7341 c-3 -5 4 -13 16 -16 26 -9 89 3 89 15 0 13 -97 13 -105 1z"/>
<path d="M8000 7187 c0 -10 -8 -17 -20 -17 -11 0 -20 -4 -20 -10 0 -5 9 -10
19 -10 19 0 39 35 27 47 -3 4 -6 -1 -6 -10z"/>
<path d="M7930 7130 c0 -5 -9 -10 -20 -10 -23 0 -27 -18 -5 -26 8 -4 15 -10
15 -16 0 -5 7 -16 15 -24 8 -9 15 -12 15 -7 0 5 -5 14 -12 21 -9 9 -9 18 0 37
15 32 15 35 2 35 -5 0 -10 -4 -10 -10z"/>
<path d="M7967 7124 c3 -9 0 -20 -7 -24 -8 -5 -10 -15 -6 -26 7 -17 9 -17 21
6 19 33 19 60 0 60 -9 0 -12 -6 -8 -16z"/>
<path d="M8000 7114 c0 -8 5 -12 10 -9 6 4 8 11 5 16 -9 14 -15 11 -15 -7z"/>
<path d="M14080 7119 c0 -5 5 -7 10 -4 6 3 10 8 10 11 0 2 -4 4 -10 4 -5 0
-10 -5 -10 -11z"/>
<path d="M7928 6893 c7 -3 16 -2 19 1 4 3 -2 6 -13 5 -11 0 -14 -3 -6 -6z"/>
<path d="M7975 6860 c-3 -5 -2 -10 4 -10 5 0 13 5 16 10 3 6 2 10 -4 10 -5 0
-13 -4 -16 -10z"/>
<path d="M13986 6556 c-4 -17 -3 -33 3 -39 15 -15 26 19 14 46 -9 21 -10 20
-17 -7z"/>
<path d="M3849 6487 c0 -12 -2 -35 -3 -50 -1 -16 6 -35 16 -44 10 -9 18 -23
18 -32 0 -14 -2 -14 -10 -1 -9 13 -12 12 -25 -4 -18 -23 -10 -40 16 -33 11 3
19 1 19 -5 0 -19 25 -1 31 23 5 23 7 22 23 -16 12 -29 19 -36 25 -26 7 11 10
9 16 -8 3 -12 10 -19 15 -16 9 6 19 -35 23 -92 1 -18 7 -31 12 -29 6 2 9 11 9
20 -2 21 1 20 25 -5 19 -21 19 -21 30 -1 10 19 33 24 47 9 4 -4 -4 -7 -17 -8
-22 0 -22 -1 -4 -8 11 -5 25 -4 33 1 6 6 12 7 12 2 1 -5 10 2 22 16 14 16 19
19 15 8 -8 -23 28 -25 50 -2 14 13 14 20 4 38 l-12 21 18 -21 c10 -12 24 -30
31 -40 7 -11 10 -13 7 -6 -7 14 11 17 20 2 3 -5 14 -10 23 -10 12 0 13 3 4 12
-21 21 -14 38 17 38 29 0 72 -32 84 -63 5 -14 13 -16 34 -10 16 4 38 7 51 6
26 -1 28 9 7 31 -8 8 -15 19 -15 24 0 5 -15 23 -32 40 -92 88 -135 122 -162
128 -29 7 -29 8 -8 13 20 5 18 9 -24 30 -39 21 -49 23 -66 12 -17 -11 -22 -11
-29 1 -8 14 -78 16 -101 2 -7 -5 -8 -3 -4 5 5 8 3 11 -5 10 -8 -1 -27 4 -42
11 -23 11 -30 11 -36 1 -4 -6 -12 -11 -17 -9 -5 2 -9 -1 -9 -7 0 -5 4 -9 8 -7
5 1 6 -1 3 -6 -7 -11 3 -23 45 -54 20 -15 40 -24 44 -20 5 4 5 1 1 -6 -5 -9
-16 -5 -42 14 -26 20 -34 23 -34 11 0 -9 -9 -18 -19 -22 -11 -3 -18 -12 -15
-19 3 -7 -2 -13 -10 -13 -17 0 -29 24 -20 39 3 5 -5 21 -17 35 -23 25 -23 25
-2 14 12 -6 29 -21 37 -33 18 -25 32 -19 17 9 -5 10 -12 26 -15 36 -3 10 -10
16 -15 12 -5 -3 -12 -1 -16 5 -3 5 -19 8 -34 5 -24 -4 -29 -1 -33 19 -5 23 -4
24 18 10 15 -10 24 -12 29 -4 3 6 10 8 14 5 5 -2 16 2 26 9 18 13 17 14 -11
19 -16 3 -44 6 -61 6 -27 0 -33 -4 -34 -22z m225 -62 c17 -25 16 -25 -3 -13
-22 13 -36 38 -22 38 5 0 16 -11 25 -25z m97 -8 c-1 -12 -15 -9 -19 4 -3 6 1
10 8 8 6 -3 11 -8 11 -12z m-271 -33 c0 -8 -4 -12 -10 -9 -5 3 -10 10 -10 16
0 5 5 9 10 9 6 0 10 -7 10 -16z m288 -139 c-3 -3 -9 2 -12 12 -6 14 -5 15 5 6
7 -7 10 -15 7 -18z m232 -15 c0 -5 -4 -10 -10 -10 -5 0 -10 5 -10 10 0 6 5 10
10 10 6 0 10 -4 10 -10z m40 0 c0 -5 -4 -10 -9 -10 -6 0 -13 5 -16 10 -3 6 1
10 9 10 9 0 16 -4 16 -10z m-159 -17 c13 -16 12 -17 -3 -4 -10 7 -18 15 -18
17 0 8 8 3 21 -13z"/>
<path d="M3810 6403 c0 -13 5 -23 10 -23 13 0 13 11 0 30 -8 12 -10 11 -10 -7z"/>
<path d="M8298 6393 c7 -3 16 -2 19 1 4 3 -2 6 -13 5 -11 0 -14 -3 -6 -6z"/>
<path d="M13895 6381 c-3 -5 -1 -12 5 -16 5 -3 10 1 10 9 0 18 -6 21 -15 7z"/>
<path d="M3980 6238 c0 -16 5 -28 10 -28 13 0 13 20 0 40 -8 12 -10 9 -10 -12z"/>
<path d="M4376 6194 c-4 -9 -4 -19 -1 -22 3 -3 11 0 17 6 9 9 9 15 1 23 -7 7
-12 5 -17 -7z"/>
<path d="M7388 6183 c7 -3 16 -2 19 1 4 3 -2 6 -13 5 -11 0 -14 -3 -6 -6z"/>
<path d="M4547 6144 c-9 -9 74 -64 96 -64 9 0 17 6 17 13 0 14 -40 37 -65 37
-8 0 -15 5 -15 10 0 11 -23 14 -33 4z"/>
<path d="M3961 6094 c0 -11 3 -14 6 -6 3 7 2 16 -1 19 -3 4 -6 -2 -5 -13z"/>
<path d="M3912 6073 c-18 -33 -15 -41 20 -45 23 -2 39 4 56 21 13 13 21 25 19
28 -6 5 -49 -18 -59 -32 -7 -9 -10 -3 -21 35 -3 11 -6 10 -15 -7z"/>
<path d="M4736 6081 c-3 -5 5 -11 19 -13 17 -4 25 -1 25 8 0 15 -36 19 -44 5z"/>
<path d="M13935 6030 c-3 -5 -1 -10 4 -10 6 0 11 5 11 10 0 6 -2 10 -4 10 -3
0 -8 -4 -11 -10z"/>
<path d="M3715 5980 c-3 -5 -1 -10 4 -10 6 0 11 5 11 10 0 6 -2 10 -4 10 -3 0
-8 -4 -11 -10z"/>
<path d="M13870 5960 c0 -5 5 -10 11 -10 5 0 7 5 4 10 -3 6 -8 10 -11 10 -2 0
-4 -4 -4 -10z"/>
<path d="M13905 5950 c3 -5 8 -10 11 -10 2 0 4 5 4 10 0 6 -5 10 -11 10 -5 0
-7 -4 -4 -10z"/>
<path d="M5808 5943 c6 -2 18 -2 25 0 6 3 1 5 -13 5 -14 0 -19 -2 -12 -5z"/>
<path d="M13896 5851 c-18 -7 -18 -8 -2 -14 19 -8 36 -1 36 14 0 10 -7 11 -34
0z"/>
<path d="M13906 5773 c5 -5 12 -12 16 -18 4 -6 8 -2 8 8 0 9 -7 17 -17 17 -9
0 -12 -3 -7 -7z"/>
<path d="M13890 5710 c0 -5 5 -10 11 -10 5 0 7 5 4 10 -3 6 -8 10 -11 10 -2 0
-4 -4 -4 -10z"/>
<path d="M4530 5326 c0 -2 7 -9 15 -16 13 -11 14 -10 9 4 -5 14 -24 23 -24 12z"/>
<path d="M13853 5300 c1 -20 12 -26 20 -12 3 4 -1 13 -8 19 -11 10 -13 9 -12
-7z"/>
<path d="M4392 5091 c2 -7 7 -12 11 -12 12 1 9 15 -3 20 -7 2 -11 -2 -8 -8z"/>
<path d="M13805 4950 c4 -6 11 -8 16 -5 14 9 11 15 -7 15 -8 0 -12 -5 -9 -10z"/>
<path d="M13790 4679 c0 -11 5 -17 10 -14 6 3 10 13 10 21 0 8 -4 14 -10 14
-5 0 -10 -9 -10 -21z"/>
<path d="M4340 4650 c0 -5 5 -10 10 -10 6 0 10 5 10 10 0 6 -4 10 -10 10 -5 0
-10 -4 -10 -10z"/>
<path d="M13780 4640 c0 -5 5 -10 10 -10 6 0 10 5 10 10 0 6 -4 10 -10 10 -5
0 -10 -4 -10 -10z"/>
<path d="M13635 4610 c3 -5 8 -10 11 -10 2 0 4 5 4 10 0 6 -5 10 -11 10 -5 0
-7 -4 -4 -10z"/>
<path d="M4370 4565 c0 -8 5 -15 10 -15 6 0 10 7 10 15 0 8 -4 15 -10 15 -5 0
-10 -7 -10 -15z"/>
<path d="M13680 4570 c0 -5 11 -10 25 -10 14 0 25 5 25 10 0 6 -11 10 -25 10
-14 0 -25 -4 -25 -10z"/>
<path d="M13622 4422 l-23 -4 26 -24 c31 -29 37 -28 27 7 -5 18 -13 23 -30 21z"/>
<path d="M13638 4333 c7 -3 16 -2 19 1 4 3 -2 6 -13 5 -11 0 -14 -3 -6 -6z"/>
<path d="M13540 4130 c0 -5 5 -10 10 -10 6 0 10 5 10 10 0 6 -4 10 -10 10 -5
0 -10 -4 -10 -10z"/>
<path d="M13467 3960 c3 -11 7 -20 9 -20 2 0 4 9 4 20 0 11 -4 20 -9 20 -5 0
-7 -9 -4 -20z"/>
<path d="M4168 3495 c-3 -3 -61 -18 -129 -33 -95 -21 -125 -32 -127 -45 -3
-14 4 -17 40 -17 24 0 61 5 83 11 22 6 74 17 115 25 94 20 116 30 99 50 -11
13 -70 20 -81 9z"/>
<path d="M5977 9753 c-4 -3 -7 -11 -7 -17 0 -6 5 -5 12 2 6 6 9 14 7 17 -3 3
-9 2 -12 -2z"/>
<path d="M5945 9720 c-3 -5 -1 -10 4 -10 6 0 11 5 11 10 0 6 -2 10 -4 10 -3 0
-8 -4 -11 -10z"/>
<path d="M5843 9178 c4 -11 0 -18 -11 -21 -9 -3 -4 -5 12 -6 26 -1 27 1 15 17
-21 27 -23 28 -16 10z"/>
<path d="M5855 9110 c-3 -5 -1 -10 4 -10 6 0 11 5 11 10 0 6 -2 10 -4 10 -3 0
-8 -4 -11 -10z"/>
<path d="M4500 8454 c0 -6 7 -19 16 -30 14 -18 14 -18 3 6 -14 31 -19 36 -19
24z"/>
<path d="M4140 8370 c8 -5 22 -10 30 -10 13 0 13 1 0 10 -8 5 -22 10 -30 10
-13 0 -13 -1 0 -10z"/>
<path d="M4466 8287 c3 -10 9 -15 12 -12 3 3 0 11 -7 18 -10 9 -11 8 -5 -6z"/>
<path d="M4512 8274 c10 -10 20 -15 24 -12 3 4 -5 12 -18 18 -22 12 -22 12 -6
-6z"/>
<path d="M5680 8166 c0 -2 7 -9 15 -16 13 -11 14 -10 9 4 -5 14 -24 23 -24 12z"/>
<path d="M11910 4191 c0 -5 -8 -12 -17 -14 -14 -4 -12 -5 5 -6 13 -1 22 5 22
14 0 8 -2 15 -5 15 -3 0 -5 -4 -5 -9z"/>
<path d="M12320 3910 c0 -6 7 -10 15 -10 8 0 15 2 15 4 0 2 -7 6 -15 10 -8 3
-15 1 -15 -4z"/>
<path d="M12400 3910 c0 -5 5 -10 11 -10 5 0 7 5 4 10 -3 6 -8 10 -11 10 -2 0
-4 -4 -4 -10z"/>
<path d="M12450 3890 c0 -5 7 -10 15 -10 8 0 15 5 15 10 0 6 -7 10 -15 10 -8
0 -15 -4 -15 -10z"/>
<path d="M12740 3870 c0 -5 5 -10 10 -10 6 0 10 5 10 10 0 6 -4 10 -10 10 -5
0 -10 -4 -10 -10z"/>
<path d="M13120 3853 c0 -10 4 -14 8 -8 4 6 11 13 16 18 5 4 2 7 -7 7 -10 0
-17 -8 -17 -17z"/>
<path d="M9188 635 c-3 -14 -1 -25 3 -25 5 0 9 11 9 25 0 14 -2 25 -4 25 -2 0
-6 -11 -8 -25z"/>
<path d="M9180 530 c0 -5 5 -10 10 -10 6 0 10 5 10 10 0 6 -4 10 -10 10 -5 0
-10 -4 -10 -10z"/>
<path d="M9138 513 c7 -3 16 -2 19 1 4 3 -2 6 -13 5 -11 0 -14 -3 -6 -6z"/>
<path d="M9098 503 c7 -3 16 -2 19 1 4 3 -2 6 -13 5 -11 0 -14 -3 -6 -6z"/>
<path d="M8895 480 c3 -5 10 -10 16 -10 5 0 9 5 9 10 0 6 -7 10 -16 10 -8 0
-12 -4 -9 -10z"/>
<path d="M0 7120 c0 -5 6 -10 14 -10 8 0 18 5 21 10 3 6 -3 10 -14 10 -12 0
-21 -4 -21 -10z"/>
<path d="M0 6890 c0 -6 7 -10 15 -10 8 0 15 2 15 4 0 2 -7 6 -15 10 -8 3 -15
1 -15 -4z"/>
<path d="M5 6529 c-10 -15 3 -25 16 -12 7 7 7 13 1 17 -6 3 -14 1 -17 -5z"/>
<path d="M0 6441 c0 -5 5 -13 10 -16 5 -3 10 -2 10 4 0 5 -4 13 -10 16 -5 3
-10 2 -10 -4z"/>
<path d="M0 6390 c0 -5 7 -10 15 -10 8 0 15 5 15 10 0 6 -7 10 -15 10 -8 0
-15 -4 -15 -10z"/>
<path d="M15840 758 c0 -19 2 -20 10 -8 13 19 13 30 0 30 -5 0 -10 -10 -10
-22z"/>
<path d="M15836 645 c4 -8 11 -15 16 -15 6 0 5 6 -2 15 -7 8 -14 15 -16 15 -2
0 -1 -7 2 -15z"/>
<path d="M15760 513 c0 -5 -10 -15 -22 -21 -13 -6 -18 -11 -12 -11 16 -1 50
27 41 35 -4 4 -7 3 -7 -3z"/>
<path d="M15620 370 c0 -5 5 -10 11 -10 5 0 7 5 4 10 -3 6 -8 10 -11 10 -2 0
-4 -4 -4 -10z"/>
<path d="M15628 343 c7 -3 16 -2 19 1 4 3 -2 6 -13 5 -11 0 -14 -3 -6 -6z"/>
<path d="M15625 290 c3 -5 10 -10 16 -10 5 0 9 5 9 10 0 6 -7 10 -16 10 -8 0
-12 -4 -9 -10z"/>
<path d="M15570 275 c0 -8 5 -15 10 -15 6 0 10 7 10 15 0 8 -4 15 -10 15 -5 0
-10 -7 -10 -15z"/>
<path d="M15476 224 c-11 -28 -6 -38 9 -18 8 10 15 22 15 27 0 13 -18 7 -24
-9z"/>
<path d="M15432 174 c-11 -12 -11 -20 0 -44 7 -17 16 -30 20 -30 12 0 9 25 -4
38 -8 8 -8 15 1 26 16 19 0 28 -17 10z"/>
<path d="M15397 105 c-8 -20 -4 -29 11 -24 5 2 6 13 2 23 -6 19 -7 19 -13 1z"/>
<path d="M15446 15 c8 -19 14 -19 14 0 0 8 -4 15 -10 15 -5 0 -7 -7 -4 -15z"/>
</g>
</svg>
