<?xml version="1.0" standalone="no"?>
<!DOCTYPE svg PUBLIC "-//W3C//DTD SVG 20010904//EN"
 "http://www.w3.org/TR/2001/REC-SVG-20010904/DTD/svg10.dtd">
<svg version="1.0" xmlns="http://www.w3.org/2000/svg"
 width="795.000000pt" height="723.000000pt" viewBox="0 0 795.000000 723.000000"
 preserveAspectRatio="xMidYMid meet">

<g transform="translate(0.000000,723.000000) scale(0.100000,-0.100000)"
fill="#000000" stroke="none">
<path d="M0 3615 l0 -3615 3975 0 3975 0 0 3615 0 3615 -3975 0 -3975 0 0
-3615z m3868 2328 c2 -11 -4 -26 -13 -33 -8 -7 -15 -19 -15 -27 0 -8 -5 -24
-12 -36 -7 -12 -13 -28 -14 -35 -4 -22 -48 -51 -69 -46 -12 3 -36 5 -55 4 -19
-1 -63 -1 -98 0 -34 0 -83 -5 -110 -11 -26 -7 -99 -13 -162 -15 -63 -1 -115
-3 -115 -4 0 -1 -25 -4 -55 -6 -30 -2 -62 -4 -70 -6 -8 -1 -34 1 -58 6 -29 5
-47 4 -57 -4 -8 -6 -19 -9 -25 -5 -6 4 -17 2 -24 -4 -7 -6 -32 -10 -57 -10
-96 1 -216 -9 -237 -20 -16 -9 -27 -9 -43 -1 -14 8 -29 9 -47 2 -15 -5 -47 -9
-72 -8 -25 2 -49 0 -54 -2 -5 -3 -59 -6 -120 -8 -61 -1 -124 -7 -139 -13 -22
-9 -33 -8 -53 5 -19 13 -30 14 -52 5 -30 -12 -100 -18 -279 -23 -68 -1 -123
-7 -123 -12 0 -5 -20 -6 -45 -4 -24 3 -47 3 -50 0 -6 -6 -76 -11 -235 -15 -53
-2 -100 -6 -106 -10 -6 -3 -31 -6 -56 -5 -25 0 -51 -3 -57 -7 -7 -4 -17 -3
-24 2 -15 11 -57 15 -57 5 0 -4 -52 -9 -117 -11 -64 -1 -128 -7 -142 -12 -14
-6 -41 -8 -59 -4 -20 4 -39 1 -47 -5 -9 -8 -20 -8 -30 -2 -21 11 -114 -5 -136
-24 -8 -8 -20 -14 -26 -14 -16 0 -47 -51 -51 -85 -11 -82 -2 -197 18 -234 6
-12 9 -34 6 -49 -3 -15 -2 -33 3 -41 6 -9 5 -23 -1 -36 -7 -16 -6 -30 6 -52 8
-17 13 -33 10 -36 -3 -3 -1 -14 5 -25 7 -13 7 -22 -1 -30 -9 -9 -9 -15 0 -24
7 -7 12 -29 12 -49 0 -21 5 -50 10 -65 7 -17 7 -31 1 -38 -6 -8 -6 -26 0 -51
5 -22 12 -62 15 -90 3 -27 9 -63 14 -80 9 -32 13 -62 35 -275 3 -30 10 -89 16
-130 5 -41 10 -86 10 -100 1 -14 5 -30 11 -37 5 -7 7 -17 3 -23 -4 -6 -3 -19
1 -28 4 -9 8 -37 9 -62 1 -65 23 -244 41 -325 12 -60 29 -209 48 -433 3 -28 8
-57 11 -62 4 -6 9 -27 11 -48 3 -20 7 -50 10 -67 3 -16 5 -39 5 -50 1 -11 8
-67 17 -125 9 -58 17 -127 18 -155 1 -27 6 -67 12 -87 6 -21 8 -46 5 -57 -7
-26 22 -79 64 -119 43 -40 122 -70 134 -51 6 10 11 10 23 0 12 -10 19 -11 30
-2 7 6 35 12 62 12 27 1 127 8 222 16 95 8 179 13 186 10 7 -3 50 -1 97 4 168
18 326 31 404 33 44 2 91 6 103 10 13 5 29 3 37 -4 9 -7 23 -9 37 -4 13 4 25
8 28 9 3 0 11 4 18 9 7 4 19 3 26 -3 7 -6 20 -9 27 -7 8 3 50 8 94 11 44 4 96
9 115 11 19 2 80 6 135 8 55 2 100 5 100 6 0 2 182 9 234 9 18 0 38 5 45 10 7
6 48 11 92 11 89 1 222 7 274 13 70 8 157 10 167 4 6 -4 16 0 23 8 13 15 110
17 110 3 0 -12 35 -9 47 3 6 6 65 12 145 13 73 1 139 5 146 10 6 4 16 5 21 2
5 -4 22 -1 37 4 17 7 31 7 37 1 5 -5 21 -6 37 -1 16 5 70 8 122 9 92 0 129 4
148 16 5 3 18 0 30 -7 16 -11 28 -10 63 3 72 25 83 8 47 -74 -18 -39 -25 -46
-58 -52 -40 -6 -152 -15 -217 -17 -22 -1 -42 -5 -45 -9 -3 -5 -23 -4 -43 2
-21 5 -41 7 -47 4 -8 -5 -43 -8 -235 -20 -44 -3 -98 -7 -120 -10 -22 -4 -76
-8 -120 -9 -44 -2 -80 -4 -80 -5 0 -5 -121 -12 -270 -16 -93 -2 -190 -7 -215
-9 -25 -3 -117 -8 -205 -12 -88 -3 -164 -10 -170 -14 -5 -4 -44 -8 -85 -9 -41
-1 -93 -6 -115 -10 -22 -5 -87 -7 -145 -6 -58 1 -109 -2 -115 -6 -5 -4 -40 -9
-77 -12 -36 -3 -72 -8 -79 -12 -8 -6 -10 -4 -5 4 6 9 -9 11 -65 8 -41 -2 -81
-7 -89 -10 -8 -3 -28 -6 -45 -7 -16 0 -57 -3 -90 -5 -124 -10 -286 -17 -317
-14 -7 0 -33 -3 -58 -6 -25 -4 -67 -8 -95 -10 -27 -1 -50 -4 -50 -5 0 -2 -40
-4 -90 -5 -49 -1 -124 -6 -165 -10 -41 -4 -86 -8 -100 -9 -17 -1 -27 -9 -35
-29 -14 -41 14 -61 75 -52 25 3 92 8 149 10 57 2 112 7 121 10 10 3 21 1 25
-5 9 -14 21 -13 40 6 14 14 25 15 76 7 33 -5 62 -6 64 -2 3 4 29 7 58 7 48 0
153 6 267 17 127 12 195 17 299 20 63 2 133 7 155 11 57 11 109 11 122 2 6 -5
24 -4 40 2 15 6 39 8 54 5 15 -3 39 -1 55 5 16 6 70 13 119 16 50 3 94 8 98
10 4 3 17 0 29 -7 15 -8 28 -8 43 -1 30 15 105 22 112 11 3 -5 9 -7 13 -5 4 3
50 8 102 11 52 4 112 10 134 15 24 5 57 5 83 -1 28 -6 57 -5 89 2 27 6 62 13
78 14 17 1 30 3 30 4 0 1 74 3 165 5 91 2 172 7 181 10 10 4 20 3 24 -3 9 -15
38 -14 53 2 7 6 30 13 50 13 20 1 102 5 182 9 80 5 162 9 183 9 20 0 37 2 37
6 0 10 159 10 166 -1 3 -6 2 -21 -4 -32 -21 -47 -51 -123 -57 -145 -8 -29 -53
-52 -88 -45 -14 3 -35 2 -44 -2 -10 -4 -88 -9 -173 -11 -85 -2 -166 -7 -180
-10 -14 -4 -77 -8 -140 -10 -63 -2 -140 -6 -170 -9 -105 -10 -215 -12 -227 -3
-12 10 -63 0 -63 -12 0 -4 -35 -7 -79 -6 -48 0 -84 -4 -93 -11 -10 -9 -42 -11
-101 -8 -48 2 -89 0 -92 -4 -2 -5 -15 -6 -27 -4 -13 2 -59 0 -103 -6 -49 -6
-84 -6 -91 0 -7 5 -23 5 -43 -2 -18 -6 -55 -9 -82 -7 -27 3 -52 1 -55 -4 -3
-5 -18 -6 -33 -3 -15 3 -38 2 -51 -3 -13 -5 -40 -5 -59 -1 -20 4 -56 3 -82 -2
-26 -6 -92 -12 -146 -13 -54 -2 -114 -6 -133 -9 -19 -3 -91 -8 -160 -11 -189
-8 -262 -15 -276 -27 -8 -6 -21 -8 -31 -4 -29 13 -77 14 -91 3 -9 -8 -19 -7
-35 1 -42 23 -207 -16 -207 -48 0 -5 -3 -16 -6 -24 -3 -9 7 -22 30 -37 20 -12
36 -28 36 -36 0 -7 14 -21 32 -30 33 -17 208 -190 208 -205 0 -5 6 -9 14 -9 8
0 43 -33 77 -72 35 -40 77 -84 94 -98 16 -14 56 -49 87 -78 32 -28 66 -52 77
-52 11 0 21 -5 23 -11 3 -10 63 -21 103 -19 25 1 134 10 170 14 22 3 114 8
205 11 91 3 172 8 180 12 8 3 43 7 78 8 60 1 65 -1 89 -29 22 -27 24 -28 20
-9 -6 28 8 39 28 23 8 -6 18 -9 24 -6 10 6 25 -23 16 -32 -3 -3 -5 0 -5 6 0 7
-9 12 -20 12 -23 0 -27 -15 -5 -24 8 -3 15 -9 14 -13 -3 -19 2 -25 14 -16 18
15 57 23 57 12 0 -20 20 -7 26 16 7 30 15 31 32 5 8 -13 8 -20 2 -20 -7 0 -7
-6 0 -20 20 -37 50 -19 50 30 0 24 12 31 30 19 12 -7 13 -11 2 -18 -22 -13
-11 -66 13 -66 11 0 21 -8 23 -18 3 -13 10 -17 24 -14 11 3 47 -4 81 -15 34
-11 68 -22 75 -24 6 -2 12 -11 12 -20 0 -13 -3 -14 -15 -4 -23 19 -18 -4 6
-26 17 -16 22 -16 30 -4 5 8 7 25 4 38 -3 12 -1 22 5 22 6 0 9 -4 6 -9 -6 -9
23 -38 33 -33 3 2 8 -5 10 -14 2 -13 -2 -16 -17 -12 -18 5 -19 3 -10 -18 6
-13 17 -24 24 -24 7 0 18 -9 24 -20 6 -11 17 -20 24 -20 8 0 17 -7 20 -16 3
-9 13 -14 21 -10 8 3 17 1 20 -5 4 -5 11 -7 16 -4 5 4 9 -1 9 -9 0 -15 -11
-20 -37 -17 -7 1 -26 -5 -43 -14 -22 -11 -35 -13 -49 -6 -10 6 -21 8 -24 5 -3
-3 -45 -7 -93 -10 -137 -6 -195 -12 -201 -18 -3 -3 -18 1 -33 9 -25 13 -30 13
-40 -1 -10 -11 -26 -13 -71 -8 -32 4 -66 3 -76 -1 -10 -4 -81 -9 -158 -11 -77
-2 -150 -9 -162 -15 -15 -8 -30 -9 -51 -1 -28 9 -70 7 -102 -6 -17 -7 -101
-12 -213 -13 -76 0 -137 16 -152 41 -3 6 -15 10 -26 10 -11 0 -22 8 -26 18 -7
21 -40 50 -71 62 -12 5 -27 21 -32 35 -5 14 -14 25 -19 25 -5 0 -24 20 -42 45
-17 24 -49 56 -70 71 -22 15 -39 32 -39 39 0 7 -26 34 -57 61 -79 68 -123 112
-123 122 0 6 -16 22 -36 37 -19 15 -49 49 -66 76 -18 31 -37 49 -49 49 -10 0
-24 10 -30 22 -6 13 -51 60 -98 106 -47 45 -90 87 -96 93 -5 5 -20 20 -32 31
-13 12 -23 27 -23 34 0 6 -17 24 -37 40 -62 47 -133 121 -133 138 0 9 -7 16
-15 16 -8 0 -19 9 -25 21 -6 11 -25 28 -42 39 -17 10 -35 27 -42 38 -6 10 -23
38 -39 61 -32 49 -63 128 -72 191 -8 49 -12 69 -16 85 -1 6 1 22 5 37 5 18 3
38 -8 59 -9 17 -13 35 -11 40 3 4 -1 38 -10 75 -8 37 -13 81 -9 98 3 18 -1 50
-9 74 -9 25 -12 60 -9 87 3 28 -1 61 -11 88 -8 23 -18 76 -22 117 -3 41 -9 91
-11 110 -3 19 -5 52 -5 73 1 21 -3 37 -10 37 -7 0 -9 9 -5 25 4 14 2 34 -3 44
-6 10 -13 69 -16 130 -3 62 -10 121 -15 131 -6 11 -13 52 -16 92 -3 40 -7 87
-9 103 -2 17 -6 55 -9 85 -3 30 -11 67 -17 82 -6 15 -8 35 -5 44 4 9 2 22 -3
28 -13 15 -23 109 -22 205 0 41 -4 80 -10 87 -6 7 -13 41 -16 76 -8 94 -9 100
-21 139 -7 20 -12 56 -12 80 1 69 -9 171 -19 183 -14 18 -20 83 -9 94 8 8 8
16 -2 26 -7 10 -10 29 -6 48 3 18 1 51 -5 73 -6 22 -12 54 -13 70 -2 17 -6 40
-10 53 -5 13 -3 29 3 36 8 10 8 16 -3 25 -9 8 -13 31 -12 74 1 34 -4 73 -11
87 -7 14 -13 35 -13 47 0 12 -5 25 -10 28 -7 4 -6 13 1 27 13 24 5 113 -11
133 -14 17 -4 53 24 89 29 36 102 57 211 62 44 1 130 6 190 10 61 3 139 8 175
9 36 2 84 7 106 10 24 4 50 2 61 -4 15 -7 25 -6 42 6 14 9 33 13 51 9 16 -3
32 -1 36 5 4 6 11 6 21 -2 11 -10 19 -10 34 -1 11 7 23 10 28 8 4 -3 23 -1 41
4 23 7 38 6 47 -2 10 -8 19 -8 36 0 12 6 51 11 87 11 85 0 221 9 227 15 3 3
16 1 29 -4 14 -6 34 -6 47 -1 23 9 187 22 312 26 33 1 80 5 105 9 25 4 95 9
155 11 61 2 110 4 110 5 0 1 36 4 80 5 44 2 116 6 160 10 44 4 109 6 144 6 35
-1 70 4 78 10 9 8 41 10 93 6 44 -3 82 -1 86 4 3 5 19 8 37 8 28 -1 286 9 377
14 19 2 40 6 47 10 7 4 92 9 188 12 97 2 179 6 183 9 11 11 27 0 30 -21z m100
-395 c7 -7 12 -22 12 -34 0 -13 5 -26 10 -29 6 -3 10 -13 10 -21 0 -8 14 -33
32 -55 43 -53 68 -52 108 6 17 25 32 45 34 45 2 0 27 -22 55 -49 42 -40 58
-49 85 -48 53 1 82 -24 91 -79 4 -26 13 -57 20 -68 7 -12 16 -42 19 -68 4 -25
14 -52 22 -59 8 -7 12 -19 9 -26 -3 -8 4 -26 14 -39 11 -13 22 -47 26 -74 4
-28 15 -68 26 -90 10 -21 19 -45 19 -53 0 -8 9 -22 20 -32 10 -9 24 -33 31
-52 6 -19 17 -47 25 -61 8 -15 14 -33 14 -40 0 -7 11 -28 25 -46 14 -18 25
-40 25 -49 0 -9 5 -28 10 -43 l11 -27 35 42 c20 23 53 51 73 62 20 11 50 28
66 39 59 38 81 48 125 55 25 4 50 11 55 15 14 10 111 20 120 12 4 -4 10 -7 13
-7 4 -1 28 -9 55 -19 47 -19 56 -29 93 -106 9 -19 21 -43 26 -53 5 -10 6 -22
2 -28 -3 -5 0 -17 8 -26 9 -11 13 -47 13 -112 0 -102 -1 -105 -80 -192 -8 -9
-15 -20 -15 -26 0 -14 -44 -43 -65 -43 -8 0 -23 -4 -33 -9 -23 -11 -82 -31
-107 -36 -72 -14 -117 -31 -136 -51 l-22 -24 31 -51 c18 -27 32 -54 32 -59 0
-4 11 -15 25 -24 14 -9 25 -21 25 -27 0 -16 89 -97 239 -218 106 -85 115 -89
149 -64 41 30 72 82 72 119 0 28 4 34 22 34 11 0 35 -10 52 -23 17 -13 59 -38
93 -56 49 -26 65 -31 81 -22 29 15 49 52 57 104 7 45 8 45 34 34 14 -6 42 -24
62 -39 47 -36 125 -40 154 -8 13 15 15 23 7 33 -6 7 -9 23 -5 35 12 47 83 11
98 -50 4 -14 15 -34 26 -44 11 -10 19 -30 19 -49 0 -17 5 -36 11 -42 6 -6 14
-26 18 -44 9 -42 59 -76 90 -60 14 8 27 7 48 -3 85 -41 106 -50 130 -52 15 -2
39 -12 54 -24 16 -11 34 -20 41 -20 7 0 33 -14 57 -30 24 -17 48 -30 53 -30 4
0 8 -9 8 -20 0 -11 4 -20 9 -20 12 0 81 -69 81 -81 0 -5 8 -9 19 -9 11 0 23
-12 31 -30 7 -17 21 -35 31 -41 11 -5 26 -24 35 -42 8 -18 28 -54 44 -82 16
-27 34 -61 40 -75 6 -14 17 -32 24 -40 7 -8 17 -28 20 -45 4 -16 15 -38 24
-48 20 -22 42 -83 42 -118 0 -15 7 -32 15 -39 8 -7 21 -33 29 -59 8 -25 22
-61 32 -80 9 -19 18 -52 20 -74 2 -21 10 -53 19 -70 8 -16 15 -49 15 -73 0
-24 4 -45 9 -49 5 -3 13 -31 17 -63 3 -31 11 -65 16 -76 6 -10 11 -28 13 -40
2 -11 10 -43 19 -69 l15 -48 -77 0 c-42 0 -129 -1 -192 -3 -63 -1 -119 1 -125
5 -5 3 -50 2 -100 -2 -49 -5 -97 -6 -105 -3 -13 6 -204 7 -370 3 -25 -1 -54
-1 -65 0 -59 3 -462 -6 -475 -11 -8 -3 -33 -12 -55 -20 -25 -9 -45 -24 -53
-41 -7 -15 -19 -27 -27 -27 -27 0 -59 -74 -69 -165 -2 -11 -5 -27 -9 -35 -3
-8 -9 -87 -12 -175 -8 -185 -10 -208 -19 -253 -5 -21 -3 -38 4 -47 7 -8 8 -20
3 -27 -4 -7 -9 -84 -10 -170 -1 -87 -5 -162 -8 -168 -3 -5 -4 -14 -1 -18 5 -8
6 -64 5 -172 0 -30 1 -80 4 -110 3 -30 1 -58 -4 -61 -6 -3 -31 -2 -57 1 -26 4
-58 4 -70 -1 -13 -5 -29 -6 -35 -2 -14 9 -61 15 -97 13 -185 -9 -192 -8 -211
24 -17 27 -19 51 -18 181 0 83 0 157 0 165 -1 8 2 32 5 52 7 42 4 44 -29 26
-50 -26 -61 -30 -81 -34 -40 -6 -111 -24 -166 -40 -30 -9 -89 -18 -130 -21
-41 -3 -87 -11 -103 -19 -17 -9 -37 -12 -50 -8 -12 4 -74 9 -137 11 -63 2
-126 4 -140 4 -14 1 -63 8 -109 16 -46 8 -89 12 -96 9 -7 -2 -21 1 -31 9 -10
7 -24 11 -31 8 -7 -3 -19 0 -27 6 -7 6 -16 8 -19 5 -4 -4 -18 1 -31 10 -14 9
-34 16 -45 16 -11 0 -23 4 -26 10 -3 5 -18 10 -33 10 -37 0 -108 26 -91 33 8
3 2 6 -12 6 -15 1 -29 8 -32 15 -3 8 -22 18 -42 22 -19 3 -38 10 -41 15 -3 5
-14 9 -25 9 -11 0 -22 7 -26 16 -5 15 -7 15 -15 0 -6 -11 -5 -22 2 -32 10 -11
9 -14 -9 -14 -23 0 -28 19 -10 37 13 13 3 36 -12 28 -5 -4 -15 -3 -21 2 -7 4
-24 8 -37 8 -18 0 -27 7 -31 25 -3 14 -14 27 -25 29 -10 2 -24 9 -31 16 -7 7
-24 10 -38 8 -16 -3 -26 -1 -26 6 0 6 8 11 17 11 13 0 14 3 5 12 -10 10 -17
10 -32 0 -25 -15 -30 -15 -30 1 0 19 -35 49 -45 40 -4 -5 -5 -3 -1 4 3 6 1 15
-5 19 -8 5 -10 -1 -7 -20 4 -17 1 -25 -6 -23 -6 2 -16 -3 -22 -12 -10 -12 -11
-10 -11 12 0 15 5 27 12 27 7 0 13 11 13 25 0 15 -6 25 -15 25 -8 0 -12 4 -8
9 9 16 -26 21 -118 17 -70 -2 -87 0 -83 10 3 7 1 16 -4 19 -6 4 -10 0 -11 -7
0 -10 -2 -10 -6 0 -6 15 -33 16 -33 1 0 -5 -5 -7 -10 -4 -6 4 -8 11 -5 16 4 5
0 9 -8 9 -8 0 -13 -10 -13 -22 1 -14 -6 -24 -17 -26 -16 -3 -17 -1 -7 17 12
24 6 41 -16 41 -8 0 -17 7 -20 15 -4 8 -10 15 -14 15 -14 0 -86 75 -98 102 -6
15 -22 34 -35 42 -21 15 -27 14 -65 -4 -83 -40 -220 -20 -181 26 7 9 12 29 11
43 -2 16 6 38 17 53 12 14 21 30 21 35 0 5 24 32 53 61 51 51 131 92 177 92
14 0 20 7 20 23 0 59 60 84 185 78 51 -2 66 1 100 25 71 48 140 58 199 29 16
-8 36 -15 45 -16 9 0 30 -9 46 -20 17 -11 51 -29 78 -41 26 -12 47 -27 47 -33
0 -12 64 -61 110 -85 16 -9 74 -15 160 -17 138 -3 171 -5 250 -17 25 -4 65 -9
90 -11 25 -2 81 -9 125 -15 166 -22 173 -22 195 2 11 13 20 35 20 54 0 18 7
40 16 48 11 11 14 25 9 45 -5 23 -2 32 16 44 11 9 19 21 17 29 -3 7 3 24 13
37 11 13 19 32 19 42 0 10 4 20 9 23 5 3 11 20 14 38 4 32 22 87 37 119 5 9 4
22 -1 30 -5 8 -9 19 -9 24 0 6 4 3 9 -4 8 -12 11 -8 16 15 12 55 51 148 77
183 10 13 18 37 18 52 0 16 5 29 10 29 6 0 10 7 10 16 0 9 9 27 20 41 11 14
20 34 20 43 0 10 7 23 15 30 8 7 15 18 15 25 0 7 7 18 15 25 7 6 28 37 46 68
17 31 35 59 40 62 4 3 13 17 18 30 6 14 15 32 20 40 5 8 14 26 20 40 17 36
149 172 192 198 71 43 112 120 84 157 -13 17 -18 18 -36 7 -13 -8 -25 -10 -32
-4 -7 6 -43 6 -92 0 -99 -11 -302 1 -350 21 -11 5 -46 14 -77 21 -46 9 -178
67 -197 86 -8 7 82 95 107 105 12 5 22 16 22 26 1 10 7 36 15 58 17 47 7 63
-35 61 -23 -1 -36 -10 -50 -34 -11 -18 -20 -38 -20 -45 0 -17 -56 -74 -80 -82
-29 -9 -75 28 -116 91 -19 29 -34 57 -34 62 0 5 -9 17 -20 27 -11 10 -20 25
-20 33 0 13 -46 114 -133 292 -10 21 -23 27 -75 35 -55 9 -65 14 -83 42 -15
24 -18 36 -10 50 51 93 62 130 68 224 3 65 1 99 -6 103 -6 4 -11 18 -11 30 0
13 -6 29 -14 35 -8 7 -14 29 -14 50 0 21 -5 48 -12 60 -6 13 -9 29 -6 36 2 7
-2 21 -9 32 -9 11 -14 44 -15 90 0 39 -4 74 -9 77 -9 6 -22 69 -27 136 -11
167 -12 245 -3 256 8 9 7 24 -1 50 -10 28 -10 41 0 59 7 14 10 35 6 50 -4 15
-2 33 4 40 6 7 14 32 18 56 6 33 13 45 27 47 28 5 83 31 90 42 8 14 29 12 43
-2z m-2190 -174 c2 -11 -4 -27 -13 -34 -22 -18 -19 -38 13 -65 23 -21 25 -26
12 -35 -65 -43 -130 69 -78 135 24 31 61 31 66 -1z m-136 -38 c4 -6 8 -33 8
-59 0 -46 -1 -48 -26 -45 -23 3 -29 10 -40 53 -8 35 -9 54 -2 63 12 14 48 7
60 -12z m-127 -6 c10 -11 15 -26 11 -36 -4 -9 1 -28 9 -41 9 -13 13 -28 10
-33 -16 -26 -75 6 -75 42 0 10 -5 27 -12 37 -9 15 -9 23 1 35 18 21 34 20 56
-4z m-732 -26 c3 -4 2 -15 -4 -25 -6 -12 -7 -31 -1 -53 6 -20 6 -39 0 -49 -11
-21 -48 -22 -48 -2 0 8 -7 30 -17 49 -15 32 -15 36 1 60 15 24 54 35 69 20z
m1135 -107 c2 -9 -4 -20 -13 -23 -19 -8 -20 -6 -30 24 -6 21 -4 23 16 20 13
-2 25 -11 27 -21z m1387 -77 c8 -24 -1 -40 -21 -40 -16 0 -17 5 -8 38 8 27 21
28 29 2z m-1370 -25 c0 -34 -20 -43 -50 -21 -19 14 -19 14 0 35 26 30 50 23
50 -14z m1373 -75 c4 -40 -11 -59 -32 -41 -16 14 -18 49 -3 69 16 20 32 8 35
-28z m-1004 -3 c22 -16 12 -45 -20 -53 -43 -11 -73 34 -36 55 23 14 35 13 56
-2z m-186 -25 c3 -17 -2 -22 -18 -22 -25 0 -38 29 -19 41 20 13 34 6 37 -19z
m-278 -36 c-17 -21 -27 -20 -40 5 -9 15 -8 24 1 35 11 13 15 13 32 -5 17 -17
18 -22 7 -35z m174 31 c16 -25 -9 -39 -59 -32 -47 7 -60 17 -51 40 8 23 95 17
110 -8z m-303 -6 c33 -27 14 -46 -35 -37 -41 8 -53 21 -36 41 17 20 43 19 71
-4z m-119 -15 c9 -12 -26 -46 -47 -46 -8 0 -25 4 -40 10 -25 9 -25 10 -9 35
14 22 21 25 53 19 20 -4 39 -12 43 -18z m-157 -26 c0 -29 -22 -37 -50 -16 -17
12 -17 16 -5 30 20 25 55 16 55 -14z m1759 8 c11 -16 12 -26 5 -41 -8 -13 -8
-22 0 -30 17 -17 13 -45 -8 -56 -14 -8 -23 -5 -38 12 -22 23 -23 61 -4 110 13
33 25 34 45 5z m-1856 -9 c-4 -29 -46 -45 -55 -22 -4 9 1 21 12 29 28 21 47
17 43 -7z m2342 -4 c0 -18 -5 -25 -20 -25 -20 0 -28 28 -13 43 15 16 33 6 33
-18z m-107 -3 c13 -14 14 -21 5 -30 -18 -18 -36 -14 -49 9 -9 17 -8 23 2 30
20 12 24 11 42 -9z m-98 -27 c0 -23 -4 -30 -20 -30 -21 0 -31 25 -21 51 11 28
41 12 41 -21z m-195 5 c12 -23 6 -40 -16 -40 -17 0 -28 24 -20 45 8 21 23 19
36 -5z m98 -3 c2 -10 -3 -17 -12 -17 -18 0 -29 16 -21 31 9 14 29 6 33 -14z
m-833 -41 c12 -33 11 -42 -2 -62 -17 -26 -42 -32 -47 -11 -19 72 -22 97 -12
107 21 21 48 6 61 -34z m400 8 c0 -23 -4 -28 -20 -26 -33 6 -40 20 -20 42 24
27 40 21 40 -16z m123 14 c2 -8 -4 -20 -12 -27 -11 -10 -17 -8 -30 10 -8 12
-13 25 -11 29 8 13 50 3 53 -12z m-283 -4 c27 -18 31 -34 13 -52 -8 -8 -15 -8
-24 -1 -9 7 -21 6 -43 -5 -28 -15 -31 -15 -41 3 -14 27 -2 51 25 51 13 0 27 5
30 10 8 13 11 13 40 -6z m-708 -6 c4 -7 8 -37 8 -66 1 -63 -15 -84 -45 -57
-23 21 -28 103 -8 123 16 16 35 15 45 0z m-342 -84 c0 -22 -5 -30 -23 -32 -30
-4 -39 23 -16 49 23 26 39 19 39 -17z m121 21 c7 -18 -12 -45 -32 -45 -17 0
-18 32 -2 48 16 16 27 15 34 -3z m-216 -28 c0 -18 -21 -37 -41 -37 -22 0 -33
16 -25 35 7 19 66 20 66 2z m-406 -12 c8 -22 -3 -43 -27 -51 -27 -9 -50 21
-36 47 12 23 55 25 63 4z m104 3 c21 -21 13 -38 -17 -38 -37 0 -46 13 -25 34
19 19 26 20 42 4z m98 -3 c19 -15 19 -15 0 -30 -26 -20 -33 -19 -46 5 -20 37
9 53 46 25z m-292 -11 c9 -23 -2 -34 -34 -34 -34 0 -47 15 -30 35 16 20 56 19
64 -1z m-109 -24 c0 -8 -10 -16 -22 -18 -18 -3 -23 2 -23 18 0 16 5 21 23 18
12 -2 22 -10 22 -18z m1382 -211 c-3 -26 0 -42 9 -50 21 -17 17 -36 -8 -43
-17 -4 -29 2 -45 22 -24 29 -28 53 -14 80 5 9 12 25 15 35 5 15 9 16 27 6 18
-9 21 -17 16 -50z m1007 46 c3 -9 -3 -19 -15 -26 -25 -13 -33 -7 -24 20 7 24
30 28 39 6z m-219 -6 c10 -15 -1 -23 -20 -15 -9 3 -13 10 -10 16 8 13 22 13
30 -1z m103 -6 c2 -8 -5 -13 -17 -13 -12 0 -21 6 -21 16 0 18 31 15 38 -3z
m-193 -4 c4 -6 5 -13 1 -16 -8 -9 -76 7 -76 17 0 14 67 13 75 -1z m-817 -57
c2 -12 0 -23 -5 -23 -36 -6 -70 -4 -80 4 -20 15 -15 27 11 27 14 0 28 5 31 11
11 17 40 5 43 -19z m-133 -7 c0 -25 -37 -32 -54 -11 -18 21 -4 38 27 34 19 -2
27 -9 27 -23z m-125 -9 c0 -18 -7 -25 -31 -30 -48 -9 -56 -8 -62 14 -6 25 16
39 61 40 27 0 32 -4 32 -24z m1760 -22 c0 -6 -7 -18 -16 -25 -14 -11 -19 -9
-35 11 -24 32 -24 33 4 46 17 8 25 7 35 -5 6 -8 12 -20 12 -27z m-1903 -7 c-2
-7 -16 -13 -30 -15 -29 -4 -44 16 -34 42 5 13 10 13 37 0 17 -9 29 -21 27 -27z
m-122 14 c0 -15 -52 -34 -67 -25 -4 3 -3 14 3 25 12 24 64 23 64 0z m1901 -32
c10 -17 -23 -46 -38 -31 -8 8 -8 15 2 27 15 18 26 19 36 4z m-301 -19 c15 -16
15 -22 5 -35 -7 -8 -20 -15 -30 -15 -10 0 -23 7 -30 15 -10 13 -10 19 5 35 10
11 21 20 25 20 4 0 15 -9 25 -20z m194 1 c12 -21 5 -31 -21 -31 -11 0 -18 7
-18 18 0 35 23 43 39 13z m-674 -23 c19 -17 -11 -43 -60 -50 -27 -4 -52 -5
-57 -2 -14 9 -8 53 9 62 19 11 93 4 108 -10z m345 2 c12 -23 6 -40 -15 -40
-13 0 -25 21 -25 46 0 21 28 17 40 -6z m-106 -11 c16 -14 -15 -39 -50 -39 -39
0 -49 12 -34 40 8 15 17 18 43 13 17 -3 36 -9 41 -14z m660 -11 c8 -13 6 -22
-8 -37 -11 -12 -23 -21 -28 -21 -13 0 -31 47 -24 65 8 21 45 16 60 -7z m-1194
-3 c13 -16 10 -47 -5 -52 -6 -2 -19 3 -29 10 -15 11 -17 17 -7 35 14 26 24 28
41 7z m99 1 c10 -12 7 -18 -13 -31 -14 -9 -30 -14 -36 -10 -11 7 -14 38 -3 48
11 12 40 8 52 -7z m-201 -28 c2 -11 -8 -18 -33 -22 -41 -8 -55 -2 -55 24 0 15
7 18 42 16 30 -2 44 -7 46 -18z m-358 -23 c16 -20 6 -45 -19 -45 -20 0 -37 32
-26 50 9 15 31 12 45 -5z m-245 -25 c0 -29 -15 -35 -40 -15 -20 15 -20 15 0
30 25 20 40 14 40 -15z m122 14 c2 -6 -7 -18 -21 -27 -23 -15 -26 -15 -48 3
l-23 19 25 10 c30 12 62 10 67 -5z m229 -11 c-7 -7 -26 7 -26 19 0 6 6 6 15
-2 9 -7 13 -15 11 -17z m-438 -5 c2 -10 -9 -22 -29 -32 -43 -22 -62 -20 -87 7
-31 32 -13 46 57 43 43 -1 57 -5 59 -18z m1486 -18 c22 -17 21 -98 -1 -122
-31 -34 -46 -23 -38 28 6 39 3 50 -15 69 -12 13 -19 28 -16 34 8 13 51 8 70
-9z m123 8 c4 -7 13 -35 20 -63 10 -46 10 -52 -9 -72 -25 -27 -42 -20 -34 12
3 13 1 27 -5 30 -6 4 -8 13 -5 21 3 8 1 23 -6 33 -6 10 -8 26 -5 35 8 19 32
21 44 4z m-640 -58 c1 -19 5 -49 8 -66 7 -33 -3 -48 -27 -39 -21 8 -50 79 -42
101 20 56 58 58 61 4z m333 -14 c0 -20 -28 -39 -46 -32 -10 4 -32 2 -51 -5
-43 -14 -69 2 -52 32 12 23 54 25 63 4 8 -22 21 -18 34 10 10 22 15 24 32 15
11 -6 20 -17 20 -24z m68 2 c-2 -15 -11 -24 -25 -26 -25 -4 -31 16 -11 36 20
20 40 14 36 -10z m-289 -22 c18 -21 -13 -43 -36 -25 -10 7 -20 14 -22 16 -1 1
0 6 4 12 9 15 40 14 54 -3z m-354 -22 c0 -13 -8 -20 -27 -22 -32 -4 -35 4 -11
30 20 22 38 19 38 -8z m123 14 c24 -24 13 -38 -27 -38 -41 0 -55 8 -43 26 15
23 53 29 70 12z m-383 -22 c16 -12 17 -16 6 -30 -26 -31 -62 -9 -47 29 7 19
17 19 41 1z m180 3 c4 -5 -1 -19 -11 -30 -14 -15 -25 -18 -53 -13 -20 4 -45
11 -55 17 -19 9 -19 10 -1 23 22 16 111 19 120 3z m-287 -27 c4 -29 -24 -40
-46 -18 -16 16 -16 18 3 32 24 18 39 13 43 -14z m-420 -15 c2 -10 -2 -24 -8
-32 -10 -12 -15 -12 -36 1 -19 13 -22 20 -13 36 13 24 52 21 57 -5z m117 3
c17 -19 17 -22 2 -37 -13 -13 -19 -14 -31 -3 -20 15 -21 60 -3 60 8 0 22 -9
32 -20z m173 2 c6 -18 -15 -14 -22 4 -4 10 -1 14 6 12 6 -2 14 -10 16 -16z
m-61 -24 c-3 -8 -6 -5 -6 6 -1 11 2 17 5 13 3 -3 4 -12 1 -19z m1300 -178 c32
-64 -4 -162 -37 -100 -8 14 -7 25 2 39 10 17 9 23 -6 40 -21 23 -14 54 11 49
10 -2 23 -14 30 -28z m-822 -75 c0 -14 -6 -19 -20 -17 -26 5 -27 6 -19 26 9
23 39 16 39 -9z m169 5 c14 -14 -3 -30 -32 -29 -43 2 -82 10 -82 17 0 25 90
34 114 12z m-284 -15 c0 -8 -9 -15 -20 -15 -22 0 -27 15 -7 23 21 9 27 7 27
-8z m-130 -1 c0 -3 -7 -12 -15 -20 -8 -9 -15 -13 -15 -11 0 3 -3 12 -6 21 -4
12 0 16 15 16 12 0 21 -3 21 -6z m-131 -13 c25 -16 5 -42 -26 -35 -57 12 -60
14 -39 30 22 16 45 18 65 5z m-276 -8 c6 -11 -10 -53 -20 -53 -4 0 -17 8 -28
16 -20 15 -20 15 -1 30 22 15 42 18 49 7z m106 -2 c23 -15 5 -41 -29 -41 -22
0 -30 5 -30 18 0 32 28 42 59 23z m332 -92 c9 -18 8 -24 -5 -31 -22 -12 -20
-23 6 -47 18 -18 20 -24 10 -46 -9 -19 -18 -25 -35 -23 -28 4 -45 39 -48 103
-3 45 -1 50 21 56 38 11 39 10 51 -12z m-344 -86 c4 -12 -45 -35 -57 -28 -5 3
-4 16 2 30 8 18 15 22 31 16 12 -4 22 -12 24 -18z m-109 -11 c4 -28 -24 -40
-45 -19 -21 21 -9 49 19 45 15 -2 24 -11 26 -26z m-121 -8 c9 -25 -10 -35 -53
-26 -24 5 -40 14 -42 25 -3 14 5 17 43 17 32 0 47 -5 52 -16z m-142 -19 c0
-31 -49 -28 -53 3 -3 20 0 23 25 20 20 -2 28 -8 28 -23z m1708 -59 c-3 -41
-19 -54 -39 -34 -24 24 -11 70 19 66 18 -2 22 -9 20 -32z m-1031 -24 c-2 -13
4 -32 12 -41 20 -21 11 -51 -14 -51 -24 0 -42 24 -34 44 4 10 -1 25 -12 37
-16 17 -16 22 -4 30 27 17 55 6 52 -19z m-212 -30 c14 -11 19 -23 14 -35 -5
-14 -16 -17 -53 -15 -56 4 -68 28 -24 51 37 20 37 20 63 -1z m115 -12 c0 -8
-8 -16 -18 -18 -21 -4 -49 16 -41 30 9 15 59 5 59 -12z m-262 4 c9 -9 -23 -54
-39 -54 -18 0 -28 24 -20 45 5 15 47 21 59 9z m762 -95 c4 -12 2 -26 -4 -32
-16 -16 -45 3 -49 32 -5 30 44 30 53 0z m-114 -35 c11 -14 10 -18 -6 -30 -24
-18 -34 -18 -41 1 -15 38 21 60 47 29z m-261 -9 c18 -21 5 -45 -25 -45 -33 0
-45 28 -20 46 24 18 30 17 45 -1z m118 -16 c3 -22 -2 -27 -24 -32 -20 -4 -32
1 -45 17 -23 28 -7 48 35 44 25 -2 32 -8 34 -29z m-280 12 c9 -5 25 -12 35
-15 18 -6 24 -42 7 -48 -6 -2 -31 -1 -56 1 -54 4 -68 25 -35 53 27 21 26 21
49 9z m551 -24 c14 -17 4 -27 -26 -27 -16 0 -23 6 -23 20 0 23 31 27 49 7z
m-779 -15 c0 -10 -6 -27 -14 -38 -14 -18 -16 -18 -31 -3 -24 23 -11 59 21 59
16 0 24 -6 24 -18z m105 -7 c0 -13 -8 -21 -22 -23 -17 -3 -23 2 -23 16 0 10 3
22 7 26 13 13 38 1 38 -19z m-408 -117 l23 -22 21 23 c19 20 23 21 37 8 22
-23 8 -50 -23 -44 -32 6 -40 -7 -40 -65 0 -56 -4 -61 -40 -52 -32 8 -42 30
-27 55 14 22 6 48 -21 71 -18 14 -19 19 -8 32 19 22 51 20 78 -6z m117 -74 c5
-12 -29 -74 -41 -74 -2 0 -8 12 -14 26 -7 21 -6 31 7 45 21 23 40 24 48 3z
m1316 -25 c0 -27 -15 -31 -35 -9 -15 16 -15 22 -5 35 15 19 40 3 40 -26z
m-220 -38 c0 -5 -11 -16 -25 -25 -41 -27 -61 -1 -29 35 13 14 21 16 35 8 11
-5 19 -14 19 -18z m108 -5 c6 -28 -11 -39 -41 -25 -43 19 -33 52 13 47 15 -2
26 -10 28 -22z m-448 -16 c8 -14 8 -26 0 -41 -11 -20 -12 -20 -31 -3 -22 20
-24 35 -7 52 17 17 26 15 38 -8z m568 -19 c4 -38 -7 -55 -31 -45 -14 5 -16 32
-8 82 1 2 9 2 19 0 11 -2 18 -14 20 -37z m-810 13 c18 -8 32 -21 32 -29 0 -16
-51 -38 -82 -33 -32 4 -36 41 -6 62 27 19 19 19 56 0z m122 -9 c13 -16 6 -35
-14 -35 -22 0 -37 25 -24 38 16 16 23 15 38 -3z m-272 -19 c12 -28 7 -36 -24
-36 -23 0 -41 31 -29 50 11 18 42 10 53 -14z m-103 -16 c17 -19 17 -20 -9 -30
-15 -5 -45 -10 -67 -10 -45 0 -52 19 -17 44 31 22 71 20 93 -4z m-320 -20 c0
-16 -6 -26 -19 -28 -27 -6 -40 12 -26 38 15 28 45 22 45 -10z m128 24 c11 -11
-13 -44 -31 -44 -26 0 -56 25 -48 38 8 13 68 17 79 6z m912 -58 c49 -64 19
-180 -34 -132 -14 13 -18 26 -14 50 3 22 0 36 -11 45 -16 14 -22 52 -9 64 15
16 44 5 68 -27z m-146 0 c8 -10 8 -20 -4 -42 -14 -27 -13 -30 12 -50 35 -28
26 -54 -20 -54 -45 0 -59 19 -62 85 -2 42 2 58 14 65 23 14 47 12 60 -4z m235
-2 c20 -8 20 -28 0 -44 -12 -11 -18 -10 -31 3 -9 8 -13 23 -10 31 7 17 16 19
41 10z m-664 -79 c15 -19 -3 -45 -31 -45 -24 0 -32 16 -19 40 13 24 33 26 50
5z m680 -24 c0 -10 -6 -24 -14 -30 -12 -10 -17 -8 -27 10 -10 19 -9 25 6 35
21 16 35 10 35 -15z m-787 12 c4 -3 -3 -17 -15 -30 -25 -27 -85 -32 -94 -8
-12 32 4 45 54 45 27 0 52 -3 55 -7z m-199 -19 c7 -19 -10 -44 -29 -44 -7 0
-18 7 -25 15 -10 12 -10 18 0 30 16 20 46 19 54 -1z m-120 -13 c10 -11 15 -25
11 -30 -14 -23 -105 -6 -105 20 0 11 36 27 61 28 9 1 24 -8 33 -18z m1601 -11
c10 -11 15 -26 11 -36 -3 -9 -2 -22 3 -28 23 -27 -20 -99 -48 -81 -9 5 -13
143 -4 158 7 12 19 8 38 -13z m-1139 -95 c19 -15 19 -15 0 -30 -24 -18 -73
-20 -78 -3 -5 13 30 47 48 48 5 0 19 -7 30 -15z m194 -10 c0 -8 -4 -15 -10
-15 -5 0 -7 7 -4 15 4 8 8 15 10 15 2 0 4 -7 4 -15z m-483 -28 c-2 -7 -16 -18
-31 -26 -39 -18 -52 -2 -26 32 18 22 25 25 41 16 11 -6 18 -16 16 -22z m122
15 c19 -35 -19 -54 -54 -28 -16 12 -17 16 -6 30 18 21 48 20 60 -2z m-250 -16
c14 -16 -1 -31 -40 -41 -21 -5 -27 -2 -31 13 -3 11 -1 25 5 31 15 15 52 14 66
-3z m2846 -406 c3 -5 -1 -10 -9 -10 -8 0 -18 5 -21 10 -3 6 1 10 9 10 8 0 18
-4 21 -10z m-62 -20 c-5 -19 -23 -29 -23 -12 0 7 20 32 26 32 1 0 0 -9 -3 -20z
m-1365 -1058 c47 1 52 -1 52 -24 0 -19 -2 -20 -10 -8 -8 13 -10 13 -10 -2 0
-9 -5 -20 -11 -24 -8 -4 -9 0 -4 15 7 22 -8 30 -20 11 -5 -8 -11 -8 -19 -1 -7
6 -16 8 -19 4 -4 -3 -7 5 -7 19 0 29 14 47 18 25 2 -10 14 -15 30 -15z m-58
-42 c0 -5 -4 -10 -10 -10 -5 0 -10 5 -10 10 0 6 5 10 10 10 6 0 10 -4 10 -10z
m394 -159 c3 -5 0 -11 -8 -14 -8 -3 -17 1 -20 9 -6 15 19 20 28 5z m112 -128
c-8 -9 -35 10 -39 29 -5 19 -5 19 19 -3 13 -12 22 -24 20 -26z"/>
<path d="M2875 1129 c-22 -5 -24 -7 -8 -8 12 0 25 -5 28 -11 3 -5 16 -10 28
-10 12 0 31 -7 41 -15 11 -8 35 -15 55 -15 37 0 36 11 -1 15 -38 4 -39 5 -32
17 4 6 3 9 -2 5 -5 -3 -25 2 -44 12 -23 11 -45 14 -65 10z"/>
<path d="M3990 5110 c-56 -10 -105 -35 -128 -65 -24 -30 -29 -81 -9 -88 19 -7
80 5 103 20 24 15 113 12 157 -6 16 -6 32 -11 36 -11 9 0 51 56 51 68 0 18
-65 62 -91 62 -15 0 -30 4 -33 9 -8 13 -46 18 -86 11z"/>
<path d="M4027 4513 c-40 -10 -49 -89 -14 -121 39 -36 79 -43 116 -20 35 22
38 35 16 64 -8 10 -15 29 -15 41 0 35 -45 51 -103 36z"/>
<path d="M5423 1868 c-17 -8 -23 -22 -28 -67 -4 -31 -9 -63 -13 -71 -6 -17 -9
-30 -18 -80 -3 -19 -12 -49 -19 -66 -8 -16 -15 -48 -16 -70 -2 -21 -6 -46 -10
-54 -15 -30 -40 -140 -34 -150 3 -5 -7 -27 -23 -49 -21 -29 -30 -53 -30 -82
-1 -22 -6 -47 -13 -56 -7 -8 -18 -23 -24 -32 -5 -10 -20 -33 -32 -52 -27 -40
-28 -49 -10 -74 13 -17 15 -17 45 5 18 13 32 30 32 37 0 7 13 27 28 45 16 18
39 66 51 108 13 41 27 79 31 84 5 5 6 14 3 22 -2 7 2 26 10 41 8 15 23 69 32
118 10 50 26 110 36 134 10 24 17 47 14 51 -3 4 4 40 14 80 10 40 16 82 13 93
-3 14 -1 18 6 13 15 -9 16 38 2 65 -12 21 -16 22 -47 7z"/>
</g>
</svg>
