<?xml version="1.0" standalone="no"?>
<!DOCTYPE svg PUBLIC "-//W3C//DTD SVG 20010904//EN"
 "http://www.w3.org/TR/2001/REC-SVG-20010904/DTD/svg10.dtd">
<svg version="1.0" xmlns="http://www.w3.org/2000/svg"
 width="1600.000000pt" height="1066.000000pt" viewBox="0 0 1600.000000 1066.000000"
 preserveAspectRatio="xMidYMid meet">

<g transform="translate(0.000000,1066.000000) scale(0.100000,-0.100000)"
fill="#000000" stroke="none">
<path d="M15261 10633 l-23 -27 28 -8 c16 -4 59 -11 97 -14 66 -7 67 -6 67 17
-1 45 -22 59 -86 59 -51 0 -62 -4 -83 -27z"/>
<path d="M15051 10449 c-47 -5 -86 -11 -88 -13 -2 -2 1 -23 6 -47 6 -24 13
-71 17 -104 4 -33 9 -52 11 -43 4 14 12 16 51 12 25 -3 53 -9 62 -13 8 -5 35
-11 59 -15 l43 -7 -7 98 c-3 54 -9 108 -12 121 -6 25 -6 25 -142 11z"/>
<path d="M15622 10292 c-7 -2 -12 -14 -12 -27 0 -16 7 -24 26 -28 16 -3 28 0
31 8 6 16 -29 53 -45 47z"/>
<path d="M14552 10009 c-13 -5 -20 -13 -17 -19 6 -10 0 -11 -82 -14 -82 -4
-55 -16 35 -16 50 0 93 4 96 9 4 5 3 18 -1 29 -6 16 -13 18 -31 11z"/>
<path d="M15236 9932 c-53 -17 -135 -21 -161 -8 -18 8 -18 7 -6 -7 38 -47 164
-87 272 -87 41 0 49 3 49 19 0 10 -7 24 -15 31 -8 7 -15 18 -15 25 0 7 -9 15
-21 18 -12 3 -18 10 -15 15 8 13 -37 10 -88 -6z"/>
<path d="M1138 9062 c-10 -2 -18 -10 -18 -18 0 -18 -10 -18 -38 2 -20 14 -27
14 -75 -4 -40 -15 -56 -17 -69 -8 -14 8 -23 8 -38 -2 -17 -10 -20 -10 -20 3 0
11 -11 15 -40 15 -22 0 -40 -3 -40 -7 0 -8 -61 -14 -122 -14 -38 0 -54 0 -118
-2 -51 -2 -55 -4 -53 -24 2 -15 -3 -23 -12 -23 -8 0 -15 6 -15 14 0 21 -176
28 -209 8 -17 -10 -25 -11 -31 -3 -5 9 -14 9 -36 0 -16 -7 -49 -14 -74 -16
-24 -2 -47 -8 -50 -13 -3 -5 -11 -5 -20 0 -13 8 -12 10 3 10 9 0 17 5 17 11 0
7 -7 8 -17 4 -10 -4 -28 -10 -40 -12 l-22 -5 -1 -722 0 -721 45 -75 45 -75
-45 -3 -45 -3 0 -391 c0 -348 2 -393 16 -410 16 -16 16 -18 0 -24 -15 -6 -16
-108 -16 -1285 l0 -1279 26 0 c14 0 23 -4 19 -10 -3 -5 1 -10 9 -10 8 0 20 9
27 21 11 21 11 21 39 -6 20 -20 30 -23 36 -14 5 9 10 6 15 -9 10 -28 29 -29
22 -2 -7 26 5 25 72 -6 31 -15 58 -24 61 -22 6 6 -64 53 -94 62 -18 6 -21 11
-11 22 7 9 17 11 28 5 27 -14 73 -23 67 -13 -3 6 1 15 9 22 18 15 20 41 2 35
-7 -3 -28 8 -47 24 -32 28 -33 30 -12 31 12 0 22 -4 22 -9 0 -5 8 -12 18 -15
19 -7 59 -29 84 -47 9 -7 14 -19 11 -27 -5 -12 -2 -12 16 -2 19 9 26 9 40 -4
22 -20 32 -20 25 -1 -4 8 -12 15 -20 15 -8 0 -14 5 -14 10 0 6 -7 10 -15 10
-8 0 -15 4 -15 9 0 11 57 20 82 13 26 -6 22 -21 -5 -16 -12 2 -4 -5 18 -16 22
-11 45 -20 51 -20 6 0 17 -7 24 -15 7 -8 22 -15 34 -15 12 0 16 -4 11 -8 -20
-14 -10 -35 18 -39 15 -2 27 1 27 7 0 5 -7 10 -15 10 -10 0 -15 7 -13 17 2 12
-8 24 -30 34 -51 26 -6 31 59 7 93 -34 98 -34 69 -5 -14 13 -29 24 -34 23 -5
0 -11 5 -14 13 -3 10 0 12 14 7 18 -7 18 -6 2 10 -14 14 -20 15 -32 5 -12 -10
-19 -10 -38 4 l-23 17 30 -6 30 -7 -40 36 c-26 23 -34 35 -23 35 9 0 19 6 21
13 4 9 6 9 6 0 1 -7 6 -13 12 -13 6 0 17 -7 25 -15 9 -8 12 -15 8 -15 -3 0 -1
-7 6 -15 7 -8 17 -12 24 -8 6 3 8 3 4 -1 -11 -12 53 -66 78 -66 14 0 23 -5 21
-12 -1 -7 9 -14 23 -16 27 -4 53 -22 32 -22 -24 0 6 -37 45 -57 21 -11 44 -32
51 -46 9 -18 21 -27 37 -27 14 0 30 -9 37 -20 7 -11 21 -20 30 -20 10 0 18 -4
18 -10 0 -5 -10 -10 -21 -10 -21 0 -20 -1 5 -21 14 -11 26 -26 26 -32 0 -7 14
-24 31 -38 25 -20 31 -33 31 -64 0 -31 7 -46 30 -70 17 -16 37 -45 45 -63 9
-22 19 -32 28 -28 18 7 30 -31 16 -48 -8 -10 -7 -17 4 -26 8 -7 15 -19 15 -27
0 -8 14 -33 31 -54 24 -31 37 -39 64 -39 18 0 38 7 46 16 7 9 21 13 34 10 15
-4 21 0 22 12 2 46 8 72 15 72 4 0 8 6 8 14 0 29 29 25 49 -7 11 -18 28 -42
37 -55 10 -13 17 -38 16 -57 -1 -18 5 -39 13 -45 8 -7 15 -20 15 -29 0 -9 7
-29 16 -46 30 -58 16 -165 -22 -165 -31 0 -54 21 -54 49 0 16 -7 34 -15 41
-12 10 -17 7 -27 -16 -14 -33 -28 -45 -41 -37 -5 3 -7 -3 -5 -12 1 -10 18 -26
36 -36 19 -9 41 -24 50 -32 9 -9 37 -23 62 -32 138 -52 152 -56 164 -46 7 6
17 7 21 3 5 -4 5 -2 2 4 -7 13 31 75 50 82 14 4 35 -40 35 -76 0 -12 -7 -31
-17 -42 -9 -10 -14 -23 -11 -28 9 -14 82 -56 146 -83 30 -12 69 -34 87 -47 52
-38 173 -43 159 -7 -3 9 0 15 8 15 8 0 13 15 14 44 2 37 -2 48 -24 65 -15 12
-44 26 -65 33 -40 11 -119 82 -119 105 0 8 -12 13 -28 13 -15 0 -36 6 -47 13
-48 32 -102 46 -140 36 -76 -21 -126 14 -128 88 0 21 -6 45 -13 53 -7 8 -14
29 -15 45 -2 17 -7 35 -12 42 -5 7 -4 27 3 48 17 51 42 43 57 -18 6 -27 21
-64 32 -83 12 -19 21 -43 21 -53 0 -10 11 -26 24 -34 22 -15 25 -15 41 3 12
13 15 27 10 50 -4 17 -3 36 3 43 19 24 20 56 3 71 -11 10 -18 32 -18 61 -1 29
-7 53 -19 66 -11 13 -14 23 -8 29 6 6 9 40 7 76 -3 50 0 65 9 61 7 -2 12 -12
10 -21 -2 -9 3 -23 11 -30 7 -8 19 -39 27 -70 7 -30 21 -64 30 -73 27 -29 29
-59 8 -94 -15 -25 -17 -37 -9 -58 10 -28 10 -59 -3 -79 -11 -18 21 -27 50 -14
14 7 24 21 25 34 3 65 -1 111 -12 124 -17 21 18 64 53 64 23 0 29 -27 17 -75
-5 -22 -12 -49 -14 -60 -3 -11 -9 -21 -15 -23 -5 -2 -3 -10 5 -18 8 -8 18 -21
22 -29 5 -8 30 -15 63 -17 47 -3 55 -1 54 15 -1 9 4 17 11 17 7 0 15 6 18 13
3 9 8 9 21 -2 12 -10 14 -16 5 -22 -7 -4 6 -10 30 -14 44 -7 54 -15 46 -38 -7
-18 -93 -15 -123 4 -15 9 -25 10 -32 3 -7 -7 0 -20 21 -42 17 -18 35 -32 38
-32 4 0 14 -11 21 -25 7 -14 34 -36 58 -50 52 -29 52 -29 52 -11 0 8 -15 24
-32 36 -29 19 -30 21 -8 15 14 -4 43 -8 65 -11 30 -3 35 -1 19 5 -24 10 -38
37 -24 46 5 3 11 1 15 -5 11 -18 24 -10 27 18 4 39 38 40 80 4 28 -24 77 -48
123 -58 69 -16 75 -16 75 -1 0 8 -7 17 -15 21 -8 3 -15 16 -15 30 0 15 -7 27
-19 31 -10 3 -21 14 -24 25 -3 11 -16 24 -30 29 -31 12 -108 2 -105 -13 6 -24
-33 -22 -63 3 l-24 19 50 14 c27 8 54 23 59 34 15 26 27 34 56 34 14 0 31 -9
38 -20 7 -11 23 -20 36 -20 16 0 35 -14 59 -42 19 -24 54 -54 77 -68 23 -14
51 -33 61 -43 14 -12 25 -15 37 -8 23 12 57 -3 78 -33 19 -31 38 -34 29 -6 -5
15 -2 20 13 20 11 0 25 -7 32 -15 14 -17 45 -21 34 -4 -4 7 0 9 13 5 12 -4 25
-1 33 9 7 8 25 15 41 15 29 0 38 13 19 25 -6 4 -10 12 -9 18 3 25 -2 38 -21
57 l-20 20 25 10 c34 13 78 13 91 0 6 -6 24 -13 40 -16 15 -3 54 -22 84 -44
31 -21 65 -40 76 -42 10 -2 24 -14 30 -26 21 -42 34 -49 34 -19 0 30 3 32 33
16 l21 -12 -24 -9 c-21 -8 -22 -10 -8 -24 9 -9 36 -16 65 -17 28 -2 57 -8 65
-14 9 -8 35 -11 72 -7 46 4 63 1 90 -15 40 -25 46 -26 46 -6 0 28 -44 83 -92
115 -27 17 -48 37 -48 45 0 8 -7 15 -15 15 -8 0 -15 7 -15 15 0 8 5 15 10 15
16 0 12 17 -5 24 -10 3 -29 -7 -49 -26 -44 -41 -73 -43 -92 -6 -13 25 -18 27
-30 17 -11 -9 -18 -9 -22 -2 -4 6 -16 12 -26 14 -10 2 -22 11 -26 19 -4 8 -13
27 -21 43 -11 24 -16 27 -45 21 -24 -4 -41 -1 -62 15 -37 26 -89 29 -134 8
-19 -9 -57 -18 -84 -19 l-49 -3 3 -38 c4 -39 -2 -42 -45 -31 -12 3 -23 15 -25
28 -2 15 -9 20 -23 18 -52 -9 -196 -8 -201 0 -4 6 1 17 10 26 12 13 35 15 111
13 85 -2 101 0 149 24 36 18 77 28 127 32 41 3 79 10 84 17 26 29 76 36 153
20 70 -14 77 -14 108 3 19 10 33 24 31 33 -1 9 4 14 13 11 8 -2 29 -2 45 -1
17 1 68 3 115 4 70 1 87 4 99 19 9 13 22 18 42 15 31 -5 36 1 18 19 -17 17 49
37 69 21 19 -17 163 -12 208 7 19 8 34 20 34 28 0 17 45 28 58 15 6 -6 70 -6
161 -1 84 4 161 5 171 1 10 -4 32 -3 49 2 39 11 62 -11 43 -41 -10 -16 -9 -19
3 -19 9 0 15 -7 13 -17 -2 -13 11 -22 48 -36 43 -15 52 -23 52 -43 0 -17 -6
-24 -20 -24 -28 0 -12 -18 35 -39 63 -28 107 -41 107 -31 0 5 -9 12 -20 15
-11 3 -20 12 -20 19 0 9 20 7 79 -7 44 -11 90 -17 103 -14 13 4 52 34 85 67
34 33 66 60 71 60 6 0 23 7 39 15 115 60 349 147 486 180 50 12 242 42 285 45
2 0 0 9 -3 21 -5 14 -1 25 10 33 16 12 16 14 -7 32 -14 11 -23 24 -21 30 2 6
-8 19 -21 28 -22 14 -106 125 -106 140 0 2 12 6 28 8 26 4 25 5 -19 27 -52 27
-88 83 -69 106 8 10 5 14 -14 19 -28 7 -91 108 -83 131 3 7 16 15 29 18 14 3
7 5 -17 6 -33 1 -43 6 -57 30 l-16 29 49 7 c66 9 72 25 10 25 -28 0 -61 5 -73
11 -24 10 -76 95 -65 105 3 3 60 14 127 24 68 11 125 22 128 25 9 8 -26 6
-128 -10 -145 -22 -150 -21 -182 29 -40 63 -43 73 -19 81 28 9 18 24 -12 18
-17 -3 -28 2 -39 20 l-16 24 37 -10 c29 -8 88 -4 252 16 118 15 221 27 229 27
8 0 10 3 5 9 -6 4 -88 -2 -190 -15 -216 -28 -262 -29 -314 -8 -39 15 -89 78
-72 88 5 3 66 13 137 21 121 15 143 20 133 28 -2 2 -67 -4 -144 -14 l-140 -18
-17 22 c-10 12 -27 39 -38 60 -21 39 -20 40 25 50 11 3 4 5 -16 6 -28 1 -41 7
-54 27 -9 14 -14 28 -12 30 3 3 -6 16 -20 30 -13 13 -33 44 -44 68 -10 25 -23
46 -27 48 -14 5 -62 100 -56 109 3 5 1 9 -5 9 -12 0 -91 115 -91 133 0 8 -8
21 -18 30 -9 9 -26 33 -37 54 -10 21 -24 45 -31 53 -11 13 -71 116 -142 240
-14 25 -76 127 -139 228 -62 100 -113 187 -113 192 0 5 -6 15 -13 22 -8 7 -27
36 -43 63 -40 69 -146 245 -199 330 -24 39 -78 129 -120 200 -41 72 -94 159
-116 195 -70 111 -110 178 -144 241 -5 11 -13 19 -17 19 -5 0 -8 6 -8 13 0 6
-18 40 -39 73 -21 34 -42 71 -46 83 -3 11 -10 21 -16 21 -5 0 -15 15 -24 33
-8 17 -19 39 -24 47 -5 8 -17 32 -27 53 -10 20 -28 47 -39 60 -11 12 -32 48
-48 79 -15 31 -34 61 -42 68 -8 7 -15 18 -15 24 0 6 -11 28 -25 47 -13 20 -22
39 -19 41 2 3 -2 11 -11 18 -8 7 -15 17 -15 23 0 6 -6 18 -14 26 -7 9 -28 43
-45 76 -18 33 -39 67 -47 76 -8 9 -11 19 -7 22 3 4 2 7 -4 7 -6 0 -13 8 -17
18 -6 19 -33 65 -58 101 -9 13 -15 28 -12 33 3 4 1 8 -5 8 -5 0 -26 33 -45 73
-19 41 -42 80 -51 87 -8 7 -15 16 -15 21 0 5 -15 32 -33 61 -19 29 -37 60 -40
68 -4 8 -17 31 -28 50 -12 19 -40 69 -62 110 -22 41 -43 77 -46 80 -8 7 -61
88 -61 94 0 3 -10 16 -22 29 -13 14 -36 41 -53 60 -35 42 -55 47 -56 15 -1
-39 -10 -113 -14 -117 -2 -2 3 -10 11 -18 10 -10 14 -33 14 -67 -1 -28 -1 -82
-1 -121 0 -38 -2 -79 -5 -91 -3 -12 1 -28 9 -36 13 -13 13 -16 -4 -27 -11 -6
-19 -17 -18 -24 4 -24 -14 -47 -37 -47 -15 0 -24 -6 -24 -15 0 -8 -9 -15 -20
-15 -11 0 -20 7 -20 15 0 8 -6 15 -14 15 -21 0 -28 28 -8 33 10 3 5 5 -10 6
-25 1 -28 -3 -28 -29 0 -23 -4 -30 -20 -30 -12 0 -20 -7 -20 -17 -1 -11 -6 -6
-14 12 l-13 30 -14 -28 -15 -27 -13 35 c-11 32 -16 35 -51 35 -21 0 -40 -5
-42 -11 -7 -21 -43 1 -56 33 -8 20 -15 29 -20 22 -11 -17 -45 -25 -62 -14 -13
8 -13 11 -1 19 18 11 5 31 -20 31 -10 0 -31 14 -46 30 -14 17 -34 30 -43 30
-9 0 -25 16 -35 34 -15 28 -27 36 -57 41 -21 4 -45 13 -52 21 -8 8 -19 14 -25
14 -6 0 -11 6 -11 14 0 8 -10 16 -22 18 -29 4 -38 44 -11 51 10 2 6 3 -9 1
-19 -2 -31 3 -42 21 -23 35 -53 41 -80 16 -12 -12 -28 -21 -34 -21 -7 0 -12
-7 -12 -15 0 -9 -6 -12 -15 -9 -8 4 -15 12 -15 19 0 19 -66 38 -111 32 -26 -3
-42 0 -50 9 -6 8 -21 14 -33 14 -17 0 -18 2 -6 10 8 5 12 10 8 11 -5 1 -12 3
-18 4 -5 1 -14 3 -20 4 -5 0 -10 10 -10 21 0 31 -53 27 -74 -5 l-16 -25 -53
26 c-28 14 -65 32 -80 40 -16 8 -35 14 -43 14 -16 0 -52 33 -62 58 -4 10 -15
16 -24 14z m1342 -612 c0 -5 -18 -10 -40 -10 -22 0 -40 5 -40 10 0 6 18 10 40
10 22 0 40 -4 40 -10z m340 -264 c0 -3 -4 -8 -10 -11 -5 -3 -10 -1 -10 4 0 6
5 11 10 11 6 0 10 -2 10 -4z m-2271 -1546 l51 -85 -36 -7 c-21 -5 -43 -4 -56
3 -38 20 -59 111 -41 177 8 31 17 21 82 -88z m211 -352 c26 -43 27 -72 1 -41
-10 12 -20 20 -23 18 -2 -2 -4 9 -3 25 0 17 1 30 3 30 1 0 11 -15 22 -32z
m-94 -230 c-10 -88 -47 -167 -78 -168 -3 0 -11 13 -16 30 -11 29 -8 46 24 158
4 12 14 22 25 22 10 0 21 5 24 10 3 6 11 10 17 10 7 0 8 -20 4 -62z m-36 -723
c7 -8 20 -15 29 -15 10 0 26 -7 37 -15 10 -8 26 -15 34 -15 8 0 28 -13 45 -29
29 -29 48 -35 183 -58 18 -3 35 -9 38 -14 3 -5 18 -9 34 -9 16 0 31 -4 34 -9
3 -4 19 -11 36 -15 17 -3 38 -13 46 -21 9 -8 27 -17 42 -20 15 -3 41 -11 57
-17 17 -6 45 -12 63 -13 18 -1 38 -7 45 -14 14 -14 40 -14 54 0 9 9 20 8 45 0
23 -8 34 -8 36 -1 2 6 52 -38 111 -98 58 -60 121 -117 139 -126 38 -20 43 -31
6 -14 -19 9 -30 9 -44 0 -15 -9 -23 -7 -43 8 -15 12 -27 16 -29 10 -2 -6 -14
-12 -28 -12 -14 -1 -28 -6 -31 -11 -9 -12 -69 48 -89 88 -11 22 -26 33 -53 39
-46 12 -60 -2 -53 -51 3 -18 0 -35 -5 -38 -5 -4 -4 -15 3 -28 10 -19 9 -20 -4
-9 -10 8 -26 10 -42 6 -16 -4 -26 -2 -26 5 0 9 -26 24 -95 53 -29 13 58 -66
89 -80 22 -10 37 -32 21 -32 -9 0 -49 24 -71 43 -15 12 -24 15 -29 8 -10 -17
-44 -13 -67 9 -12 11 -32 20 -44 20 -12 0 -34 10 -49 22 l-27 21 6 -21 c6 -19
3 -22 -20 -22 -23 0 -25 -2 -13 -16 12 -15 10 -16 -17 -10 -22 5 -36 2 -53
-13 -21 -18 -21 -20 -4 -30 24 -14 -2 -14 -29 0 -15 8 -17 13 -8 19 7 4 -5 7
-27 6 -28 0 -37 -4 -29 -11 12 -11 64 -37 81 -40 29 -6 54 -18 50 -25 -3 -5 3
-6 13 -3 10 2 24 -2 30 -10 10 -12 9 -16 -8 -20 -11 -3 -20 -1 -20 4 0 12 -37
12 -44 0 -4 -5 6 -18 21 -29 l28 -20 -52 2 c-29 2 -59 8 -67 15 -8 7 -17 8
-20 3 -3 -6 6 -17 20 -27 34 -22 25 -29 -17 -11 -52 21 -103 30 -95 17 9 -14
-4 -14 -24 -1 -11 7 -11 10 -2 10 7 0 10 5 7 10 -3 6 -15 10 -26 10 -11 0 -17
-4 -14 -10 7 -11 -15 -13 -39 -4 -12 5 -14 10 -6 19 8 10 1 17 -30 29 -57 23
-73 19 -23 -6 24 -11 40 -24 38 -29 -3 -4 17 -20 46 -34 28 -15 49 -28 47 -31
-10 -10 -108 40 -113 57 -4 11 -11 19 -17 19 -6 0 -6 -6 2 -15 19 -23 -1 -18
-26 6 -13 12 -32 22 -42 23 -21 1 -82 44 -82 57 0 5 21 -1 46 -12 52 -22 71
-19 27 5 -19 11 -23 15 -10 16 9 0 17 5 17 10 0 6 8 11 18 11 16 1 16 2 -1 6
-9 2 -15 8 -13 12 3 4 0 13 -5 21 -8 13 -10 13 -18 1 -7 -11 -11 -9 -21 8 -6
12 -9 27 -7 34 3 7 -4 26 -14 43 l-19 31 30 0 c42 0 47 9 19 32 l-24 20 23 1
c14 0 22 6 22 18 0 10 4 22 9 28 16 16 0 65 -24 74 -13 5 -26 13 -30 19 -3 7
0 8 9 5 25 -9 38 35 19 65 -20 32 -4 49 32 33 25 -11 33 -5 16 14 -4 5 -13 24
-20 43 -10 30 -8 36 9 51 19 16 24 17 49 4 16 -8 34 -21 41 -29z m808 -479 c3
-13 -1 -17 -14 -14 -11 2 -20 11 -22 22 -3 13 1 17 14 14 11 -2 20 -11 22 -22z
m-368 -191 c7 -8 8 -15 2 -15 -5 0 -15 7 -22 15 -7 8 -8 15 -2 15 5 0 15 -7
22 -15z m-620 -11 c0 2 20 -2 45 -10 25 -7 52 -11 59 -8 7 3 16 -2 20 -11 4
-11 2 -14 -7 -10 -6 4 1 -5 17 -20 16 -14 35 -24 43 -21 8 3 11 1 8 -4 -3 -6
3 -11 14 -11 30 -2 32 -3 76 -26 22 -11 52 -23 67 -27 16 -3 27 -11 25 -17 -1
-7 18 -18 43 -27 25 -8 57 -23 71 -33 14 -10 37 -21 52 -24 15 -4 30 -12 33
-17 9 -14 -32 -1 -74 23 -18 10 -37 19 -42 19 -14 0 -123 51 -140 65 -8 7 -37
20 -64 29 -27 9 -54 20 -60 24 -6 3 -15 7 -21 8 -30 5 -190 85 -198 99 -8 15
-6 15 12 6 12 -7 21 -10 21 -7z m165 -4 c3 -5 2 -10 -4 -10 -5 0 -13 5 -16 10
-3 6 -2 10 4 10 5 0 13 -4 16 -10z m105 -46 c12 -12 8 -12 -25 2 -50 20 -59
29 -20 20 17 -4 37 -14 45 -22z m-100 -15 c0 -6 -4 -7 -10 -4 -5 3 -10 11 -10
16 0 6 5 7 10 4 6 -3 10 -11 10 -16z m-132 -43 c9 -10 -22 -6 -60 7 -58 20
-56 27 2 12 29 -8 55 -16 58 -19z m-13 -26 c13 -6 15 -9 5 -9 -8 0 -22 4 -30
9 -18 12 -2 12 25 0z m191 -45 c63 -25 119 -45 124 -45 5 0 11 -4 15 -9 9 -16
-108 25 -235 82 -70 32 -17 16 96 -28z m19 36 c3 -5 0 -13 -6 -17 -7 -4 -9 -3
-5 4 3 5 0 13 -6 15 -9 4 -10 6 -1 6 6 1 14 -3 18 -8z m-139 -30 c1 -6 0 -7
-3 -1 -2 5 -11 10 -18 10 -8 0 -17 4 -20 10 -4 6 2 7 16 1 13 -4 24 -13 25
-20z m339 -1 c13 -6 15 -9 5 -9 -8 0 -22 4 -30 9 -18 12 -2 12 25 0z m-295
-10 c0 -5 3 -9 8 -9 4 1 14 1 22 0 11 -1 11 -4 2 -13 -10 -10 -17 -7 -34 10
-12 12 -17 22 -10 22 7 0 12 -4 12 -10z m371 -27 c13 -15 12 -15 -8 -4 -24 12
-29 21 -14 21 5 0 15 -7 22 -17z m-626 -11 c-3 -3 -11 0 -18 7 -9 10 -8 11 6
5 10 -3 15 -9 12 -12z m136 -12 c14 0 31 -6 37 -12 10 -10 15 -10 21 1 6 9 11
10 15 2 4 -6 1 -11 -6 -11 -7 -1 11 -11 40 -24 29 -12 58 -28 64 -34 17 -17
-2 -35 -22 -21 -12 9 -12 10 3 5 11 -3 16 -2 12 5 -4 5 -15 7 -25 4 -28 -9
-70 5 -70 24 0 14 -2 14 -10 1 -7 -12 2 -21 43 -42 29 -15 49 -27 46 -28 -13
-1 -117 49 -124 60 -3 6 -29 22 -56 35 -27 14 -49 28 -49 30 0 3 12 -1 28 -9
33 -17 106 -30 98 -17 -3 5 -21 12 -40 15 -18 4 -42 16 -52 29 -19 22 -19 22
2 5 11 -10 32 -18 45 -18z m221 -8 c8 -8 5 -9 -11 -5 -12 3 -24 9 -26 13 -8
12 23 6 37 -8z m168 -12 c4 0 10 -7 14 -15 4 -13 1 -12 -22 2 -36 23 -41 28
-19 20 10 -4 22 -7 27 -7z m-120 -14 c0 -2 -7 -7 -16 -10 -8 -3 -12 -2 -9 4 6
10 25 14 25 6z m360 -26 c25 -10 41 -19 37 -19 -12 -1 -107 31 -107 35 0 8 27
2 70 -16z m-745 0 c3 -5 1 -10 -4 -10 -6 0 -11 5 -11 10 0 6 2 10 4 10 3 0 8
-4 11 -10z m430 0 c4 -6 11 -7 17 -4 6 4 8 3 5 -2 -9 -15 4 -28 37 -39 28 -10
43 -39 26 -50 -12 -8 -70 16 -70 28 0 7 -16 23 -34 37 -19 14 -32 28 -29 33 6
11 41 9 48 -3z m252 -26 c-3 -3 -12 -4 -19 -1 -8 3 -5 6 6 6 11 1 17 -2 13 -5z
m-537 -19 c55 -19 192 -86 187 -91 -2 -2 -30 9 -63 24 -32 16 -81 37 -109 47
-45 16 -78 35 -63 35 3 0 25 -7 48 -15z m630 -15 c41 -22 32 -26 -13 -6 -18 8
-39 17 -47 19 -10 4 -9 6 5 6 11 0 36 -8 55 -19z m-641 -16 c14 -12 -19 -1
-35 12 -18 14 -18 14 6 3 14 -6 27 -13 29 -15z m192 8 c-7 -2 -18 1 -23 6 -8
8 -4 9 13 5 13 -4 18 -8 10 -11z m-346 -16 c18 -13 18 -14 -8 -9 -15 3 -30 9
-33 14 -8 14 20 10 41 -5z m395 -17 c13 -7 13 -8 0 -8 -8 0 -26 6 -40 15 l-25
15 25 -7 c14 -3 32 -10 40 -15z m77 6 c19 -8 45 -15 57 -15 12 0 26 -4 32 -8
5 -5 28 -15 52 -22 23 -7 40 -15 37 -18 -5 -5 -235 67 -235 74 0 8 21 4 57
-11z m-301 -4 c5 -5 35 -16 67 -26 31 -10 57 -22 57 -28 0 -6 3 -8 6 -4 3 3
45 -8 92 -24 100 -35 100 -35 209 -83 45 -20 89 -36 98 -36 8 0 15 -4 15 -10
0 -13 -10 -13 -49 1 -37 13 -55 4 -20 -10 13 -5 18 -10 11 -10 -19 -1 -63 30
-56 40 3 5 0 9 -7 9 -7 0 -44 15 -83 34 -95 45 -123 56 -146 56 -11 0 -20 5
-20 10 0 6 -8 10 -17 10 -16 0 -92 25 -148 49 -11 5 -31 13 -45 19 l-25 11 26
0 c14 1 29 -3 35 -8z m259 -41 c0 -18 21 -33 34 -26 5 3 14 -1 21 -9 17 -21
-11 -20 -56 1 -36 17 -61 43 -31 31 20 -7 23 8 5 17 -7 3 -4 5 7 3 11 -1 20
-9 20 -17z m219 -65 c3 -8 3 -15 0 -15 -3 0 -12 7 -20 15 -13 13 -13 15 -1 15
8 0 17 -7 21 -15z m-768 -10 c-8 -8 -21 -15 -28 -15 -8 1 -6 6 6 15 26 20 42
19 22 0z m134 0 c19 -23 9 -25 -25 -4 -26 17 -27 19 -9 19 12 0 27 -7 34 -15z
m204 -14 c4 -5 0 -12 -6 -15 -7 -3 -4 -4 8 -1 23 6 54 -3 54 -15 0 -5 -10 -6
-22 -3 -22 5 -22 5 -4 -9 18 -15 18 -15 -2 -20 -12 -3 -23 -1 -26 6 -3 6 -4 2
-3 -9 1 -12 -5 -21 -16 -23 -16 -3 -17 -1 -6 16 10 16 10 23 -4 36 -8 9 -20
16 -26 16 -5 0 -12 4 -15 9 -4 5 4 7 16 3 14 -3 19 -2 14 6 -5 8 0 12 13 12
11 0 22 -4 25 -9z m-144 -10 c0 -5 11 -12 25 -15 14 -4 25 -11 25 -16 0 -13
-3 -13 -50 6 -43 17 -53 34 -20 34 11 0 20 -4 20 -9z m605 -1 c3 -5 1 -10 -4
-10 -6 0 -11 5 -11 10 0 6 2 10 4 10 3 0 8 -4 11 -10z m-785 -14 c0 -8 6 -16
13 -19 6 -2 8 -8 4 -13 -4 -5 -11 -4 -15 2 -4 6 -15 13 -25 17 -10 4 -15 11
-12 17 9 15 35 12 35 -4z m-158 -14 c9 -9 7 -12 -9 -12 -11 0 -26 6 -32 13 -8
11 -6 13 9 12 11 -1 26 -7 32 -13z m1043 -32 c3 -5 -1 -10 -9 -10 -8 0 -18 5
-21 10 -3 6 1 10 9 10 8 0 18 -4 21 -10z m-510 -10 c3 -5 2 -10 -4 -10 -5 0
-17 -3 -25 -6 -12 -5 -15 -2 -10 10 7 18 29 21 39 6z m-294 -23 c-5 -5 -18 -7
-28 -3 -14 6 -15 9 -4 16 19 11 46 1 32 -13z m714 -17 c3 -6 -1 -7 -9 -4 -18
7 -21 14 -7 14 6 0 13 -4 16 -10z m125 1 c0 -5 12 -12 28 -15 37 -9 112 -47
112 -58 0 -4 8 -8 18 -9 14 0 14 -2 -3 -9 -18 -7 -19 -8 -2 -15 17 -7 25 -45
9 -45 -18 0 -52 33 -52 50 0 13 -21 31 -65 57 -60 35 -79 53 -55 53 6 0 10 -4
10 -9z m-16 -67 c46 -33 67 -55 71 -75 4 -16 13 -29 20 -29 8 0 19 -9 25 -20
6 -11 17 -20 26 -20 8 0 19 -11 24 -25 5 -14 15 -25 21 -25 8 0 8 -4 0 -14
-10 -12 -8 -17 8 -25 10 -6 25 -28 32 -48 6 -21 14 -42 17 -48 18 -31 58 -165
49 -165 -6 0 0 -11 12 -24 28 -29 24 -60 -7 -64 -30 -4 -52 14 -52 44 0 12 -5
26 -10 29 -8 5 -8 11 0 20 7 8 7 14 1 17 -6 1 -13 30 -17 62 -6 48 -13 64 -37
86 -16 14 -30 36 -31 48 -1 15 -13 28 -36 40 -19 9 -33 20 -30 23 3 4 -3 16
-13 27 -17 19 -17 19 10 15 l28 -5 -30 20 c-81 54 -139 98 -142 108 -2 6 5 14
17 17 26 7 26 27 0 27 -11 0 -20 7 -20 15 0 8 -7 15 -15 15 -8 0 -15 5 -15 10
0 21 32 8 94 -36z m326 -14 c8 -5 12 -11 9 -14 -3 -3 -14 1 -25 9 -21 16 -8
20 16 5z m21 -46 c12 -14 11 -16 -5 -13 -11 2 -21 10 -24 17 -5 17 13 15 29
-4z m1709 6 c0 -5 8 -10 17 -10 9 0 14 -3 10 -6 -8 -8 -47 5 -47 17 0 5 5 9
10 9 6 0 10 -4 10 -10z m-1820 -45 c0 -8 -4 -15 -9 -15 -13 0 -22 16 -14 24
11 11 23 6 23 -9z m200 -42 c0 -16 0 -16 -44 2 -34 15 -35 16 -19 35 17 19 17
19 40 -2 13 -12 23 -27 23 -35z m1825 17 c4 -7 -3 -10 -19 -8 -35 5 -45 18
-13 18 14 0 29 -5 32 -10z m530 -30 c3 -5 1 -10 -4 -10 -6 0 -11 5 -11 10 0 6
2 10 4 10 3 0 8 -4 11 -10z m-2790 -18 c-3 -3 -11 0 -18 7 -9 10 -8 11 6 5 10
-3 15 -9 12 -12z m1370 8 c3 -6 -4 -10 -17 -10 -18 0 -20 2 -8 10 19 12 18 12
25 0z m-705 -15 c0 -9 -6 -12 -15 -9 -8 4 -15 10 -15 15 0 5 7 9 15 9 8 0 15
-7 15 -15z m571 4 c16 -8 18 -13 8 -25 -16 -19 -33 -18 -53 5 -13 15 -14 20
-4 24 20 8 28 8 49 -4z m-927 -54 c2 -7 -1 -12 -7 -11 -18 2 -37 16 -37 26 0
13 38 0 44 -15z m1638 -11 c21 -4 35 -10 32 -15 -7 -13 -34 -10 -69 6 -33 15
-20 18 37 9z m-1611 -24 c10 -6 19 -19 19 -28 0 -10 6 -26 14 -37 7 -11 17
-31 21 -44 5 -18 4 -22 -6 -16 -8 5 -4 -3 8 -16 23 -26 44 -107 24 -95 -6 4
-11 15 -11 25 0 9 -9 27 -20 39 -11 12 -20 25 -20 29 0 4 -14 24 -30 43 -16
19 -30 37 -31 40 -9 72 -5 79 32 60z m854 -11 c0 -7 -8 -15 -17 -17 -12 -2
-15 2 -11 18 6 23 28 22 28 -1z m1702 15 c-3 -3 -12 -4 -19 -1 -8 3 -5 6 6 6
11 1 17 -2 13 -5z m-1973 -30 c8 -31 3 -39 -19 -31 -19 8 -20 57 -1 57 8 0 17
-12 20 -26z m-184 7 c0 -14 -18 -23 -30 -16 -6 4 -8 11 -5 16 8 12 35 12 35 0z
m-235 -31 c3 -6 -4 -10 -17 -10 -18 0 -20 2 -8 10 19 12 18 12 25 0z m1193
-29 c23 -14 -14 -34 -53 -28 -21 4 -35 2 -35 -5 0 -6 -13 -8 -30 -6 -29 4 -40
-5 -20 -17 17 -10 11 -32 -10 -38 -13 -3 -20 0 -20 8 0 8 -7 18 -16 23 -11 6
-14 16 -9 31 5 18 11 20 46 15 22 -4 44 -2 51 4 7 6 27 12 43 15 17 2 32 5 35
5 3 1 11 -2 18 -7z m1430 -13 c7 -7 12 -16 12 -22 0 -6 -5 -5 -12 2 -7 7 -20
12 -30 12 -10 0 -18 5 -18 10 0 14 33 13 48 -2z m-2521 -26 c7 -9 13 -36 13
-60 0 -24 7 -56 15 -73 14 -26 14 -30 0 -35 -20 -8 -45 13 -45 39 0 11 -12 36
-27 56 -28 36 -36 63 -27 90 6 17 53 6 71 -17z m1433 24 c0 -11 -19 -15 -25
-6 -3 5 1 10 9 10 9 0 16 -2 16 -4z m835 -36 c3 -5 2 -10 -4 -10 -5 0 -13 5
-16 10 -3 6 -2 10 4 10 5 0 13 -4 16 -10z m135 -50 c0 -5 -4 -10 -10 -10 -5 0
-10 5 -10 10 0 6 5 10 10 10 6 0 10 -4 10 -10z m-1085 -10 c4 -6 -5 -10 -19
-10 -14 0 -26 5 -26 10 0 6 9 10 19 10 11 0 23 -4 26 -10z m586 -8 c-7 -2 -18
1 -23 6 -8 8 -4 9 13 5 13 -4 18 -8 10 -11z m81 -16 c10 -7 15 -15 12 -18 -9
-9 -57 7 -62 20 -5 16 29 15 50 -2z m-1229 -122 c-4 -10 -9 -12 -15 -6 -12 12
-1 35 12 27 5 -3 6 -13 3 -21z m545 -6 c-3 -7 -15 -15 -29 -16 -13 -2 -29 -8
-35 -13 -6 -5 -14 -6 -17 -2 -13 12 -7 23 12 23 11 0 23 5 26 10 9 15 47 12
43 -2z m-578 -92 c0 -15 -28 -86 -34 -86 -32 0 -46 41 -30 84 8 20 64 22 64 2z
m-43 -112 c-3 -3 -12 -4 -19 -1 -8 3 -5 6 6 6 11 1 17 -2 13 -5z"/>
<path d="M1273 4925 c15 -49 34 -45 27 5 -2 14 -18 30 -32 30 -3 0 -1 -16 5
-35z"/>
<path d="M500 4940 c0 -5 5 -10 11 -10 5 0 7 5 4 10 -3 6 -8 10 -11 10 -2 0
-4 -4 -4 -10z"/>
<path d="M1560 4910 c0 -5 5 -10 11 -10 5 0 7 5 4 10 -3 6 -8 10 -11 10 -2 0
-4 -4 -4 -10z"/>
<path d="M792 4777 c2 -7 29 -24 59 -39 59 -29 73 -33 64 -18 -9 15 -126 70
-123 57z"/>
<path d="M497 4369 c7 -7 15 -10 18 -7 3 3 -2 9 -12 12 -14 6 -15 5 -6 -5z"/>
<path d="M1578 8893 c7 -3 16 -2 19 1 4 3 -2 6 -13 5 -11 0 -14 -3 -6 -6z"/>
<path d="M10950 8570 c0 -5 -11 -20 -25 -33 -22 -20 -24 -27 -16 -50 9 -23 7
-29 -9 -39 -11 -7 -20 -20 -20 -29 0 -26 -33 -48 -92 -64 -69 -18 -140 -13
-212 14 -64 24 -114 27 -139 8 -16 -11 -15 -15 13 -54 22 -29 52 -52 98 -75
l67 -33 240 1 c261 1 315 8 323 39 9 41 3 87 -14 99 -10 8 -14 18 -10 25 4 6
0 24 -9 38 -14 20 -19 23 -26 12 -7 -11 -9 -9 -9 8 0 12 -22 44 -50 73 -27 29
-50 56 -50 61 0 5 -13 9 -30 9 -16 0 -30 -4 -30 -10z"/>
<path d="M8999 8067 c-14 -34 -45 -57 -76 -57 -24 0 -28 -7 -14 -28 6 -9 35
-15 92 -16 63 -2 95 -8 126 -24 51 -26 119 -28 167 -5 32 15 52 15 213 5 98
-7 345 -21 548 -32 545 -29 715 -39 865 -50 175 -13 170 -13 170 8 0 17 6 18
76 10 57 -6 81 -5 92 4 13 11 15 9 9 -18 -6 -31 -6 -32 45 -38 28 -4 65 -14
82 -23 57 -29 209 -165 466 -417 433 -424 430 -421 430 -458 1 -56 40 -91 145
-126 85 -29 153 -35 223 -22 l61 13 -19 25 c-26 33 -25 74 3 100 12 11 56 34
97 51 47 19 82 40 95 58 24 32 46 53 103 99 40 31 49 34 113 34 45 0 93 -8
141 -24 40 -13 99 -25 131 -28 l57 -5 0 32 c0 18 -5 46 -11 63 -10 29 -80 97
-141 136 -34 22 -101 28 -125 11 -12 -9 -34 -12 -64 -8 -44 5 -47 4 -74 -31
-31 -41 -51 -45 -88 -16 -30 24 -64 26 -88 4 -10 -9 -32 -16 -51 -17 -30 -2
-33 -5 -36 -37 -5 -44 -16 -58 -72 -84 -25 -12 -55 -31 -68 -43 -12 -13 -30
-23 -41 -23 -10 0 -30 -12 -44 -26 -22 -22 -29 -24 -48 -14 -31 17 -182 141
-259 214 -36 33 -88 81 -115 105 -28 24 -111 103 -185 175 -231 223 -228 221
-313 246 -42 13 -77 27 -77 32 0 10 -181 98 -202 98 -9 0 -21 7 -28 15 -18 21
-30 19 -31 -7 0 -13 -3 -17 -6 -10 -3 7 -23 12 -46 12 -23 0 -61 9 -84 19 -23
11 -44 17 -47 13 -3 -3 -6 1 -6 10 0 21 -76 55 -145 63 -33 4 -274 9 -535 11
-643 3 -876 11 -1070 35 -47 6 -140 11 -207 12 l-122 3 -12 -29z m3601 -1157
c0 -3 -9 -6 -20 -7 -20 -2 -45 29 -33 40 5 6 52 -23 53 -33z"/>
<path d="M10675 7349 c-4 -5 0 -12 8 -15 8 -3 13 -13 10 -23 -8 -29 125 -82
183 -73 20 3 21 6 11 33 -8 21 -26 37 -62 54 -54 25 -141 40 -150 24z"/>
<path d="M11140 7169 c25 -11 65 -31 90 -44 25 -12 88 -37 140 -54 52 -17 106
-36 120 -43 60 -26 110 -40 259 -68 102 -19 166 -37 186 -51 14 -10 158 -39
195 -39 41 0 38 10 -12 41 -49 29 -111 52 -218 80 -41 11 -95 26 -120 35 -124
41 -472 131 -573 149 -110 20 -120 19 -67 -6z"/>
<path d="M7973 7084 c-12 -14 -25 -42 -29 -62 -4 -20 -17 -49 -30 -64 -12 -15
-28 -53 -34 -84 -17 -79 -36 -121 -60 -129 -11 -3 -23 -18 -26 -33 -3 -15 -10
-40 -15 -56 -15 -47 -22 -341 -11 -451 6 -55 17 -143 26 -195 24 -147 41 -326
41 -425 -1 -72 -5 -98 -22 -130 -21 -41 -77 -98 -86 -88 -10 9 -47 -8 -41 -19
4 -6 3 -8 -3 -5 -11 7 -75 -13 -85 -27 -10 -14 -120 -11 -148 4 -14 7 -35 21
-46 32 l-22 20 -30 -44 c-38 -55 -77 -90 -127 -117 -37 -20 -38 -22 -17 -27
21 -6 32 -24 14 -24 -14 0 -95 -180 -102 -226 -5 -30 -3 -41 4 -37 6 4 5 -1
-2 -10 -18 -22 -11 -31 38 -47 59 -19 42 -23 -25 -5 -32 8 -61 13 -63 10 -3
-3 1 -5 9 -5 11 0 12 -2 1 -9 -17 -10 129 -64 532 -197 183 -59 301 -94 303
-87 2 6 14 9 26 7 12 -3 -16 11 -63 30 -47 19 -80 35 -73 35 6 1 24 -4 40 -10
31 -12 286 -13 291 -1 1 5 51 7 110 6 59 -1 112 2 119 8 7 6 14 5 18 -2 5 -8
13 -6 26 6 13 12 28 15 54 11 20 -3 48 -1 63 5 15 6 41 12 57 14 17 2 41 8 55
13 14 5 69 19 124 31 54 12 120 33 146 46 27 13 62 27 79 30 17 4 31 10 31 15
0 5 16 9 35 9 19 0 35 5 35 10 0 6 -4 10 -10 10 -5 0 -10 6 -10 14 0 20 56 46
97 46 34 0 34 1 28 33 -4 17 -12 38 -18 45 -8 10 -1 23 26 50 42 43 47 75 15
96 -13 7 -81 33 -153 57 -141 47 -148 63 -14 29 46 -11 129 -25 184 -30 55 -5
137 -19 183 -30 46 -11 85 -20 88 -20 11 0 -58 90 -76 100 -31 17 -24 28 33
55 28 13 72 35 97 49 25 13 61 27 80 30 25 4 40 15 51 35 15 26 24 30 75 34
86 8 89 9 119 40 15 15 38 27 50 27 12 0 25 3 29 8 4 4 26 14 49 23 28 11 42
23 42 35 0 14 11 20 45 26 25 4 54 5 65 1 34 -10 268 -4 276 8 3 6 8 10 10 8
2 -1 21 3 41 10 l37 12 -15 41 c-7 22 -11 44 -8 50 3 5 57 8 119 7 111 -1 141
4 130 21 -3 5 -1 11 5 15 6 4 2 18 -12 38 -41 56 -50 81 -48 127 1 25 1 55 1
67 0 12 3 24 7 27 14 8 112 -44 112 -59 0 -8 9 -19 21 -25 17 -10 20 -20 18
-59 -2 -31 3 -53 14 -66 8 -11 28 -35 42 -52 15 -18 34 -33 43 -33 8 0 12 -3
9 -6 -9 -10 35 -41 97 -70 31 -14 56 -30 56 -36 0 -6 3 -9 6 -5 4 3 31 -9 60
-28 30 -19 57 -35 59 -35 3 0 40 -26 83 -58 139 -105 409 -260 455 -263 7 0
32 -11 57 -24 25 -13 74 -38 110 -55 36 -17 81 -42 100 -55 20 -14 48 -26 62
-27 15 -1 25 -5 23 -8 -2 -4 18 -14 46 -24 27 -10 53 -25 58 -34 5 -9 13 -14
17 -10 4 4 18 -5 32 -19 14 -15 44 -39 66 -54 45 -29 96 -76 166 -154 25 -27
62 -63 83 -80 31 -24 40 -38 43 -70 7 -82 37 -159 73 -196 9 -8 27 -28 41 -45
14 -16 42 -37 63 -47 20 -10 37 -23 37 -28 0 -7 17 -9 49 -4 31 4 51 3 55 -4
7 -11 81 -7 163 8 23 5 64 7 91 6 26 -2 80 4 120 11 68 13 166 13 222 -1 l25
-6 -25 16 c-18 12 -19 14 -5 9 11 -3 88 -8 170 -10 186 -5 177 -4 194 -18 12
-9 13 -7 8 8 -7 18 -6 18 20 1 18 -12 28 -14 31 -7 2 7 15 9 31 6 16 -4 32 -1
35 5 12 19 61 12 85 -12 12 -14 32 -63 47 -115 13 -51 34 -113 45 -139 l20
-48 -21 -17 c-19 -16 -25 -16 -55 -4 -32 14 -33 14 -39 -14 -4 -24 -12 -30
-43 -35 -57 -10 -63 -13 -57 -30 14 -35 -39 -105 -79 -105 -31 0 -40 -27 -23
-70 48 -121 -4 -154 -254 -161 -8 0 -22 -3 -30 -7 -8 -3 -78 -18 -155 -33 -77
-15 -171 -34 -210 -43 -38 -9 -92 -18 -120 -22 -27 -3 -54 -9 -59 -15 -6 -5
-28 -9 -49 -9 -22 0 -56 -5 -76 -11 -42 -12 -270 -53 -611 -109 -135 -23 -252
-44 -260 -47 -36 -14 -91 -10 -170 14 -47 15 -92 30 -100 34 -8 4 -73 22 -145
39 -71 17 -145 36 -162 41 -18 5 -49 13 -69 18 -19 5 -43 16 -52 24 -9 9 -29
18 -43 22 -22 5 -32 0 -63 -36 -32 -38 -36 -48 -36 -101 0 -44 8 -75 30 -125
17 -36 30 -67 30 -69 0 -11 -78 -32 -160 -42 -119 -16 -187 -31 -223 -49 -16
-8 -61 -17 -100 -20 -40 -2 -76 -9 -81 -14 -6 -5 -22 -9 -37 -9 -15 0 -31 -5
-34 -10 -6 -10 -48 -12 -96 -3 -34 5 -45 49 -24 90 8 15 15 45 15 67 0 38 0
39 -32 32 -18 -3 -58 -13 -88 -21 -70 -20 -208 -50 -550 -121 -256 -54 -284
-57 -410 -57 -112 0 -213 10 -300 29 -43 9 -155 46 -236 77 -51 20 -125 45
-165 57 -142 42 -218 99 -259 192 -25 58 -37 164 -22 207 11 30 8 35 -18 33
-37 -2 -591 -87 -608 -93 -28 -11 -22 -24 14 -33 15 -4 72 -30 128 -57 112
-56 167 -108 143 -137 -25 -31 -66 -40 -123 -27 -35 8 -73 9 -116 4 -35 -5
-99 -14 -143 -19 -72 -10 -330 -53 -475 -80 -30 -5 -188 -30 -350 -54 -474
-72 -503 -77 -550 -100 -42 -19 -61 -21 -245 -20 l-200 0 -155 46 c-85 26
-207 58 -270 73 -137 31 -168 38 -240 58 -130 35 -163 40 -264 33 -55 -4 -110
-8 -121 -10 -76 -11 -105 -20 -105 -31 0 -8 -18 -16 -42 -20 -24 -3 -65 -13
-91 -22 -55 -17 -87 -12 -105 17 -13 22 -12 26 53 150 13 25 22 46 21 48 -2 1
-41 3 -87 3 -85 0 -142 11 -169 34 -8 7 -28 15 -45 19 -16 4 -36 17 -43 28
-12 17 -22 19 -61 15 -78 -9 -176 -28 -183 -35 -19 -20 95 -101 142 -102 8 0
24 -13 34 -29 23 -33 78 -55 96 -37 8 8 15 7 24 -6 7 -10 22 -18 33 -18 22 0
102 -30 163 -60 30 -14 14 -35 -47 -65 -35 -17 -70 -41 -79 -53 -8 -12 -26
-22 -39 -22 -13 0 -27 -4 -30 -10 -8 -13 -54 -13 -93 1 -27 9 -39 7 -75 -10
-24 -12 -48 -21 -54 -21 -6 0 -22 -12 -35 -27 -13 -16 -35 -29 -48 -31 -14 -1
-31 -9 -39 -17 -12 -12 -18 -12 -42 1 -28 14 -47 5 -34 -16 12 -20 -7 -50 -41
-66 -44 -21 -96 -12 -118 21 -21 32 -66 35 -66 5 0 -11 9 -25 20 -32 11 -7 20
-20 20 -30 0 -9 4 -20 10 -23 15 -9 3 -76 -17 -94 -10 -9 -36 -30 -58 -46 -22
-17 -45 -36 -51 -43 -11 -16 -90 -33 -111 -25 -7 3 -13 13 -13 22 0 11 -16 26
-37 37 -21 10 -50 29 -65 43 -15 13 -42 25 -60 27 -18 2 -39 6 -46 9 -7 2 -15
-1 -18 -9 -16 -41 97 -194 164 -222 41 -17 92 -64 92 -85 0 -6 15 -34 34 -63
46 -72 53 -118 26 -186 -12 -29 -32 -66 -46 -82 -13 -16 -24 -36 -24 -43 0 -7
-5 -15 -10 -17 -6 -2 -11 -12 -11 -23 -1 -30 31 -167 44 -190 15 -27 17 -75 3
-75 -8 0 -8 -2 0 -8 7 -4 8 -15 3 -29 -6 -17 -19 -24 -59 -29 -28 -4 -53 -11
-56 -16 -4 -6 -9 -5 -14 2 -5 9 -9 9 -14 1 -4 -6 -2 -11 3 -11 6 0 11 -7 11
-15 0 -9 -9 -15 -22 -15 -26 0 -50 -40 -37 -62 5 -7 9 -25 9 -40 0 -21 5 -28
19 -28 11 0 32 -6 48 -14 15 -8 42 -20 58 -26 53 -22 58 -26 62 -48 2 -19 -2
-22 -27 -22 -17 0 -30 -4 -30 -8 0 -5 -26 -8 -57 -7 -32 1 -73 -4 -92 -12 -56
-22 -91 -16 -143 25 -9 8 -22 11 -28 7 -12 -8 -42 19 -53 48 -3 9 -11 17 -17
17 -5 0 -10 12 -10 28 0 38 -60 64 -160 70 -41 2 -79 9 -83 16 -6 7 -6 4 -3
-8 5 -16 2 -18 -26 -14 -18 3 -40 0 -50 -5 -11 -8 -27 -8 -51 0 -28 8 -41 7
-72 -8 -50 -24 -51 -24 -86 10 -19 20 -25 31 -16 34 6 3 -2 6 -20 6 -17 1 -35
-4 -39 -10 -3 -6 -15 -8 -26 -6 -23 6 -35 -17 -19 -36 8 -10 7 -17 -1 -25 -9
-9 -9 -15 0 -24 9 -9 12 -9 12 4 0 9 12 18 31 22 48 9 49 9 49 -34 0 -30 3
-38 14 -34 8 3 17 0 21 -6 5 -9 14 -4 29 13 15 17 34 26 64 28 23 3 42 1 42
-3 0 -5 7 -8 15 -8 8 0 15 7 15 15 0 20 13 19 34 -4 9 -10 34 -26 56 -36 22
-10 37 -22 34 -26 -3 -5 0 -9 6 -9 6 0 15 -11 20 -24 6 -17 20 -26 47 -31 32
-6 35 -9 18 -15 -21 -9 -21 -10 10 -15 11 -1 28 -6 38 -10 13 -6 17 -2 17 16
1 22 2 22 11 6 8 -14 14 -16 25 -6 16 13 16 14 32 -24 7 -16 9 -39 6 -52 -4
-17 -1 -24 11 -27 15 -3 15 -5 -3 -25 -13 -16 -30 -23 -56 -23 -34 0 -37 -2
-30 -22 4 -13 7 -31 6 -40 0 -10 6 -18 14 -18 22 0 54 -32 54 -55 0 -11 14
-37 31 -58 17 -20 28 -41 24 -47 -10 -16 12 -46 44 -60 17 -7 29 -15 28 -19
-3 -12 22 -71 31 -71 14 0 23 46 16 75 -5 21 -3 25 14 25 25 0 34 13 42 60 4
27 11 36 28 38 14 2 22 10 21 20 -1 9 -1 34 0 54 1 30 5 37 24 41 21 3 21 4
-5 15 -39 16 -39 59 -1 68 17 5 28 3 31 -4 2 -7 14 -12 26 -12 15 0 27 -9 34
-26 7 -14 17 -22 22 -19 14 8 113 -91 105 -105 -9 -14 24 -25 36 -13 6 6 24 7
44 3 18 -4 39 -4 46 1 8 5 33 9 57 9 47 0 154 14 245 32 45 8 57 15 57 29 0
11 7 19 15 19 8 0 15 5 15 10 0 14 117 13 126 -1 3 -6 17 -9 30 -6 13 2 25 -1
28 -8 2 -6 31 -18 64 -25 52 -11 66 -10 111 5 28 9 51 21 51 26 0 6 5 7 11 4
6 -4 16 0 22 8 7 8 37 20 67 26 182 38 288 38 372 3 63 -28 133 -34 175 -17
34 15 36 15 53 15 6 0 10 6 10 14 0 21 101 56 199 68 64 8 118 8 222 -2 76 -7
146 -9 156 -5 10 4 135 13 278 20 180 10 279 19 320 31 49 14 110 17 338 19
l278 2 37 -29 c20 -16 42 -36 49 -45 18 -24 207 -55 345 -57 116 -1 117 -2
158 -35 105 -84 76 -157 -75 -189 -55 -12 -314 -42 -357 -42 -33 0 -59 -25
-51 -48 23 -62 135 -142 201 -142 20 0 79 -7 130 -15 168 -25 248 -28 393 -15
132 13 148 12 297 -10 122 -18 211 -24 402 -27 294 -4 300 -4 300 -13 0 -4 16
-10 36 -13 44 -7 124 -39 124 -49 0 -5 9 -8 21 -8 11 0 18 -4 14 -10 -3 -5 2
-18 12 -28 10 -11 29 -34 42 -51 13 -17 32 -31 42 -31 11 0 19 -5 19 -11 0 -5
4 -8 8 -5 13 8 76 -17 119 -47 21 -15 44 -27 49 -27 6 0 26 -14 45 -31 19 -17
39 -34 44 -37 6 -4 18 -24 27 -44 10 -21 22 -38 28 -38 5 0 10 -7 10 -15 0 -9
7 -18 15 -21 8 -4 15 -14 15 -23 0 -14 2 -14 11 -1 8 11 12 12 16 3 4 -10 228
-13 1074 -13 657 0 1069 4 1069 9 0 6 -46 12 -102 14 -140 6 -157 10 -218 40
-30 15 -65 27 -79 27 -15 0 -21 4 -15 8 6 4 13 14 16 23 14 37 152 75 182 49
9 -6 21 -8 28 -4 7 4 25 7 40 6 22 -2 26 1 21 15 -4 10 -2 14 5 9 6 -3 13 -2
17 3 8 15 65 41 65 31 0 -5 7 -7 15 -4 8 4 22 1 29 -5 8 -7 23 -11 33 -9 12 2
24 -8 36 -33 15 -32 24 -38 62 -43 25 -4 47 -12 51 -17 3 -6 10 -6 17 -1 7 5
31 12 55 15 40 5 43 4 40 -17 -1 -12 7 -31 20 -44 12 -12 22 -33 22 -47 l0
-25 441 0 c334 0 440 3 437 12 -2 6 -11 15 -19 19 -15 7 -97 29 -116 31 -7 1
-14 7 -17 15 -3 7 -13 13 -22 13 -12 0 -15 6 -10 24 4 18 0 28 -19 40 -22 14
-24 20 -14 38 6 11 7 18 2 15 -14 -9 -98 37 -98 53 0 9 -11 16 -27 18 -18 2
-28 9 -28 20 0 13 -2 14 -9 4 -7 -11 -12 -10 -28 7 -12 13 -27 19 -35 16 -24
-9 -32 12 -9 24 10 6 22 22 25 36 8 30 60 91 95 110 14 8 48 35 76 61 65 60
148 101 218 108 30 3 59 6 64 7 23 4 53 -2 48 -10 -3 -5 -1 -12 4 -16 6 -3 8
-12 4 -20 -3 -10 1 -15 11 -15 9 0 16 -6 14 -13 -2 -7 5 -30 14 -52 21 -49 43
-126 39 -140 -7 -25 -2 -58 10 -66 16 -10 20 -58 7 -76 -6 -7 -7 -44 -3 -88 7
-72 8 -75 34 -76 22 0 23 -1 7 -8 -18 -7 -18 -8 5 -14 13 -4 39 -7 57 -7 32 0
38 -11 33 -56 -2 -15 71 -16 81 -1 6 9 8 9 8 0 0 -10 273 -13 1330 -13 l1330
0 0 410 0 410 -25 0 c-14 0 -34 9 -45 20 -11 11 -31 22 -45 26 -23 6 -36 34
-16 34 5 0 11 10 13 23 2 18 14 25 61 37 l57 14 -2 956 -3 955 -55 6 c-77 8
-93 15 -111 46 -15 24 -15 30 -2 71 17 49 42 64 126 76 l47 7 0 170 0 169 -37
1 c-21 1 -59 3 -84 5 -43 4 -47 2 -51 -20 -3 -14 -1 -31 3 -38 13 -20 11 -58
-3 -59 -26 -2 -64 3 -80 12 -10 5 -37 13 -60 18 -24 5 -95 20 -158 34 -111 24
-199 26 -169 5 10 -7 7 -8 -11 -4 -14 3 -31 6 -39 6 -11 0 -9 4 5 15 18 13 18
14 1 15 -11 0 -15 4 -11 12 5 8 0 9 -17 5 -13 -4 -27 -7 -31 -7 -5 0 -8 -9 -8
-20 0 -13 7 -20 19 -20 23 0 36 -16 21 -25 -5 -3 -10 -3 -10 2 0 4 -20 8 -45
7 -24 0 -42 3 -40 7 3 4 -34 10 -82 14 -49 4 -126 15 -173 25 -214 45 -246 53
-254 60 -5 5 0 23 12 42 23 38 29 84 18 147 -16 89 -135 169 -166 111 -14 -25
-48 -26 -103 -1 -23 10 -49 20 -57 23 -8 3 -15 18 -16 39 0 19 -13 61 -29 94
-15 33 -40 87 -55 120 -30 67 -53 113 -81 164 -23 43 -16 55 27 48 19 -3 34
-2 34 3 0 6 10 6 24 0 17 -6 26 -5 30 3 3 9 5 9 5 0 1 -7 6 -13 12 -13 5 0 7
5 4 10 -4 7 2 9 17 6 12 -3 35 -7 50 -10 16 -4 28 -1 30 6 2 6 21 11 41 10 20
-1 37 2 37 6 0 14 47 28 73 21 15 -4 27 -3 27 2 0 5 14 9 31 9 28 0 30 -2 18
-17 -13 -15 -12 -15 16 -2 17 8 61 14 102 14 40 0 73 3 73 6 0 12 79 19 102
10 13 -5 77 -22 143 -37 66 -15 125 -31 131 -36 6 -4 31 -10 55 -13 24 -3 45
-10 47 -15 2 -6 17 -10 33 -10 30 0 99 -24 99 -35 0 -3 -12 -3 -27 0 -24 4
-23 3 5 -8 27 -10 30 -15 20 -25 -11 -11 -10 -12 5 -7 12 5 17 2 17 -10 0 -9
5 -13 10 -10 8 5 8 11 0 20 -8 10 -7 15 2 19 10 5 10 7 1 12 -20 9 -15 24 7
24 11 0 20 -5 20 -11 0 -7 11 -9 27 -6 16 3 42 -4 71 -19 25 -13 52 -24 60
-24 11 0 13 -3 6 -10 -6 -6 -22 -6 -44 0 -41 12 -127 3 -137 -13 -3 -7 -3 -9
2 -5 4 4 15 3 24 -1 9 -5 30 -11 46 -14 17 -3 43 -8 59 -12 16 -4 36 -9 45
-10 43 -4 98 -19 111 -30 24 -19 166 -85 184 -85 15 0 16 59 16 683 l0 682
-57 1 c-69 2 -91 6 -118 21 -12 6 -39 14 -60 17 -22 3 -76 11 -120 18 -99 14
-139 14 -240 -1 -143 -22 -419 -15 -575 14 -46 8 -187 44 -225 56 -16 6 -39
12 -50 14 -90 15 -186 40 -213 56 -18 10 -41 19 -51 19 -9 0 -21 4 -26 9 -6 4
-39 14 -74 20 -35 7 -78 19 -95 26 -17 7 -48 21 -70 30 -21 10 -52 19 -68 22
-16 2 -50 13 -75 24 -24 10 -51 19 -59 19 -8 0 -14 3 -14 8 0 4 -23 21 -51 37
-28 17 -63 38 -78 47 -14 9 -60 34 -101 54 -41 21 -88 50 -105 65 -33 30 -142
58 -330 85 -184 26 -197 30 -312 91 -115 61 -194 79 -437 99 -67 6 -79 11
-114 46 -41 40 -99 133 -107 169 -4 15 -10 27 -14 26 -4 -1 -19 11 -33 28
l-25 29 -63 -12 c-54 -10 -67 -17 -96 -50 -41 -49 -81 -58 -174 -41 -61 11
-72 10 -124 -10 l-58 -21 -61 31 c-34 17 -68 39 -77 48 -27 30 -80 63 -118 72
-38 10 -49 15 -163 68 -37 17 -72 31 -78 31 -6 0 -28 11 -49 23 -20 13 -54 29
-74 36 -21 7 -40 17 -43 22 -4 5 -17 9 -31 9 -58 0 -274 102 -274 129 0 5 -10
11 -22 14 -38 9 -92 31 -103 43 -15 18 -74 35 -135 40 -30 3 -102 12 -160 21
-227 33 -260 34 -260 13 0 -16 57 -100 64 -93 3 3 15 -2 26 -12 21 -19 27 -60
10 -70 -5 -3 -10 -18 -10 -32 0 -21 -2 -24 -15 -13 -8 7 -15 9 -15 4 0 -5 -7
2 -16 14 -21 30 -60 29 -68 -1 -3 -13 -23 -40 -45 -60 l-40 -37 -15 22 c-7 13
-17 46 -20 73 -14 106 -32 119 -134 106 -53 -8 -81 -29 -82 -63 0 -30 93 -115
141 -128 72 -20 99 -32 99 -44 0 -22 118 -114 174 -136 14 -5 39 -28 55 -50
53 -73 167 -160 190 -146 5 3 22 1 38 -4 24 -9 32 -20 42 -59 10 -42 21 -56
70 -95 79 -61 86 -62 83 -3 -2 57 10 60 72 17 47 -32 62 -63 40 -81 -8 -6 -14
-8 -14 -3 0 4 -6 -1 -14 -12 -13 -17 -12 -22 6 -41 12 -13 16 -23 10 -23 -12
0 -73 22 -127 45 -16 7 -76 27 -132 45 -56 17 -107 37 -113 45 -7 8 -17 36
-24 62 l-12 48 -50 0 c-64 -1 -139 -12 -161 -24 -10 -6 -49 -20 -88 -32 -38
-12 -78 -29 -89 -38 -10 -9 -21 -15 -25 -15 -10 2 -34 -9 -67 -31 -17 -12 -58
-34 -90 -49 -32 -16 -65 -31 -72 -35 -7 -3 -26 -36 -42 -73 -32 -78 -92 -164
-120 -173 -10 -3 -21 -13 -25 -23 -5 -13 -8 -14 -14 -3 -10 15 -49 -3 -140
-67 -33 -23 -61 -39 -61 -35 0 4 -4 2 -9 -5 -4 -7 -20 -15 -35 -16 -15 -2 -38
-14 -51 -26 -13 -12 -36 -24 -51 -26 -21 -2 -25 1 -21 16 3 11 2 19 -2 18 -20
-2 -22 5 -7 27 16 24 16 24 -6 15 -13 -6 -31 -13 -41 -16 -10 -4 -21 -20 -24
-35 -3 -17 -12 -29 -22 -30 -12 0 -13 -2 -2 -6 8 -3 20 2 27 11 10 15 13 13
22 -14 13 -35 13 -35 -100 -74 -82 -28 -136 -33 -171 -15 -43 22 -86 73 -104
121 -14 40 -23 50 -45 55 -16 3 -39 18 -52 34 -16 19 -26 25 -30 16 -3 -6 -3
6 0 28 10 65 -4 35 -21 -46 -28 -139 -65 -212 -129 -255 -20 -14 -41 -22 -48
-18 -7 4 -8 3 -4 -4 4 -7 1 -12 -6 -13 -7 0 -22 -3 -33 -6 -45 -13 -160 -7
-193 11 -57 30 -87 129 -62 206 4 14 9 23 10 20 4 -11 11 -56 13 -82 4 -49 14
-39 20 21 7 63 24 111 40 111 5 0 7 6 4 13 -3 9 15 28 49 49 41 28 49 37 35
41 -10 2 -27 0 -37 -5 -18 -9 -18 -8 0 6 11 9 39 16 61 16 42 0 105 -24 105
-40 0 -5 11 -20 24 -33 12 -13 25 -30 28 -38 3 -8 8 -11 12 -8 3 3 -2 30 -11
60 -19 61 -20 65 -22 79 -2 19 -71 41 -135 44 -36 2 -68 0 -72 -3 -11 -12 -64
-8 -75 5 -7 8 -9 17 -6 20 3 3 -1 21 -9 40 -8 19 -12 39 -9 44 3 5 -2 26 -10
47 -22 51 -24 176 -7 321 13 111 12 220 -4 371 -7 67 13 155 71 306 24 63 39
135 27 135 -4 0 -17 -12 -29 -26z m4692 -1231 c27 -30 34 -58 11 -50 -7 3 -18
1 -24 -5 -17 -17 -53 2 -67 35 -16 39 -12 47 25 47 19 0 38 -10 55 -27z
m-4525 -73 c13 -9 13 -10 0 -9 -8 1 -26 5 -40 9 l-25 8 25 1 c14 0 32 -4 40
-9z m5065 -311 c117 -39 152 -97 89 -144 -15 -11 -43 -34 -62 -52 -48 -44
-104 -55 -228 -42 -54 6 -109 16 -120 24 l-22 14 40 82 c46 94 73 126 114 132
70 10 132 6 189 -14z m-6050 -589 c3 -5 1 -10 -4 -10 -6 0 -11 5 -11 10 0 6 2
10 4 10 3 0 8 -4 11 -10z m420 -188 c-3 -3 -11 0 -18 7 -9 10 -8 11 6 5 10 -3
15 -9 12 -12z m210 -62 c3 -5 -1 -10 -9 -10 -9 0 -16 5 -16 10 0 6 4 10 9 10
6 0 13 -4 16 -10z m8085 -498 c20 -16 21 -21 11 -60 -12 -44 -20 -49 -52 -32
-22 12 -25 46 -7 85 13 30 19 31 48 7z m-263 -8 c-3 -3 -12 -4 -19 -1 -8 3 -5
6 6 6 11 1 17 -2 13 -5z m-259 -762 c2 -7 -3 -12 -12 -12 -9 0 -16 7 -16 16 0
17 22 14 28 -4z m298 -187 c-3 -23 -13 -28 -41 -21 -22 6 -25 9 -15 21 16 20
59 20 56 0z m-6974 -114 c55 -26 75 -55 53 -78 -22 -21 -57 -13 -163 39 -53
26 -80 44 -69 46 9 2 17 8 17 14 0 17 114 3 162 -21z m-407 -101 c142 -38 248
-85 360 -159 104 -69 135 -95 167 -139 7 -10 45 -41 83 -69 39 -29 75 -56 80
-61 6 -4 33 -18 60 -30 28 -13 63 -30 80 -38 16 -9 50 -23 75 -31 25 -9 47
-18 50 -22 28 -38 221 -67 365 -54 50 5 108 5 130 1 22 -4 101 -4 177 -1 l136
6 24 -26 c12 -14 36 -42 52 -62 31 -39 97 -78 118 -70 7 2 66 6 130 9 110 4
268 30 268 45 0 3 -17 25 -38 48 -28 32 -63 53 -142 89 -115 51 -263 104 -292
104 -31 0 -93 37 -107 64 -13 24 -12 27 40 73 65 57 149 145 149 156 0 14 87
45 146 52 33 4 74 11 92 17 37 11 55 2 31 -15 -35 -26 -17 -43 111 -100 70
-31 131 -57 135 -57 4 0 21 -7 38 -15 42 -19 288 -118 397 -160 286 -109 321
-143 335 -321 l7 -91 -34 -35 c-57 -61 -90 -60 -215 1 -63 32 -133 58 -176 67
-40 7 -88 17 -107 22 -19 4 -55 5 -80 2 -39 -4 -47 -10 -66 -44 -12 -21 -30
-46 -40 -56 -20 -19 -133 -51 -251 -71 -72 -12 -133 -39 -133 -59 0 -6 12 -15
28 -21 69 -28 164 -75 174 -87 29 -34 95 -54 217 -64 l124 -11 93 48 c87 45
96 48 149 42 39 -4 94 2 183 20 171 33 236 28 346 -28 l79 -41 141 10 c78 6
161 18 185 26 85 31 191 16 240 -33 25 -25 83 -28 121 -6 18 10 63 14 166 15
132 0 145 -2 225 -31 46 -17 107 -48 134 -69 47 -34 57 -38 125 -41 88 -5 119
-23 150 -85 38 -76 16 -177 -47 -222 -76 -53 -129 -67 -368 -97 -141 -17 -278
-67 -288 -105 -3 -13 3 -26 16 -38 37 -29 60 -87 54 -128 -8 -51 -28 -68 -116
-106 -67 -29 -85 -32 -158 -31 -67 2 -100 9 -180 39 -54 20 -102 40 -108 44
-5 4 -31 13 -57 20 -56 15 -98 3 -117 -34 -19 -35 -89 -76 -120 -70 -14 3 -55
-4 -91 -16 -83 -26 -153 -16 -194 30 -23 26 -33 30 -80 30 -29 0 -73 -7 -96
-15 -23 -8 -57 -15 -74 -15 -37 0 -150 31 -194 54 -17 9 -50 16 -74 17 -73 2
-93 11 -93 44 -1 16 -6 30 -13 33 -7 2 -12 -2 -12 -8 0 -9 -4 -9 -12 -3 -7 6
-37 13 -65 17 -46 6 -57 3 -84 -16 -42 -31 -201 -39 -259 -13 -49 22 -82 17
-91 -15 -12 -42 -10 -109 5 -158 24 -80 39 -186 34 -248 -3 -50 -10 -68 -40
-108 -109 -142 -296 -207 -413 -143 -40 22 -60 39 -68 57 -4 8 -11 22 -16 30
-5 8 -13 28 -17 44 -5 18 -23 38 -42 49 -31 18 -40 19 -121 8 -83 -12 -90 -11
-166 14 -44 15 -105 30 -135 35 -77 11 -141 43 -163 82 -12 21 -21 62 -24 120
-5 81 -4 92 22 150 44 98 97 173 170 240 61 56 65 62 50 77 -18 19 -103 40
-161 41 -32 0 -43 5 -53 24 -7 13 -23 28 -35 34 -11 6 -41 20 -66 31 -29 13
-60 40 -87 75 -32 42 -50 56 -77 62 -20 3 -185 1 -368 -6 -183 -6 -484 -11
-668 -10 -501 3 -501 3 -553 -5 -31 -5 -53 -15 -62 -28 -14 -20 -18 -20 -60
-9 -58 15 -121 57 -129 84 -6 26 16 45 64 54 19 3 45 18 58 32 40 45 102 62
215 58 110 -3 139 6 227 69 51 36 209 79 340 90 60 6 76 10 77 23 4 39 3 71
-2 142 -9 110 -8 122 7 132 24 16 110 1 328 -60 118 -33 240 -65 270 -71 60
-12 99 -41 125 -91 9 -17 21 -30 28 -30 6 0 20 -14 29 -30 16 -28 21 -30 78
-30 44 0 70 5 88 18 56 39 122 63 188 69 88 8 126 24 159 67 22 29 24 38 15
55 -12 24 -19 26 -160 41 -73 8 -120 18 -155 36 -28 13 -55 24 -61 24 -18 0
-60 53 -90 114 -16 33 -38 70 -49 84 -59 71 -89 102 -101 102 -7 0 -59 46
-116 103 -57 56 -121 116 -142 132 -22 17 -49 39 -60 50 -62 60 -165 145 -195
160 -39 19 -68 15 -108 -18 -41 -35 -68 -39 -96 -13 -52 46 -60 94 -22 131 31
32 86 33 190 5z m-2742 -119 c37 -15 44 -38 18 -62 -11 -11 -21 -26 -21 -33 0
-29 -24 -35 -81 -22 -59 14 -99 35 -99 51 0 5 -17 18 -38 28 -41 20 -101 19
-125 -2 -9 -6 -38 -16 -66 -20 -79 -12 -121 -66 -121 -153 0 -31 -3 -39 -15
-35 -8 4 -17 2 -20 -3 -13 -21 -35 -10 -35 18 0 15 -6 61 -14 102 -17 85 -7
118 36 117 13 0 30 3 38 6 57 24 485 31 543 8z m-809 -98 c-4 -10 -8 -52 -10
-93 -2 -68 0 -78 23 -105 21 -24 34 -29 64 -29 22 1 45 6 51 11 27 21 81 34
89 22 13 -22 -2 -41 -27 -35 -25 7 -49 -22 -49 -59 0 -14 -8 -21 -28 -23 -16
-2 -31 -10 -34 -18 -3 -8 -9 -14 -13 -14 -12 0 1 73 14 82 6 4 7 10 3 15 -5 4
-12 1 -17 -7 -7 -12 -13 -10 -34 10 -15 13 -26 18 -26 12 0 -7 -7 -12 -15 -12
-11 0 -14 -7 -9 -25 9 -37 -18 -32 -38 8 -25 46 -48 147 -48 205 0 46 2 51 28
60 15 6 40 11 56 11 23 1 27 -2 20 -16z m3663 -60 c70 -38 93 -58 133 -113 19
-27 60 -68 90 -91 58 -45 221 -208 243 -243 11 -18 14 -72 5 -82 -4 -3 -25 2
-143 35 -38 10 -115 31 -169 45 -102 26 -264 83 -280 98 -6 4 -20 8 -32 8 -11
0 -35 5 -53 11 -24 8 -31 17 -31 36 0 25 54 132 74 145 6 4 13 41 17 82 3 41
12 82 19 91 18 21 62 13 127 -22z m-3965 1 c26 -5 40 -13 44 -27 3 -11 24 -37
45 -57 29 -28 39 -45 39 -68 0 -18 3 -32 8 -32 13 0 30 -48 20 -58 -6 -6 13
-11 47 -15 64 -6 74 -13 100 -61 19 -34 19 -36 0 -55 -19 -22 -69 -28 -80 -11
-7 12 -25 13 -25 2 0 -5 11 -15 25 -22 25 -13 25 -13 4 -28 -17 -12 -23 -12
-44 2 -26 17 -32 34 -37 104 -3 32 0 42 12 42 13 0 13 1 0 10 -22 14 -57 12
-63 -4 -3 -7 -18 -13 -33 -13 -18 0 -35 -10 -49 -27 -11 -14 -26 -26 -32 -26
-17 0 -24 -40 -7 -47 22 -8 16 -18 -12 -20 -18 -1 -28 5 -31 18 -4 15 -15 19
-52 19 -40 0 -50 -4 -61 -24 -11 -21 -10 -30 3 -58 8 -18 22 -49 30 -68 27
-61 153 -191 213 -221 l44 -21 35 22 c19 12 35 26 35 31 0 5 11 11 25 15 14 3
25 10 25 14 0 18 75 16 107 -2 35 -21 131 -31 150 -16 20 16 112 -11 163 -46
44 -30 128 -75 142 -76 8 0 130 -80 138 -90 3 -3 23 -14 45 -24 22 -11 71 -38
108 -62 37 -24 74 -44 82 -44 7 0 17 -4 20 -10 3 -5 17 -10 30 -10 13 0 27 -5
30 -10 4 -6 12 -9 19 -8 17 4 86 -24 86 -34 0 -4 7 -8 16 -8 24 0 84 -39 84
-55 0 -15 -31 -25 -81 -25 -20 0 -53 -7 -72 -15 -20 -8 -58 -15 -85 -15 -26 0
-53 -5 -59 -11 -5 -5 -34 -17 -64 -24 -43 -12 -102 -14 -294 -9 -132 3 -265
10 -295 15 -30 5 -119 16 -198 24 -78 8 -147 17 -152 20 -6 4 -43 15 -83 26
-61 16 -210 82 -227 99 -3 3 -77 41 -165 85 -213 105 -259 148 -228 210 9 17
16 31 18 33 2 2 31 -8 180 -62 39 -14 78 -23 88 -20 9 3 17 2 17 -3 0 -5 13
-14 30 -20 35 -13 83 3 75 25 -3 8 -5 20 -5 28 0 8 -11 19 -24 24 -51 19 -88
93 -101 200 -3 30 -12 68 -19 85 -7 16 -18 42 -24 56 -13 32 -76 69 -159 94
-62 18 -63 19 -63 54 0 22 10 51 24 72 22 33 30 37 83 42 48 5 63 11 86 37 32
36 89 70 118 70 12 0 40 20 65 45 38 40 48 45 86 45 24 0 60 -3 80 -6z m568
-135 c0 -5 -4 -9 -10 -9 -5 0 -10 7 -10 16 0 8 5 12 10 9 6 -3 10 -10 10 -16z
m-60 -59 c0 -5 -9 -10 -20 -10 -11 0 -20 5 -20 10 0 6 9 10 20 10 11 0 20 -4
20 -10z m-190 -55 c0 -8 -4 -17 -10 -20 -6 -4 -10 5 -10 20 0 15 4 24 10 20 6
-3 10 -12 10 -20z m17 -37 c-3 -8 -6 -5 -6 6 -1 11 2 17 5 13 3 -3 4 -12 1
-19z m663 -328 c0 -5 -7 -7 -15 -4 -8 4 -15 8 -15 10 0 2 7 4 15 4 8 0 15 -4
15 -10z m845 -532 c14 -6 25 -14 25 -18 0 -16 -27 -30 -61 -30 -31 0 -37 4
-41 25 -7 35 28 46 77 23z m-3705 -82 c0 -2 -7 -6 -15 -10 -8 -3 -15 -1 -15 4
0 6 7 10 15 10 8 0 15 -2 15 -4z m70 -86 c0 -5 -2 -10 -4 -10 -3 0 -8 5 -11
10 -3 6 -1 10 4 10 6 0 11 -4 11 -10z m13153 -459 c-13 -20 -38 -21 -38 -2 0
8 -6 16 -12 19 -7 2 -13 -3 -13 -12 0 -21 -16 -21 -24 0 -12 32 -6 43 24 42
17 -1 33 2 37 5 3 4 13 -3 21 -14 11 -16 12 -26 5 -38z m-12638 -1 c3 -5 1
-10 -4 -10 -6 0 -11 5 -11 10 0 6 2 10 4 10 3 0 8 -4 11 -10z m185 -120 c0 -5
-10 -10 -22 -9 -22 0 -22 1 -3 9 11 5 21 9 23 9 1 1 2 -3 2 -9z m8647 -616
c-3 -3 -12 -4 -19 -1 -8 3 -5 6 6 6 11 1 17 -2 13 -5z"/>
<path d="M9873 2083 c-65 -5 -80 -21 -59 -61 12 -23 21 -30 41 -27 45 4 112
-15 141 -42 25 -23 33 -25 83 -19 31 4 80 8 109 10 59 4 68 9 77 47 6 24 2 28
-54 53 -94 42 -170 50 -338 39z"/>
<path d="M11975 1534 c-33 -7 -81 -13 -108 -14 -41 0 -49 -3 -59 -26 -11 -23
-10 -29 12 -46 23 -19 34 -20 140 -14 102 5 343 46 357 60 3 3 -18 8 -46 12
-31 4 -51 12 -51 19 0 7 -7 16 -16 19 -27 10 -166 5 -229 -10z"/>
<path d="M9807 1341 c-14 -17 -31 -31 -38 -31 -7 0 -10 -3 -7 -6 4 -3 2 -20
-3 -37 -5 -17 -7 -39 -4 -48 12 -37 96 -45 114 -10 4 9 7 48 7 86 -1 63 -3 70
-22 73 -14 2 -30 -8 -47 -27z"/>
<path d="M10568 7013 c-10 -2 -18 -7 -18 -9 0 -11 91 -96 96 -91 4 3 3 19 -1
34 -5 15 -7 32 -6 36 2 12 -26 37 -41 36 -7 -1 -21 -3 -30 -6z"/>
<path d="M15953 6943 c9 -9 19 -14 23 -11 10 10 -6 28 -24 28 -15 0 -15 -1 1
-17z"/>
<path d="M8749 6828 c-34 -35 -54 -48 -75 -48 -44 -1 -88 -47 -132 -135 -76
-153 -96 -248 -113 -535 -17 -285 -17 -289 -24 -323 -4 -18 -4 -28 1 -24 5 5
10 13 10 18 3 22 5 23 13 10 7 -11 12 -6 19 20 6 19 11 25 11 15 1 -11 4 -16
8 -13 3 4 12 2 19 -4 10 -8 14 1 20 38 4 26 8 63 8 81 0 17 5 32 11 32 5 0 39
32 74 72 36 39 99 98 140 131 82 65 98 89 82 125 -6 13 -11 32 -11 42 0 32
-18 23 -46 -22 -15 -24 -32 -46 -38 -50 -63 -41 -70 297 -8 431 14 31 38 84
55 119 16 35 27 64 25 65 -1 1 -24 -19 -49 -45z m-262 -990 c-3 -8 -6 -5 -6 6
-1 11 2 17 5 13 3 -3 4 -12 1 -19z"/>
<path d="M7170 6589 c0 -14 4 -50 10 -80 13 -71 44 -473 44 -567 0 -41 -5 -77
-10 -80 -18 -13 -45 -72 -38 -83 4 -7 0 -9 -14 -5 -32 10 -101 -12 -128 -41
-27 -29 -24 -45 3 -21 21 17 67 36 107 42 61 11 122 -77 182 -265 8 -23 -49
-85 -110 -120 l-51 -29 34 0 c41 0 109 31 140 64 l22 24 -16 83 c-9 46 -32
149 -51 229 -37 160 -69 371 -79 525 -11 171 -45 415 -45 324z"/>
<path d="M5919 5907 c11 -46 26 -71 63 -102 28 -24 37 -26 77 -20 70 10 114
63 78 93 -7 6 -49 18 -92 27 -44 9 -87 21 -97 26 -30 16 -36 10 -29 -24z"/>
<path d="M6801 5854 c0 -11 3 -14 6 -6 3 7 2 16 -1 19 -3 4 -6 -2 -5 -13z"/>
<path d="M7139 5824 c-7 -9 -18 -10 -33 -4 -17 6 -27 3 -44 -15 -12 -13 -22
-25 -22 -28 0 -11 86 15 103 31 11 9 22 16 25 14 4 -2 8 1 10 6 4 13 -27 10
-39 -4z"/>
<path d="M7508 5801 c-14 -16 -27 -29 -30 -28 -2 1 -1 -1 2 -5 3 -4 19 -4 35
0 35 10 102 0 118 -18 9 -10 7 -11 -11 -5 -37 11 -113 8 -126 -5 -8 -9 -6 -11
11 -6 12 4 48 2 80 -3 48 -9 64 -18 100 -57 24 -25 43 -49 43 -55 0 -5 7 -9
15 -9 19 0 19 -1 -2 46 -9 22 -15 49 -14 62 2 18 -6 26 -43 43 -25 11 -48 24
-51 30 -4 5 -14 9 -23 8 -21 -3 -65 11 -73 23 -3 5 -17 -4 -31 -21z"/>
<path d="M4935 5709 c-27 -16 -65 -56 -65 -69 0 -51 99 -52 447 -5 325 44 373
53 351 69 -10 7 -82 12 -206 14 -160 2 -193 0 -206 -13 -22 -22 -70 -29 -97
-14 -13 7 -51 14 -84 15 -33 0 -73 4 -90 7 -16 4 -39 2 -50 -4z"/>
<path d="M8957 5674 c-4 -4 -7 -14 -7 -23 0 -11 3 -12 11 -4 6 6 10 16 7 23
-2 6 -7 8 -11 4z"/>
<path d="M8647 5629 c7 -7 15 -10 18 -7 3 3 -2 9 -12 12 -14 6 -15 5 -6 -5z"/>
<path d="M6902 5509 c-12 -18 -11 -20 5 -17 10 2 19 11 21 21 5 23 -10 21 -26
-4z"/>
<path d="M5700 5040 c0 -5 13 -10 29 -10 17 0 33 5 36 10 4 6 -8 10 -29 10
-20 0 -36 -4 -36 -10z"/>
<path d="M5635 5000 l-40 -7 35 -1 c19 0 46 4 60 8 32 10 2 10 -55 0z"/>
<path d="M5518 4983 c12 -2 30 -2 40 0 9 3 -1 5 -23 4 -22 0 -30 -2 -17 -4z"/>
<path d="M5433 4973 c9 -2 25 -2 35 0 9 3 1 5 -18 5 -19 0 -27 -2 -17 -5z"/>
<path d="M5280 4960 c0 -5 14 -10 30 -10 17 0 30 5 30 10 0 6 -13 10 -30 10
-16 0 -30 -4 -30 -10z"/>
<path d="M6453 4953 c9 -2 25 -2 35 0 9 3 1 5 -18 5 -19 0 -27 -2 -17 -5z"/>
<path d="M6368 4943 c12 -2 30 -2 40 0 9 3 -1 5 -23 4 -22 0 -30 -2 -17 -4z"/>
<path d="M6288 4933 c12 -2 30 -2 40 0 9 3 -1 5 -23 4 -22 0 -30 -2 -17 -4z"/>
<path d="M6203 4923 c9 -2 25 -2 35 0 9 3 1 5 -18 5 -19 0 -27 -2 -17 -5z"/>
<path d="M5390 4910 c8 -5 20 -10 25 -10 6 0 3 5 -5 10 -8 5 -19 10 -25 10 -5
0 -3 -5 5 -10z"/>
<path d="M6070 4910 c0 -12 57 -12 85 0 15 6 6 9 -32 9 -29 1 -53 -3 -53 -9z"/>
<path d="M5989 4906 c-10 -9 -407 -47 -444 -42 l-40 5 40 -15 c22 -8 54 -13
70 -10 39 8 355 46 378 46 9 0 17 5 17 10 0 10 -13 14 -21 6z"/>
<path d="M5440 4892 c8 -5 26 -13 40 -16 17 -5 20 -4 10 2 -8 5 -26 13 -40 16
-17 5 -20 4 -10 -2z"/>
<path d="M6140 4881 c14 -8 638 -229 968 -341 67 -24 121 -45 118 -47 -2 -2
-50 12 -107 31 -56 20 -115 36 -130 36 -15 0 -29 5 -31 11 -2 7 -56 4 -173
-11 -256 -33 -298 -32 -428 17 -59 22 -109 37 -112 33 -3 -4 56 -29 131 -55
l135 -48 87 11 c173 22 204 24 225 14 35 -15 125 -34 136 -28 5 4 13 1 17 -5
3 -6 0 -15 -7 -20 -10 -6 -7 -8 11 -7 69 4 193 -3 185 -11 -12 -10 -241 -41
-306 -41 -30 0 -91 16 -168 44 -67 24 -124 40 -127 35 -3 -5 1 -11 8 -14 168
-62 222 -79 266 -82 34 -3 52 -9 52 -18 0 -7 8 -16 18 -20 15 -5 15 -7 2 -15
-17 -9 -363 -60 -411 -60 -16 0 -86 21 -155 46 -69 25 -128 43 -131 40 -8 -7
24 -21 156 -67 122 -42 125 -42 190 -31 36 6 135 19 219 28 117 14 152 21 152
32 0 18 20 13 115 -24 39 -15 94 -30 124 -33 39 -4 55 -10 57 -22 2 -20 -110
-52 -256 -74 -133 -21 -142 -20 -276 26 -152 52 -162 54 -149 41 17 -18 237
-94 278 -96 24 -1 45 -9 52 -19 7 -9 16 -17 21 -17 15 0 162 -59 201 -81 25
-14 39 -17 46 -10 19 19 54 12 78 -14 13 -13 31 -25 40 -25 9 0 47 -12 85 -26
38 -14 77 -28 86 -31 10 -3 20 -14 23 -24 4 -10 13 -19 20 -19 9 0 12 6 9 15
-9 23 45 19 76 -5 30 -23 44 -25 59 -6 8 9 66 20 171 32 146 16 160 19 154 36
-3 12 0 18 9 18 9 0 17 6 20 13 3 8 11 5 28 -10 13 -12 71 -37 129 -56 211
-71 245 -79 238 -54 -4 12 -85 47 -281 122 -54 20 -97 39 -95 40 3 4 288 45
307 45 5 0 7 9 4 20 -7 27 11 26 72 -6 40 -20 60 -25 96 -20 48 5 72 -3 67
-23 -3 -13 234 -91 274 -91 39 0 14 18 -69 49 -49 18 -104 40 -123 49 l-34 15
24 9 c14 6 56 14 93 19 127 16 197 31 197 41 0 12 -105 7 -292 -13 -89 -10
-126 -10 -155 -1 -21 6 -48 14 -61 17 l-22 6 22 19 c13 11 17 19 11 20 -7 0
-13 -4 -13 -10 0 -15 -62 -22 -93 -11 -15 6 -27 17 -27 24 0 18 120 33 131 16
4 -8 20 -9 45 -5 28 6 34 10 23 17 -10 8 -8 9 11 7 31 -3 94 22 83 33 -13 13
-371 139 -395 139 -12 0 -29 6 -37 14 -17 16 -876 317 -1048 367 -93 28 -106
30 -120 16 -12 -11 -13 -19 -4 -35 9 -16 8 -24 -2 -34 -8 -7 -12 -20 -9 -30 2
-11 -1 -18 -9 -18 -12 0 -12 -2 -1 -9 16 -10 17 -21 3 -30 -6 -4 82 -40 194
-81 113 -40 203 -75 201 -77 -2 -2 -88 26 -192 63 -277 96 -1006 344 -1013
344 -3 0 1 -5 9 -9z m1180 -416 l35 -13 -31 -1 c-17 -1 -37 6 -44 14 -15 18
-7 18 40 0z m171 -61 c53 -17 67 -29 22 -18 -33 8 -92 33 -80 34 5 0 30 -7 58
-16z m-458 -1 c-7 -2 -21 -2 -30 0 -10 3 -4 5 12 5 17 0 24 -2 18 -5z m-28
-23 c53 -24 35 -24 -40 0 -45 14 -53 19 -30 19 17 0 48 -9 70 -19z m213 -2
c10 -10 17 -10 32 0 25 15 57 16 66 1 11 -18 -17 -29 -73 -29 -51 0 -70 10
-58 30 8 13 18 13 33 -2z m1038 -26 c49 -16 108 -34 132 -41 25 -7 42 -18 42
-26 0 -22 -46 -19 -126 9 -147 52 -205 74 -211 80 -17 17 85 3 163 -22z m-554
-11 c35 -4 45 -9 39 -19 -6 -10 -14 -10 -35 -2 -15 5 -38 10 -50 10 -13 0 -30
8 -37 17 -13 15 -12 16 11 9 14 -5 46 -11 72 -15z m252 12 c4 -5 13 -8 19 -8
5 0 12 -5 14 -11 5 -14 -88 -26 -101 -13 -6 5 -18 9 -28 9 -31 0 -19 19 15 23
59 7 74 7 81 0z m-429 -48 c-5 -2 -23 -6 -39 -10 -22 -5 -26 -9 -16 -15 7 -5
-17 -7 -59 -6 -39 2 -74 5 -77 8 -3 3 28 10 68 16 73 9 142 13 123 7z m118
-33 c31 -3 20 -32 -14 -32 -17 0 -40 -5 -51 -11 -14 -8 -23 -8 -31 0 -6 6 -19
11 -29 11 -19 0 -25 26 -8 32 10 3 98 3 133 0z m376 -54 c30 -15 64 -23 100
-23 44 0 55 -3 61 -19 4 -11 22 -25 41 -32 29 -10 17 -11 -80 -7 -89 3 -116 0
-125 -11 -16 -20 -138 -29 -161 -12 -12 8 -16 20 -12 30 4 9 3 14 -2 11 -9 -5
-133 -8 -191 -5 -55 3 20 19 170 37 97 11 146 21 140 27 -14 14 -13 26 2 26 6
0 32 -10 57 -22z m-644 -23 c39 -15 97 -30 130 -34 51 -5 60 -9 60 -26 0 -16
-8 -20 -40 -23 -22 -1 -104 -11 -181 -22 -78 -11 -158 -20 -178 -20 -43 0
-256 67 -256 81 0 5 3 9 8 9 4 0 79 9 167 20 88 11 163 20 168 20 4 0 7 7 7
16 0 20 17 17 115 -21z m1068 18 c-7 -2 -19 -2 -25 0 -7 3 -2 5 12 5 14 0 19
-2 13 -5z m-792 -109 c27 -25 189 -73 214 -64 13 5 27 3 39 -6 31 -22 3 -44
-55 -44 -26 0 -114 -11 -195 -25 -80 -14 -154 -23 -163 -21 -91 26 -228 70
-235 77 -5 4 9 12 30 18 36 9 268 41 300 41 7 0 11 6 8 14 -3 8 2 16 13 19 10
3 20 5 22 6 3 0 12 -6 22 -15z"/>
<path d="M8010 4180 c0 -24 15 -27 24 -4 9 22 8 24 -9 24 -8 0 -15 -9 -15 -20z"/>
<path d="M7935 4179 c-4 -6 -5 -12 -2 -15 2 -3 7 2 10 11 7 17 1 20 -8 4z"/>
<path d="M8050 4175 c0 -8 2 -15 4 -15 2 0 6 7 10 15 3 8 1 15 -4 15 -6 0 -10
-7 -10 -15z"/>
<path d="M8087 4169 c7 -7 15 -10 18 -7 3 3 -2 9 -12 12 -14 6 -15 5 -6 -5z"/>
<path d="M5643 4819 c32 -19 245 -89 269 -89 13 0 28 4 34 8 5 5 91 17 192 27
100 10 182 22 182 27 0 10 12 11 -180 -12 -238 -28 -278 -27 -399 15 -102 36
-130 42 -98 24z"/>
<path d="M5935 4720 c-8 -13 236 -94 280 -93 77 1 425 46 425 55 0 11 -1 11
-190 -12 -244 -29 -279 -27 -404 19 -59 21 -108 35 -111 31z"/>
<path d="M5570 4602 c0 -11 239 -92 275 -94 26 -1 292 31 398 48 20 3 37 10
37 16 0 5 -8 7 -17 4 -32 -9 -351 -46 -402 -46 -32 0 -88 14 -161 40 -116 42
-130 45 -130 32z"/>
<path d="M5890 4491 c0 -5 6 -11 13 -14 173 -65 251 -89 285 -84 20 3 120 15
222 27 102 12 187 24 189 26 15 14 -27 11 -197 -11 -105 -14 -209 -25 -231
-25 -39 0 -49 3 -198 59 -46 17 -83 27 -83 22z"/>
<path d="M6055 4350 c-34 -6 -36 -7 -10 -8 17 0 48 3 70 7 33 7 35 9 10 8 -16
0 -48 -3 -70 -7z"/>
<path d="M5963 4333 c9 -2 25 -2 35 0 9 3 1 5 -18 5 -19 0 -27 -2 -17 -5z"/>
<path d="M5888 4323 c12 -2 30 -2 40 0 9 3 -1 5 -23 4 -22 0 -30 -2 -17 -4z"/>
<path d="M5823 4313 c9 -2 23 -2 30 0 6 3 -1 5 -18 5 -16 0 -22 -2 -12 -5z"/>
<path d="M5760 4270 c0 -11 48 -25 56 -17 3 2 -9 9 -25 15 -18 7 -31 7 -31 2z"/>
<path d="M12928 4253 c7 -3 16 -2 19 1 4 3 -2 6 -13 5 -11 0 -14 -3 -6 -6z"/>
<path d="M5838 4238 c5 -5 16 -8 23 -6 8 3 3 7 -10 11 -17 4 -21 3 -13 -5z"/>
<path d="M6385 4230 l-30 -8 30 0 c17 0 44 4 60 8 l30 8 -30 0 c-16 0 -43 -4
-60 -8z"/>
<path d="M15276 4220 c5 -5 25 -12 44 -15 36 -5 29 -1 -25 16 -20 6 -26 6 -19
-1z"/>
<path d="M15360 4200 c0 -5 10 -10 23 -10 18 0 19 2 7 10 -19 13 -30 13 -30 0z"/>
<path d="M5970 4192 c22 -14 118 -23 125 -11 4 5 -17 9 -49 9 -30 0 -63 3 -73
6 -14 4 -15 4 -3 -4z"/>
<path d="M15228 4193 c7 -3 16 -2 19 1 4 3 -2 6 -13 5 -11 0 -14 -3 -6 -6z"/>
<path d="M15352 4167 c18 -18 48 -28 48 -17 0 10 -33 30 -50 30 -8 0 -7 -4 2
-13z"/>
<path d="M12379 4150 c-28 -17 -305 -60 -1848 -290 -175 -26 -213 -34 -200
-43 2 -2 38 -13 79 -26 126 -39 208 -102 282 -218 l40 -63 57 0 c31 0 62 5 69
12 6 6 24 12 39 14 15 2 53 8 83 14 30 6 78 13 105 14 58 3 180 24 213 37 12
5 42 6 67 2 25 -3 50 -1 57 4 29 23 86 24 128 3 41 -21 73 -17 82 11 3 8 39
12 106 14 63 1 107 6 114 13 7 7 23 12 37 12 23 0 23 1 7 19 -22 24 -3 41 37
34 30 -6 47 -23 23 -23 -9 0 -16 -4 -16 -8 0 -11 69 -2 76 9 3 5 29 9 58 9 38
0 58 5 67 17 8 9 12 19 9 22 -3 3 18 6 47 7 54 1 83 15 83 41 0 10 6 12 20 8
27 -9 50 6 24 16 -16 6 -15 8 9 8 34 1 34 15 2 45 -33 31 -32 39 5 31 17 -4
30 -2 30 3 0 10 -29 22 -100 42 -25 7 -61 17 -80 23 -19 7 -43 12 -52 13 -10
1 -38 7 -64 14 -36 10 -42 15 -30 22 20 11 86 -8 86 -25 0 -7 4 -6 10 3 6 10
5 17 -5 23 -28 15 -15 24 45 31 33 4 62 11 65 16 4 6 17 10 30 10 13 0 27 5
30 10 3 6 15 10 27 10 26 0 78 37 78 56 0 16 -8 17 -31 4z m-242 -196 c-3 -3
-12 -4 -19 -1 -8 3 -5 6 6 6 11 1 17 -2 13 -5z"/>
<path d="M6770 4110 c-13 -8 -13 -10 2 -10 9 0 20 5 23 10 8 13 -5 13 -25 0z"/>
<path d="M6418 4053 c7 -3 16 -2 19 1 4 3 -2 6 -13 5 -11 0 -14 -3 -6 -6z"/>
<path d="M14105 4040 c3 -5 8 -10 11 -10 2 0 4 5 4 10 0 6 -5 10 -11 10 -5 0
-7 -4 -4 -10z"/>
<path d="M365 4030 c3 -5 10 -10 16 -10 5 0 9 5 9 10 0 6 -7 10 -16 10 -8 0
-12 -4 -9 -10z"/>
<path d="M7095 3990 c-3 -5 3 -10 15 -10 12 0 18 5 15 10 -3 6 -10 10 -15 10
-5 0 -12 -4 -15 -10z"/>
<path d="M480 3980 c0 -5 5 -10 11 -10 5 0 7 5 4 10 -3 6 -8 10 -11 10 -2 0
-4 -4 -4 -10z"/>
<path d="M8894 3955 c19 -14 36 -12 36 6 0 5 -12 9 -27 9 -27 -1 -27 -1 -9
-15z"/>
<path d="M747 3948 c2 -5 13 -8 23 -8 10 0 21 3 23 8 3 4 -8 7 -23 7 -15 0
-26 -3 -23 -7z"/>
<path d="M400 3924 c0 -8 5 -12 10 -9 6 4 8 11 5 16 -9 14 -15 11 -15 -7z"/>
<path d="M6760 3932 c0 -15 11 -21 27 -15 12 5 12 7 1 14 -17 11 -28 11 -28 1z"/>
<path d="M830 3900 c38 -32 63 -39 54 -15 -6 15 -58 45 -78 45 -6 0 5 -14 24
-30z"/>
<path d="M619 3857 c7 -7 14 -8 21 -1 6 6 2 10 -12 11 -16 2 -18 -1 -9 -10z"/>
<path d="M911 3854 c0 -11 3 -14 6 -6 3 7 2 16 -1 19 -3 4 -6 -2 -5 -13z"/>
<path d="M7321 3859 c-89 -17 -67 -29 45 -23 60 3 111 8 113 9 1 2 0 8 -4 14
-7 13 -90 13 -154 0z"/>
<path d="M720 3834 c0 -8 5 -12 10 -9 6 4 8 11 5 16 -9 14 -15 11 -15 -7z"/>
<path d="M7104 3809 c-3 -6 -2 -15 4 -21 12 -12 43 -7 43 7 1 14 -39 26 -47
14z"/>
<path d="M795 3790 c-3 -5 -1 -10 4 -10 6 0 11 5 11 10 0 6 -2 10 -4 10 -3 0
-8 -4 -11 -10z"/>
<path d="M7998 3693 c7 -3 16 -2 19 1 4 3 -2 6 -13 5 -11 0 -14 -3 -6 -6z"/>
<path d="M1010 3680 c0 -5 7 -10 15 -10 8 0 15 5 15 10 0 6 -7 10 -15 10 -8 0
-15 -4 -15 -10z"/>
<path d="M1539 3233 c-4 -25 5 -72 18 -96 14 -27 16 -28 33 -12 15 14 16 22 8
53 -5 20 -17 43 -26 50 -18 14 -31 16 -33 5z"/>
<path d="M1247 3149 c-7 -27 -1 -39 19 -39 17 0 17 1 0 34 -13 26 -14 26 -19
5z"/>
<path d="M1387 3089 c-4 -16 -11 -20 -24 -15 -10 4 -3 -7 15 -24 32 -29 70
-38 105 -24 33 12 -11 66 -65 79 -20 5 -26 2 -31 -16z"/>
<path d="M3982 3012 c-33 -21 25 -63 65 -47 17 6 17 7 1 16 -10 6 -18 17 -18
24 0 16 -27 20 -48 7z"/>
<path d="M2470 2962 c0 -12 19 -26 26 -19 2 2 -2 10 -11 17 -9 8 -15 8 -15 2z"/>
<path d="M1553 2823 c-18 -3 -24 -13 -29 -44 -5 -31 -11 -39 -28 -39 -11 0
-27 -4 -35 -9 -9 -6 -22 -4 -37 5 -15 10 -24 12 -29 5 -3 -6 -21 -11 -38 -11
-18 0 -48 -10 -67 -21 -22 -14 -51 -21 -82 -21 -34 0 -48 -4 -48 -14 0 -9 -11
-14 -31 -14 -31 0 -31 0 -23 -37 4 -21 7 -54 7 -73 -1 -22 1 -30 7 -21 7 12
18 12 70 1 34 -7 68 -19 75 -27 8 -7 16 -13 17 -13 10 4 58 -22 54 -29 -7 -10
28 -44 36 -35 4 3 36 -11 73 -31 65 -35 68 -35 94 -19 14 9 36 27 49 40 18 18
34 22 80 22 65 0 132 -14 132 -28 0 -14 76 -34 96 -26 16 6 16 8 4 16 -8 6
-24 10 -35 10 -11 1 -36 15 -55 32 l-35 30 30 -7 c35 -8 57 -24 49 -36 -7 -12
10 -11 40 2 20 10 30 8 59 -10 19 -11 41 -21 49 -21 19 0 47 -32 33 -37 -5 -2
-17 -8 -25 -13 -13 -9 -12 -13 9 -30 27 -23 41 -18 41 14 0 48 46 59 129 29
52 -18 104 -12 95 11 -3 8 -1 17 5 21 6 3 11 22 11 41 0 49 -35 78 -151 124
-52 20 -186 82 -299 138 -114 56 -213 102 -222 102 -8 0 -21 7 -28 15 -7 8
-15 14 -19 14 -3 -1 -16 -4 -28 -6z m-273 -163 c0 -5 -5 -10 -11 -10 -5 0 -7
5 -4 10 3 6 8 10 11 10 2 0 4 -4 4 -10z m50 -95 c7 -8 9 -15 6 -15 -4 0 -14 7
-22 15 -9 8 -11 15 -6 15 5 0 15 -7 22 -15z m84 -1 c4 -10 1 -14 -6 -12 -15 5
-23 28 -10 28 5 0 13 -7 16 -16z"/>
<path d="M2450 2799 c0 -63 -52 -132 -100 -134 -13 0 -16 -8 -11 -33 0 -5 27
-26 59 -48 31 -21 59 -42 60 -46 2 -5 24 -8 48 -8 24 0 52 -4 62 -9 39 -21
132 -61 142 -61 6 0 40 -10 75 -22 35 -13 67 -19 71 -15 4 4 3 23 -3 42 -7 22
-7 35 -1 35 5 0 6 5 3 10 -4 6 -2 17 5 25 8 9 8 19 1 32 -5 10 -12 26 -15 36
-3 9 -16 21 -28 26 -13 5 -39 27 -59 48 -65 69 -87 83 -128 83 -35 0 -73 21
-111 60 -3 3 -20 6 -37 7 -30 2 -33 0 -33 -28z"/>
<path d="M3263 2777 c-3 -5 0 -14 6 -20 8 -8 11 -7 12 4 1 7 4 3 8 -10 4 -16
17 -28 35 -32 16 -5 33 -14 37 -21 15 -24 20 1 8 41 -9 31 -18 41 -38 45 -37
6 -61 4 -68 -7z"/>
<path d="M2880 2731 c0 -17 5 -33 10 -36 14 -9 12 -53 -2 -58 -10 -3 -10 -8
-2 -18 14 -18 17 -69 4 -69 -6 0 -10 -4 -10 -10 0 -5 6 -10 14 -10 20 0 32
-20 40 -62 6 -32 4 -38 -10 -38 -13 0 -14 -3 -4 -14 6 -8 18 -12 26 -9 8 3 14
1 14 -5 0 -6 -6 -12 -12 -15 -8 -2 -1 -10 15 -17 15 -7 27 -17 27 -22 0 -4 6
-8 13 -8 7 0 19 -16 27 -35 8 -19 17 -35 22 -35 4 0 22 -13 40 -28 18 -16 49
-37 68 -48 19 -10 37 -21 40 -24 14 -15 81 -41 129 -50 64 -12 71 -7 71 58 0
50 -30 98 -123 196 -31 33 -63 76 -69 94 -7 17 -16 32 -20 32 -4 0 -8 6 -8 14
0 8 -16 33 -35 56 -19 23 -38 52 -41 65 -4 16 -21 30 -54 44 -27 12 -53 21
-58 21 -5 0 -29 13 -53 30 -24 16 -47 30 -51 30 -5 0 -8 -13 -8 -29z"/>
<path d="M2630 2295 c0 -16 16 -20 24 -6 3 5 -1 11 -9 15 -9 3 -15 0 -15 -9z"/>
<path d="M980 2121 c-8 -6 -18 -7 -22 -4 -5 2 -24 -7 -43 -21 -18 -14 -38 -26
-44 -26 -6 0 -11 -4 -11 -10 0 -5 5 -10 10 -10 7 0 7 -6 0 -20 -7 -14 -7 -20
0 -20 5 0 10 -6 10 -13 0 -7 10 -17 22 -22 12 -6 30 -24 39 -42 23 -41 47 -64
84 -83 17 -8 42 -25 58 -39 31 -28 39 -31 120 -36 32 -3 63 -7 68 -10 5 -4 9
1 9 10 0 30 -20 53 -50 60 -16 4 -30 11 -30 16 0 5 -4 9 -10 9 -12 0 -130 74
-152 96 -17 17 -15 40 3 29 5 -4 9 -1 9 4 0 6 -5 11 -10 11 -6 0 -9 10 -7 23
2 12 2 16 0 10 -9 -28 -25 -12 -19 18 6 32 -1 79 -13 79 -3 0 -13 -4 -21 -9z
m20 -31 c0 -5 -4 -10 -10 -10 -5 0 -10 5 -10 10 0 6 5 10 10 10 6 0 10 -4 10
-10z m-87 -67 c-7 -2 -19 -2 -25 0 -7 3 -2 5 12 5 14 0 19 -2 13 -5z"/>
<path d="M1318 2103 c-22 -5 -24 -23 -3 -23 8 0 15 -8 15 -18 0 -9 13 -23 29
-30 16 -7 41 -24 56 -38 25 -23 37 -26 109 -27 79 -2 81 -1 94 26 7 15 10 36
7 47 -7 21 -15 23 -165 38 -52 5 -96 15 -98 21 -4 11 -14 12 -44 4z"/>
<path d="M3073 2045 c0 -14 2 -25 6 -25 3 0 22 -14 41 -30 26 -22 30 -30 18
-30 -10 0 -18 -4 -18 -9 0 -5 -3 -17 -7 -27 -4 -11 -3 -15 4 -11 6 4 14 -1 17
-10 6 -15 8 -15 17 -3 8 11 12 12 16 3 8 -21 20 -15 28 14 4 19 9 23 14 14 6
-9 19 -11 38 -7 26 6 30 11 29 39 -1 29 -4 32 -35 35 -20 2 -37 -2 -43 -10 -5
-8 -6 -3 -2 15 4 19 2 27 -8 27 -7 0 -21 9 -31 20 -11 13 -29 20 -51 20 -29 0
-33 -3 -33 -25z"/>
<path d="M1955 1970 c-3 -5 -15 -10 -27 -10 -17 0 -18 -2 -8 -15 7 -8 20 -15
30 -15 20 0 53 33 43 43 -10 10 -31 8 -38 -3z"/>
<path d="M740 1656 c0 -8 5 -18 11 -22 19 -11 -61 -75 -80 -64 -17 8 -69 14
-108 11 -31 -2 -29 -17 5 -29 l27 -10 -27 -1 c-14 -1 -28 5 -31 12 -3 9 -11 9
-37 0 -36 -14 -53 -8 -95 31 -17 16 -38 24 -58 24 -18 0 -50 2 -72 6 -31 6
-36 5 -23 -4 10 -6 18 -17 18 -25 0 -7 12 -16 28 -18 15 -3 2 -5 -28 -6 -80
-2 -110 -5 -110 -12 0 -4 -11 -10 -25 -13 -32 -8 -32 -26 0 -26 17 0 25 6 25
17 0 15 1 15 18 0 10 -9 34 -20 53 -23 20 -4 50 -21 71 -43 82 -79 119 -98
162 -81 12 4 29 4 38 -1 11 -6 20 -4 28 6 23 28 81 16 73 -16 -3 -10 -1 -19 4
-19 6 0 21 -9 34 -20 13 -11 29 -24 34 -28 6 -5 21 -5 32 -1 12 4 38 5 57 2
28 -4 36 -10 36 -26 0 -28 13 -13 16 19 4 32 22 55 43 52 9 -1 22 1 28 5 8 5
17 -3 26 -25 l14 -33 16 36 c12 29 13 47 5 83 -5 25 -15 46 -22 46 -7 0 -18
11 -24 24 -6 13 -24 30 -40 37 -21 9 -28 18 -24 31 3 14 -4 22 -27 31 -29 11
-38 32 -13 32 20 0 23 13 4 19 -11 4 -23 13 -26 21 -7 19 -36 19 -36 1z m-265
-194 c-7 -7 -37 10 -42 25 -2 5 7 14 19 20 20 9 23 7 26 -14 2 -14 1 -28 -3
-31z m55 -7 c16 -31 10 -38 -21 -26 -17 7 -19 10 -6 10 18 1 25 21 7 21 -5 0
-10 5 -10 10 0 18 17 10 30 -15z m267 -127 c-3 -8 -6 -5 -6 6 -1 11 2 17 5 13
3 -3 4 -12 1 -19z"/>
<path d="M592 1621 c4 -13 18 -16 19 -4 0 4 -5 9 -11 12 -7 2 -11 -2 -8 -8z"/>
<path d="M2505 1370 c3 -5 12 -10 20 -10 8 0 17 5 20 10 4 6 -5 10 -20 10 -15
0 -24 -4 -20 -10z"/>
<path d="M960 1345 c0 -8 8 -15 18 -15 23 0 42 -19 36 -34 -9 -23 32 -46 86
-49 35 -1 55 -7 58 -16 3 -10 -1 -12 -17 -8 -14 3 -21 1 -18 -6 4 -15 107 -22
107 -8 0 17 -64 70 -92 76 -15 4 -26 12 -25 18 1 6 -22 16 -53 22 -30 5 -65
16 -77 23 -20 11 -23 10 -23 -3z"/>
<path d="M3185 1340 c-3 -5 -1 -10 4 -10 6 0 11 5 11 10 0 6 -2 10 -4 10 -3 0
-8 -4 -11 -10z"/>
<path d="M3200 1308 c0 -5 18 -8 40 -8 22 0 40 2 40 4 0 2 -18 6 -40 8 -22 2
-40 0 -40 -4z"/>
<path d="M3360 1279 c0 -5 18 -9 40 -9 22 0 40 3 40 8 0 4 -18 8 -40 8 -22 1
-40 -2 -40 -7z"/>
<path d="M2280 1270 c0 -5 5 -10 11 -10 5 0 7 -5 4 -11 -4 -5 -17 -9 -30 -7
-12 1 -30 -3 -39 -11 -9 -7 -29 -11 -46 -9 -37 6 -38 1 -4 -12 27 -11 28 -36
1 -34 -8 1 -18 -7 -20 -17 -4 -13 0 -19 11 -20 11 0 12 -2 5 -6 -7 -2 -13 -11
-13 -18 0 -7 -6 -15 -12 -18 -7 -2 -1 -2 14 0 14 2 29 -1 33 -6 3 -6 15 -11
26 -11 10 0 19 -4 19 -9 0 -10 92 -57 133 -66 32 -8 36 5 7 23 -11 7 -20 22
-20 35 0 13 -5 28 -12 35 -22 22 9 14 52 -13 22 -14 47 -25 55 -25 9 0 14 -4
10 -9 -3 -5 -1 -12 5 -16 16 -10 11 -43 -7 -48 -11 -3 -8 -5 9 -6 15 -1 31 6
36 15 8 14 12 13 33 -9 13 -13 41 -30 62 -37 23 -7 37 -18 37 -28 1 -14 68
-68 75 -60 1 2 5 16 9 31 4 19 3 26 -4 22 -11 -7 -13 5 -4 29 4 11 14 13 36 9
27 -5 29 -4 20 13 -5 10 -7 24 -5 30 2 7 -11 17 -29 23 -18 7 -49 22 -68 35
-19 12 -52 28 -72 35 -21 7 -38 17 -38 22 0 5 -7 9 -15 9 -9 0 -27 7 -40 16
-14 9 -25 13 -25 9 0 -4 -7 -1 -16 6 -9 7 -26 18 -38 24 -14 7 -20 20 -19 36
1 13 -1 18 -3 12 -3 -7 -13 -13 -22 -13 -15 0 -15 2 -2 11 12 8 9 9 -12 5 -18
-4 -28 -2 -28 5 0 11 -39 48 -52 49 -5 0 -8 -4 -8 -10z"/>
<path d="M1693 1135 c-18 -20 -16 -62 3 -69 10 -4 14 -12 10 -22 -10 -26 5
-63 27 -70 12 -4 25 -11 29 -17 4 -6 24 -10 45 -8 129 10 209 0 217 -27 3 -10
20 -26 38 -36 l31 -19 28 31 c25 28 27 35 17 57 -7 16 -19 25 -35 25 -13 0
-23 6 -23 15 0 23 -36 36 -107 40 -36 1 -68 7 -72 13 -3 5 -17 13 -31 17 -14
4 -34 15 -45 25 -31 26 -91 60 -106 60 -8 -1 -20 -7 -26 -15z m282 -155 c3 -6
-4 -10 -17 -10 -18 0 -20 2 -8 10 19 12 18 12 25 0z"/>
<path d="M2408 983 c6 -2 18 -2 25 0 6 3 1 5 -13 5 -14 0 -19 -2 -12 -5z"/>
<path d="M1978 923 c7 -3 16 -2 19 1 4 3 -2 6 -13 5 -11 0 -14 -3 -6 -6z"/>
<path d="M1790 910 c0 -5 5 -10 11 -10 5 0 7 5 4 10 -3 6 -8 10 -11 10 -2 0
-4 -4 -4 -10z"/>
<path d="M2408 653 c6 -2 18 -2 25 0 6 3 1 5 -13 5 -14 0 -19 -2 -12 -5z"/>
<path d="M3264 649 c-7 -12 12 -29 34 -29 15 0 16 12 0 28 -15 15 -25 15 -34
1z"/>
<path d="M0 591 c0 -6 4 -11 9 -11 5 0 11 -10 13 -22 2 -15 11 -24 27 -26 22
-4 23 -3 8 18 -19 28 -57 55 -57 41z"/>
<path d="M80 515 c0 -11 35 -45 47 -45 7 0 13 -7 13 -15 0 -8 7 -15 15 -15 29
0 16 24 -32 58 -32 22 -43 26 -43 17z"/>
<path d="M2020 365 c0 -8 8 -15 18 -16 26 -2 -44 -19 -118 -30 -81 -11 -160
-31 -160 -40 0 -3 -18 -9 -40 -13 -31 -5 -40 -11 -40 -26 0 -11 -6 -20 -13
-20 -7 0 -19 -6 -26 -12 -7 -7 -33 -13 -59 -13 -35 0 -47 -4 -47 -15 0 -10 -8
-14 -22 -12 -12 2 -24 -2 -28 -8 -12 -20 6 -66 33 -84 15 -9 45 -30 67 -46 39
-29 43 -29 168 -30 115 0 150 7 115 24 -7 3 0 3 17 0 16 -3 33 -11 37 -17 6
-9 8 -9 8 1 0 6 7 12 15 12 8 0 15 -4 15 -9 0 -4 23 -9 51 -10 l50 -1 -3 38
c-2 29 -7 37 -23 37 -12 0 -22 -9 -26 -25 -5 -16 -7 -19 -8 -7 -1 9 -7 26 -13
37 -10 15 -10 22 0 32 9 9 12 8 12 -6 0 -9 5 -14 10 -11 6 3 10 14 10 24 0 18
31 61 44 61 8 0 38 32 52 56 8 13 9 26 3 37 -7 12 -4 19 9 26 11 6 22 7 26 4
3 -3 6 -1 6 5 0 6 -9 14 -20 17 -11 4 -18 11 -15 16 4 5 0 9 -8 9 -8 0 -17 6
-20 13 -7 19 -77 22 -77 2z"/>
<path d="M2845 330 c4 -6 11 -8 16 -5 14 9 11 15 -7 15 -8 0 -12 -5 -9 -10z"/>
<path d="M2730 313 c-24 -5 -70 -46 -70 -63 0 -5 -9 -12 -20 -15 -26 -8 -25
-25 1 -54 14 -14 27 -20 38 -16 9 4 33 9 54 11 20 2 50 13 66 25 29 21 29 22
16 60 -8 22 -11 39 -7 40 11 1 -32 18 -43 17 -5 0 -21 -3 -35 -5z"/>
<path d="M2888 313 c7 -3 16 -2 19 1 4 3 -2 6 -13 5 -11 0 -14 -3 -6 -6z"/>
<path d="M2938 303 c6 -2 18 -2 25 0 6 3 1 5 -13 5 -14 0 -19 -2 -12 -5z"/>
<path d="M1500 186 c0 -2 7 -7 16 -10 8 -3 12 -2 9 4 -6 10 -25 14 -25 6z"/>
<path d="M3750 10 c0 -5 5 -10 10 -10 6 0 10 5 10 10 0 6 -4 10 -10 10 -5 0
-10 -4 -10 -10z"/>
<path d="M3800 10 c0 -5 7 -10 15 -10 8 0 15 5 15 10 0 6 -7 10 -15 10 -8 0
-15 -4 -15 -10z"/>
</g>
</svg>
