<?xml version="1.0" standalone="no"?>
<!DOCTYPE svg PUBLIC "-//W3C//DTD SVG 20010904//EN"
 "http://www.w3.org/TR/2001/REC-SVG-20010904/DTD/svg10.dtd">
<svg version="1.0" xmlns="http://www.w3.org/2000/svg"
 width="1600.000000pt" height="1066.000000pt" viewBox="0 0 1600.000000 1066.000000"
 preserveAspectRatio="xMidYMid meet">

<g transform="translate(0.000000,1066.000000) scale(0.100000,-0.100000)"
fill="#000000" stroke="none">
<path d="M0 5330 l0 -5330 2456 0 c2322 0 2458 1 2470 18 12 16 13 16 19 0 4
-10 13 -18 21 -18 9 0 14 18 17 58 l3 57 2 -57 c2 -52 4 -58 23 -58 19 0 21 4
17 33 -3 17 1 46 8 62 l12 30 10 -25 c6 -15 6 -32 1 -42 -5 -9 -9 -26 -9 -37
0 -18 6 -21 48 -21 44 0 46 1 22 13 -30 15 -37 41 -20 73 16 29 38 38 56 23
18 -15 7 -31 -16 -24 -30 10 -34 -24 -4 -35 14 -6 28 -19 31 -30 5 -20 28 -20
5419 -20 l5414 0 0 5330 0 5330 -4365 0 -4365 0 1 -77 c1 -80 -15 -168 -34
-180 -7 -4 -8 0 -3 12 13 35 24 141 19 193 -4 40 -9 52 -22 52 -15 0 -17 -13
-17 -87 0 -90 -17 -173 -35 -173 -6 0 -8 4 -5 8 13 21 27 152 21 200 -5 41
-10 52 -24 52 -13 0 -20 -10 -25 -37 -8 -54 -7 -141 3 -186 5 -20 5 -39 1 -42
-22 -14 -39 170 -21 233 l10 32 -108 0 c-70 0 -111 -4 -119 -12 -9 -9 -12 -9
-12 0 0 9 -38 12 -140 12 l-139 0 -3 -116 -3 -117 -32 -3 c-39 -4 -53 15 -53
74 0 58 18 100 43 104 16 2 23 11 25 31 l3 27 -3300 0 -3301 0 0 -5330z m6458
5203 l-3 -118 -37 -3 c-35 -3 -37 -1 -42 30 -3 18 -7 50 -8 70 -3 30 -6 36
-18 28 -10 -6 -17 -31 -20 -71 -3 -39 -10 -64 -18 -67 -10 -3 -13 15 -11 83 2
82 3 87 26 96 32 12 33 12 33 -6 0 -19 16 -20 23 -1 3 8 16 16 29 18 13 2 24
9 24 16 1 6 2 19 3 27 0 8 6 15 11 15 7 0 10 -42 8 -117z m54 1 c-2 -60 -6
-112 -9 -117 -12 -19 -20 8 -18 60 2 32 3 84 4 116 1 42 5 57 14 54 9 -3 11
-32 9 -113z m-343 75 c8 -14 11 -34 7 -44 -6 -17 -8 -17 -28 4 -19 21 -22 21
-36 7 -20 -19 -21 -121 -3 -139 10 -9 17 -6 35 16 12 15 25 27 29 27 22 0 -11
-83 -37 -93 -19 -8 -57 3 -50 14 3 5 1 9 -5 9 -5 0 -13 25 -16 55 -10 75 -29
66 -35 -16 -4 -50 -9 -65 -22 -67 -15 -3 -18 4 -18 42 0 43 -11 59 -25 36 -3
-5 -15 -10 -26 -10 -10 0 -19 -7 -19 -15 0 -12 7 -14 26 -9 23 6 25 4 22 -16
-5 -33 -33 -48 -59 -32 -18 11 -24 11 -38 -2 -26 -24 -41 -1 -41 64 0 62 -6
76 -27 59 -10 -9 -17 -8 -28 1 -9 7 -15 8 -15 2 0 -5 11 -17 25 -26 29 -19 35
-75 9 -100 -18 -18 -60 -21 -69 -6 -4 7 -11 8 -18 1 -20 -16 -84 -24 -92 -11
-5 8 -10 8 -20 0 -24 -20 -35 -1 -35 62 0 75 -13 68 -20 -10 -4 -42 -9 -57
-20 -57 -11 0 -16 16 -20 60 -6 69 -17 63 -18 -9 0 -51 -12 -73 -32 -61 -17
11 -6 153 13 172 8 8 37 16 66 18 41 3 54 0 63 -14 10 -16 12 -16 34 6 30 30
48 29 72 -4 l21 -28 9 26 c13 33 35 42 59 24 26 -21 32 -19 41 17 11 44 28 45
42 3 11 -34 13 -35 30 -20 29 26 61 15 75 -25 l12 -35 8 38 c7 34 10 37 40 37
26 0 35 5 41 23 18 59 67 73 93 26z m921 2 c5 -11 10 -33 10 -49 0 -25 -4 -29
-25 -29 -33 0 -38 -6 -30 -33 6 -20 8 -21 26 -4 22 20 38 11 23 -13 -20 -33
-42 -39 -58 -18 -18 24 -21 104 -4 140 13 30 43 33 58 6z m230 -2 c0 -11 -4
-17 -10 -14 -5 3 -10 13 -10 21 0 8 5 14 10 14 6 0 10 -9 10 -21z m-461 -11
c11 -29 3 -42 -15 -27 -11 9 -18 9 -26 1 -8 -8 -4 -14 16 -23 31 -15 43 -51
27 -85 -13 -30 -56 -33 -71 -5 -13 26 -13 31 5 31 8 0 15 -4 15 -10 0 -5 7
-10 15 -10 23 0 18 34 -7 45 -42 18 -31 105 13 105 11 0 23 -10 28 -22z m51
-68 c0 -53 -4 -90 -10 -90 -11 0 -14 162 -3 173 12 13 13 7 13 -83z m100 75
c0 -9 -11 -38 -25 -65 -24 -47 -24 -50 -6 -50 19 0 35 -23 24 -34 -4 -3 -21
-6 -40 -6 -40 0 -42 14 -13 79 24 53 24 51 0 51 -19 0 -27 20 -13 33 3 4 21 7
40 7 23 0 33 -5 33 -15z m-300 -15 c14 -26 3 -45 -16 -29 -11 9 -18 9 -26 1
-7 -7 -1 -15 21 -26 22 -12 31 -24 31 -40 0 -35 -10 -55 -32 -67 -23 -13 -48
4 -48 32 0 20 15 25 25 9 9 -14 25 -12 25 3 0 8 -11 20 -25 27 -18 9 -25 22
-25 42 0 59 47 91 70 48z m-1280 -41 c-3 -13 -5 -79 -5 -147 0 -130 -11 -155
-35 -82 -15 44 -21 48 -41 24 -9 -12 -24 -15 -51 -11 -21 3 -41 1 -44 -5 -4
-6 -25 -8 -53 -4 -25 4 -55 8 -66 9 -11 2 -29 -3 -40 -10 -24 -16 -50 -17 -75
-1 -15 10 -22 9 -39 -6 -39 -35 -79 -6 -94 69 -2 11 -7 -1 -11 -27 -5 -27 -9
-48 -10 -49 0 0 -28 -3 -61 -5 -33 -3 -64 -9 -70 -13 -12 -10 -116 -8 -132 2
-15 9 -53 3 -84 -13 -14 -8 -41 -10 -71 -7 -36 5 -56 2 -73 -9 -18 -12 -27
-12 -49 -3 -20 9 -32 9 -51 1 -40 -19 -64 -14 -77 13 -13 29 -34 33 -42 7 -7
-20 -37 -26 -47 -9 -4 5 -4 39 -1 76 5 72 23 103 56 99 12 -1 39 2 60 6 25 6
45 5 56 -2 12 -7 25 -6 49 5 24 12 37 13 54 5 29 -14 107 -22 107 -12 0 5 10
10 23 12 16 2 23 11 25 32 3 27 6 28 40 22 20 -3 44 -6 53 -6 9 0 19 -9 22
-20 5 -18 8 -19 31 -9 20 9 32 9 52 0 22 -9 25 -16 19 -40 -7 -33 15 -85 39
-94 24 -9 39 19 33 62 -6 49 14 81 51 81 15 0 42 4 60 9 27 8 36 6 51 -10 18
-19 18 -19 36 1 21 23 57 26 75 5 8 -9 17 -11 28 -6 48 25 102 34 129 22 14
-7 29 -8 32 -3 13 19 41 20 65 1 l25 -20 7 28 c10 42 24 65 37 60 7 -2 10 -14
7 -28z m844 15 c3 -9 6 -48 6 -89 l0 -72 -37 -6 c-42 -7 -53 2 -53 48 0 22 9
37 32 57 18 14 29 30 25 34 -4 4 -13 2 -19 -4 -17 -17 -28 -15 -28 6 0 38 61
60 74 26z m-1119 -24 c-5 -8 -11 -8 -17 -2 -6 6 -7 16 -3 22 5 8 11 8 17 2 6
-6 7 -16 3 -22z m2165 -64 c0 -49 -15 -52 -17 -5 -2 21 2 39 7 39 6 0 10 -15
10 -34z m-555 -21 c0 -10 -6 -20 -12 -22 -8 -3 -13 5 -13 22 0 17 5 25 13 23
6 -3 12 -13 12 -23z m-1143 -352 c37 -43 32 -180 -8 -220 -37 -37 -60 -18 -67
54 -8 76 1 137 25 162 23 26 31 26 50 4z m-592 -51 c0 -5 -7 -9 -15 -9 -8 0
-15 4 -15 9 0 4 7 8 15 8 8 0 15 -4 15 -8z m174 -17 c6 -25 7 -25 36 -10 23
12 35 13 51 5 17 -10 19 -18 14 -50 -4 -23 -2 -41 4 -45 16 -9 13 -47 -4 -72
-13 -19 -25 -22 -78 -21 -34 0 -65 5 -68 11 -4 5 -16 0 -28 -12 -25 -25 -48
-27 -71 -6 -15 13 -20 13 -46 1 -33 -16 -104 -24 -121 -13 -7 5 -24 0 -38 -9
-39 -26 -71 -12 -83 36 -10 42 2 120 19 120 5 0 9 7 9 15 0 18 32 20 62 4 14
-8 23 -8 31 0 14 14 134 14 142 0 5 -6 13 -2 22 11 13 18 23 21 53 17 32 -4
40 -1 51 19 16 31 35 31 43 -1z m491 5 c10 -16 -16 -43 -28 -31 -11 11 -2 41
12 41 5 0 13 -5 16 -10z m-997 -29 c8 -4 12 -23 11 -42 -1 -19 -1 -64 -1 -101
0 -50 -3 -68 -15 -72 -8 -3 -18 -4 -22 -1 -14 8 -23 196 -10 211 13 16 19 17
37 5z m788 -12 c14 -23 -32 -45 -83 -40 -14 1 -18 33 -6 44 11 11 81 8 89 -4z
m-1096 -39 c27 15 56 12 74 -6 20 -20 21 -73 1 -101 -10 -14 -12 -24 -5 -28
36 -22 -19 -70 -66 -56 -22 6 -36 4 -50 -6 -20 -15 -78 -10 -100 8 -6 5 -26 1
-49 -11 -47 -24 -55 -24 -80 -6 -16 11 -17 17 -7 29 10 12 10 24 0 61 -11 40
-10 50 4 74 20 32 55 39 97 18 21 -11 31 -12 33 -4 6 18 79 36 106 26 14 -5
31 -4 42 2z m1088 -52 c-2 -19 -10 -24 -42 -26 -24 -2 -42 2 -47 9 -13 22 11
39 53 39 35 0 39 -2 36 -22z m212 -13 c0 -14 -4 -25 -9 -25 -12 0 -23 29 -15
41 10 18 24 9 24 -16z m2130 -535 c-13 -23 -17 -220 -6 -239 10 -15 -1 -28
-13 -15 -24 24 -9 274 16 274 11 0 11 -4 3 -20z m-117 -125 c0 -61 -5 -103
-16 -130 l-17 -40 8 45 c4 25 7 94 6 154 0 80 2 102 10 85 5 -13 9 -64 9 -114z
m-250 90 c-7 -21 -13 -19 -13 6 0 11 4 18 10 14 5 -3 7 -12 3 -20z m-147 -82
c7 -56 1 -111 -18 -175 -18 -62 -26 -43 -11 25 15 60 13 176 -2 222 -6 19 -6
19 9 1 8 -10 18 -43 22 -73z m-67 11 c-11 -59 -8 -173 6 -206 4 -10 3 -18 -3
-18 -12 0 -32 86 -32 138 1 55 25 160 35 150 3 -2 0 -31 -6 -64z m-229 26 c0
-11 -4 -20 -10 -20 -5 0 -10 9 -10 20 0 11 5 20 10 20 6 0 10 -9 10 -20z m440
-75 c0 -47 -4 -85 -9 -85 -6 0 -8 23 -6 53 2 28 4 67 5 85 0 17 2 32 5 32 3 0
5 -38 5 -85z m186 25 c8 0 14 -7 14 -15 0 -8 -7 -15 -15 -15 -11 0 -15 -11
-15 -36 0 -19 -4 -33 -9 -29 -5 3 -8 17 -5 31 4 20 0 27 -16 31 -26 7 -26 23
0 30 14 4 20 15 22 37 l1 31 4 -32 c3 -20 10 -33 19 -33z m-101 -10 c24 0 28
-21 6 -27 -16 -4 -21 -14 -23 -42 l-1 -36 -4 34 c-3 22 -11 35 -24 38 -25 7
-24 23 1 30 14 4 20 15 22 37 l1 31 4 -32 c3 -19 10 -33 18 -33z m-817 -67
l-3 -118 -36 -2 c-42 -4 -49 9 -49 92 1 54 20 91 44 82 15 -6 26 12 26 44 0
10 5 19 11 19 7 0 10 -38 7 -117z m642 92 c0 -8 -4 -17 -10 -20 -6 -4 -10 5
-10 20 0 15 4 24 10 20 6 -3 10 -12 10 -20z m-751 -92 c-3 -115 -6 -133 -20
-133 -10 0 -12 223 -2 233 20 20 25 -2 22 -100z m569 95 c14 -14 16 -92 2 -83
-11 7 -50 -11 -50 -23 0 -4 5 -14 10 -22 9 -13 12 -12 25 4 20 26 31 12 17
-20 -27 -59 -76 -1 -68 80 7 68 34 94 64 64z m-620 -110 l-3 -112 -33 -10
c-18 -5 -35 -6 -39 -3 -14 15 -20 103 -9 137 9 28 17 36 39 38 20 2 27 8 23
18 -7 17 3 44 15 44 6 0 8 -48 7 -112z m542 92 c0 -12 -9 -38 -20 -60 -11 -22
-20 -44 -20 -50 0 -5 9 -10 20 -10 27 0 25 -26 -2 -34 -65 -17 -71 -2 -33 74
30 59 30 60 5 60 -22 0 -28 25 -7 33 31 13 57 7 57 -13z m-148 -15 c6 -14 8
-28 3 -33 -4 -4 -10 -1 -12 6 -6 17 -33 15 -33 -3 0 -8 4 -15 9 -15 19 0 41
-32 41 -59 0 -49 -49 -68 -74 -29 -14 22 -1 34 19 18 21 -17 46 3 27 22 -7 7
-12 8 -12 4 0 -5 -7 -3 -15 4 -21 18 -20 86 3 99 25 15 31 13 44 -14z m58 -59
c0 -47 -4 -88 -10 -91 -6 -4 -10 27 -10 84 0 54 4 91 10 91 6 0 10 -35 10 -84z
m-748 57 c20 -18 25 -63 7 -63 -7 0 -17 8 -24 17 -11 15 -15 15 -29 4 -18 -15
-22 -116 -6 -141 9 -13 14 -11 33 13 26 31 37 34 37 11 0 -25 -31 -72 -51 -77
-27 -7 -56 32 -63 86 -7 46 -21 61 -32 33 -5 -14 -9 -43 -13 -103 0 -13 -8
-23 -15 -23 -12 0 -15 16 -14 73 0 68 10 108 26 106 33 -5 52 4 58 26 6 25 38
55 58 55 5 0 18 -7 28 -17z m546 -20 c3 -23 -12 -31 -23 -13 -7 12 -25 4 -25
-11 0 -5 11 -15 25 -21 33 -15 42 -51 21 -83 -20 -30 -51 -33 -66 -6 -5 11
-10 22 -10 25 0 11 28 6 32 -6 5 -13 28 -2 28 13 0 5 -11 15 -25 21 -20 9 -25
18 -25 48 0 20 6 42 12 48 20 20 53 10 56 -15z m-348 -25 c0 -6 -6 -19 -14
-27 -8 -9 -16 -43 -18 -75 -2 -37 -8 -61 -16 -64 -10 -3 -12 16 -10 85 2 59 7
88 15 88 6 0 15 3 19 7 9 9 24 0 24 -14z m-494 1 c8 -14 9 -207 1 -216 -4 -3
-13 0 -22 7 -11 9 -15 29 -14 69 1 31 0 61 -2 66 -2 6 0 27 4 48 8 37 20 47
33 26z m402 -1 c7 -7 12 -42 12 -89 l0 -77 -36 -7 c-26 -4 -40 -2 -46 7 -15
22 1 72 29 95 15 12 24 25 20 29 -3 4 -13 1 -21 -5 -22 -19 -31 6 -12 34 18
27 36 31 54 13z m-292 -72 c7 -41 0 -56 -27 -56 -11 0 -22 -7 -26 -15 -8 -23
2 -28 27 -15 19 10 21 9 18 -11 -2 -12 -12 -28 -23 -35 -18 -12 -24 -11 -44 2
-21 15 -23 23 -19 82 3 52 8 68 27 83 30 25 58 10 67 -35z m1273 27 c0 -25 -1
-25 -8 -8 -5 11 -7 23 -4 28 8 14 13 7 12 -20z m-1451 -5 c7 -7 12 -21 12 -31
0 -16 -5 -18 -27 -12 l-28 6 33 -31 c28 -25 33 -35 27 -58 -13 -53 -50 -68
-87 -35 -16 14 -18 15 -18 0 0 -18 -5 -22 -42 -31 -17 -4 -32 -1 -41 9 -13 13
-16 13 -27 0 -22 -27 -30 -16 -30 44 0 33 -4 62 -9 65 -9 6 -21 -49 -21 -96 0
-18 -5 -28 -15 -28 -12 0 -15 13 -15 60 0 33 -4 60 -10 60 -5 0 -10 -24 -10
-52 0 -57 -11 -85 -29 -74 -12 8 -15 144 -3 163 11 17 114 34 130 21 6 -6 12
-30 12 -54 0 -24 2 -44 4 -44 6 0 66 57 66 63 0 2 -11 2 -25 -1 -30 -5 -32 11
-5 38 24 24 34 25 54 4 11 -10 16 -34 16 -67 l0 -52 35 -1 c23 0 35 4 35 13 0
7 -6 13 -13 13 -8 0 -22 9 -32 20 -38 42 23 128 63 88z m-580 -10 c-6 -18 -28
-21 -28 -4 0 9 7 16 16 16 9 0 14 -5 12 -12z m-192 -13 c12 -8 24 -28 28 -46
5 -27 8 -30 21 -19 11 9 19 10 27 2 14 -14 1 -33 -20 -30 -12 2 -18 -12 -27
-61 -8 -40 -19 -69 -30 -78 -25 -17 -29 -17 -51 8 -12 14 -19 40 -22 85 -4 54
0 72 19 109 13 25 26 45 29 45 3 0 15 -7 26 -15z m1734 -20 c0 -14 -4 -25 -10
-25 -5 0 -10 11 -10 25 0 14 5 25 10 25 6 0 10 -11 10 -25z m2345 -3 c0 -18
-20 -15 -23 4 -3 10 1 15 10 12 7 -3 13 -10 13 -16z m-92 -14 c-4 -13 -8 -74
-8 -136 0 -130 -18 -151 -23 -26 -5 109 5 184 24 184 12 0 13 -6 7 -22z m143
-24 c8 -41 -1 -143 -13 -155 -4 -4 -8 37 -8 92 0 101 9 128 21 63z m-3766 16
c0 -6 -11 -21 -25 -34 -31 -29 -31 -37 0 -66 25 -23 25 -40 0 -40 -7 0 -20 6
-27 13 -7 7 -21 16 -30 20 -28 10 -21 48 14 84 31 32 68 44 68 23z m3490 -90
c0 -100 0 -101 -27 -111 -22 -8 -30 -7 -40 7 -28 39 -7 154 28 154 14 0 19 7
19 25 0 14 5 25 10 25 6 0 10 -40 10 -100z m-3662 13 c-3 -65 -6 -78 -20 -81
-15 -3 -18 4 -18 46 0 70 10 112 27 112 11 0 13 -16 11 -77z m3520 -30 l-3
-108 -27 -3 c-22 -3 -30 2 -38 23 -5 14 -10 42 -10 61 0 59 -25 35 -28 -27 -5
-89 -22 -83 -22 9 0 81 0 82 25 82 14 0 25 -6 25 -12 0 -7 5 -5 11 5 5 9 19
17 29 17 16 0 20 7 20 30 0 17 5 30 10 30 7 0 10 -38 8 -107z m49 5 c-3 -57
-6 -105 -6 -107 -1 -3 -6 0 -12 6 -8 8 -9 41 -4 107 10 132 29 126 22 -6z
m-4179 62 c7 -19 7 -41 1 -62 -5 -18 -6 -54 -3 -79 3 -26 2 -49 -2 -52 -5 -3
-30 -3 -57 0 l-47 6 0 51 c0 37 -3 47 -10 36 -5 -8 -10 -32 -10 -53 0 -31 -5
-39 -25 -47 -15 -6 -35 -6 -52 0 -27 10 -28 12 -25 76 3 50 8 67 20 71 10 3
36 14 59 25 26 11 53 16 68 12 15 -4 25 -2 25 4 0 13 28 42 40 42 4 0 13 -13
18 -30z m4489 -92 c-2 -24 -4 -5 -4 42 0 47 2 66 4 43 2 -24 2 -62 0 -85z
m-4723 85 c-15 -23 -18 -47 -17 -144 0 -104 -1 -116 -16 -112 -25 6 -45 84
-37 146 11 86 25 127 40 121 8 -3 17 -1 21 5 3 6 11 11 17 11 6 0 2 -12 -8
-27z m4118 -8 c14 -32 4 -43 -21 -21 -15 13 -20 14 -29 3 -17 -20 -25 -89 -13
-119 12 -31 36 -29 46 3 9 27 24 14 18 -14 -9 -33 -23 -47 -48 -47 -26 0 -31
9 -40 74 -10 64 -28 53 -40 -25 -6 -35 -13 -59 -16 -54 -9 15 2 155 11 150 5
-3 11 -1 15 4 3 6 12 8 20 4 9 -3 15 1 15 9 0 23 30 58 51 58 11 0 24 -11 31
-25z m466 1 c3 -15 0 -18 -17 -13 -27 7 -29 -18 -2 -32 40 -22 30 -91 -14 -91
-19 0 -25 5 -25 21 0 16 4 19 20 14 11 -4 20 -2 20 4 0 6 -9 16 -20 23 -37 23
-20 103 20 96 8 -2 16 -12 18 -22z m92 -48 c0 -42 -4 -68 -9 -62 -8 8 -3 134
5 134 2 0 4 -32 4 -72z m-5002 19 c4 -30 13 -33 42 -15 15 10 27 10 50 1 22
-8 38 -8 60 0 42 16 59 -1 40 -40 -7 -16 -16 -50 -19 -78 -5 -44 -9 -50 -31
-53 -14 -2 -39 -10 -57 -19 -29 -15 -33 -15 -57 0 -14 10 -40 16 -58 15 l-33
-3 1 97 c1 101 12 132 43 126 9 -2 17 -15 19 -31z m670 -53 c-2 -53 -6 -69
-18 -69 -20 0 -28 134 -8 146 22 14 29 -6 26 -77z m162 76 c12 -7 12 -13 4
-27 -15 -24 -70 -35 -85 -17 -16 19 -5 42 23 47 38 7 42 7 58 -3z m3353 -47
c3 -16 1 -34 -5 -40 -9 -11 -8 -79 3 -112 2 -7 -1 -15 -7 -18 -12 -4 -25 135
-17 180 6 32 19 27 26 -10z m345 20 c5 -10 8 -29 7 -43 -2 -14 -4 -43 -4 -65
-1 -37 -3 -40 -30 -42 -23 -2 -30 3 -35 22 -8 30 1 53 25 66 11 5 19 16 19 24
0 18 -17 20 -23 3 -2 -7 -8 -10 -12 -6 -12 11 12 58 29 58 9 0 19 -8 24 -17z
m-725 -40 c-5 -16 -8 -81 -8 -145 0 -124 -12 -134 -22 -18 -6 71 12 190 29
190 4 0 5 -12 1 -27z m454 15 c6 -7 13 -26 17 -41 6 -25 3 -30 -24 -40 -18 -7
-30 -19 -30 -29 0 -20 26 -25 33 -5 2 6 8 9 12 5 11 -10 -2 -37 -20 -44 -28
-11 -45 15 -45 70 0 70 32 116 57 84z m-558 -31 c-2 -36 1 -43 11 -27 9 13 12
12 25 -4 17 -23 21 -156 5 -156 -6 0 -10 28 -10 65 0 49 -3 65 -14 65 -19 0
-26 -22 -26 -86 0 -34 -4 -54 -11 -54 -8 0 -10 18 -5 61 3 34 6 86 6 116 0 36
4 52 11 48 5 -4 9 -17 8 -28z m425 1 c5 -9 7 -21 3 -25 -5 -4 -12 -1 -17 7 -8
12 -11 13 -22 2 -11 -11 -8 -17 15 -34 29 -21 35 -53 14 -82 -18 -25 -51 -17
-55 14 -3 20 -1 23 9 13 7 -7 19 -13 26 -13 22 0 15 27 -12 44 -27 18 -32 45
-14 77 12 23 37 22 53 -3z m-3300 6 c22 -8 20 -31 -3 -44 -28 -14 -67 -12 -80
4 -10 12 -7 18 16 30 31 17 44 19 67 10z m3204 -6 c15 -15 17 -158 2 -158 -5
0 -10 6 -10 13 0 8 -3 8 -9 -2 -5 -8 -16 -11 -26 -8 -26 10 -17 79 13 92 12 5
22 18 22 27 0 23 -16 23 -29 1 -9 -16 -10 -16 -11 -1 0 43 23 61 48 36z
m-2968 -11 c0 -7 -6 -22 -14 -33 -14 -18 -15 -18 -21 -1 -4 9 -5 24 -1 32 7
18 36 20 36 2z m2847 4 c25 21 43 -8 42 -70 -1 -85 -17 -111 -18 -28 -1 53 -4
67 -16 67 -10 0 -15 -10 -15 -34 0 -18 -3 -49 -7 -67 -7 -31 -8 -28 -13 29 -3
34 -9 62 -15 63 -5 0 -15 -31 -21 -68 l-12 -68 -1 87 c-1 71 2 86 13 82 8 -3
17 0 21 6 5 8 10 9 18 1 7 -7 14 -7 24 0z m-503 -108 c-6 -99 -10 -124 -16
-112 -8 12 5 219 13 219 6 0 7 -41 3 -107z m149 80 c3 -16 1 -50 -5 -77 -8
-36 -7 -54 3 -72 13 -25 6 -45 -10 -28 -8 8 -16 124 -12 182 2 31 18 28 24 -5z
m-343 -29 c0 -31 2 -35 15 -24 8 6 19 9 25 5 11 -7 14 -165 2 -165 -4 0 -6 27
-4 60 2 47 -1 62 -13 66 -9 4 -17 5 -19 3 -4 -5 -15 -84 -15 -116 -1 -13 -6
-23 -11 -23 -6 0 -8 21 -6 53 3 28 5 80 6 115 0 34 4 62 10 62 6 0 10 -16 10
-36z m434 10 c3 -9 6 -23 6 -32 -1 -16 -2 -15 -14 1 -7 9 -16 17 -20 17 -13 0
-27 -54 -21 -82 8 -33 25 -37 32 -8 5 20 23 28 23 10 0 -44 -50 -79 -64 -44
-10 25 -7 114 4 135 13 23 46 25 54 3z m1401 -13 c-3 -12 -10 -21 -15 -21 -5
0 -4 11 2 25 13 29 23 26 13 -4z m-2077 -37 l4 -29 -22 23 c-20 21 -24 22 -38
9 -19 -20 -28 -108 -13 -135 13 -24 37 -20 46 9 8 25 25 24 25 -1 0 -22 -41
-70 -59 -70 -6 0 -18 14 -27 32 -24 47 -15 160 16 194 21 21 26 23 44 10 12
-7 22 -26 24 -42z m522 37 c5 -11 10 -33 10 -50 0 -25 -4 -30 -27 -33 -30 -3
-37 -16 -23 -38 9 -13 12 -13 24 3 15 20 26 22 26 5 0 -16 -30 -48 -45 -48
-30 0 -42 97 -19 145 18 39 38 45 54 16z m-140 -20 c5 -11 10 -31 10 -45 0
-19 -6 -26 -30 -31 -30 -7 -37 -19 -21 -43 6 -10 10 -10 21 3 7 8 16 15 21 15
16 0 10 -19 -12 -41 -19 -19 -23 -19 -36 -6 -24 23 -28 89 -8 131 19 40 39 46
55 17z m-202 -13 c15 -15 16 -48 2 -48 -5 0 -10 5 -10 11 0 6 -5 9 -12 7 -18
-6 -28 -57 -17 -86 l10 -27 19 25 c18 23 20 23 19 5 0 -43 -49 -74 -63 -39
-12 31 -6 120 10 142 17 25 25 27 42 10z m-557 -48 c15 -48 4 -142 -19 -168
-9 -10 -32 -22 -49 -25 l-33 -6 0 97 c0 123 5 140 39 144 40 5 50 -1 62 -42z
m149 31 c0 -11 5 -23 10 -26 7 -4 6 -13 -1 -27 -7 -13 -9 -45 -6 -85 6 -58 -2
-79 -19 -52 -8 13 -12 143 -6 182 5 31 22 37 22 8z m320 0 c5 -11 10 -49 10
-84 0 -64 0 -65 -32 -71 -35 -7 -48 4 -48 41 0 21 34 63 52 63 4 0 8 7 8 15 0
8 -7 15 -15 15 -8 0 -15 -4 -15 -10 0 -5 -4 -10 -10 -10 -15 0 -12 27 6 44 20
21 31 20 44 -3z m-592 -113 c-2 -92 -6 -113 -18 -113 -8 0 -21 -4 -29 -9 -18
-11 -41 18 -42 53 -3 80 10 121 41 121 12 0 21 10 25 30 4 17 11 30 16 30 6 0
9 -46 7 -112z m372 81 c6 -11 10 -49 8 -84 -3 -64 -3 -64 -37 -70 -37 -7 -42
-5 -43 21 -3 35 12 74 28 74 17 0 29 24 19 41 -6 8 -10 7 -17 -5 -14 -26 -29
-9 -16 19 14 30 43 32 58 4z m-152 -88 c2 -69 0 -83 -11 -78 -8 3 -19 1 -25
-5 -8 -8 -16 -8 -27 2 -25 20 -18 59 16 91 17 16 27 33 24 39 -5 8 -13 6 -26
-6 -18 -16 -19 -16 -19 2 0 27 20 45 45 42 18 -3 20 -12 23 -87z m-808 -83 c0
-148 -6 -175 -34 -165 -13 5 -15 11 -7 25 5 10 11 67 12 127 1 90 -1 109 -15
117 -10 6 -16 5 -16 -2 0 -5 -7 -10 -16 -10 -9 0 -14 7 -12 18 2 9 11 17 20
17 9 0 20 4 24 8 4 4 16 7 26 7 17 0 18 -11 18 -142z m490 120 c0 -6 -7 -19
-16 -29 -9 -10 -18 -44 -21 -78 -9 -92 -23 -73 -23 30 0 76 2 90 15 86 8 -4
17 -2 20 4 8 11 25 2 25 -13z m-596 3 c3 -5 -1 -22 -9 -37 -18 -35 -21 -205
-4 -236 15 -28 -10 -45 -29 -20 -17 22 -7 283 11 294 16 10 25 10 31 -1z m500
-7 c12 -11 16 -35 16 -88 l0 -73 -37 -6 c-62 -10 -74 45 -21 94 23 22 28 33
20 41 -8 8 -13 7 -18 -5 -8 -23 -24 -21 -24 2 0 11 10 27 22 35 27 19 23 19
42 0z m-86 -36 c4 -30 -6 -36 -26 -16 -25 25 -44 -48 -22 -82 9 -13 12 -13 21
3 13 22 29 22 29 0 0 -41 -63 -72 -74 -35 -16 54 -17 91 -2 126 13 32 20 37
43 34 22 -2 29 -9 31 -30z m-641 -8 c5 -30 6 -30 17 -9 14 28 29 27 36 -2 7
-28 23 -34 40 -14 17 20 33 19 54 -4 21 -23 12 -44 -15 -36 -26 9 -24 -3 6
-27 50 -39 18 -117 -43 -105 -16 3 -34 1 -40 -5 -6 -6 -18 -8 -26 -5 -12 5
-16 22 -16 74 0 86 -18 73 -22 -17 -5 -106 -23 -76 -26 44 -1 61 0 116 2 123
9 23 26 14 33 -17z m271 -95 c-2 -52 -7 -80 -15 -83 -10 -3 -13 18 -13 81 0
46 3 87 7 91 16 16 24 -16 21 -89z m222 66 c0 -13 -10 -20 -31 -25 -49 -10
-59 -7 -59 13 0 14 8 21 28 24 56 8 62 7 62 -12z m-552 -107 l-3 -78 -33 -10
c-25 -7 -36 -5 -50 7 -16 14 -19 14 -41 -9 -28 -29 -46 -30 -68 -4 -16 19 -17
19 -39 -5 -13 -14 -30 -25 -38 -25 -24 0 -46 41 -46 87 0 43 -12 57 -24 27 -3
-9 -6 -38 -6 -65 0 -42 -3 -49 -20 -49 -18 0 -20 7 -20 64 0 36 5 77 10 92 9
23 14 26 45 21 23 -4 38 -1 46 9 16 20 35 17 60 -8 15 -16 23 -19 26 -10 7 19
33 42 48 42 8 0 23 -9 33 -20 l19 -21 6 22 c11 43 32 14 35 -50 4 -75 22 -73
22 3 0 51 16 84 32 68 5 -5 8 -44 6 -88z m552 31 c0 -17 -7 -20 -58 -29 -24
-4 -34 -2 -39 10 -8 21 14 34 60 34 27 0 37 -4 37 -15z m-1458 -47 c2 -5 17
-2 34 8 37 21 61 14 75 -23 15 -39 6 -119 -17 -144 -15 -17 -26 -20 -58 -15
-26 5 -42 3 -47 -6 -6 -9 -13 -9 -32 -1 -19 9 -28 8 -38 -2 -17 -16 -56 -21
-86 -11 -15 5 -31 2 -45 -8 -65 -46 -109 5 -74 88 8 18 10 39 6 46 -20 32 26
68 62 49 12 -7 36 -12 53 -13 28 -1 30 -4 36 -46 l6 -45 1 42 c2 40 30 83 54
83 4 0 8 6 8 14 0 33 50 20 62 -16z m278 23 c5 -11 10 -47 10 -80 0 -63 -21
-101 -54 -101 -9 0 -16 -12 -18 -27 -2 -17 -10 -29 -20 -31 -16 -3 -18 7 -18
105 1 108 7 133 40 146 29 11 49 7 60 -12z m175 -11 c12 -20 -17 -40 -56 -40
-40 0 -50 15 -27 38 15 15 74 16 83 2z m-2 -76 c16 -16 -15 -44 -48 -44 -36 0
-50 12 -41 35 5 15 76 22 89 9z m663 -241 c-22 -116 -24 -210 -5 -246 7 -13 6
-19 -7 -24 -27 -10 -33 16 -29 131 4 127 11 166 32 166 11 0 13 -8 9 -27z
m-137 -30 c24 -85 6 -250 -28 -261 -11 -4 -12 2 -5 29 5 19 9 87 8 152 -1 120
7 145 25 80z m-129 -12 c0 -27 12 -32 48 -21 39 11 49 -2 28 -35 -9 -14 -16
-45 -16 -74 0 -46 -8 -62 -35 -67 -5 -1 -18 -5 -27 -9 -23 -9 -39 24 -37 82 1
26 0 53 -2 58 -2 6 0 27 4 48 8 39 37 53 37 18z m-170 -25 l0 -34 40 15 c37
15 41 15 60 -2 39 -35 20 -160 -26 -171 -13 -3 -24 -12 -24 -19 0 -8 -5 -26
-11 -42 -8 -22 -12 -24 -19 -13 -6 8 -10 27 -10 42 0 23 -4 27 -22 25 -22 -2
-23 1 -26 102 -3 115 0 131 23 131 10 0 15 -10 15 -34z m-50 -72 c0 -91 -10
-134 -30 -134 -11 0 -14 213 -3 223 3 4 12 7 20 7 10 0 13 -23 13 -96z m-465
-35 c0 -50 -3 -64 -15 -64 -11 0 -16 14 -18 54 -4 61 3 84 21 78 8 -2 12 -25
12 -68z m278 44 c17 -16 19 -17 28 -1 5 10 16 15 24 12 11 -5 15 -23 15 -67 0
-71 20 -68 25 4 2 24 4 50 4 57 1 6 8 12 16 12 12 0 15 -16 15 -81 l0 -80 -37
-16 c-36 -14 -38 -14 -56 8 l-18 22 -6 -22 c-10 -39 -28 -16 -33 42 -6 74 -24
74 -28 0 -3 -54 -15 -78 -34 -67 -4 3 -8 38 -8 78 0 74 9 94 50 109 22 8 22 8
43 -10z m-629 -22 c6 -10 -9 -220 -17 -227 -2 -2 -25 -1 -50 2 l-47 7 0 64 c0
43 4 62 11 58 6 -4 13 2 16 14 3 12 9 21 13 21 5 0 12 10 16 23 12 42 44 62
58 38z m109 -27 c-8 -100 -5 -186 5 -196 9 -9 12 9 12 79 0 84 2 93 22 107 35
25 73 20 86 -9 27 -59 8 -141 -38 -169 -17 -9 -30 -25 -30 -35 0 -23 -33 -33
-66 -21 -16 6 -27 22 -35 52 -20 77 4 236 35 225 6 -2 10 -17 9 -33z m356 -8
c16 -19 -12 -46 -48 -46 -40 0 -58 24 -32 42 26 18 66 20 80 4z m0 -80 c14
-17 -4 -33 -47 -42 -24 -5 -33 -2 -38 10 -14 37 58 65 85 32z m-115 -57 c-8
-14 -34 -11 -34 4 0 8 3 17 7 20 9 9 34 -13 27 -24z m235 -270 l11 -31 26 21
c20 15 31 18 45 11 27 -15 31 -27 17 -49 -7 -11 -9 -23 -5 -27 13 -13 55 14
59 37 4 29 28 37 28 10 0 -14 8 -23 25 -27 29 -7 52 8 68 46 9 23 11 23 14 5
3 -11 15 -28 26 -38 l22 -17 -22 -19 c-13 -11 -23 -26 -23 -35 0 -26 -19 -28
-26 -1 -11 43 -84 26 -84 -20 0 -33 -18 -32 -30 1 -11 29 -33 28 -39 -2 -6
-37 -33 -56 -70 -50 -19 3 -41 0 -48 -6 -10 -8 -18 -7 -31 6 -17 15 -20 14
-40 -9 -23 -27 -51 -32 -70 -13 -8 8 -15 8 -25 0 -7 -6 -22 -11 -32 -11 -11 0
-36 -3 -55 -6 -19 -3 -47 -5 -61 -5 -15 0 -32 -7 -39 -15 -33 -39 -80 5 -80
75 0 80 50 131 91 94 33 -30 18 -104 -21 -104 -11 0 -20 -4 -20 -10 0 -5 8
-10 18 -10 10 0 23 -5 29 -11 7 -7 15 0 27 26 14 29 15 42 6 70 -15 45 -7 55
41 55 41 0 46 -8 31 -52 -10 -27 5 -95 18 -82 5 5 10 38 12 74 3 61 5 65 28
68 14 2 33 11 42 19 17 15 31 14 71 -2 13 -6 17 -2 17 17 0 23 16 48 31 48 4
0 12 -14 18 -31z m381 11 c0 -11 -7 -20 -15 -20 -15 0 -21 21 -8 33 12 13 23
7 23 -13z m-550 -10 c0 -5 -7 -10 -15 -10 -8 0 -15 5 -15 10 0 6 7 10 15 10 8
0 15 -4 15 -10z m550 -112 c0 -7 -4 -19 -9 -26 -7 -11 -10 -10 -15 3 -10 26
-7 35 9 35 8 0 15 -6 15 -12z m-1049 -533 c1 -136 -11 -198 -37 -188 -9 3 -13
12 -8 22 17 41 21 85 14 162 -9 96 -5 118 16 97 9 -9 14 -41 15 -93z m-360
-581 c-1 -134 -7 -159 -37 -147 -11 4 -13 13 -8 37 4 17 7 68 5 114 -1 46 1
92 4 104 6 18 9 19 22 5 11 -11 15 -38 14 -113z m3019 -252 c0 -4 -5 -13 -11
-19 -12 -12 -16 -207 -4 -243 5 -16 4 -21 -6 -18 -19 6 -28 116 -17 202 4 37
11 72 14 77 7 11 24 12 24 1z m-129 -59 c15 -47 7 -176 -15 -223 -16 -34 -16
-34 -11 -5 13 74 17 193 7 228 -13 48 3 49 19 0z m-146 -44 c4 -16 2 -30 -4
-33 -14 -9 -15 -106 -1 -106 6 0 10 -7 10 -15 0 -8 -9 -15 -21 -15 -18 0 -20
6 -19 58 0 31 0 64 -1 72 -4 25 13 82 22 73 4 -4 11 -20 14 -34z m-155 6 c0
-8 -4 -15 -10 -15 -5 0 -10 7 -10 15 0 8 5 15 10 15 6 0 10 -7 10 -15z m248
-18 c3 -15 -1 -17 -22 -11 -35 8 -35 -18 -1 -34 18 -8 25 -19 25 -40 0 -56
-47 -82 -74 -40 -13 22 -1 35 18 19 16 -13 36 -7 36 10 0 5 -11 14 -25 19 -31
12 -37 58 -12 88 14 18 51 11 55 -11z m-159 -26 c12 -22 3 -35 -15 -20 -13 11
-34 5 -34 -11 0 -4 11 -11 24 -14 31 -8 41 -39 26 -77 -14 -32 -49 -40 -70
-14 -15 18 -3 42 13 26 16 -16 37 -13 37 4 0 9 -11 20 -25 25 -27 10 -34 45
-15 81 14 24 46 25 59 0z m-149 -46 c-12 -35 -10 -68 5 -107 5 -13 2 -18 -9
-18 -9 0 -16 7 -16 15 0 8 -4 15 -10 15 -5 0 -10 -6 -10 -14 0 -7 -7 -20 -17
-27 -15 -13 -15 -11 -8 16 10 41 11 106 1 128 -5 11 -4 17 4 17 7 0 19 -8 26
-17 11 -15 13 -16 14 -2 0 16 21 42 28 35 2 -3 -1 -21 -8 -41z m55 -32 c-7
-80 -10 -91 -21 -80 -10 10 7 157 18 157 7 0 8 -26 3 -77z m-149 33 c21 -33
15 -70 -13 -74 -29 -4 -44 -24 -33 -42 7 -12 12 -11 29 4 21 19 21 19 21 0 0
-44 -51 -60 -71 -23 -16 30 -6 115 16 139 23 26 31 25 51 -4z m-406 -57 c14
-56 9 -140 -10 -206 -16 -53 -34 -57 -23 -5 4 20 8 88 7 150 0 61 3 112 7 112
4 0 13 -23 19 -51z m-58 9 c-4 -18 -7 -84 -7 -146 0 -90 -2 -109 -12 -96 -28
38 -29 166 -2 242 14 42 31 41 21 0z m328 -13 c0 -17 -7 -20 -57 -29 -28 -5
-33 -2 -33 14 0 13 9 20 28 23 53 8 62 7 62 -8z m-580 -20 c0 -8 -4 -15 -10
-15 -5 0 -10 7 -10 15 0 8 5 15 10 15 6 0 10 -7 10 -15z m470 0 c0 -18 -14
-25 -56 -28 -37 -3 -40 24 -4 34 42 12 60 10 60 -6z m-280 -31 c18 -46 13 -64
-20 -70 -21 -5 -30 -12 -30 -25 0 -22 4 -23 31 -9 16 9 19 7 19 -10 0 -28 -43
-48 -65 -30 -21 17 -20 118 1 148 21 30 52 28 64 -4z m-90 -8 c0 -8 -9 -35
-20 -61 -25 -58 -25 -61 2 -68 33 -9 4 -37 -38 -37 -40 0 -43 13 -14 70 24 47
25 60 5 60 -18 0 -20 21 -3 38 17 17 68 15 68 -2z m476 -7 c9 -15 -5 -26 -48
-33 -35 -6 -38 -5 -38 15 0 12 3 20 6 17 3 -3 17 -2 32 2 38 11 40 11 48 -1z
m-883 -91 l-2 -84 35 -1 c37 -1 47 16 14 24 -24 6 -34 34 -25 73 8 36 48 51
72 27 21 -20 8 -39 -23 -31 -33 9 -30 -7 6 -28 32 -18 37 -41 18 -83 -8 -18
-19 -25 -39 -25 -15 0 -31 5 -34 10 -10 16 -23 12 -30 -9 -9 -29 -56 -35 -77
-9 -35 40 -16 153 27 164 15 4 25 15 29 36 3 18 11 28 18 25 9 -3 12 -28 11
-89z m305 10 c-2 -54 -7 -83 -15 -86 -10 -3 -13 17 -13 76 0 43 3 82 7 85 18
19 24 0 21 -75z m-50 43 c3 -21 1 -23 -22 -17 -34 8 -34 -11 -1 -26 19 -9 25
-19 25 -44 0 -54 -50 -85 -80 -49 -18 21 2 44 23 27 14 -12 27 -7 27 10 0 5
-11 13 -25 18 -19 7 -25 17 -25 40 0 48 17 72 48 68 20 -2 28 -9 30 -27z m522
10 c0 -17 -33 -31 -77 -31 -31 0 -8 35 27 41 19 4 38 7 43 8 4 0 7 -7 7 -18z
m-894 -104 c-2 -45 -5 -90 -5 -99 -1 -10 -8 -18 -16 -18 -12 0 -15 17 -15 96
0 100 14 153 32 120 5 -9 7 -54 4 -99z m-48 -8 c1 -57 -1 -109 -5 -116 -5 -6
-24 -14 -44 -18 -31 -6 -36 -4 -47 20 -7 14 -12 45 -12 68 0 36 -2 39 -14 27
-8 -8 -17 -39 -20 -68 -7 -63 -13 -75 -32 -68 -7 3 -16 1 -19 -3 -2 -5 -21
-12 -41 -15 -28 -6 -39 -3 -50 11 -13 17 -15 17 -24 1 -17 -28 -40 -48 -56
-48 -25 0 -53 38 -60 80 -9 57 -34 53 -35 -5 -1 -25 -3 -49 -4 -55 -1 -5 -3
-15 -4 -21 0 -6 -8 -8 -17 -5 -9 3 -31 -3 -50 -14 -27 -17 -37 -19 -54 -10
-18 10 -24 8 -35 -7 -13 -17 -14 -17 -36 2 -16 15 -23 16 -26 7 -11 -30 -37
-44 -72 -38 -25 4 -40 1 -54 -11 -13 -12 -33 -17 -68 -15 -64 2 -69 6 -69 50
0 28 -3 33 -10 22 -5 -8 -10 -27 -10 -42 0 -16 -2 -28 -4 -28 -2 0 -11 -3 -20
-6 -13 -5 -16 2 -16 36 0 25 -4 39 -10 35 -5 -3 -10 -24 -10 -45 0 -40 -14
-60 -32 -42 -16 16 -13 131 5 152 19 22 129 48 135 31 6 -18 30 -13 42 9 12
23 52 27 70 6 15 -19 36 -11 43 16 5 18 11 20 46 15 37 -5 40 -3 50 24 9 25
41 42 41 22 0 -5 4 -14 9 -22 7 -11 13 -10 35 4 23 15 30 16 51 5 21 -11 27
-11 43 3 10 10 28 17 40 17 15 0 28 12 42 40 24 48 61 62 90 35 26 -24 26 -55
1 -55 -11 0 -23 5 -26 10 -11 18 -32 -7 -40 -46 -13 -72 18 -124 45 -74 6 11
19 20 30 20 25 0 42 33 35 63 -11 43 43 75 73 45 9 -9 15 -10 20 -2 14 21 53
37 65 25 8 -8 18 -5 35 12 13 12 27 21 30 19 4 -1 11 12 15 29 4 17 13 29 20
26 8 -2 13 -37 15 -108z m317 -40 c0 -7 -8 -15 -17 -17 -18 -3 -25 18 -11 32
10 10 28 1 28 -15z m-1528 -101 c6 -8 6 -50 0 -115 l-10 -103 -33 -6 c-55 -10
-64 -1 -64 60 0 55 13 83 68 153 20 26 26 27 39 11z m117 -123 c1 -100 -1
-115 -15 -115 -20 0 -29 39 -29 120 0 52 25 129 37 116 3 -3 6 -57 7 -121z
m5973 23 c-3 -8 -6 -5 -6 6 -1 11 2 17 5 13 3 -3 4 -12 1 -19z m-117 -34 c0
-8 -4 -12 -10 -9 -5 3 -10 13 -10 21 0 8 5 12 10 9 6 -3 10 -13 10 -21z m-80
-6 c0 -16 -3 -19 -11 -11 -6 6 -8 16 -5 22 11 17 16 13 16 -11z m-80 -14 c0
-9 -7 -14 -17 -12 -10 1 -24 -1 -30 -5 -8 -5 -13 -3 -13 7 0 15 14 24 43 25 9
1 17 -6 17 -15z m160 -30 c0 -8 -4 -14 -10 -14 -5 0 -10 9 -10 21 0 11 5 17
10 14 6 -3 10 -13 10 -21z m-89 -37 c-18 -18 -23 -1 -9 29 13 28 13 28 16 5 2
-13 -1 -28 -7 -34z m-241 34 c0 -12 -20 -25 -27 -18 -7 7 6 27 18 27 5 0 9 -4
9 -9z m29 -48 c-1 -41 -2 -44 -8 -18 -7 28 -4 65 5 65 2 0 3 -21 3 -47z m168
5 c-3 -7 -5 -2 -5 12 0 14 2 19 5 13 2 -7 2 -19 0 -25z m-322 13 c7 -12 -12
-24 -25 -16 -11 7 -4 25 10 25 5 0 11 -4 15 -9z m-4340 -41 c7 -34 12 -34 23
-1 14 39 19 39 36 -1 9 -23 10 -37 3 -46 -5 -7 -7 -41 -5 -77 5 -58 4 -65 -12
-65 -23 0 -30 19 -30 88 0 41 -3 53 -10 42 -5 -8 -10 -43 -10 -78 0 -47 -3
-63 -12 -59 -9 3 -13 31 -13 98 0 115 17 169 30 99z m4272 -42 c-2 -13 -4 -3
-4 22 0 25 2 35 4 23 2 -13 2 -33 0 -45z m-4117 37 c18 -21 6 -45 -19 -38 -29
8 -26 -11 4 -25 20 -9 25 -19 25 -46 0 -35 -21 -66 -45 -66 -27 0 -45 13 -45
32 0 17 5 19 30 13 17 -4 30 -3 30 2 0 5 -13 19 -30 31 -35 26 -38 49 -9 86
23 29 41 33 59 11z m70 -11 c0 -8 -7 -14 -15 -14 -15 0 -21 21 -9 33 10 9 24
-2 24 -19z m3590 -13 c0 -6 -4 -13 -10 -16 -5 -3 -10 1 -10 9 0 9 5 16 10 16
6 0 10 -4 10 -9z m145 -11 c3 -6 -1 -13 -10 -16 -19 -8 -30 0 -20 15 8 14 22
14 30 1z m-4015 -84 c0 -66 -3 -77 -22 -90 -28 -20 -52 -20 -67 -2 -10 11 -17
9 -42 -16 -27 -28 -31 -29 -52 -15 -31 21 -28 42 6 40 36 -2 34 12 -4 31 -25
13 -31 13 -35 1 -3 -7 -19 -18 -36 -24 -31 -11 -30 -36 2 -26 27 9 34 -11 11
-34 -37 -37 -81 -3 -81 62 0 63 -24 40 -28 -26 -3 -49 -6 -57 -22 -57 -18 0
-20 7 -20 69 0 81 15 106 60 96 18 -4 31 -1 40 10 18 21 46 19 64 -6 14 -21
14 -21 30 9 20 39 52 50 71 25 23 -29 17 -39 -22 -34 -19 3 -16 -9 10 -30 32
-27 37 -24 37 25 0 46 16 69 31 45 5 -8 9 -35 9 -61 0 -47 12 -63 24 -32 3 9
6 35 6 58 0 24 3 46 7 49 17 18 23 1 23 -67z m4378 63 c-2 -6 -8 -10 -13 -10
-5 0 -11 4 -13 10 -2 6 4 11 13 11 9 0 15 -5 13 -11z m-711 -31 c4 -18 6 -36
5 -40 -1 -5 5 -8 13 -8 10 0 15 10 15 28 0 15 5 34 10 42 7 10 10 -12 10 -72
0 -53 -4 -89 -11 -94 -16 -9 -29 15 -29 54 0 21 -5 32 -14 32 -9 0 -16 -13
-19 -32 -2 -18 -5 2 -5 45 -2 80 13 105 25 45z m193 6 c0 -8 -5 -12 -10 -9 -6
4 -8 11 -5 16 9 14 15 11 15 -7z m165 -23 c3 -7 3 -16 0 -20 -11 -10 -40 16
-43 38 -3 20 -2 21 17 9 11 -7 23 -19 26 -27z m-415 -66 c0 -57 -4 -95 -10
-95 -6 0 -10 26 -10 58 0 57 9 132 16 132 2 0 4 -43 4 -95z m-85 23 c-5 -140
-4 -134 -29 -146 -32 -14 -46 1 -46 54 0 56 14 90 39 97 13 3 21 13 21 27 0
11 4 19 8 16 5 -3 8 -24 7 -48z m-3252 0 c-10 -21 -12 -21 -18 -5 -10 25 2 54
17 39 8 -8 8 -18 1 -34z m3665 31 c-2 -6 -8 -10 -13 -10 -5 0 -11 4 -13 10 -2
6 4 11 13 11 9 0 15 -5 13 -11z m-4403 -103 c0 -55 -4 -81 -12 -83 -10 -4 -13
11 -13 51 0 42 -4 56 -15 56 -10 0 -15 -15 -17 -57 -2 -46 -7 -59 -20 -61 -15
-3 -18 5 -18 52 0 31 -4 56 -10 56 -17 0 -30 -37 -30 -86 0 -43 -2 -46 -22
-41 -15 4 -30 0 -43 -12 -23 -22 -52 -28 -77 -16 -14 5 -18 19 -18 56 0 30 -4
49 -11 49 -8 0 -10 -16 -6 -52 8 -63 -3 -89 -27 -69 -9 8 -16 26 -16 42 0 32
-11 37 -30 15 -6 -8 -18 -12 -26 -9 -8 3 -14 0 -14 -7 0 -6 9 -14 20 -17 24
-6 25 -19 6 -39 -11 -10 -21 -12 -39 -5 -28 11 -37 29 -37 73 0 49 -25 27 -28
-24 -3 -49 -27 -83 -41 -59 -4 7 -7 39 -5 73 4 70 22 98 60 90 15 -3 32 2 44
13 13 12 27 15 50 10 28 -6 31 -4 41 24 11 32 36 41 45 17 3 -8 16 -17 29 -20
20 -5 24 -13 27 -54 3 -48 21 -62 26 -20 8 73 13 87 27 81 9 -3 27 3 43 13 15
10 40 20 55 21 16 2 36 7 45 13 9 5 26 9 37 7 18 -2 20 -9 20 -81z m4468 59
c-6 -17 -25 -15 -31 3 -2 7 5 12 17 12 14 0 19 -5 14 -15z m-73 -5 c0 -5 -4
-10 -10 -10 -5 0 -10 5 -10 10 0 6 5 10 10 10 6 0 10 -4 10 -10z m-500 -70 c0
-40 -4 -70 -10 -70 -10 0 -13 117 -3 133 10 17 13 3 13 -63z m-86 34 c12 -33
6 -55 -20 -64 -29 -11 -30 -47 -1 -42 23 4 22 -15 -1 -27 -13 -7 -23 -6 -30 1
-15 15 -16 103 -2 129 13 23 46 25 54 3z m-284 -17 c0 -18 5 -23 23 -23 21 1
22 -3 23 -67 1 -37 -2 -70 -7 -73 -5 -3 -9 20 -9 50 0 53 -11 78 -25 55 -4 -5
-9 -37 -12 -70 -3 -32 -10 -59 -15 -59 -6 0 -8 24 -4 58 3 31 5 78 5 105 1 26
6 47 11 47 6 0 10 -10 10 -23z m210 4 c0 -5 -7 -14 -15 -21 -10 -8 -15 -30
-15 -61 0 -26 -4 -51 -10 -54 -11 -7 -14 127 -3 138 9 10 43 8 43 -2z m-80
-20 c18 -34 12 -58 -15 -65 -17 -4 -25 -13 -25 -27 0 -16 5 -20 20 -16 22 6
23 5 14 -17 -9 -24 -43 -19 -53 7 -16 42 12 137 40 137 5 0 13 -9 19 -19z
m-181 -105 c-13 -83 -30 -97 -39 -30 -5 35 -6 37 -13 14 -3 -14 -7 -35 -7 -47
0 -14 -6 -23 -15 -23 -9 0 -15 9 -15 24 0 13 -3 44 -6 70 -5 31 -3 46 5 46 6
0 11 -15 11 -34 0 -19 5 -38 10 -41 6 -4 10 6 10 24 0 64 30 87 31 24 0 -31 2
-34 9 -18 5 11 11 33 15 49 12 57 15 17 4 -58z m-253 -3 c-3 -42 -6 -88 -6
-103 0 -22 -6 -29 -26 -34 -35 -9 -45 2 -47 56 -2 52 19 99 42 96 11 -2 17 6
19 30 2 17 8 32 14 32 7 0 9 -24 4 -77z m83 28 c12 -22 3 -35 -15 -20 -8 7
-14 7 -19 -1 -8 -13 3 -30 20 -30 23 0 29 -47 11 -75 -20 -30 -42 -32 -56 -5
-10 19 -9 21 16 18 35 -4 41 15 9 30 -29 13 -33 46 -9 80 19 27 30 28 43 3z
m-183 -63 c-10 -14 -16 -43 -16 -75 0 -29 -4 -53 -10 -53 -6 0 -10 31 -10 73
0 65 2 73 23 82 28 13 33 2 13 -27z m-68 3 c4 -11 6 -46 4 -78 -3 -55 -6 -60
-32 -70 -34 -13 -40 -9 -40 29 0 18 9 38 25 52 14 13 25 31 25 40 0 21 -9 20
-26 -1 -16 -22 -19 -1 -4 28 14 24 39 25 48 0z m-85 -31 c6 -25 -3 -33 -20
-18 -20 16 -33 -6 -33 -54 0 -41 14 -49 36 -20 13 16 13 16 14 -3 0 -47 -55
-63 -66 -20 -9 36 4 106 22 127 19 20 40 14 47 -12z m-268 -40 c8 7 19 9 25 5
14 -9 13 -155 -1 -155 -8 0 -10 17 -6 53 5 56 -5 90 -22 72 -5 -6 -11 -37 -13
-69 -2 -33 -8 -61 -14 -63 -7 -2 -9 27 -7 94 4 106 15 153 21 90 3 -31 6 -36
17 -27z m125 11 c18 -34 12 -56 -20 -68 -30 -11 -40 -36 -19 -48 6 -4 17 1 24
11 14 18 14 18 15 -3 0 -13 -9 -27 -22 -34 -18 -10 -24 -8 -35 7 -17 23 -17
76 1 119 17 39 40 45 56 16z m-192 -56 c3 -25 2 -27 -12 -16 -23 20 -36 4 -36
-45 0 -49 19 -60 38 -21 9 18 11 19 11 4 2 -53 -53 -80 -65 -31 -9 35 1 111
16 129 20 24 45 14 48 -20z m-325 -98 c-3 -56 -10 -106 -15 -112 -7 -7 -9 13
-5 57 6 83 -8 81 -17 -1 -6 -52 -19 -82 -30 -70 -2 2 -7 38 -10 79 -4 41 -9
77 -12 79 -2 2 -4 -35 -4 -82 0 -51 -4 -87 -10 -87 -6 0 -10 43 -10 110 0 61
2 110 4 110 2 0 11 3 20 6 13 5 16 -2 17 -32 0 -22 4 -59 8 -84 l7 -45 13 85
c13 80 25 105 43 94 4 -3 4 -51 1 -107z m237 21 c0 -66 -3 -79 -15 -75 -8 4
-17 2 -20 -3 -4 -6 -13 -10 -21 -10 -10 0 -14 12 -14 40 0 31 5 43 25 56 28
18 33 44 10 44 -8 0 -15 -4 -15 -10 0 -5 -4 -10 -10 -10 -16 0 -12 18 10 40
36 36 50 16 50 -72z m-96 40 c13 -22 1 -35 -19 -18 -12 10 -16 8 -25 -15 -5
-14 -10 -34 -10 -43 0 -22 20 -50 26 -37 20 45 41 46 24 1 -22 -58 -70 -37
-70 31 0 49 26 105 46 101 9 -2 22 -11 28 -20z m-294 -7 c13 -25 13 -131 0
-165 -5 -14 -21 -33 -36 -42 -26 -18 -27 -17 -46 7 -17 20 -20 34 -15 89 5 78
22 117 51 123 11 2 24 5 28 6 4 0 12 -8 18 -18z m720 -5 c0 -8 -4 -18 -10 -21
-5 -3 -10 3 -10 14 0 12 5 21 10 21 6 0 10 -6 10 -14z m-852 -18 c15 -19 11
-208 -5 -208 -8 0 -13 15 -13 41 0 36 -2 40 -22 37 -20 -3 -23 -10 -26 -50 -2
-27 -7 -48 -13 -48 -5 0 -9 47 -9 110 l0 109 33 10 c44 13 43 13 55 -1z m-108
-33 c0 -9 -12 -18 -30 -21 -25 -6 -30 -11 -30 -35 0 -26 3 -29 25 -23 21 5 25
3 25 -15 0 -14 -6 -21 -19 -21 -18 0 -38 -17 -40 -32 -1 -5 -1 -24 -1 -43 0
-19 -5 -35 -10 -35 -7 0 -10 40 -8 112 3 110 3 112 28 119 42 12 60 10 60 -6z
m-166 -84 c-4 -17 -11 -29 -18 -28 -15 3 -29 51 -16 55 6 2 10 10 10 19 0 13
2 13 15 0 10 -10 13 -25 9 -46z m-104 19 c0 -11 -6 -20 -14 -20 -21 0 -26 -23
-26 -116 0 -49 -4 -84 -10 -84 -6 0 -10 38 -10 95 0 88 -1 95 -20 95 -35 0
-22 28 18 38 55 15 62 14 62 -8z m-124 -36 c13 -19 14 -28 5 -37 -10 -9 -14
-8 -22 6 -6 9 -16 17 -24 17 -27 0 -47 -115 -26 -149 12 -18 41 -7 48 19 6 23
23 27 23 5 0 -45 -49 -89 -79 -71 -38 24 -30 182 10 217 30 26 45 24 65 -7z
m-118 -16 c-4 -12 -21 -23 -50 -32 -11 -3 -18 -15 -18 -31 0 -24 3 -26 31 -20
26 6 30 4 27 -11 -2 -10 -14 -21 -27 -24 -54 -13 -55 -74 -1 -64 26 6 30 4 30
-15 0 -11 -6 -21 -14 -21 -7 0 -28 -3 -45 -6 l-32 -7 3 114 c3 111 3 113 28
120 41 11 72 10 68 -3z m-2135 -156 c-2 -79 -7 -110 -18 -121 -13 -14 -15 -13
-15 6 0 12 4 33 10 48 7 17 6 48 -2 94 -12 73 -6 113 15 92 8 -8 11 -45 10
-119z m1957 37 l0 -91 30 6 c25 4 30 2 30 -14 0 -23 -5 -26 -53 -35 l-37 -7 0
109 c0 60 3 113 7 116 18 18 23 -1 23 -84z m-55 61 c0 -8 -15 -18 -32 -24 -25
-7 -33 -14 -33 -32 0 -20 5 -24 30 -24 38 0 40 -25 3 -35 -31 -7 -43 -21 -43
-48 0 -15 7 -18 37 -15 29 2 38 -1 41 -14 2 -12 -7 -20 -35 -27 -65 -18 -63
-22 -63 103 l0 114 38 10 c44 12 57 10 57 -8z m-137 -22 c14 -14 16 -58 3 -58
-5 0 -14 7 -21 15 -10 12 -16 13 -26 4 -23 -19 -16 -36 24 -56 42 -20 51 -47
31 -95 -11 -26 -42 -48 -69 -48 -14 0 -32 40 -26 57 6 14 9 14 26 -2 16 -15
22 -15 35 -5 24 20 17 40 -19 55 -38 16 -46 34 -35 85 11 50 50 75 77 48z
m-168 -74 c0 -21 -4 -33 -10 -29 -17 10 -11 65 7 65 2 0 3 -16 3 -36z m-30 -9
c0 -19 -4 -35 -10 -35 -5 0 -10 16 -10 35 0 19 5 35 10 35 6 0 10 -16 10 -35z
m-62 -62 c-7 -53 -7 -100 -1 -137 11 -62 3 -73 -18 -23 -18 42 -15 163 5 212
9 21 18 36 20 34 3 -2 0 -41 -6 -86z m-53 -6 c9 -34 1 -137 -10 -140 -5 -1
-11 23 -13 53 -6 99 -26 81 -34 -30 -4 -51 -23 -33 -23 22 -1 26 -4 51 -9 55
-13 14 -26 -21 -26 -74 0 -40 -4 -53 -15 -53 -12 0 -15 13 -15 60 0 33 -4 60
-8 60 -21 0 -32 -29 -32 -82 0 -46 -3 -58 -15 -58 -13 0 -15 13 -13 77 l3 77
45 13 c25 7 55 18 67 24 11 6 26 9 31 5 6 -3 13 -2 17 4 12 19 44 11 50 -13z
m-350 -99 c-7 -113 -12 -138 -26 -138 -18 0 -17 203 1 225 27 33 32 14 25 -87z
m113 32 c26 -51 -6 -150 -50 -150 -30 0 -47 29 -48 81 0 84 65 130 98 69z
m-398 -115 c0 -89 -2 -105 -16 -105 -13 0 -15 14 -13 93 2 79 10 117 25 117 2
0 4 -47 4 -105z m160 40 c0 -17 -30 -35 -59 -35 -26 0 -28 25 -3 39 26 16 62
13 62 -4z m4940 -16 c0 -6 -4 -7 -10 -4 -5 3 -10 11 -10 16 0 6 5 7 10 4 6 -3
10 -11 10 -16z m-5153 -86 c1 -55 -3 -93 -8 -93 -6 0 -7 -4 -4 -10 3 -6 -1 -7
-9 -4 -9 3 -16 10 -16 15 0 5 -11 9 -24 9 -14 0 -28 5 -32 11 -4 7 -17 1 -34
-16 -22 -21 -35 -26 -54 -21 -25 6 -37 35 -16 37 6 1 15 3 20 4 6 1 13 3 16 4
4 0 -5 12 -20 26 -29 27 -31 39 -14 77 15 32 47 43 67 24 16 -16 7 -36 -16
-36 -14 0 -14 -2 2 -20 20 -23 35 -18 35 12 0 11 9 33 21 50 17 23 27 29 53
26 l31 -3 2 -92z m5110 75 c-3 -8 -6 -5 -6 6 -1 11 2 17 5 13 3 -3 4 -12 1
-19z m-237 -12 c0 -3 -4 -8 -10 -11 -5 -3 -10 -1 -10 4 0 6 5 11 10 11 6 0 10
-2 10 -4z m-4663 -50 c-4 -9 -18 -16 -32 -16 -14 0 -28 0 -32 -1 -5 0 -9 7
-11 15 -2 10 8 18 30 24 37 10 54 2 45 -22z m4773 18 c0 -8 -5 -12 -10 -9 -6
4 -8 11 -5 16 9 14 15 11 15 -7z m-5276 -7 c16 -11 18 -26 15 -109 -4 -105
-20 -138 -66 -138 -26 0 -30 21 -8 44 18 17 19 26 4 26 -7 0 -18 8 -25 18 -13
16 -15 16 -28 0 -22 -30 -35 -20 -38 30 -4 64 -22 55 -26 -13 -3 -47 -6 -55
-22 -55 -12 0 -20 7 -20 18 -1 16 -1 16 -14 0 -23 -31 -36 -21 -36 26 0 78
-33 67 -43 -14 -3 -25 -6 -48 -6 -51 -1 -9 -50 -29 -71 -29 -10 0 -20 6 -23
13 -2 7 -15 0 -34 -20 -34 -36 -34 -36 -57 -27 -17 7 -22 34 -6 34 6 0 10 9
10 19 0 11 -4 23 -10 26 -13 8 -13 48 2 80 12 26 32 32 57 16 12 -8 13 -12 1
-26 -11 -13 -11 -20 0 -40 7 -14 19 -25 26 -25 20 0 25 30 9 53 -17 24 -10 66
13 84 13 10 19 10 33 -3 12 -11 24 -14 36 -8 27 11 66 12 85 0 13 -8 21 -5 37
16 30 37 68 44 90 16 l18 -22 17 31 c13 27 25 35 57 42 3 0 13 -5 23 -12z
m5086 -36 c0 -6 -4 -13 -10 -16 -5 -3 -10 1 -10 9 0 9 5 16 10 16 6 0 10 -4
10 -9z m187 -13 c-3 -8 -6 -5 -6 6 -1 11 2 17 5 13 3 -3 4 -12 1 -19z m-394
-32 c6 -15 -19 -30 -34 -20 -6 3 -5 11 2 20 15 18 25 18 32 0z m-93 -20 c0 -3
-4 -8 -10 -11 -5 -3 -10 -1 -10 4 0 6 5 11 10 11 6 0 10 -2 10 -4z m-244 -42
c-4 -14 0 -37 9 -54 21 -41 19 -87 -4 -100 -35 -18 -51 -12 -50 18 0 15 3 21
6 15 8 -21 33 -15 33 7 0 11 -7 20 -15 20 -18 0 -19 9 -3 76 7 29 16 50 21 47
5 -3 6 -16 3 -29z m257 -11 c9 -3 17 -11 17 -17 0 -8 12 -11 35 -8 38 5 41 1
23 -27 -11 -18 -12 -18 -42 0 -17 10 -39 19 -48 19 -10 0 -22 9 -28 19 -14 28
-13 34 8 26 9 -4 25 -10 35 -12z m-501 -60 c2 -10 0 -31 -5 -46 -5 -16 -7 -46
-3 -68 3 -22 2 -39 -3 -39 -5 0 -11 30 -13 68 -4 73 0 102 12 102 5 0 10 -8
12 -17z m-55 -30 c-3 -10 -5 -4 -5 12 0 17 2 24 5 18 2 -7 2 -21 0 -30z m133
31 c0 -4 -8 -13 -17 -20 -17 -12 -17 -14 5 -34 26 -25 27 -38 6 -68 -17 -25
-44 -29 -44 -7 0 8 9 15 20 15 26 0 25 15 -1 34 -18 12 -20 21 -15 50 5 27 12
36 26 36 11 0 20 -3 20 -6z m400 -4 c0 -5 -7 -10 -16 -10 -8 0 -12 5 -9 10 3
6 10 10 16 10 5 0 9 -4 9 -10z m-587 -178 c-35 -25 -48 -11 -50 56 0 34 3 62
8 62 5 0 9 -22 9 -50 0 -36 4 -50 14 -50 15 0 25 27 28 80 1 19 3 8 5 -25 3
-48 1 -62 -14 -73z m-83 104 c0 -7 -10 -16 -22 -20 l-23 -6 28 -22 c28 -24 31
-54 6 -84 -13 -16 -39 -19 -39 -4 0 6 -1 13 -2 17 -2 5 6 8 16 8 27 0 31 22 7
30 -38 12 -23 95 16 95 7 0 13 -6 13 -14z m-257 -66 c-2 -43 0 -50 11 -41 11
10 14 3 13 -37 -1 -41 -4 -50 -26 -60 -47 -22 -54 -17 -47 41 4 28 7 67 7 86
0 41 16 74 32 68 8 -3 11 -23 10 -57z m177 11 c0 -18 -7 -29 -22 -36 -31 -14
-38 -50 -9 -42 26 6 30 -20 5 -30 -43 -16 -59 78 -23 128 17 24 24 27 35 18 8
-6 14 -23 14 -38z m217 17 c-3 -8 -6 -5 -6 6 -1 11 2 17 5 13 3 -3 4 -12 1
-19z m-294 -4 c3 -4 0 -13 -8 -21 -9 -9 -15 -34 -15 -63 0 -27 -4 -52 -10 -55
-11 -7 -14 127 -3 138 8 9 28 9 36 1z m-353 -44 c0 -5 -4 -10 -10 -10 -5 0
-10 5 -10 10 0 6 5 10 10 10 6 0 10 -4 10 -10z m-87 -63 c4 7 14 10 22 6 11
-4 15 -23 15 -73 0 -38 -4 -72 -10 -75 -6 -4 -10 17 -10 54 0 35 -4 61 -10 61
-16 0 -21 -25 -29 -134 -1 -5 -4 -6 -8 -2 -8 8 -4 197 5 211 4 5 9 -6 12 -25
3 -22 8 -30 13 -23z m167 33 c0 -5 0 -13 0 -17 -1 -5 -10 -7 -20 -5 -28 4 -25
-21 3 -33 12 -6 23 -19 25 -31 4 -28 -30 -69 -51 -61 -24 9 -21 34 4 33 30 -1
34 17 7 29 -26 11 -34 45 -18 74 11 21 50 29 50 11z m-270 -19 c0 -5 -4 -11
-9 -13 -12 -4 -17 -205 -6 -230 5 -13 2 -18 -9 -18 -14 0 -16 17 -16 128 0 71
3 132 7 135 10 10 33 8 33 -2z m42 -13 c1 -26 1 -38 -7 -92 -3 -23 0 -45 6
-53 9 -10 9 -17 1 -25 -7 -7 -14 -10 -16 -7 -4 4 -9 122 -7 172 1 32 20 37 23
5z m140 -69 l-9 -74 -2 85 c-1 59 2 81 10 73 7 -7 7 -34 1 -84z m-337 -51 c-4
-57 -9 -105 -11 -107 -2 -2 -4 44 -4 102 0 70 4 107 11 107 7 0 8 -31 4 -102z
m465 30 c0 -18 -2 -20 -9 -8 -6 8 -7 18 -5 22 9 14 14 9 14 -14z m-709 -70
c-6 -43 -7 -97 -2 -133 10 -67 7 -81 -9 -41 -14 37 -13 156 2 211 17 64 21 49
9 -37z m199 -40 c0 -66 -4 -108 -10 -108 -5 0 -10 16 -10 36 0 32 -2 35 -15
24 -25 -21 -40 4 -39 63 0 66 16 95 49 93 l25 -1 0 -107z m-103 67 c3 -9 2
-19 -2 -23 -4 -4 -10 -1 -12 6 -6 17 -20 15 -27 -3 -4 -10 3 -20 19 -27 19 -8
25 -19 25 -43 0 -37 -15 -55 -47 -55 -16 0 -23 6 -23 20 0 22 16 27 22 8 5
-15 28 -1 28 17 0 7 -9 16 -19 20 -26 8 -34 37 -20 69 13 29 46 35 56 11z
m-141 -50 c-3 -13 -13 -58 -21 -99 -15 -83 -31 -120 -46 -110 -6 4 -4 15 5 29
14 21 14 33 2 102 -7 43 -11 82 -8 87 7 13 20 -22 21 -56 1 -46 18 -31 25 22
4 28 12 50 17 50 7 0 9 -10 5 -25z m-100 -34 c-11 -12 -16 -37 -16 -74 0 -31
-4 -57 -10 -57 -6 0 -10 34 -10 81 0 66 3 80 14 76 8 -3 18 2 22 11 6 16 7 15
11 -1 3 -10 -2 -26 -11 -36z m434 8 c0 -17 -4 -28 -10 -24 -5 3 -10 17 -10 31
0 13 5 24 10 24 6 0 10 -14 10 -31z m-502 -1 c7 -7 12 -27 12 -45 0 -29 -3
-33 -25 -33 -28 0 -44 -25 -27 -42 9 -9 17 -7 32 7 11 10 20 14 20 9 0 -18
-31 -54 -46 -54 -34 0 -42 102 -11 150 14 23 28 25 45 8z m-88 -93 c0 -63 -3
-85 -12 -84 -7 1 -21 -1 -32 -6 -12 -5 -21 -3 -27 6 -12 19 -11 136 1 144 11
7 13 -7 10 -71 -1 -43 16 -67 31 -43 5 8 9 35 9 61 0 43 7 78 16 78 2 0 4 -38
4 -85z m-100 -60 c0 -70 -4 -115 -10 -115 -5 0 -10 16 -10 35 0 33 -1 34 -20
23 -28 -17 -40 2 -40 64 0 61 18 101 42 95 10 -3 21 -1 24 4 12 20 14 4 14
-106z m-262 23 c9 -60 2 -143 -17 -192 -17 -43 -24 -25 -10 28 6 26 10 87 7
141 -4 103 6 114 20 23z m-60 12 c-5 -25 -8 -89 -5 -144 6 -105 -6 -118 -21
-23 -9 57 -1 142 18 193 16 40 20 25 8 -26z m222 -33 c0 -12 -63 -87 -74 -87
-14 0 -4 23 19 44 14 13 25 28 25 33 0 5 -11 15 -25 21 -14 6 -25 19 -25 27 0
13 6 12 40 -5 22 -11 40 -26 40 -33z m-280 -16 c5 -11 10 -31 10 -44 0 -19 -6
-26 -30 -30 -21 -5 -30 -12 -30 -27 0 -22 26 -28 33 -7 2 6 8 8 13 4 11 -11
-9 -41 -31 -45 -27 -6 -37 12 -37 67 0 79 45 131 72 82z m180 -6 c0 -16 -27
-32 -37 -22 -3 4 -3 13 0 22 8 20 37 20 37 0z m-270 -49 c-8 -8 -13 -7 -19 3
-16 25 -31 0 -31 -50 0 -54 9 -61 33 -26 16 22 16 22 16 1 1 -26 -33 -58 -52
-51 -34 13 -26 138 10 165 16 11 20 10 36 -9 13 -16 15 -25 7 -33z m-102 -64
c2 -52 -1 -82 -8 -82 -6 0 -10 25 -10 58 0 64 -6 78 -27 61 -8 -7 -13 -33 -13
-70 0 -32 -4 -61 -10 -64 -6 -4 -10 25 -10 80 0 74 2 86 15 81 9 -3 18 1 22
10 3 8 13 14 22 12 13 -3 17 -19 19 -86z m-1918 68 c12 -7 15 -30 15 -99 0
-73 -3 -93 -19 -110 -26 -29 -43 -26 -62 11 -30 59 -3 208 39 208 6 0 19 -5
27 -10z m1723 -38 c7 -9 7 -16 -1 -24 -16 -16 -15 -101 0 -116 10 -10 10 -15
-2 -22 -8 -5 -18 -10 -22 -10 -14 0 -15 178 -2 208 6 15 8 15 12 -3 2 -11 9
-26 15 -33z m3077 22 c0 -8 -4 -12 -10 -9 -5 3 -10 10 -10 16 0 5 5 9 10 9 6
0 10 -7 10 -16z m-2992 -6 c7 -7 12 -42 12 -86 0 -69 -1 -73 -20 -67 -11 4
-20 2 -20 -4 0 -6 -9 -11 -20 -11 -17 0 -20 7 -20 40 0 31 5 43 25 56 14 9 25
23 25 30 0 19 -16 18 -24 -2 -8 -21 -27 -8 -19 14 15 41 38 53 61 30z m2930
-19 c-2 -6 -18 -17 -35 -24 -27 -11 -32 -11 -37 1 -4 9 3 18 17 24 31 12 59
12 55 -1z m-4668 -20 c0 -5 -4 -9 -10 -9 -5 0 -10 7 -10 16 0 8 5 12 10 9 6
-3 10 -10 10 -16z m1380 -104 c0 -98 -2 -115 -16 -115 -13 0 -15 14 -14 88 2
102 8 142 21 142 5 0 9 -52 9 -115z m210 79 c0 -10 -7 -13 -25 -8 -18 4 -25 2
-25 -9 0 -8 11 -18 25 -21 43 -11 31 -93 -17 -109 -21 -7 -42 17 -34 39 5 13
9 14 22 4 10 -9 18 -10 26 -2 11 11 2 35 -12 27 -17 -10 -42 27 -35 54 8 36
43 65 61 50 8 -6 14 -18 14 -25z m2967 19 c2 -6 -3 -13 -12 -16 -10 -5 -15 0
-15 14 0 21 21 22 27 2z m-3227 -87 c-14 -14 -13 -99 2 -114 9 -9 9 -15 0 -24
-22 -22 -31 5 -34 97 -3 104 7 135 29 85 9 -23 10 -37 3 -44z m158 -14 c2 -52
-1 -82 -8 -82 -6 0 -10 25 -10 58 0 64 -6 78 -27 61 -8 -7 -13 -33 -13 -70 0
-52 -12 -81 -27 -66 -3 3 -2 41 2 85 6 73 9 80 33 89 15 6 32 10 37 9 6 -2 11
-39 13 -84z m3002 80 c0 -4 -6 -14 -12 -21 -11 -10 -10 -14 5 -22 20 -12 21
-26 5 -62 -14 -28 -23 -33 -33 -18 -3 6 2 14 12 20 17 9 17 10 0 28 -18 20
-21 41 -11 67 6 16 34 23 34 8z m-4710 -52 c0 -13 -34 -30 -59 -30 -20 0 -28
19 -14 33 10 11 73 8 73 -3z m-284 -90 c-1 -50 -5 -90 -9 -90 -4 0 -12 0 -18
0 -7 0 -9 15 -6 43 3 23 2 50 -2 61 -12 31 -1 76 19 76 16 0 18 -9 16 -90z
m1770 66 c22 -35 15 -69 -16 -76 -16 -4 -26 -14 -28 -28 -4 -27 5 -28 31 -5
18 17 19 17 16 -6 -2 -13 -14 -30 -25 -38 -19 -12 -24 -12 -39 3 -34 34 -5
174 36 174 5 0 16 -11 25 -24z m2928 -46 c-8 -73 7 -85 35 -27 23 47 26 67 11
67 -5 0 -7 7 -4 15 10 24 44 19 45 -7 0 -13 2 -42 4 -64 3 -36 0 -43 -21 -53
-14 -6 -33 -11 -44 -11 -10 0 -22 -5 -26 -11 -5 -8 -9 -8 -14 1 -6 9 -13 7
-29 -9 -30 -30 -67 -25 -63 9 1 14 11 37 22 52 24 33 25 38 4 38 -9 0 -14 6
-11 13 2 6 18 11 35 11 24 -2 32 3 36 23 12 47 27 12 20 -47z m-130 28 c29
-70 -13 -188 -66 -188 -16 0 -18 10 -18 90 0 77 3 93 20 110 29 29 49 25 64
-12z m290 16 c18 -18 19 -21 7 -28 -5 -3 -16 5 -25 19 -18 28 -6 34 18 9z
m-4358 -31 c-6 -14 -9 -15 -16 -4 -11 19 -1 46 13 32 5 -5 7 -18 3 -28z m-386
-28 c0 -42 -3 -55 -15 -55 -11 0 -15 12 -15 48 0 27 3 52 7 55 16 17 23 3 23
-48z m1548 -163 c-16 -33 -70 -39 -76 -9 -3 13 1 18 15 16 24 -4 43 8 43 28 0
12 -3 13 -14 4 -25 -21 -46 13 -46 72 0 61 22 101 51 94 11 -3 22 0 26 6 14
22 15 -182 1 -211z m-1744 202 c22 -8 23 -134 2 -134 -10 0 -14 10 -14 30 1
30 -16 59 -27 48 -3 -3 -8 -27 -11 -54 -5 -41 -11 -52 -33 -62 -17 -8 -27 -9
-29 -2 -2 6 -7 8 -11 6 -4 -3 -7 22 -8 55 -2 56 0 61 25 72 15 6 38 19 51 29
26 20 32 21 55 12z m4546 -98 l0 -94 -30 -10 c-36 -13 -43 -5 -50 63 -5 47 -6
49 -18 27 -7 -12 -16 -45 -19 -72 -8 -71 -23 -62 -23 14 0 67 17 101 45 90 19
-8 75 36 75 58 0 10 5 18 10 18 6 0 10 -38 10 -94z m-4185 75 c7 -12 -34 -41
-57 -41 -24 0 -24 37 0 43 30 8 51 7 57 -2z m1271 -38 c-11 -11 -19 6 -11 24
8 17 8 17 12 0 3 -10 2 -21 -1 -24z m-56 -3 c0 -11 -4 -20 -10 -20 -5 0 -10 9
-10 20 0 11 5 20 10 20 6 0 10 -9 10 -20z m-55 -13 c10 -39 1 -140 -12 -145
-10 -3 -13 14 -13 63 0 49 -3 66 -12 63 -8 -3 -14 -25 -16 -54 -6 -121 -32
-130 -32 -11 0 75 2 83 23 93 37 19 56 16 62 -9z m2773 1 c13 -13 16 -48 4
-48 -4 0 -14 6 -21 13 -21 21 -42 -20 -39 -78 2 -37 7 -51 20 -53 9 -2 19 5
23 17 3 12 12 21 19 21 12 0 42 30 60 59 7 10 3 11 -14 6 -17 -6 -21 -3 -18
10 1 10 11 23 21 29 27 17 47 -17 47 -80 0 -49 -2 -54 -32 -69 -31 -15 -34
-15 -46 2 -11 16 -14 16 -22 3 -5 -8 -10 -18 -10 -22 0 -16 -41 -30 -55 -18
-23 19 -28 96 -10 150 20 61 48 83 73 58z m-2888 -27 c19 -37 12 -66 -20 -78
-16 -6 -30 -18 -30 -27 0 -18 15 -21 25 -6 10 17 25 11 25 -10 0 -20 -27 -40
-55 -40 -9 0 -18 12 -21 30 -10 46 -24 25 -24 -34 0 -39 -5 -58 -20 -74 -21
-23 -59 -30 -61 -12 -5 30 -2 35 20 35 13 0 26 6 28 13 3 7 -4 12 -14 12 -31
0 -43 21 -43 75 0 68 17 99 57 103 26 3 33 -1 41 -25 8 -22 11 -24 11 -8 2 53
59 85 81 46z m2696 -85 c-3 -28 -6 -72 -6 -97 0 -40 -3 -47 -27 -58 -23 -11
-29 -10 -40 5 -7 10 -13 24 -13 31 0 15 -5 15 -37 7 -14 -4 -23 -14 -23 -25 0
-22 11 -24 28 -7 16 16 21 7 11 -20 -6 -17 -15 -22 -31 -20 -53 8 -40 158 15
158 10 0 21 -10 26 -22 8 -21 9 -20 26 15 9 20 23 37 30 37 8 0 16 14 20 30
11 50 28 23 21 -34z m-2912 28 c3 -9 6 -44 6 -79 0 -63 0 -64 -34 -80 -43 -21
-56 -14 -56 31 0 26 8 42 31 63 18 17 27 31 21 35 -6 4 -15 -2 -21 -11 -9 -17
-10 -17 -16 -1 -10 25 12 58 39 58 13 0 27 -7 30 -16z m446 -3 c0 -11 -4 -23
-10 -26 -6 -4 -10 5 -10 19 0 14 5 26 10 26 6 0 10 -9 10 -19z m-60 -21 c0
-11 -4 -20 -10 -20 -5 0 -10 9 -10 20 0 11 5 20 10 20 6 0 10 -9 10 -20z
m-712 -102 c-2 -69 -7 -112 -13 -111 -5 1 -12 15 -14 30 -4 27 -5 26 -16 -11
-14 -48 -32 -57 -41 -22 -7 29 -24 25 -24 -5 0 -10 -7 -19 -15 -19 -10 0 -15
10 -15 30 0 35 -1 35 -40 15 -34 -17 -41 -40 -10 -32 28 7 35 -10 14 -34 -21
-23 -37 -24 -54 -4 -17 21 -23 19 -42 -16 -14 -24 -23 -30 -45 -27 -33 4 -41
43 -9 43 28 0 30 19 4 30 -28 12 -34 37 -18 75 19 46 70 53 70 9 0 -12 -7 -19
-20 -19 -27 0 -25 -13 5 -26 27 -13 35 -9 35 19 0 23 29 75 47 81 20 8 42 -4
48 -25 12 -38 25 -18 25 40 0 33 5 63 10 66 18 11 39 -15 42 -51 4 -48 22 -43
28 8 6 50 16 68 36 68 12 0 14 -19 12 -112z m224 57 c5 -28 6 -65 3 -83 -9
-53 -30 -33 -33 32 -4 78 -25 69 -32 -12 -7 -89 -24 -82 -28 10 -3 75 -2 77
25 92 44 24 57 17 65 -39z m3083 19 c-26 -34 -26 -36 -9 -49 11 -8 22 -15 27
-15 4 0 7 -5 7 -11 0 -13 -47 -4 -67 13 -19 15 -16 23 18 63 40 46 59 45 24
-1z m-3207 -6 c7 -7 12 -40 12 -80 0 -67 0 -67 -34 -83 -43 -21 -56 -14 -56
31 0 24 8 43 25 60 14 14 25 30 25 37 0 7 -6 4 -14 -5 -18 -24 -26 -22 -26 5
0 27 17 47 40 47 9 0 21 -5 28 -12z m2962 -32 c0 -7 -7 -19 -15 -26 -8 -7 -15
-34 -17 -66 -2 -30 -7 -54 -13 -54 -5 0 -10 5 -9 10 1 6 2 39 3 74 1 52 4 65
19 69 29 8 32 7 32 -7z m-214 -20 c4 -17 11 -22 24 -19 23 6 33 -25 26 -82 -2
-22 -5 -48 -5 -58 -1 -10 -5 -16 -10 -12 -6 3 -7 27 -4 54 4 33 2 51 -7 56
-19 12 -30 -14 -30 -72 0 -28 -4 -55 -10 -58 -6 -4 -10 33 -10 104 0 66 4 111
10 111 5 0 12 -11 16 -24z m132 2 c7 -7 12 -39 12 -75 0 -59 -2 -64 -26 -73
-43 -17 -54 -13 -54 20 0 20 9 40 25 56 26 26 32 44 15 44 -5 0 -10 -4 -10
-10 0 -5 -4 -10 -10 -10 -15 0 -12 27 6 44 19 19 26 20 42 4z m-1718 -16 c0
-4 -5 -13 -11 -19 -12 -12 -15 -182 -4 -232 5 -26 4 -32 -6 -29 -12 4 -28 81
-29 133 0 29 17 132 23 143 9 13 27 16 27 4z m-137 -73 c13 -49 3 -188 -16
-229 l-17 -35 8 45 c9 60 9 198 -1 233 -6 21 -5 28 5 25 6 -2 16 -20 21 -39z
m1675 18 c3 -14 -1 -18 -19 -15 -30 4 -35 -15 -7 -27 29 -12 35 -49 14 -81
-20 -29 -42 -31 -55 -5 -12 22 -3 35 15 20 14 -11 34 -4 34 12 0 5 -11 14 -25
19 -27 10 -34 45 -14 81 13 25 52 22 57 -4z m-267 -49 c1 -49 2 -51 12 -26 6
15 17 30 25 33 10 4 12 0 7 -12 -15 -39 -17 -74 -6 -104 7 -22 8 -36 1 -43 -6
-6 -11 -4 -15 7 -16 50 -18 52 -24 18 -10 -56 -31 -51 -27 6 2 26 4 76 5 111
1 75 21 84 22 10z m-3071 27 c7 -9 15 -13 18 -11 11 12 41 -16 47 -44 11 -52
32 -33 26 24 -2 26 17 46 45 46 29 0 36 -24 32 -100 -3 -49 -6 -56 -32 -69
-24 -11 -33 -11 -49 -1 -17 10 -23 8 -41 -15 -16 -20 -29 -26 -51 -23 l-30 3
-3 80 c-4 115 7 147 38 110z m3200 -21 c16 -41 12 -54 -20 -65 -28 -10 -38
-28 -23 -42 3 -4 15 0 25 10 15 13 18 14 18 1 0 -24 -25 -50 -46 -46 -16 3
-20 13 -22 62 -5 87 44 145 68 80z m-1656 -20 c4 -14 3 -31 -2 -37 -13 -18
-15 -94 -3 -102 18 -11 12 -35 -9 -35 -18 0 -20 7 -22 68 -1 37 -1 78 0 91 3
56 24 65 36 15z m64 -25 c-7 -5 -15 -34 -18 -70 -5 -67 -30 -98 -30 -37 0 84
12 134 34 144 17 7 22 5 24 -10 2 -10 -2 -22 -10 -27z m-238 -84 c0 -98 -2
-115 -16 -115 -13 0 -15 10 -10 63 2 34 5 86 5 115 1 28 6 52 11 52 6 0 10
-45 10 -115z m-1543 85 c3 -11 7 -20 10 -20 3 0 16 9 30 20 55 43 85 9 75 -88
-4 -46 -8 -55 -34 -68 -16 -9 -36 -13 -44 -10 -8 3 -24 0 -34 -6 -16 -10 -23
-10 -37 4 -16 16 -17 16 -28 -5 -6 -12 -23 -28 -39 -35 -24 -12 -30 -12 -45 2
-24 22 -35 20 -50 -8 -18 -32 -56 -49 -82 -36 -17 9 -19 22 -19 106 0 87 2 97
25 119 33 34 72 33 88 -2 6 -16 16 -31 21 -34 5 -4 6 -17 3 -29 -6 -24 1 -50
13 -50 14 0 21 51 9 66 -18 22 17 46 59 40 25 -4 32 -1 32 13 0 18 18 41 33
41 5 0 11 -9 14 -20z m3193 -64 c0 -70 0 -71 -31 -85 -26 -12 -32 -12 -40 0
-13 21 0 61 27 86 25 23 31 43 14 43 -6 0 -13 -7 -16 -15 -4 -8 -10 -15 -15
-15 -16 0 -10 29 11 50 35 35 50 16 50 -64z m-1700 -35 c0 -61 -4 -112 -9
-115 -5 -4 -11 -2 -13 4 -7 22 4 220 13 220 5 0 9 -48 9 -109z m154 83 c3 -9
6 -39 6 -68 0 -57 -21 -98 -48 -94 -13 2 -18 -6 -20 -39 -2 -24 -7 -43 -13
-43 -5 0 -9 49 -9 114 l0 115 28 14 c36 20 49 20 56 1z m1296 -60 c-10 -62 -8
-119 7 -181 3 -13 1 -23 -5 -23 -17 0 -35 99 -29 159 6 57 26 126 34 118 2 -3
-1 -35 -7 -73z m149 52 c16 -19 10 -138 -6 -144 -10 -3 -11 10 -7 51 4 33 2
57 -4 61 -16 10 -23 -10 -29 -75 -7 -77 -23 -76 -23 1 0 33 -4 60 -10 60 -5 0
-11 -10 -11 -22 -1 -13 -2 -27 -4 -33 -1 -5 -3 -27 -3 -47 -1 -21 -7 -38 -12
-38 -7 0 -10 30 -8 83 2 46 7 82 13 82 6 0 16 4 23 9 7 4 20 5 28 2 8 -3 17 1
20 9 8 19 18 19 33 1z m-1649 -104 c0 -31 -3 -66 -6 -77 -6 -23 -57 -50 -74
-40 -15 10 -13 168 3 163 7 -3 13 -28 15 -66 4 -90 32 -79 32 13 0 24 3 50 6
59 12 31 24 4 24 -52z m1460 -3 c0 -21 -7 -29 -30 -38 -16 -5 -30 -16 -30 -24
0 -24 13 -28 32 -10 16 14 18 14 18 0 0 -17 -26 -47 -40 -47 -17 0 -30 38 -30
85 0 36 6 51 26 72 26 26 27 26 40 8 8 -10 14 -31 14 -46z m-104 -11 c-10 -14
-16 -43 -16 -75 0 -36 -4 -53 -12 -53 -10 0 -12 21 -10 81 3 62 7 79 17 75 7
-2 17 3 21 12 7 16 7 16 11 0 3 -10 -3 -28 -11 -40z m-1471 -37 c0 -51 -4 -76
-12 -78 -10 -4 -13 12 -13 56 0 34 -4 61 -9 61 -15 0 -19 -12 -22 -65 -3 -58
-8 -75 -20 -75 -6 0 -9 36 -7 83 2 54 7 82 15 82 6 0 15 4 19 8 5 4 17 7 29 5
18 -3 20 -10 20 -77z m1304 57 c-1 -7 1 -21 6 -31 4 -11 3 -23 -4 -30 -15 -15
-14 -90 1 -105 9 -9 9 -15 0 -24 -8 -8 -15 -9 -22 -2 -11 11 -16 177 -5 193 9
15 26 14 24 -1z m95 -14 c24 -23 21 -105 -5 -138 -24 -31 -44 -33 -59 -7 -21
40 -6 123 27 149 21 15 18 15 37 -4z m-1831 -36 c5 -15 -2 -232 -9 -265 -2
-13 -12 -23 -20 -23 -11 0 -14 6 -10 16 3 8 9 62 12 119 5 77 3 109 -6 120 -7
8 -10 22 -6 30 7 18 33 20 39 3z m1675 -26 c2 -12 -1 -22 -7 -22 -6 0 -11 5
-11 11 0 8 -5 8 -15 -1 -18 -15 -11 -30 15 -30 25 0 35 -35 20 -70 -19 -46
-70 -53 -70 -9 0 20 15 26 25 9 8 -13 25 -3 25 15 0 7 -11 16 -25 19 -19 5
-25 13 -25 34 0 58 61 98 68 44z m-1738 3 c0 -8 -4 -15 -10 -15 -5 0 -10 7
-10 15 0 8 5 15 10 15 6 0 10 -7 10 -15z m340 6 c0 -14 -25 -31 -58 -37 -26
-5 -32 -3 -32 10 0 18 31 34 68 35 12 1 22 -3 22 -8z m-396 -23 c-5 -13 -9
-79 -10 -148 -2 -153 -2 -146 -15 -133 -11 11 -14 259 -3 288 4 8 13 15 21 15
12 0 13 -5 7 -22z m1506 -19 c0 -28 2 -30 16 -18 14 11 18 10 30 -6 16 -21 17
-41 8 -109 -10 -67 -24 -56 -24 19 0 53 -3 63 -15 59 -11 -5 -15 -22 -15 -69
0 -56 -11 -87 -26 -72 -9 8 8 227 17 227 5 0 9 -14 9 -31z m-1224 10 c9 -16
-6 -27 -49 -35 -34 -6 -39 -4 -35 12 5 26 71 44 84 23z m1380 -47 c6 -30 4
-32 -25 -38 -24 -5 -31 -12 -31 -30 0 -28 7 -30 32 -7 16 14 18 14 18 0 0 -22
-29 -49 -48 -45 -39 8 -39 121 0 160 17 17 22 18 34 6 7 -7 16 -28 20 -46z
m-1606 -63 c0 -60 -3 -80 -12 -77 -14 5 -23 106 -13 145 11 47 25 10 25 -68z
m330 63 c0 -12 -12 -22 -34 -29 -19 -6 -37 -8 -40 -5 -14 13 -4 31 22 40 41
15 52 14 52 -6z m-612 -30 c4 -27 22 -19 22 9 0 21 25 26 32 7 3 -7 4 -53 3
-103 -2 -70 -5 -90 -16 -90 -10 0 -15 17 -17 60 -5 88 -18 88 -27 0 -4 -51
-11 -75 -18 -72 -10 3 -13 90 -7 210 0 18 25 -1 28 -21z m150 16 c21 -21 14
-38 -15 -38 l-27 0 33 -28 c28 -23 33 -33 28 -54 -15 -57 -78 -79 -85 -30 -3
20 0 22 22 16 20 -5 26 -2 26 10 0 9 -6 16 -14 16 -16 0 -31 17 -40 46 -4 14
1 29 18 47 28 30 37 32 54 15z m359 -15 c5 -13 -18 -27 -59 -37 -23 -5 -28 -3
-28 12 0 13 11 23 33 29 37 12 49 11 54 -4z m973 -4 c7 -11 9 -28 5 -37 -6
-16 -8 -15 -20 2 -20 27 -42 13 -55 -33 -21 -78 18 -141 48 -78 7 15 17 27 23
27 12 0 12 -3 -7 -50 -19 -48 -58 -65 -81 -35 -28 40 -8 193 30 217 22 14 46
8 57 -13z m198 -6 c4 -24 -12 -31 -24 -12 -9 16 -22 -1 -28 -41 -6 -33 10 -77
20 -55 21 48 44 44 24 -5 -14 -33 -53 -42 -64 -14 -11 29 -6 95 10 125 18 37
57 38 62 2z m-100 -85 c3 -70 1 -78 -16 -78 -10 0 -23 -5 -29 -11 -18 -18 -33
-1 -33 36 0 26 7 39 32 59 26 20 30 28 21 37 -10 10 -14 9 -19 -4 -8 -22 -24
-22 -24 1 0 25 21 43 45 40 18 -3 20 -12 23 -80z m352 53 c0 -11 -4 -22 -9
-25 -11 -7 -20 14 -13 32 7 19 22 14 22 -7z m-1990 -90 c0 -67 -1 -69 -32 -85
-32 -15 -34 -15 -51 6 -23 27 -21 133 3 133 11 0 16 -14 18 -53 4 -68 26 -65
30 4 3 40 13 63 30 64 1 0 2 -31 2 -69z m1310 50 c0 -11 5 -23 10 -26 8 -5 7
-11 -1 -21 -8 -9 -10 -37 -6 -80 4 -57 3 -65 -12 -62 -13 3 -16 16 -17 63 0
33 -2 65 -4 70 -5 16 12 75 21 75 5 0 9 -9 9 -19z m-1441 0 c17 -11 7 -41 -14
-41 -22 0 -19 -9 10 -32 30 -24 32 -47 4 -82 -23 -29 -50 -34 -68 -12 -12 14
0 30 24 31 20 0 16 17 -9 36 -25 20 -25 20 -36 -1 -6 -11 -22 -23 -35 -26 -15
-4 -25 -13 -25 -25 0 -12 5 -16 14 -13 20 8 30 -14 16 -31 -32 -38 -70 -5 -70
60 0 24 -4 35 -12 33 -15 -5 -26 -40 -27 -86 -2 -58 -26 -32 -29 31 -4 69 9
97 46 97 15 0 36 7 46 15 28 21 52 19 70 -7 15 -21 16 -21 22 -2 21 56 44 73
73 55z m1535 -7 c24 -23 21 -154 -3 -154 -9 0 -23 -6 -30 -12 -10 -11 -15 -9
-27 7 -19 26 -10 65 22 88 13 10 24 25 24 33 0 19 -16 18 -24 -1 -7 -18 -26
-20 -26 -2 0 12 35 57 45 57 2 0 11 -7 19 -16z m-254 -33 c14 -28 12 -126 -3
-164 -17 -39 -34 -54 -67 -59 -23 -3 -25 0 -28 42 -1 25 1 76 5 115 7 62 10
70 33 76 41 11 49 10 60 -10z m100 -20 c5 -11 10 -48 10 -83 l0 -63 -37 -12
c-29 -9 -40 -9 -46 0 -13 20 2 71 28 92 25 20 33 45 16 45 -5 0 -11 -7 -15
-15 -3 -8 -10 -15 -16 -15 -17 0 -11 29 10 50 25 25 37 25 50 1z m-221 -93
c-2 -115 -4 -121 -40 -137 -39 -17 -50 -7 -56 52 -6 54 20 117 48 117 14 0 19
7 19 28 0 16 3 32 6 35 18 17 25 -13 23 -95z m-1453 -23 c0 -102 -1 -112 -14
-94 -18 26 -21 155 -4 187 7 12 14 22 16 22 1 0 2 -52 2 -115z m-109 38 c-4
-38 -7 -83 -7 -100 0 -22 -5 -33 -14 -33 -11 0 -16 14 -18 48 -4 63 -22 60
-26 -5 -2 -38 -7 -53 -18 -53 -10 0 -14 13 -14 53 0 44 4 58 24 76 14 13 30
36 36 52 7 16 19 29 28 29 12 0 14 -11 9 -67z m1463 -22 c0 -10 -7 -21 -15
-25 -11 -4 -15 -20 -15 -55 0 -54 -7 -81 -21 -81 -5 0 -9 35 -9 78 0 70 2 78
23 88 32 17 37 16 37 -5z m-92 -28 c14 -29 6 -148 -10 -148 -7 0 -19 -4 -26
-9 -23 -14 -42 2 -42 34 0 22 9 40 32 60 17 16 29 33 25 36 -4 4 -16 -1 -27
-11 -19 -18 -20 -17 -20 4 0 44 50 69 68 34z m-100 -48 c3 -26 2 -28 -13 -15
-15 12 -19 12 -31 -5 -17 -23 -18 -71 -2 -81 6 -4 16 0 23 9 16 22 25 21 25
-1 0 -25 -34 -55 -57 -50 -14 2 -19 14 -21 52 -4 60 3 89 24 111 24 24 48 15
52 -20z m-313 -141 c-3 -75 -8 -141 -11 -145 -3 -5 -12 -9 -21 -9 -11 0 -13 5
-7 18 14 28 17 221 4 237 -15 18 -5 35 21 35 19 0 20 -5 14 -136z m-69 89
c-11 -11 -19 6 -11 24 8 17 8 17 12 0 3 -10 2 -21 -1 -24z m-52 -5 c-5 -13 -9
-80 -9 -151 1 -169 -19 -166 -23 4 -3 139 1 169 24 169 13 0 14 -5 8 -22z
m281 -7 c0 -13 -70 -42 -80 -33 -12 12 -3 24 28 37 36 16 52 14 52 -4z m-225
-101 c0 -64 -3 -80 -15 -80 -17 0 -19 24 -9 108 10 79 24 62 24 -28z m-280 30
c0 -26 16 -26 23 1 3 12 12 19 19 17 10 -4 13 -30 13 -102 0 -54 -3 -100 -7
-102 -14 -9 -28 35 -28 85 0 77 -20 74 -21 -3 -2 -88 -2 -89 -16 -93 -10 -4
-13 22 -13 106 0 92 3 111 15 111 8 0 15 -9 15 -20z m158 -9 c3 -19 0 -22 -17
-16 -31 9 -27 -19 4 -33 48 -22 19 -106 -33 -100 -33 4 -37 33 -5 33 28 0 31
16 6 30 -39 22 -45 63 -12 96 25 25 53 21 57 -10z m352 10 c0 -14 -23 -28 -57
-36 -27 -5 -33 -3 -33 10 0 17 32 33 68 34 12 1 22 -3 22 -8z m-570 -141 c0
-67 -1 -69 -32 -85 -31 -15 -34 -15 -46 2 -15 21 -13 148 3 148 6 0 12 -24 15
-54 8 -92 40 -71 40 27 0 26 4 41 10 37 6 -3 10 -37 10 -75z m-122 32 c2 -7
-5 -16 -17 -19 -28 -7 -27 -17 4 -37 30 -20 31 -39 4 -77 -21 -30 -54 -39 -62
-16 -7 21 4 35 24 30 12 -4 19 0 19 10 0 8 -9 17 -20 20 -10 3 -22 17 -26 31
-11 46 59 101 74 58z m-109 -26 c21 -25 9 -69 -21 -84 -33 -16 -39 -47 -7 -39
16 4 20 1 17 -16 -2 -15 -11 -23 -30 -25 -30 -4 -40 15 -47 101 -1 4 -5 7 -10
7 -12 0 -31 -56 -31 -91 0 -16 -4 -29 -10 -29 -6 0 -10 28 -10 64 0 69 12 89
54 91 13 0 31 8 40 18 21 21 40 22 55 3z m-145 -1041 c6 -18 -30 -59 -44 -50
-14 9 -12 33 3 50 16 19 33 19 41 0z m-119 -52 c-9 -36 -27 -47 -42 -26 -11
14 -10 20 5 34 27 28 45 24 37 -8z m-248 -475 c-3 -8 -6 -5 -6 6 -1 11 2 17 5
13 3 -3 4 -12 1 -19z m1163 -73 c0 -8 -4 -15 -10 -15 -5 0 -10 7 -10 15 0 8 5
15 10 15 6 0 10 -7 10 -15z"/>
<path d="M6399 10526 c-14 -30 -4 -76 16 -76 11 0 15 12 15 44 0 52 -15 68
-31 32z"/>
<path d="M5866 10504 c-9 -24 -7 -77 4 -94 7 -11 10 3 10 48 0 63 -3 74 -14
46z"/>
<path d="M5920 10500 c0 -5 5 -10 10 -10 6 0 10 5 10 10 0 6 -4 10 -10 10 -5
0 -10 -4 -10 -10z"/>
<path d="M5623 10483 c-13 -2 -23 -11 -23 -19 0 -19 10 -17 40 6 25 20 24 21
-17 13z"/>
<path d="M5705 10450 c-9 -28 -4 -32 41 -36 21 -2 33 0 28 4 -5 4 -21 18 -36
31 l-26 23 -7 -22z"/>
<path d="M5645 10421 c-3 -5 -1 -12 5 -16 5 -3 10 1 10 9 0 18 -6 21 -15 7z"/>
<path d="M7047 10583 c-13 -12 -7 -23 13 -23 11 0 20 7 20 15 0 15 -21 21 -33
8z"/>
<path d="M5170 10423 c0 -41 14 -36 25 10 6 21 4 27 -9 27 -12 0 -16 -10 -16
-37z"/>
<path d="M5100 10435 c0 -8 5 -15 10 -15 6 0 10 7 10 15 0 8 -4 15 -10 15 -5
0 -10 -7 -10 -15z"/>
<path d="M5240 10411 c-11 -21 -6 -41 9 -41 13 0 22 43 12 53 -5 5 -14 0 -21
-12z"/>
<path d="M5317 10404 c-4 -4 -4 -10 -2 -14 6 -10 55 0 55 11 0 10 -43 12 -53
3z"/>
<path d="M4990 10385 c-7 -9 -11 -18 -8 -20 9 -10 38 7 38 21 0 18 -14 18 -30
-1z"/>
<path d="M4650 10371 c0 -12 5 -21 10 -21 6 0 10 6 10 14 0 8 -4 18 -10 21 -5
3 -10 -3 -10 -14z"/>
<path d="M4950 10369 c0 -5 5 -7 10 -4 6 3 10 8 10 11 0 2 -4 4 -10 4 -5 0
-10 -5 -10 -11z"/>
<path d="M6223 10455 c-8 -22 6 -33 17 -15 13 20 12 30 0 30 -6 0 -13 -7 -17
-15z"/>
<path d="M5587 10053 c-4 -3 -7 -35 -7 -70 0 -47 3 -64 13 -61 7 3 13 29 15
71 3 61 -3 78 -21 60z"/>
<path d="M5200 9932 c0 -45 0 -45 24 -36 12 5 13 11 4 32 -20 46 -28 47 -28 4z"/>
<path d="M4977 9953 c-11 -10 -8 -71 3 -78 6 -4 10 12 10 39 0 47 -2 51 -13
39z"/>
<path d="M5134 9944 c3 -9 6 -19 6 -22 0 -9 20 21 20 31 0 4 -7 7 -16 7 -11 0
-14 -5 -10 -16z"/>
<path d="M4868 9902 c-13 -28 -15 -38 -5 -44 15 -10 37 18 37 48 0 36 -14 34
-32 -4z"/>
<path d="M5038 9917 c-6 -16 1 -37 13 -37 12 0 12 37 0 44 -5 3 -11 0 -13 -7z"/>
<path d="M4825 9870 c-3 -5 -1 -10 4 -10 6 0 11 5 11 10 0 6 -2 10 -4 10 -3 0
-8 -4 -11 -10z"/>
<path d="M4275 9887 c-4 -10 -5 -21 -1 -24 10 -10 18 4 13 24 -4 17 -4 17 -12
0z"/>
<path d="M4340 9836 c0 -9 5 -16 10 -16 6 0 10 4 10 9 0 6 -4 13 -10 16 -5 3
-10 -1 -10 -9z"/>
<path d="M6662 9158 c-13 -13 -16 -56 -6 -82 11 -28 34 2 34 45 0 41 -10 55
-28 37z"/>
<path d="M7136 9205 c-4 -10 1 -15 14 -15 11 0 20 7 20 15 0 8 -6 15 -14 15
-8 0 -16 -7 -20 -15z"/>
<path d="M6494 9126 c-9 -36 -1 -71 16 -71 11 0 16 13 18 48 2 37 0 47 -12 47
-9 0 -18 -11 -22 -24z"/>
<path d="M6323 9055 c-3 -9 -3 -18 0 -21 9 -9 27 6 27 22 0 19 -19 18 -27 -1z"/>
<path d="M6026 9091 c-4 -7 -5 -15 -2 -18 9 -9 19 4 14 18 -4 11 -6 11 -12 0z"/>
<path d="M5755 8997 c-4 -10 -5 -21 -1 -24 10 -10 18 4 13 24 -4 17 -4 17 -12
0z"/>
<path d="M5096 9033 c-9 -10 -7 -113 3 -113 13 0 21 26 21 70 0 37 -10 56 -24
43z"/>
<path d="M8926 8955 c-10 -26 -7 -63 5 -71 16 -10 30 16 27 50 -3 33 -22 45
-32 21z"/>
<path d="M8790 8941 c-15 -29 -9 -76 10 -76 10 0 16 12 18 39 4 47 -11 67 -28
37z"/>
<path d="M4200 8855 c0 -14 5 -25 10 -25 6 0 10 11 10 25 0 14 -4 25 -10 25
-5 0 -10 -11 -10 -25z"/>
<path d="M8637 8873 c-13 -12 -7 -33 8 -33 8 0 15 9 15 20 0 20 -11 26 -23 13z"/>
<path d="M8377 8904 c-13 -13 -7 -24 14 -24 11 0 19 5 17 12 -5 14 -22 21 -31
12z"/>
<path d="M8147 8823 c-4 -3 -7 -15 -7 -25 0 -26 24 -17 28 10 3 21 -8 29 -21
15z"/>
<path d="M7600 8806 c0 -8 7 -16 15 -20 10 -4 15 1 15 14 0 11 -7 20 -15 20
-8 0 -15 -6 -15 -14z"/>
<path d="M7456 8785 c-4 -10 1 -15 14 -15 11 0 20 7 20 15 0 8 -6 15 -14 15
-8 0 -16 -7 -20 -15z"/>
<path d="M6676 8758 c-3 -7 -7 -41 -10 -76 -5 -52 -3 -64 11 -69 25 -10 43 25
43 82 0 47 -12 75 -32 75 -5 0 -10 -6 -12 -12z"/>
<path d="M7165 8689 c-8 -25 -1 -34 20 -26 19 8 20 47 1 47 -8 0 -18 -9 -21
-21z"/>
<path d="M6554 8665 c-8 -33 3 -78 19 -72 13 4 26 63 19 85 -7 21 -31 13 -38
-13z"/>
<path d="M6953 8679 c-16 -16 -17 -49 -3 -49 13 0 23 24 18 45 -2 13 -5 14
-15 4z"/>
<path d="M6795 8650 c-15 -16 -16 -23 -6 -33 14 -14 31 5 31 36 0 22 -3 21
-25 -3z"/>
<path d="M6387 8603 c-4 -3 -7 -15 -7 -26 0 -16 3 -17 15 -7 8 7 15 19 15 26
0 15 -12 19 -23 7z"/>
<path d="M5746 8584 c-9 -24 -7 -82 3 -89 6 -3 14 2 19 12 9 14 12 15 26 4 9
-8 20 -11 24 -7 4 4 -5 17 -21 28 -16 12 -27 29 -27 44 0 27 -15 32 -24 8z"/>
<path d="M5480 8548 c0 -5 7 -8 15 -8 8 0 15 -4 15 -10 0 -5 7 -10 15 -10 8 0
15 8 15 19 0 14 -7 18 -30 17 -16 -1 -30 -4 -30 -8z"/>
<path d="M5415 8497 c-11 -5 -27 -13 -35 -17 -8 -4 -14 -11 -12 -16 3 -10 49
-6 73 7 9 5 20 4 26 -2 6 -6 13 -7 16 -2 3 5 -6 16 -21 25 -20 12 -32 13 -47
5z"/>
<path d="M4777 8433 c-3 -16 -1 -32 4 -37 10 -11 16 -7 19 14 7 50 -14 71 -23
23z"/>
<path d="M4954 8466 c-8 -20 -1 -47 11 -49 6 -1 11 13 13 31 3 32 -14 45 -24
18z"/>
<path d="M5580 8045 c0 -30 5 -55 10 -55 6 0 10 25 10 55 0 30 -4 55 -10 55
-5 0 -10 -25 -10 -55z"/>
<path d="M5460 8029 c0 -52 24 -48 28 4 2 28 -1 37 -12 37 -12 0 -16 -11 -16
-41z"/>
<path d="M4715 7950 c-8 -13 4 -50 16 -50 5 0 9 14 9 30 0 30 -13 40 -25 20z"/>
<path d="M5127 7546 c-16 -42 -1 -106 18 -76 4 6 15 8 26 5 10 -4 19 -2 19 4
0 5 -7 11 -17 13 -9 2 -21 18 -28 37 -9 28 -13 31 -18 17z"/>
<path d="M5050 7534 c-11 -13 -10 -19 8 -37 l22 -21 0 37 c0 40 -10 46 -30 21z"/>
<path d="M4964 7476 c-8 -21 -1 -29 24 -24 18 3 18 4 1 22 -17 17 -19 18 -25
2z"/>
<path d="M6494 5916 c-4 -9 -4 -20 0 -23 3 -4 12 -1 18 5 9 9 9 15 0 24 -9 9
-13 7 -18 -6z"/>
<path d="M5960 5806 c0 -9 7 -16 16 -16 9 0 14 5 12 12 -6 18 -28 21 -28 4z"/>
<path d="M5450 5664 c0 -59 24 -55 28 4 2 33 0 42 -12 42 -12 0 -16 -11 -16
-46z"/>
<path d="M5286 5673 c-3 -3 -6 -24 -6 -45 0 -27 4 -38 15 -38 11 0 15 11 15
39 0 38 -10 57 -24 44z"/>
<path d="M5100 5559 c0 -5 5 -7 10 -4 6 3 10 8 10 11 0 2 -4 4 -10 4 -5 0 -10
-5 -10 -11z"/>
<path d="M4647 5538 c-5 -14 14 -48 27 -48 4 0 6 12 4 27 -3 29 -22 42 -31 21z"/>
<path d="M4787 5513 c-14 -13 -6 -20 23 -21 20 0 30 4 30 14 0 14 -41 20 -53
7z"/>
<path d="M4457 5503 c-10 -9 -9 -23 2 -23 5 0 11 7 15 15 5 15 -5 20 -17 8z"/>
<path d="M4560 5470 c0 -11 5 -20 10 -20 6 0 10 9 10 20 0 11 -4 20 -10 20 -5
0 -10 -9 -10 -20z"/>
<path d="M8737 5093 c-4 -3 -7 -24 -7 -45 0 -44 26 -54 36 -14 10 41 -9 80
-29 59z"/>
<path d="M8566 5053 c-11 -11 -6 -23 9 -23 8 0 15 4 15 9 0 13 -16 22 -24 14z"/>
<path d="M8414 5016 c-8 -22 3 -33 18 -18 9 9 9 15 0 24 -9 9 -13 7 -18 -6z"/>
<path d="M7959 4893 c-12 -32 -4 -76 13 -71 15 5 29 58 22 81 -8 25 -23 21
-35 -10z"/>
<path d="M7812 4818 c-17 -17 -15 -38 3 -38 9 0 15 9 15 25 0 29 -1 30 -18 13z"/>
<path d="M7582 4818 c-18 -18 -14 -28 8 -28 11 0 20 6 20 14 0 21 -15 27 -28
14z"/>
<path d="M7297 4693 c-10 -10 -8 -43 2 -43 9 0 21 24 21 41 0 11 -14 12 -23 2z"/>
<path d="M6896 4711 c-26 -28 -33 -110 -12 -136 16 -20 16 -20 36 4 23 27 28
107 7 135 -12 16 -14 16 -31 -3z"/>
<path d="M6760 4664 c-8 -19 -8 -30 0 -38 16 -16 45 6 45 35 0 35 -32 37 -45
3z"/>
<path d="M5214 4226 c-7 -42 1 -69 19 -63 16 5 16 89 0 94 -7 3 -15 -10 -19
-31z"/>
<path d="M4767 4133 c-11 -10 -8 -71 3 -78 13 -8 30 38 23 64 -5 21 -14 26
-26 14z"/>
<path d="M4487 4064 c-4 -4 -7 -20 -7 -36 0 -35 23 -34 28 1 4 25 -10 46 -21
35z"/>
<path d="M4163 3979 c-8 -8 -8 -20 -1 -40 14 -39 28 -37 28 5 0 38 -11 51 -27
35z"/>
<path d="M8360 3775 c0 -8 5 -15 10 -15 6 0 10 7 10 15 0 8 -4 15 -10 15 -5 0
-10 -7 -10 -15z"/>
<path d="M8347 3683 c-13 -12 -7 -43 7 -43 19 0 28 14 20 34 -7 17 -16 20 -27
9z"/>
<path d="M8517 3774 c-8 -8 1 -24 14 -24 5 0 9 7 9 15 0 15 -12 20 -23 9z"/>
<path d="M7691 3542 c-13 -24 -14 -62 -2 -81 7 -10 12 -8 25 10 20 29 20 49 2
74 -13 18 -14 18 -25 -3z"/>
<path d="M7296 3443 c-12 -12 -6 -33 9 -33 8 0 15 6 15 14 0 17 -14 28 -24 19z"/>
<path d="M7092 3378 c-14 -14 -16 -84 -3 -93 14 -8 31 28 31 64 0 34 -11 46
-28 29z"/>
<path d="M6722 3278 c-16 -16 -15 -28 2 -28 19 0 27 13 17 28 -5 9 -10 9 -19
0z"/>
<path d="M4609 3208 c0 -1 -3 -31 -5 -65 -5 -62 8 -91 27 -62 13 20 6 122 -8
127 -7 2 -13 2 -14 0z"/>
<path d="M6417 3133 c-4 -3 -7 -15 -7 -25 0 -26 24 -17 28 10 3 21 -8 29 -21
15z"/>
<path d="M5944 3056 c-8 -22 3 -33 18 -18 9 9 9 15 0 24 -9 9 -13 7 -18 -6z"/>
<path d="M8888 3010 c-3 -16 -1 -30 4 -30 4 0 8 14 8 30 0 17 -2 30 -4 30 -2
0 -6 -13 -8 -30z"/>
<path d="M8960 3005 c0 -8 5 -15 10 -15 6 0 10 7 10 15 0 8 -4 15 -10 15 -5 0
-10 -7 -10 -15z"/>
<path d="M8830 2964 c0 -8 5 -12 10 -9 6 3 10 10 10 16 0 5 -4 9 -10 9 -5 0
-10 -7 -10 -16z"/>
<path d="M8727 3054 c-4 -4 -7 -34 -7 -66 0 -51 2 -58 20 -58 21 0 34 44 28
96 -3 27 -26 43 -41 28z"/>
<path d="M5837 3034 c-11 -11 -8 -94 3 -94 10 0 30 40 30 59 0 14 -26 42 -33
35z"/>
<path d="M8631 2961 c-12 -22 -14 -54 -4 -64 12 -13 33 15 33 44 0 35 -16 46
-29 20z"/>
<path d="M8475 2861 c-6 -11 9 -23 19 -14 9 9 7 23 -3 23 -6 0 -12 -4 -16 -9z"/>
<path d="M5497 2933 c-12 -11 -8 -23 8 -23 8 0 15 7 15 15 0 16 -12 20 -23 8z"/>
<path d="M5382 2858 c2 -24 8 -43 13 -43 6 0 11 19 13 43 3 33 0 42 -13 42
-13 0 -16 -9 -13 -42z"/>
<path d="M8180 2828 c0 -7 -3 -22 -5 -33 -3 -11 -1 -27 5 -35 9 -13 11 -13 20
0 16 24 12 80 -5 80 -8 0 -15 -6 -15 -12z"/>
<path d="M8096 2813 c-11 -11 -6 -23 9 -23 8 0 15 4 15 9 0 13 -16 22 -24 14z"/>
<path d="M5273 2804 c-3 -8 -1 -20 6 -27 8 -8 11 -4 11 16 0 30 -7 35 -17 11z"/>
<path d="M5055 2737 c-4 -10 -5 -21 -1 -24 10 -10 18 4 13 24 -4 17 -4 17 -12
0z"/>
<path d="M7940 2701 c-6 -12 -6 -22 -1 -26 6 -3 15 3 21 14 6 12 6 22 1 26 -6
3 -15 -3 -21 -14z"/>
<path d="M4455 2609 c-7 -33 5 -56 24 -45 6 4 11 23 11 42 0 44 -26 46 -35 3z"/>
<path d="M7617 2663 c-12 -11 -8 -23 8 -23 8 0 15 7 15 15 0 16 -12 20 -23 8z"/>
<path d="M4296 2605 c-17 -17 -23 -95 -7 -95 4 0 16 21 26 46 19 51 10 77 -19
49z"/>
<path d="M4029 2568 c-11 -111 1 -147 35 -109 12 14 16 32 14 67 -3 42 -6 49
-25 52 -14 2 -24 -2 -24 -10z"/>
<path d="M7437 2553 c-4 -3 -7 -15 -7 -26 0 -16 3 -17 15 -7 8 7 15 19 15 26
0 15 -12 19 -23 7z"/>
<path d="M5892 2588 c-14 -14 -16 -84 -3 -93 14 -8 31 28 31 64 0 34 -11 46
-28 29z"/>
<path d="M7140 2515 c-7 -9 -11 -18 -8 -20 7 -8 38 5 38 15 0 17 -18 19 -30 5z"/>
<path d="M6970 2455 c-14 -36 -13 -60 4 -74 11 -9 16 -5 26 18 14 34 10 73 -7
79 -7 2 -17 -8 -23 -23z"/>
<path d="M6673 2375 c-3 -9 -3 -18 0 -21 9 -9 27 6 27 22 0 19 -19 18 -27 -1z"/>
<path d="M6370 2221 c-13 -26 -13 -31 4 -31 13 0 26 20 26 41 0 16 -19 10 -30
-10z"/>
<path d="M6152 2158 c-15 -15 -16 -38 -2 -38 12 0 23 25 18 40 -2 7 -7 7 -16
-2z"/>
<path d="M5873 2193 c-9 -3 -13 -29 -13 -78 0 -67 2 -73 19 -68 34 9 53 93 31
134 -11 19 -16 21 -37 12z"/>
<path d="M5985 2099 c-8 -23 -1 -34 14 -24 13 8 15 45 2 45 -5 0 -13 -9 -16
-21z"/>
<path d="M5746 2084 c-17 -45 4 -106 25 -73 15 23 11 89 -5 89 -8 0 -17 -7
-20 -16z"/>
<path d="M5570 1971 c-7 -14 -7 -22 1 -27 10 -6 28 11 29 28 0 17 -20 17 -30
-1z"/>
<path d="M6560 10536 c-12 -33 -3 -76 16 -76 21 0 30 69 11 88 -15 14 -17 13
-27 -12z"/>
</g>
</svg>
